<svg width="1177" height="1253" viewBox="0 0 1177 1253" fill="none" xmlns="http://www.w3.org/2000/svg">
<g opacity="0.3">
<g opacity="0.5">
<path d="M639.873 516.771V513.512H621.406V516.771H639.873Z" fill="#47E6B1"/>
<path d="M632.269 505.908H629.01V524.375H632.269V505.908Z" fill="#47E6B1"/>
</g>
<g opacity="0.5">
<path d="M1022.08 358.034V354.775H1003.61V358.034H1022.08Z" fill="#47E6B1"/>
<path d="M1014.48 347.171H1011.22V365.638H1014.48V347.171Z" fill="#47E6B1"/>
</g>
<path opacity="0.5" d="M758.699 368.252C758.699 371.852 761.617 374.77 765.217 374.77C768.817 374.77 771.735 371.852 771.735 368.252C771.735 364.653 768.817 361.734 765.217 361.734C761.617 361.734 758.699 364.653 758.699 368.252Z" fill="#F55F44"/>
<path opacity="0.5" d="M525.695 305.47C524.885 303.611 522.81 302.655 520.871 303.246C520.727 303.293 520.579 303.322 520.428 303.333C519.543 303.392 518.725 302.861 518.419 302.029C518.112 301.197 518.39 300.263 519.101 299.733C519.223 299.644 519.355 299.57 519.494 299.512C521.353 298.702 522.309 296.628 521.718 294.688C521.672 294.545 521.642 294.396 521.631 294.245C521.578 293.364 522.109 292.551 522.938 292.247C523.768 291.943 524.698 292.218 525.228 292.925C525.317 293.046 525.392 293.177 525.45 293.315C526.26 295.174 528.335 296.131 530.274 295.539C530.418 295.493 530.566 295.464 530.717 295.452C531.599 295.398 532.412 295.929 532.717 296.758C533.022 297.587 532.747 298.518 532.04 299.048C531.918 299.137 531.786 299.212 531.647 299.27C529.788 300.08 528.832 302.155 529.423 304.094C529.469 304.238 529.499 304.387 529.51 304.537C529.569 305.422 529.038 306.24 528.206 306.547C527.374 306.853 526.439 306.576 525.91 305.864C525.823 305.742 525.751 305.61 525.695 305.47Z" fill="#4D8AF0"/>
<path opacity="0.5" d="M1136.18 485.67C1136.18 489.27 1139.1 492.188 1142.7 492.188C1146.3 492.188 1149.22 489.27 1149.22 485.67C1149.22 482.071 1146.3 479.152 1142.7 479.152C1139.1 479.152 1136.18 482.071 1136.18 485.67Z" fill="#4D8AF0"/>
</g>
<g opacity="0.5">
<path d="M610 1221.14V1224.4H628.467V1221.14H610Z" fill="#47E6B1"/>
<path d="M620.863 1213.54H617.604V1232H620.863V1213.54Z" fill="#47E6B1"/>
</g>
<g opacity="0.3">
<g opacity="0.5">
<path d="M952.638 1175.56L953.148 1172.34L934.909 1169.45L934.399 1172.67L952.638 1175.56Z" fill="#47E6B1"/>
<path d="M940.72 1181.37L943.938 1181.88L946.827 1163.64L943.608 1163.13L940.72 1181.37Z" fill="#47E6B1"/>
</g>
<g opacity="0.5">
<path d="M684.164 1041.48L684.673 1038.26L666.434 1035.37L665.924 1038.59L684.164 1041.48Z" fill="#47E6B1"/>
<path d="M672.245 1047.29L675.464 1047.8L678.352 1029.56L675.134 1029.05L672.245 1047.29Z" fill="#47E6B1"/>
</g>
<path opacity="0.5" d="M848.32 1090.24C847.757 1093.79 850.183 1097.13 853.738 1097.69C857.294 1098.26 860.633 1095.83 861.196 1092.27C861.759 1088.72 859.333 1085.38 855.778 1084.82C852.222 1084.25 848.883 1086.68 848.32 1090.24Z" fill="#F55F44"/>
<path opacity="0.5" d="M749.128 1179.89C750.219 1178.18 752.418 1177.56 754.241 1178.45C754.375 1178.51 754.518 1178.57 754.665 1178.6C755.527 1178.79 756.413 1178.4 756.844 1177.62C757.275 1176.85 757.149 1175.89 756.534 1175.26C756.427 1175.15 756.309 1175.06 756.18 1174.98C754.472 1173.89 753.853 1171.69 754.741 1169.86C754.81 1169.73 754.862 1169.59 754.897 1169.44C755.088 1168.58 754.691 1167.69 753.92 1167.26C753.149 1166.83 752.186 1166.96 751.552 1167.57C751.445 1167.68 751.351 1167.8 751.272 1167.92C750.182 1169.63 747.983 1170.25 746.16 1169.37C746.025 1169.3 745.883 1169.25 745.736 1169.21C744.871 1169.01 743.98 1169.41 743.547 1170.18C743.114 1170.96 743.242 1171.92 743.862 1172.56C743.968 1172.67 744.087 1172.76 744.215 1172.84C745.925 1173.93 746.545 1176.13 745.657 1177.95C745.589 1178.09 745.537 1178.23 745.502 1178.38C745.305 1179.24 745.702 1180.13 746.476 1180.57C747.249 1181 748.216 1180.87 748.85 1180.25C748.957 1180.14 749.05 1180.02 749.128 1179.89Z" fill="#4D8AF0"/>
<path opacity="0.5" d="M1040.19 1068.63C1041.28 1066.92 1043.48 1066.3 1045.3 1067.19C1045.43 1067.26 1045.58 1067.31 1045.72 1067.34C1046.58 1067.53 1047.47 1067.14 1047.9 1066.37C1048.33 1065.6 1048.21 1064.63 1047.59 1064C1047.49 1063.89 1047.37 1063.8 1047.24 1063.72C1045.53 1062.63 1044.91 1060.43 1045.8 1058.61C1045.87 1058.47 1045.92 1058.33 1045.95 1058.18C1046.15 1057.32 1045.75 1056.43 1044.98 1056C1044.21 1055.57 1043.24 1055.7 1042.61 1056.31C1042.5 1056.42 1042.41 1056.54 1042.33 1056.67C1041.24 1058.38 1039.04 1059 1037.22 1058.11C1037.08 1058.04 1036.94 1057.99 1036.79 1057.95C1035.93 1057.76 1035.04 1058.15 1034.6 1058.93C1034.17 1059.7 1034.3 1060.67 1034.92 1061.3C1035.03 1061.41 1035.14 1061.5 1035.27 1061.58C1036.98 1062.67 1037.6 1064.87 1036.72 1066.69C1036.65 1066.83 1036.59 1066.97 1036.56 1067.12C1036.36 1067.98 1036.76 1068.87 1037.53 1069.31C1038.31 1069.74 1039.27 1069.61 1039.91 1068.99C1040.01 1068.88 1040.11 1068.76 1040.19 1068.63Z" fill="#4D8AF0"/>
<path opacity="0.5" d="M560.593 1095.26C560.03 1098.82 562.456 1102.16 566.011 1102.72C569.567 1103.28 572.906 1100.86 573.469 1097.3C574.032 1093.75 571.606 1090.41 568.051 1089.85C564.495 1089.28 561.157 1091.71 560.593 1095.26Z" fill="#4D8AF0"/>
</g>
<g opacity="0.3">
<g opacity="0.5">
<path d="M1079.64 193.557L1080.15 190.338L1061.91 187.449L1061.4 190.668L1079.64 193.557Z" fill="#47E6B1"/>
<path d="M1067.72 199.368L1070.94 199.878L1073.83 181.638L1070.61 181.128L1067.72 199.368Z" fill="#47E6B1"/>
</g>
<g opacity="0.5">
<path d="M811.164 59.4782L811.673 56.2593L793.434 53.3704L792.924 56.5893L811.164 59.4782Z" fill="#47E6B1"/>
<path d="M799.245 65.2895L802.464 65.7993L805.352 47.5597L802.134 47.0499L799.245 65.2895Z" fill="#47E6B1"/>
</g>
<path opacity="0.5" d="M975.32 108.235C974.757 111.791 977.183 115.13 980.738 115.693C984.294 116.256 987.633 113.83 988.196 110.275C988.759 106.719 986.333 103.38 982.778 102.817C979.222 102.254 975.883 104.68 975.32 108.235Z" fill="#F55F44"/>
<path opacity="0.5" d="M876.128 197.888C877.219 196.179 879.418 195.559 881.241 196.446C881.375 196.514 881.518 196.566 881.665 196.601C882.527 196.793 883.413 196.396 883.844 195.625C884.275 194.853 884.149 193.891 883.534 193.257C883.427 193.15 883.309 193.056 883.18 192.977C881.472 191.885 880.853 189.686 881.741 187.864C881.81 187.729 881.862 187.587 881.897 187.44C882.088 186.577 881.691 185.691 880.92 185.26C880.149 184.829 879.186 184.956 878.552 185.571C878.445 185.677 878.351 185.796 878.272 185.924C877.182 187.633 874.983 188.254 873.16 187.366C873.025 187.298 872.883 187.246 872.736 187.211C871.871 187.014 870.98 187.41 870.547 188.184C870.114 188.958 870.242 189.925 870.862 190.559C870.968 190.666 871.087 190.76 871.215 190.84C872.925 191.93 873.545 194.129 872.657 195.952C872.589 196.087 872.537 196.229 872.502 196.376C872.305 197.241 872.702 198.132 873.476 198.565C874.249 198.998 875.216 198.87 875.85 198.25C875.957 198.141 876.05 198.019 876.128 197.888Z" fill="#4D8AF0"/>
<path opacity="0.5" d="M1167.19 86.63C1168.28 84.9207 1170.48 84.3005 1172.3 85.188C1172.43 85.2562 1172.58 85.3084 1172.72 85.3432C1173.58 85.5347 1174.47 85.1376 1174.9 84.3665C1175.33 83.5953 1175.21 82.6327 1174.59 81.9985C1174.49 81.8917 1174.37 81.7978 1174.24 81.7187C1172.53 80.627 1171.91 78.4281 1172.8 76.6057C1172.87 76.471 1172.92 76.3287 1172.95 76.1817C1173.15 75.3193 1172.75 74.4334 1171.98 74.0024C1171.21 73.5714 1170.24 73.6975 1169.61 74.3125C1169.5 74.4189 1169.41 74.5376 1169.33 74.6661C1168.24 76.3753 1166.04 76.9955 1164.22 76.108C1164.08 76.0398 1163.94 75.9877 1163.79 75.9528C1162.93 75.7562 1162.04 76.1524 1161.6 76.9263C1161.17 77.7001 1161.3 78.6667 1161.92 79.3009C1162.03 79.4081 1162.14 79.5023 1162.27 79.5817C1163.98 80.6723 1164.6 82.8711 1163.72 84.6942C1163.65 84.8289 1163.59 84.9712 1163.56 85.1181C1163.36 85.9828 1163.76 86.8737 1164.53 87.3068C1165.31 87.7399 1166.27 87.6117 1166.91 86.9919C1167.01 86.8828 1167.11 86.7613 1167.19 86.63Z" fill="#4D8AF0"/>
<path opacity="0.5" d="M687.593 113.263C687.03 116.818 689.456 120.157 693.011 120.72C696.567 121.283 699.906 118.857 700.469 115.302C701.032 111.747 698.606 108.408 695.051 107.845C691.495 107.281 688.157 109.707 687.593 113.263Z" fill="#4D8AF0"/>
</g>
<g opacity="0.5">
<path d="M0 1241.14L0 1244.4H18.467V1241.14H0Z" fill="#47E6B1"/>
<path d="M10.863 1233.54H7.604V1252H10.863V1233.54Z" fill="#47E6B1"/>
</g>
</svg>
