<svg width="913" height="708" viewBox="0 0 913 708" fill="none" xmlns="http://www.w3.org/2000/svg">
<path opacity="0.5" d="M631.414 44.8223C635.014 44.8223 637.932 41.904 637.932 38.3042C637.932 34.7044 635.014 31.7861 631.414 31.7861C627.814 31.7861 624.896 34.7044 624.896 38.3042C624.896 41.904 627.814 44.8223 631.414 44.8223Z" fill="#F55F44"/>
<g opacity="0.5">
<path d="M905.152 0.845703H901.893V19.3127H905.152V0.845703Z" fill="#47E6B1"/>
<path d="M912.756 11.7087V8.44971L894.289 8.44971V11.7087L912.756 11.7087Z" fill="#47E6B1"/>
</g>
<path opacity="0.5" d="M759.81 52.3877C757.951 51.5779 756.995 49.5029 757.586 47.5635C757.633 47.4198 757.662 47.2712 757.673 47.1206C757.732 46.2358 757.201 45.4176 756.369 45.1109C755.537 44.8042 754.603 45.0821 754.073 45.7935C753.984 45.9154 753.91 46.0473 753.852 46.1865C753.042 48.0454 750.968 49.002 749.028 48.4107C748.885 48.3643 748.736 48.3352 748.585 48.3237C747.7 48.2648 746.882 48.7954 746.576 49.6275C746.269 50.4595 746.547 51.3939 747.258 51.9234C747.38 52.0122 747.512 52.0866 747.651 52.1445C749.51 52.9544 750.466 55.0293 749.875 56.9688C749.829 57.1125 749.8 57.2611 749.788 57.4116C749.729 58.2964 750.26 59.1142 751.092 59.4209C751.924 59.7276 752.859 59.4502 753.388 58.7388C753.477 58.617 753.552 58.485 753.61 58.3457C754.42 56.4869 756.495 55.5303 758.434 56.1216C758.578 56.1679 758.727 56.197 758.877 56.2085C759.762 56.2674 760.58 55.7368 760.887 54.9048C761.193 54.0727 760.916 53.1379 760.204 52.6084C760.082 52.5195 759.95 52.4456 759.81 52.3877Z" fill="#4D8AF0"/>
<g opacity="0.5">
<path d="M77.8242 580.798V584.057H96.2912V580.798H77.8242Z" fill="#47E6B1"/>
<path d="M88.6872 573.194H85.4282V591.661H88.6872V573.194Z" fill="#47E6B1"/>
</g>
<path opacity="0.5" d="M193.802 645.536C193.802 641.936 190.884 639.018 187.284 639.018C183.684 639.018 180.766 641.936 180.766 645.536C180.766 649.135 183.684 652.054 187.284 652.054C190.884 652.054 193.802 649.135 193.802 645.536Z" fill="#F55F44"/>
<path opacity="0.5" d="M277.389 546.14C276.579 547.999 274.504 548.955 272.565 548.364C272.421 548.318 272.273 548.288 272.122 548.277C271.237 548.218 270.419 548.749 270.112 549.581C269.806 550.413 270.084 551.348 270.795 551.877C270.917 551.966 271.049 552.04 271.188 552.098C273.047 552.908 274.003 554.983 273.412 556.922C273.365 557.066 273.336 557.214 273.325 557.365C273.266 558.25 273.797 559.068 274.629 559.374C275.461 559.681 276.395 559.403 276.925 558.692C277.014 558.57 277.088 558.438 277.146 558.299C277.956 556.44 280.03 555.484 281.97 556.075C282.113 556.121 282.263 556.151 282.413 556.162C283.298 556.221 284.116 555.69 284.422 554.858C284.729 554.026 284.451 553.091 283.74 552.562C283.618 552.473 283.486 552.398 283.347 552.34C281.488 551.53 280.532 549.455 281.123 547.516C281.169 547.372 281.198 547.224 281.21 547.073C281.269 546.188 280.738 545.37 279.906 545.064C279.074 544.757 278.139 545.035 277.61 545.746C277.521 545.868 277.447 546 277.389 546.14Z" fill="#4D8AF0"/>
<path opacity="0.5" d="M8.38869 694.14C7.57884 695.999 5.50441 696.955 3.56495 696.364C3.42122 696.318 3.27266 696.288 3.12208 696.277C2.23727 696.218 1.41902 696.749 1.11232 697.581C0.805618 698.413 1.08356 699.348 1.79494 699.877C1.91684 699.966 2.0488 700.04 2.188 700.098C4.04685 700.908 5.00297 702.983 4.41163 704.922C4.36527 705.066 4.33616 705.214 4.32472 705.365C4.26579 706.25 4.79688 707.068 5.62892 707.374C6.46097 707.681 7.39538 707.403 7.92482 706.692C8.01371 706.57 8.08808 706.438 8.14601 706.299C8.95586 704.44 11.0303 703.484 12.9697 704.075C13.1135 704.121 13.2625 704.151 13.4131 704.162C14.2979 704.221 15.1157 703.69 15.4224 702.858C15.7291 702.026 15.4511 701.091 14.7398 700.562C14.6179 700.473 14.486 700.398 14.3467 700.34C12.4878 699.53 11.5317 697.455 12.1231 695.516C12.1693 695.372 12.1985 695.224 12.21 695.073C12.2689 694.188 11.7383 693.37 10.9063 693.064C10.0742 692.757 9.13932 693.035 8.60988 693.746C8.52097 693.868 8.4466 694 8.38869 694.14Z" fill="#4D8AF0"/>
<path opacity="0.5" d="M390.079 625.923C390.079 622.324 387.161 619.405 383.561 619.405C379.961 619.405 377.043 622.324 377.043 625.923C377.043 629.523 379.961 632.441 383.561 632.441C387.161 632.441 390.079 629.523 390.079 625.923Z" fill="#4D8AF0"/>
</svg>
