<svg width="436" height="140" viewBox="0 0 436 140" fill="none" xmlns="http://www.w3.org/2000/svg">
<path opacity="0.5" d="M343.493 133.131C343.493 129.531 340.575 126.613 336.975 126.613C333.375 126.613 330.457 129.531 330.457 133.131C330.457 136.731 333.375 139.649 336.975 139.649C340.575 139.649 343.493 136.731 343.493 133.131Z" fill="#47E6B1"/>
<path opacity="0.5" d="M312.713 2.13998C311.903 3.99883 309.828 4.95532 307.889 4.36398C307.745 4.31764 307.597 4.2884 307.446 4.27694C306.561 4.21801 305.743 4.74874 305.437 5.58078C305.13 6.41283 305.408 7.3476 306.119 7.87704C306.241 7.96584 306.373 8.03996 306.512 8.09799C308.371 8.90784 309.327 10.9825 308.736 12.922C308.69 13.0657 308.66 13.2144 308.649 13.365C308.59 14.2498 309.121 15.0678 309.953 15.3745C310.785 15.6812 311.719 15.4034 312.249 14.692C312.338 14.5701 312.412 14.4383 312.47 14.299C313.28 12.4402 315.355 11.4837 317.294 12.075C317.438 12.1213 317.586 12.1504 317.737 12.162C318.622 12.2209 319.44 11.6902 319.746 10.8581C320.053 10.0261 319.775 9.09142 319.064 8.56198C318.942 8.47277 318.81 8.3982 318.671 8.33993C316.812 7.53008 315.856 5.45542 316.447 3.51596C316.493 3.37222 316.522 3.22353 316.534 3.07296C316.593 2.18815 316.062 1.37014 315.23 1.06344C314.398 0.756742 313.463 1.03456 312.934 1.74594C312.845 1.86812 312.771 2.00041 312.713 2.13998Z" fill="#4D8AF0"/>
<path opacity="0.5" d="M436.001 34.9242C436.001 31.3244 433.083 28.4062 429.483 28.4062C425.883 28.4062 422.965 31.3244 422.965 34.9242C422.965 38.524 425.883 41.4421 429.483 41.4421C433.083 41.4421 436.001 38.524 436.001 34.9242Z" fill="#4D8AF0"/>
<path opacity="0.5" d="M13.1251 21.5361C13.1251 17.9363 10.2068 15.0182 6.60706 15.0182C3.00726 15.0182 0.0891113 17.9363 0.0891113 21.5361C0.0891113 25.1359 3.00726 28.0542 6.60706 28.0542C10.2068 28.0542 13.1251 25.1359 13.1251 21.5361Z" fill="#F55F44"/>
<g opacity="0.5">
<path d="M133.148 79.7991V83.0581H151.615V79.7991H133.148Z" fill="#47E6B1"/>
<path d="M144.011 72.1951H140.752V90.6621H144.011V72.1951Z" fill="#47E6B1"/>
</g>
</svg>
