<svg width="1120" height="186" viewBox="0 0 1120 186" fill="none" xmlns="http://www.w3.org/2000/svg">
<g opacity="0.5">
<path d="M793.642 38.8472H790.383V57.3142H793.642V38.8472Z" fill="#47E6B1"/>
<path d="M801.246 49.7102V46.4512H782.779V49.7102H801.246Z" fill="#47E6B1"/>
</g>
<g opacity="0.5">
<path d="M247.642 94.8472H244.383V113.314H247.642V94.8472Z" fill="#47E6B1"/>
<path d="M255.246 105.71V102.451H236.779V105.71H255.246Z" fill="#47E6B1"/>
</g>
<path opacity="0.5" d="M499.905 145.823C503.505 145.823 506.423 142.905 506.423 139.305C506.423 135.705 503.505 132.787 499.905 132.787C496.305 132.787 493.387 135.705 493.387 139.305C493.387 142.905 496.305 145.823 499.905 145.823Z" fill="#F55F44"/>
<path opacity="0.5" d="M1113.48 13.8232C1117.08 13.8232 1120 10.905 1120 7.30518C1120 3.70538 1117.08 0.787109 1113.48 0.787109C1109.88 0.787109 1106.96 3.70538 1106.96 7.30518C1106.96 10.905 1109.88 13.8232 1113.48 13.8232Z" fill="#F55F44"/>
<path opacity="0.5" d="M14.2999 175.389C12.4411 174.579 11.4846 172.504 12.0759 170.565C12.1223 170.421 12.1515 170.273 12.1629 170.122C12.2219 169.237 11.6911 168.419 10.8591 168.112C10.027 167.806 9.09238 168.084 8.56294 168.795C8.47414 168.917 8.39999 169.049 8.34196 169.188C7.53211 171.047 5.45742 172.003 3.51796 171.412C3.37423 171.366 3.22554 171.337 3.07496 171.325C2.19015 171.266 1.37217 171.797 1.06547 172.629C0.75877 173.461 1.03656 174.395 1.74794 174.925C1.86977 175.014 2.00169 175.088 2.14094 175.146C3.9998 175.956 4.95628 178.031 4.36494 179.97C4.31865 180.114 4.28947 180.263 4.27797 180.413C4.21903 181.298 4.74975 182.116 5.5818 182.422C6.41385 182.729 7.3485 182.452 7.87794 181.74C7.96715 181.618 8.04168 181.486 8.09996 181.347C8.90981 179.488 10.9845 178.532 12.924 179.123C13.0677 179.169 13.2164 179.198 13.367 179.21C14.2518 179.269 15.0697 178.738 15.3764 177.906C15.6831 177.074 15.4053 176.139 14.694 175.61C14.5718 175.521 14.4395 175.447 14.2999 175.389Z" fill="#4D8AF0"/>
<path opacity="0.5" d="M1020.3 164.389C1018.44 163.579 1017.48 161.504 1018.08 159.565C1018.12 159.421 1018.15 159.273 1018.16 159.122C1018.22 158.237 1017.69 157.419 1016.86 157.112C1016.03 156.806 1015.09 157.084 1014.56 157.795C1014.47 157.917 1014.4 158.049 1014.34 158.188C1013.53 160.047 1011.46 161.003 1009.52 160.412C1009.37 160.366 1009.23 160.337 1009.07 160.325C1008.19 160.266 1007.37 160.797 1007.07 161.629C1006.76 162.461 1007.04 163.395 1007.75 163.925C1007.87 164.014 1008 164.088 1008.14 164.146C1010 164.956 1010.96 167.031 1010.36 168.97C1010.32 169.114 1010.29 169.263 1010.28 169.413C1010.22 170.298 1010.75 171.116 1011.58 171.422C1012.41 171.729 1013.35 171.452 1013.88 170.74C1013.97 170.618 1014.04 170.486 1014.1 170.347C1014.91 168.488 1016.98 167.532 1018.92 168.123C1019.07 168.169 1019.22 168.198 1019.37 168.21C1020.25 168.269 1021.07 167.738 1021.38 166.906C1021.68 166.074 1021.41 165.139 1020.69 164.61C1020.57 164.521 1020.44 164.447 1020.3 164.389Z" fill="#4D8AF0"/>
<path d="M657.844 185.754C659.599 185.754 661.022 184.331 661.022 182.576C661.022 180.821 659.599 179.398 657.844 179.398C656.089 179.398 654.666 180.821 654.666 182.576C654.666 184.331 656.089 185.754 657.844 185.754Z" fill="#DBDBDB"/>
</svg>
