<svg width="1185" height="5599" viewBox="0 0 1185 5599" fill="none" xmlns="http://www.w3.org/2000/svg">
<g opacity="0.5">
<path d="M107.148 672.799V676.058H125.615V672.799H107.148Z" fill="#47E6B1"/>
<path d="M118.011 665.195H114.752V683.662H118.011V665.195Z" fill="#47E6B1"/>
</g>
<g opacity="0.5">
<path d="M392.148 758.799V762.058H410.615V758.799H392.148Z" fill="#47E6B1"/>
<path d="M403.011 751.195H399.752V769.662H403.011V751.195Z" fill="#47E6B1"/>
</g>
<g opacity="0.5">
<path d="M759.148 1259.8V1263.06H777.615V1259.8H759.148Z" fill="#47E6B1"/>
<path d="M770.011 1252.2H766.752V1270.66H770.011V1252.2Z" fill="#47E6B1"/>
</g>
<g opacity="0.5">
<path d="M233.148 1992.8V1996.06H251.615V1992.8H233.148Z" fill="#47E6B1"/>
<path d="M244.011 1985.2H240.752V2003.66H244.011V1985.2Z" fill="#47E6B1"/>
</g>
<path opacity="0.5" d="M223.125 737.536C223.125 733.936 220.207 731.018 216.607 731.018C213.007 731.018 210.089 733.936 210.089 737.536C210.089 741.136 213.007 744.054 216.607 744.054C220.207 744.054 223.125 741.136 223.125 737.536Z" fill="#F55F44"/>
<path opacity="0.5" d="M719.125 1144.54C719.125 1140.94 716.207 1138.02 712.607 1138.02C709.007 1138.02 706.089 1140.94 706.089 1144.54C706.089 1148.14 709.007 1151.06 712.607 1151.06C716.207 1151.06 719.125 1148.14 719.125 1144.54Z" fill="#F55F44"/>
<path opacity="0.5" d="M759.125 1453.54C759.125 1449.94 756.207 1447.02 752.607 1447.02C749.007 1447.02 746.089 1449.94 746.089 1453.54C746.089 1457.14 749.007 1460.06 752.607 1460.06C756.207 1460.06 759.125 1457.14 759.125 1453.54Z" fill="#F55F44"/>
<path opacity="0.5" d="M123.125 1941.54C123.125 1937.94 120.207 1935.02 116.607 1935.02C113.007 1935.02 110.089 1937.94 110.089 1941.54C110.089 1945.14 113.007 1948.06 116.607 1948.06C120.207 1948.06 123.125 1945.14 123.125 1941.54Z" fill="#F55F44"/>
<path opacity="0.5" d="M306.713 638.14C305.903 639.999 303.829 640.955 301.889 640.364C301.745 640.318 301.597 640.288 301.446 640.277C300.561 640.218 299.743 640.749 299.437 641.581C299.13 642.413 299.408 643.348 300.119 643.877C300.241 643.966 300.373 644.04 300.512 644.098C302.371 644.908 303.327 646.983 302.736 648.922C302.69 649.066 302.661 649.214 302.649 649.365C302.59 650.25 303.121 651.068 303.953 651.374C304.785 651.681 305.72 651.403 306.249 650.692C306.338 650.57 306.412 650.438 306.47 650.299C307.28 648.44 309.355 647.484 311.294 648.075C311.438 648.121 311.587 648.151 311.737 648.162C312.622 648.221 313.44 647.69 313.747 646.858C314.053 646.026 313.775 645.091 313.064 644.562C312.942 644.473 312.81 644.398 312.671 644.34C310.812 643.53 309.856 641.455 310.447 639.516C310.493 639.372 310.523 639.224 310.534 639.073C310.593 638.188 310.062 637.37 309.23 637.064C308.398 636.757 307.464 637.035 306.934 637.746C306.845 637.868 306.771 638 306.713 638.14Z" fill="#4D8AF0"/>
<path opacity="0.5" d="M839.713 1346.14C838.903 1348 836.829 1348.96 834.889 1348.37C834.745 1348.32 834.597 1348.29 834.446 1348.28C833.561 1348.22 832.743 1348.75 832.437 1349.58C832.13 1350.41 832.408 1351.35 833.119 1351.88C833.241 1351.97 833.373 1352.04 833.512 1352.1C835.371 1352.91 836.327 1354.98 835.736 1356.92C835.69 1357.07 835.661 1357.22 835.649 1357.37C835.59 1358.25 836.121 1359.07 836.953 1359.38C837.785 1359.68 838.72 1359.4 839.249 1358.69C839.338 1358.57 839.412 1358.44 839.47 1358.3C840.28 1356.44 842.355 1355.49 844.294 1356.08C844.438 1356.12 844.587 1356.15 844.737 1356.16C845.622 1356.22 846.44 1355.69 846.747 1354.86C847.053 1354.03 846.775 1353.09 846.064 1352.56C845.942 1352.47 845.81 1352.4 845.671 1352.34C843.812 1351.53 842.856 1349.46 843.447 1347.52C843.493 1347.37 843.523 1347.22 843.534 1347.07C843.593 1346.19 843.062 1345.37 842.23 1345.06C841.398 1344.76 840.464 1345.04 839.934 1345.75C839.845 1345.87 839.771 1346 839.713 1346.14Z" fill="#4D8AF0"/>
<path opacity="0.5" d="M8.38893 2026.14C7.57908 2028 5.50441 2028.96 3.56495 2028.37C3.42122 2028.32 3.27242 2028.29 3.12184 2028.28C2.23703 2028.22 1.41902 2028.75 1.11232 2029.58C0.805618 2030.41 1.08356 2031.35 1.79494 2031.88C1.91684 2031.97 2.04856 2032.04 2.18776 2032.1C4.04661 2032.91 5.00322 2034.98 4.41188 2036.92C4.36552 2037.07 4.3364 2037.22 4.32496 2037.37C4.26603 2038.25 4.79664 2039.07 5.62868 2039.38C6.46073 2039.68 7.39538 2039.4 7.92482 2038.69C8.01371 2038.57 8.08784 2038.44 8.14577 2038.3C8.95562 2036.44 11.0305 2035.49 12.97 2036.08C13.1137 2036.12 13.2623 2036.15 13.4129 2036.16C14.2977 2036.22 15.1157 2035.69 15.4224 2034.86C15.7291 2034.03 15.4511 2033.09 14.7398 2032.56C14.6179 2032.47 14.4862 2032.4 14.3469 2032.34C12.4881 2031.53 11.5315 2029.46 12.1228 2027.52C12.1691 2027.37 12.1985 2027.22 12.21 2027.07C12.2689 2026.19 11.7381 2025.37 10.906 2025.06C10.074 2024.76 9.13932 2025.04 8.60988 2025.75C8.52097 2025.87 8.44684 2026 8.38893 2026.14Z" fill="#4D8AF0"/>
<path opacity="0.5" d="M725.713 1978.14C724.903 1980 722.829 1980.96 720.889 1980.37C720.745 1980.32 720.597 1980.29 720.446 1980.28C719.561 1980.22 718.743 1980.75 718.437 1981.58C718.13 1982.41 718.408 1983.35 719.119 1983.88C719.241 1983.97 719.373 1984.04 719.512 1984.1C721.371 1984.91 722.327 1986.98 721.736 1988.92C721.69 1989.07 721.661 1989.22 721.649 1989.37C721.59 1990.25 722.121 1991.07 722.953 1991.38C723.785 1991.68 724.72 1991.4 725.249 1990.69C725.338 1990.57 725.412 1990.44 725.47 1990.3C726.28 1988.44 728.355 1987.49 730.294 1988.08C730.438 1988.12 730.587 1988.15 730.737 1988.16C731.622 1988.22 732.44 1987.69 732.747 1986.86C733.053 1986.03 732.775 1985.09 732.064 1984.56C731.942 1984.47 731.81 1984.4 731.671 1984.34C729.812 1983.53 728.856 1981.46 729.447 1979.52C729.493 1979.37 729.523 1979.22 729.534 1979.07C729.593 1978.19 729.062 1977.37 728.23 1977.06C727.398 1976.76 726.464 1977.04 725.934 1977.75C725.845 1977.87 725.771 1978 725.713 1978.14Z" fill="#4D8AF0"/>
<path opacity="0.5" d="M432.713 1949.14C431.903 1951 429.829 1951.96 427.889 1951.37C427.745 1951.32 427.597 1951.29 427.446 1951.28C426.561 1951.22 425.743 1951.75 425.437 1952.58C425.13 1953.41 425.408 1954.35 426.119 1954.88C426.241 1954.97 426.373 1955.04 426.512 1955.1C428.371 1955.91 429.327 1957.98 428.736 1959.92C428.69 1960.07 428.661 1960.22 428.649 1960.37C428.59 1961.25 429.121 1962.07 429.953 1962.38C430.785 1962.68 431.72 1962.4 432.249 1961.69C432.338 1961.57 432.412 1961.44 432.47 1961.3C433.28 1959.44 435.355 1958.48 437.294 1959.08C437.438 1959.12 437.587 1959.15 437.737 1959.16C438.622 1959.22 439.44 1958.69 439.747 1957.86C440.053 1957.03 439.775 1956.09 439.064 1955.56C438.942 1955.47 438.81 1955.4 438.671 1955.34C436.812 1954.53 435.856 1952.46 436.447 1950.52C436.493 1950.37 436.523 1950.22 436.534 1950.07C436.593 1949.19 436.062 1948.37 435.23 1948.06C434.398 1947.76 433.464 1948.04 432.934 1948.75C432.845 1948.87 432.771 1949 432.713 1949.14Z" fill="#4D8AF0"/>
<path opacity="0.5" d="M818.713 1072.14C817.903 1074 815.829 1074.96 813.889 1074.37C813.745 1074.32 813.597 1074.29 813.446 1074.28C812.561 1074.22 811.743 1074.75 811.437 1075.58C811.13 1076.41 811.408 1077.35 812.119 1077.88C812.241 1077.97 812.373 1078.04 812.512 1078.1C814.371 1078.91 815.327 1080.98 814.736 1082.92C814.69 1083.07 814.661 1083.22 814.649 1083.37C814.59 1084.25 815.121 1085.07 815.953 1085.38C816.785 1085.68 817.72 1085.4 818.249 1084.69C818.338 1084.57 818.412 1084.44 818.47 1084.3C819.28 1082.44 821.355 1081.49 823.294 1082.08C823.438 1082.12 823.587 1082.15 823.737 1082.16C824.622 1082.22 825.44 1081.69 825.747 1080.86C826.053 1080.03 825.775 1079.09 825.064 1078.56C824.942 1078.47 824.81 1078.4 824.671 1078.34C822.812 1077.53 821.856 1075.46 822.447 1073.52C822.493 1073.37 822.523 1073.22 822.534 1073.07C822.593 1072.19 822.062 1071.37 821.23 1071.06C820.398 1070.76 819.464 1071.04 818.934 1071.75C818.845 1071.87 818.771 1072 818.713 1072.14Z" fill="#4D8AF0"/>
<path opacity="0.5" d="M818.493 968.132C818.493 964.532 815.575 961.614 811.975 961.614C808.375 961.614 805.457 964.532 805.457 968.132C805.457 971.732 808.375 974.65 811.975 974.65C815.575 974.65 818.493 971.732 818.493 968.132Z" fill="#47E6B1"/>
<path opacity="0.5" d="M1092.49 133.131C1092.49 129.531 1089.57 126.613 1085.97 126.613C1082.38 126.613 1079.46 129.531 1079.46 133.131C1079.46 136.731 1082.38 139.649 1085.97 139.649C1089.57 139.649 1092.49 136.731 1092.49 133.131Z" fill="#47E6B1"/>
<path opacity="0.5" d="M37.7131 786.14C36.9033 787.999 34.8286 788.956 32.8892 788.364C32.7454 788.318 32.5966 788.289 32.4461 788.277C31.5612 788.218 30.7432 788.749 30.4365 789.581C30.1298 790.413 30.4078 791.348 31.1192 791.877C31.2411 791.966 31.3728 792.04 31.512 792.098C33.3708 792.908 34.3274 794.983 33.7361 796.922C33.6897 797.066 33.6606 797.215 33.6492 797.365C33.5903 798.25 34.1209 799.068 34.9529 799.375C35.7849 799.681 36.7196 799.404 37.249 798.692C37.3379 798.57 37.4121 798.438 37.47 798.299C38.2798 796.44 40.3547 795.484 42.2942 796.075C42.4379 796.122 42.5865 796.151 42.7371 796.162C43.6219 796.221 44.4399 795.69 44.7466 794.858C45.0533 794.026 44.7754 793.092 44.064 792.562C43.9422 792.473 43.8104 792.399 43.6712 792.34C41.8123 791.53 40.8557 789.456 41.447 787.516C41.4933 787.372 41.5227 787.224 41.5342 787.073C41.5931 786.188 41.0623 785.37 40.2302 785.064C39.3982 784.757 38.4635 785.035 37.9341 785.746C37.8452 785.868 37.7711 786.001 37.7131 786.14Z" fill="#4D8AF0"/>
<path opacity="0.5" d="M1061.71 2.13998C1060.9 3.99883 1058.83 4.95532 1056.89 4.36398C1056.75 4.31764 1056.6 4.2884 1056.45 4.27694C1055.56 4.21801 1054.74 4.74874 1054.44 5.58078C1054.13 6.41283 1054.41 7.3476 1055.12 7.87704C1055.24 7.96584 1055.37 8.03996 1055.51 8.09799C1057.37 8.90784 1058.33 10.9825 1057.74 12.922C1057.69 13.0657 1057.66 13.2144 1057.65 13.365C1057.59 14.2498 1058.12 15.0678 1058.95 15.3745C1059.78 15.6812 1060.72 15.4034 1061.25 14.692C1061.34 14.5701 1061.41 14.4383 1061.47 14.299C1062.28 12.4402 1064.35 11.4837 1066.29 12.075C1066.44 12.1213 1066.59 12.1504 1066.74 12.162C1067.62 12.2209 1068.44 11.6902 1068.75 10.8581C1069.05 10.0261 1068.78 9.09142 1068.06 8.56198C1067.94 8.47277 1067.81 8.3982 1067.67 8.33993C1065.81 7.53008 1064.86 5.45542 1065.45 3.51596C1065.49 3.37222 1065.52 3.22353 1065.53 3.07296C1065.59 2.18815 1065.06 1.37014 1064.23 1.06344C1063.4 0.756742 1062.46 1.03456 1061.93 1.74594C1061.85 1.86812 1061.77 2.00041 1061.71 2.13998Z" fill="#4D8AF0"/>
<path opacity="0.5" d="M505.403 689.924C505.403 686.324 502.485 683.406 498.885 683.406C495.285 683.406 492.367 686.324 492.367 689.924C492.367 693.524 495.285 696.442 498.885 696.442C502.485 696.442 505.403 693.524 505.403 689.924Z" fill="#4D8AF0"/>
<path opacity="0.5" d="M1185 34.9242C1185 31.3244 1182.08 28.4062 1178.48 28.4062C1174.88 28.4062 1171.96 31.3244 1171.96 34.9242C1171.96 38.524 1174.88 41.4421 1178.48 41.4421C1182.08 41.4421 1185 38.524 1185 34.9242Z" fill="#4D8AF0"/>
<path opacity="0.5" d="M762.125 21.5361C762.125 17.9363 759.207 15.0182 755.607 15.0182C752.007 15.0182 749.089 17.9363 749.089 21.5361C749.089 25.1359 752.007 28.0542 755.607 28.0542C759.207 28.0542 762.125 25.1359 762.125 21.5361Z" fill="#F55F44"/>
<g opacity="0.5">
<path d="M882.148 79.7991V83.0581H900.615V79.7991H882.148Z" fill="#47E6B1"/>
<path d="M893.011 72.1951H889.752V90.6621H893.011V72.1951Z" fill="#47E6B1"/>
</g>
<g opacity="0.5">
<path d="M92.6421 3079.85H89.3831V3098.31H92.6421V3079.85Z" fill="#47E6B1"/>
<path d="M100.246 3090.71V3087.45H81.7791V3090.71H100.246Z" fill="#47E6B1"/>
</g>
<g opacity="0.5">
<path d="M896.642 3736.85H893.383V3755.31H896.642V3736.85Z" fill="#47E6B1"/>
<path d="M904.246 3747.71V3744.45H885.779V3747.71H904.246Z" fill="#47E6B1"/>
</g>
<g opacity="0.5">
<path d="M293.642 3727.85H290.383V3746.31H293.642V3727.85Z" fill="#47E6B1"/>
<path d="M301.246 3738.71V3735.45H282.779V3738.71H301.246Z" fill="#47E6B1"/>
</g>
<path opacity="0.5" d="M496.905 3079.82C500.505 3079.82 503.423 3076.9 503.423 3073.3C503.423 3069.7 500.505 3066.79 496.905 3066.79C493.305 3066.79 490.387 3069.7 490.387 3073.3C490.387 3076.9 493.305 3079.82 496.905 3079.82Z" fill="#F55F44"/>
<path opacity="0.5" d="M545.905 3778.82C549.505 3778.82 552.423 3775.9 552.423 3772.3C552.423 3768.7 549.505 3765.79 545.905 3765.79C542.305 3765.79 539.387 3768.7 539.387 3772.3C539.387 3775.9 542.305 3778.82 545.905 3778.82Z" fill="#F55F44"/>
<path opacity="0.5" d="M234.3 3141.39C232.441 3140.58 231.485 3138.5 232.076 3136.56C232.122 3136.42 232.151 3136.27 232.163 3136.12C232.222 3135.24 231.691 3134.42 230.859 3134.11C230.027 3133.8 229.092 3134.08 228.563 3134.79C228.474 3134.92 228.4 3135.05 228.342 3135.19C227.532 3137.05 225.457 3138 223.518 3137.41C223.374 3137.36 223.226 3137.33 223.075 3137.32C222.19 3137.26 221.372 3137.8 221.065 3138.63C220.759 3139.46 221.037 3140.39 221.748 3140.92C221.87 3141.01 222.002 3141.09 222.141 3141.14C224 3141.95 224.956 3144.03 224.365 3145.97C224.319 3146.11 224.289 3146.26 224.278 3146.41C224.219 3147.3 224.75 3148.11 225.582 3148.42C226.414 3148.73 227.349 3148.45 227.878 3147.74C227.967 3147.62 228.042 3147.48 228.1 3147.35C228.91 3145.49 230.984 3144.53 232.924 3145.12C233.068 3145.17 233.216 3145.2 233.367 3145.21C234.252 3145.27 235.07 3144.74 235.376 3143.9C235.683 3143.07 235.405 3142.14 234.694 3141.61C234.572 3141.52 234.44 3141.45 234.3 3141.39Z" fill="#4D8AF0"/>
<path opacity="0.5" d="M60.3 3808.39C58.4411 3807.58 57.4846 3805.5 58.076 3803.56C58.1223 3803.42 58.1515 3803.27 58.1629 3803.12C58.2219 3802.24 57.6912 3801.42 56.8591 3801.11C56.0271 3800.8 55.0924 3801.08 54.563 3801.79C54.4742 3801.92 54.4 3802.05 54.342 3802.19C53.5321 3804.05 51.4574 3805 49.5179 3804.41C49.3742 3804.36 49.2255 3804.33 49.0749 3804.32C48.1901 3804.26 47.3722 3804.8 47.0655 3805.63C46.7588 3806.46 47.0366 3807.39 47.748 3807.92C47.8698 3808.01 48.0017 3808.09 48.141 3808.14C49.9998 3808.95 50.9563 3811.03 50.365 3812.97C50.3187 3813.11 50.2894 3813.26 50.2779 3813.41C50.219 3814.3 50.7498 3815.11 51.5818 3815.42C52.4139 3815.73 53.3485 3815.45 53.878 3814.74C53.9672 3814.62 54.0417 3814.48 54.1 3814.35C54.9098 3812.49 56.9845 3811.53 58.9239 3812.12C59.0677 3812.17 59.2163 3812.2 59.3669 3812.21C60.2517 3812.27 61.0697 3811.74 61.3764 3810.9C61.6831 3810.07 61.4053 3809.14 60.6939 3808.61C60.5718 3808.52 60.4395 3808.45 60.3 3808.39Z" fill="#4D8AF0"/>
<path opacity="0.5" d="M1066.3 3797.39C1064.44 3796.58 1063.48 3794.5 1064.08 3792.56C1064.12 3792.42 1064.15 3792.27 1064.16 3792.12C1064.22 3791.24 1063.69 3790.42 1062.86 3790.11C1062.03 3789.8 1061.09 3790.08 1060.56 3790.79C1060.47 3790.92 1060.4 3791.05 1060.34 3791.19C1059.53 3793.05 1057.46 3794 1055.52 3793.41C1055.37 3793.36 1055.23 3793.33 1055.07 3793.32C1054.19 3793.26 1053.37 3793.8 1053.07 3794.63C1052.76 3795.46 1053.04 3796.39 1053.75 3796.92C1053.87 3797.01 1054 3797.09 1054.14 3797.14C1056 3797.95 1056.96 3800.03 1056.36 3801.97C1056.32 3802.11 1056.29 3802.26 1056.28 3802.41C1056.22 3803.3 1056.75 3804.11 1057.58 3804.42C1058.41 3804.73 1059.35 3804.45 1059.88 3803.74C1059.97 3803.62 1060.04 3803.48 1060.1 3803.35C1060.91 3801.49 1062.98 3800.53 1064.92 3801.12C1065.07 3801.17 1065.22 3801.2 1065.37 3801.21C1066.25 3801.27 1067.07 3800.74 1067.38 3799.9C1067.68 3799.07 1067.41 3798.14 1066.69 3797.61C1066.57 3797.52 1066.44 3797.45 1066.3 3797.39Z" fill="#4D8AF0"/>
<path d="M703.844 3818.75C705.599 3818.75 707.022 3817.33 707.022 3815.57C707.022 3813.82 705.599 3812.4 703.844 3812.4C702.089 3812.4 700.666 3813.82 700.666 3815.57C700.666 3817.33 702.089 3818.75 703.844 3818.75Z" fill="#DBDBDB"/>
<path opacity="0.5" d="M288.905 4002.82C292.505 4002.82 295.423 3999.9 295.423 3996.3C295.423 3992.7 292.505 3989.79 288.905 3989.79C285.305 3989.79 282.387 3992.7 282.387 3996.3C282.387 3999.9 285.305 4002.82 288.905 4002.82Z" fill="#F55F44"/>
<path opacity="0.5" d="M1075.91 4070.82C1079.5 4070.82 1082.42 4067.9 1082.42 4064.3C1082.42 4060.7 1079.5 4057.79 1075.91 4057.79C1072.31 4057.79 1069.39 4060.7 1069.39 4064.3C1069.39 4067.9 1072.31 4070.82 1075.91 4070.82Z" fill="#F55F44"/>
<g opacity="0.5">
<path d="M477.642 4026.85H474.383V4045.31H477.642V4026.85Z" fill="#47E6B1"/>
<path d="M485.246 4037.71V4034.45H466.779V4037.71H485.246Z" fill="#47E6B1"/>
</g>
<g opacity="0.5">
<path d="M774.642 4032.85H771.383V4051.31H774.642V4032.85Z" fill="#47E6B1"/>
<path d="M782.246 4043.71V4040.45H763.779V4043.71H782.246Z" fill="#47E6B1"/>
</g>
<path opacity="0.5" d="M704.3 4010.39C702.441 4009.58 701.485 4007.5 702.076 4005.56C702.122 4005.42 702.152 4005.27 702.163 4005.12C702.222 4004.24 701.691 4003.42 700.859 4003.11C700.027 4002.8 699.092 4003.08 698.563 4003.79C698.474 4003.92 698.4 4004.05 698.342 4004.19C697.532 4006.05 695.457 4007 693.518 4006.41C693.374 4006.36 693.226 4006.33 693.075 4006.32C692.19 4006.26 691.372 4006.8 691.065 4007.63C690.759 4008.46 691.037 4009.39 691.748 4009.92C691.87 4010.01 692.002 4010.09 692.141 4010.14C694 4010.95 694.956 4013.03 694.365 4014.97C694.319 4015.11 694.289 4015.26 694.278 4015.41C694.219 4016.3 694.75 4017.11 695.582 4017.42C696.414 4017.73 697.349 4017.45 697.878 4016.74C697.967 4016.62 698.042 4016.48 698.1 4016.35C698.91 4014.49 700.985 4013.53 702.924 4014.12C703.068 4014.17 703.216 4014.2 703.367 4014.21C704.252 4014.27 705.07 4013.74 705.376 4012.9C705.683 4012.07 705.405 4011.14 704.694 4010.61C704.572 4010.52 704.44 4010.45 704.3 4010.39Z" fill="#4D8AF0"/>
<path opacity="0.5" d="M631.414 4935.82C635.014 4935.82 637.932 4932.9 637.932 4929.3C637.932 4925.7 635.014 4922.79 631.414 4922.79C627.814 4922.79 624.896 4925.7 624.896 4929.3C624.896 4932.9 627.814 4935.82 631.414 4935.82Z" fill="#F55F44"/>
<g opacity="0.5">
<path d="M905.152 4891.85H901.893V4910.31H905.152V4891.85Z" fill="#47E6B1"/>
<path d="M912.756 4902.71V4899.45H894.289V4902.71H912.756Z" fill="#47E6B1"/>
</g>
<path opacity="0.5" d="M759.81 4943.39C757.951 4942.58 756.995 4940.5 757.586 4938.56C757.633 4938.42 757.662 4938.27 757.673 4938.12C757.732 4937.24 757.201 4936.42 756.369 4936.11C755.537 4935.8 754.603 4936.08 754.073 4936.79C753.984 4936.92 753.91 4937.05 753.852 4937.19C753.042 4939.05 750.968 4940 749.028 4939.41C748.885 4939.36 748.736 4939.34 748.585 4939.32C747.7 4939.26 746.882 4939.8 746.576 4940.63C746.269 4941.46 746.547 4942.39 747.258 4942.92C747.38 4943.01 747.512 4943.09 747.651 4943.14C749.51 4943.95 750.466 4946.03 749.875 4947.97C749.829 4948.11 749.8 4948.26 749.788 4948.41C749.729 4949.3 750.26 4950.11 751.092 4950.42C751.924 4950.73 752.859 4950.45 753.388 4949.74C753.477 4949.62 753.552 4949.48 753.61 4949.35C754.42 4947.49 756.495 4946.53 758.434 4947.12C758.578 4947.17 758.727 4947.2 758.877 4947.21C759.762 4947.27 760.58 4946.74 760.887 4945.9C761.193 4945.07 760.916 4944.14 760.204 4943.61C760.082 4943.52 759.95 4943.45 759.81 4943.39Z" fill="#4D8AF0"/>
<g opacity="0.5">
<path d="M77.8242 5471.8V5475.06H96.2912V5471.8H77.8242Z" fill="#47E6B1"/>
<path d="M88.6872 5464.19H85.4282V5482.66H88.6872V5464.19Z" fill="#47E6B1"/>
</g>
<path opacity="0.5" d="M193.802 5536.54C193.802 5532.94 190.884 5530.02 187.284 5530.02C183.684 5530.02 180.766 5532.94 180.766 5536.54C180.766 5540.14 183.684 5543.05 187.284 5543.05C190.884 5543.05 193.802 5540.14 193.802 5536.54Z" fill="#F55F44"/>
<path opacity="0.5" d="M277.389 5437.14C276.579 5439 274.504 5439.96 272.565 5439.36C272.421 5439.32 272.273 5439.29 272.122 5439.28C271.237 5439.22 270.419 5439.75 270.112 5440.58C269.806 5441.41 270.084 5442.35 270.795 5442.88C270.917 5442.97 271.049 5443.04 271.188 5443.1C273.047 5443.91 274.003 5445.98 273.412 5447.92C273.365 5448.07 273.336 5448.21 273.325 5448.37C273.266 5449.25 273.797 5450.07 274.629 5450.37C275.461 5450.68 276.395 5450.4 276.925 5449.69C277.014 5449.57 277.088 5449.44 277.146 5449.3C277.956 5447.44 280.03 5446.48 281.97 5447.08C282.113 5447.12 282.263 5447.15 282.413 5447.16C283.298 5447.22 284.116 5446.69 284.422 5445.86C284.729 5445.03 284.451 5444.09 283.74 5443.56C283.618 5443.47 283.486 5443.4 283.347 5443.34C281.488 5442.53 280.532 5440.46 281.123 5438.52C281.169 5438.37 281.198 5438.22 281.21 5438.07C281.269 5437.19 280.738 5436.37 279.906 5436.06C279.074 5435.76 278.139 5436.03 277.61 5436.75C277.521 5436.87 277.447 5437 277.389 5437.14Z" fill="#4D8AF0"/>
<path opacity="0.5" d="M8.38869 5585.14C7.57884 5587 5.50441 5587.96 3.56495 5587.36C3.42122 5587.32 3.27266 5587.29 3.12208 5587.28C2.23727 5587.22 1.41902 5587.75 1.11232 5588.58C0.805618 5589.41 1.08356 5590.35 1.79494 5590.88C1.91684 5590.97 2.0488 5591.04 2.188 5591.1C4.04685 5591.91 5.00297 5593.98 4.41163 5595.92C4.36527 5596.07 4.33616 5596.21 4.32472 5596.37C4.26579 5597.25 4.79688 5598.07 5.62892 5598.37C6.46097 5598.68 7.39538 5598.4 7.92482 5597.69C8.01371 5597.57 8.08808 5597.44 8.14601 5597.3C8.95586 5595.44 11.0303 5594.48 12.9697 5595.08C13.1135 5595.12 13.2625 5595.15 13.4131 5595.16C14.2979 5595.22 15.1157 5594.69 15.4224 5593.86C15.7291 5593.03 15.4511 5592.09 14.7398 5591.56C14.6179 5591.47 14.486 5591.4 14.3467 5591.34C12.4878 5590.53 11.5317 5588.46 12.1231 5586.52C12.1693 5586.37 12.1985 5586.22 12.21 5586.07C12.2689 5585.19 11.7383 5584.37 10.9063 5584.06C10.0742 5583.76 9.13932 5584.03 8.60988 5584.75C8.52097 5584.87 8.4466 5585 8.38869 5585.14Z" fill="#4D8AF0"/>
<path opacity="0.5" d="M390.079 5516.92C390.079 5513.32 387.161 5510.41 383.561 5510.41C379.961 5510.41 377.043 5513.32 377.043 5516.92C377.043 5520.52 379.961 5523.44 383.561 5523.44C387.161 5523.44 390.079 5520.52 390.079 5516.92Z" fill="#4D8AF0"/>
<g opacity="0.5">
<path d="M766.709 2911.71V2908.45H748.242V2911.71H766.709Z" fill="#47E6B1"/>
<path d="M755.846 2919.31H759.105V2900.84H755.846V2919.31Z" fill="#47E6B1"/>
</g>
<path opacity="0.5" d="M876.734 2962.97C876.734 2966.57 879.652 2969.49 883.252 2969.49C886.852 2969.49 889.77 2966.57 889.77 2962.97C889.77 2959.37 886.852 2956.45 883.252 2956.45C879.652 2956.45 876.734 2959.37 876.734 2962.97Z" fill="#F55F44"/>
<path opacity="0.5" d="M991.468 2878.36C992.278 2876.51 994.353 2875.55 996.292 2876.14C996.436 2876.19 996.584 2876.22 996.735 2876.23C997.62 2876.29 998.438 2875.76 998.745 2874.92C999.051 2874.09 998.773 2873.16 998.062 2872.63C997.94 2872.54 997.808 2872.46 997.669 2872.41C995.81 2871.6 994.853 2869.52 995.445 2867.58C995.491 2867.44 995.521 2867.29 995.532 2867.14C995.591 2866.25 995.06 2865.44 994.228 2865.13C993.396 2864.82 992.462 2865.1 991.932 2865.81C991.843 2865.93 991.769 2866.07 991.711 2866.21C990.901 2868.06 988.827 2869.02 986.887 2868.43C986.743 2868.38 986.594 2868.35 986.444 2868.34C985.559 2868.28 984.741 2868.81 984.435 2869.65C984.128 2870.48 984.406 2871.41 985.117 2871.94C985.239 2872.03 985.371 2872.11 985.51 2872.16C987.369 2872.97 988.325 2875.05 987.734 2876.99C987.688 2877.13 987.658 2877.28 987.647 2877.43C987.588 2878.32 988.119 2879.13 988.951 2879.44C989.783 2879.75 990.718 2879.47 991.247 2878.76C991.336 2878.64 991.41 2878.5 991.468 2878.36Z" fill="#4D8AF0"/>
<path opacity="0.5" d="M274.144 2926.36C274.954 2924.51 277.029 2923.55 278.968 2924.14C279.112 2924.19 279.26 2924.22 279.411 2924.23C280.296 2924.29 281.114 2923.76 281.421 2922.92C281.727 2922.09 281.449 2921.16 280.738 2920.63C280.616 2920.54 280.484 2920.46 280.345 2920.41C278.486 2919.6 277.529 2917.52 278.121 2915.58C278.167 2915.44 278.197 2915.29 278.208 2915.14C278.267 2914.25 277.736 2913.44 276.904 2913.13C276.072 2912.82 275.138 2913.1 274.608 2913.81C274.519 2913.93 274.445 2914.07 274.387 2914.2C273.577 2916.06 271.503 2917.02 269.563 2916.43C269.419 2916.38 269.27 2916.35 269.12 2916.34C268.235 2916.28 267.417 2916.81 267.111 2917.65C266.804 2918.48 267.082 2919.41 267.793 2919.94C267.915 2920.03 268.047 2920.11 268.186 2920.16C270.045 2920.97 271.001 2923.05 270.41 2924.99C270.364 2925.13 270.334 2925.28 270.323 2925.43C270.264 2926.32 270.795 2927.13 271.627 2927.44C272.459 2927.75 273.394 2927.47 273.923 2926.76C274.012 2926.64 274.086 2926.5 274.144 2926.36Z" fill="#4D8AF0"/>
</svg>
