<svg width="141" height="500" viewBox="0 0 141 500" fill="none" xmlns="http://www.w3.org/2000/svg">
<g opacity="0.5">
<path d="M53.1479 298.801V302.06H71.6149V298.801H53.1479Z" fill="#47E6B1"/>
<path d="M64.011 291.197H60.752V309.664H64.011V291.197Z" fill="#47E6B1"/>
</g>
<path opacity="0.5" d="M13.125 183.538C13.125 179.938 10.207 177.02 6.60718 177.02C3.00739 177.02 0.0891113 179.938 0.0891113 183.538C0.0891113 187.137 3.00739 190.056 6.60718 190.056C10.207 190.056 13.125 187.137 13.125 183.538Z" fill="#F55F44"/>
<path opacity="0.5" d="M53.125 492.538C53.125 488.938 50.207 486.02 46.6072 486.02C43.0074 486.02 40.0891 488.938 40.0891 492.538C40.0891 496.137 43.0074 499.056 46.6072 499.056C50.207 499.056 53.125 496.137 53.125 492.538Z" fill="#F55F44"/>
<path opacity="0.5" d="M133.713 385.141C132.903 387 130.829 387.957 128.889 387.365C128.745 387.319 128.597 387.29 128.446 387.278C127.561 387.219 126.743 387.75 126.437 388.582C126.13 389.414 126.408 390.349 127.119 390.879C127.241 390.967 127.373 391.041 127.512 391.099C129.371 391.909 130.327 393.984 129.736 395.923C129.69 396.067 129.661 396.216 129.649 396.366C129.59 397.251 130.121 398.069 130.953 398.376C131.785 398.683 132.72 398.405 133.249 397.693C133.338 397.572 133.412 397.44 133.47 397.301C134.28 395.442 136.355 394.485 138.294 395.077C138.438 395.123 138.587 395.152 138.737 395.163C139.622 395.222 140.44 394.692 140.747 393.86C141.053 393.028 140.775 392.093 140.064 391.563C139.942 391.474 139.81 391.4 139.671 391.341C137.812 390.532 136.856 388.457 137.447 386.517C137.493 386.374 137.523 386.225 137.534 386.074C137.593 385.19 137.062 384.372 136.23 384.065C135.398 383.758 134.464 384.036 133.934 384.747C133.845 384.87 133.771 385.002 133.713 385.141Z" fill="#4D8AF0"/>
<path opacity="0.5" d="M112.713 111.141C111.903 113 109.829 113.957 107.889 113.365C107.745 113.319 107.597 113.29 107.446 113.278C106.561 113.219 105.743 113.75 105.437 114.582C105.13 115.414 105.408 116.349 106.119 116.879C106.241 116.967 106.373 117.041 106.512 117.099C108.371 117.909 109.327 119.984 108.736 121.923C108.69 122.067 108.661 122.216 108.649 122.366C108.59 123.251 109.121 124.069 109.953 124.376C110.785 124.683 111.72 124.405 112.249 123.693C112.338 123.572 112.412 123.44 112.47 123.301C113.28 121.442 115.355 120.485 117.294 121.077C117.438 121.123 117.587 121.152 117.737 121.163C118.622 121.222 119.44 120.692 119.747 119.86C120.053 119.028 119.775 118.093 119.064 117.563C118.942 117.474 118.81 117.4 118.671 117.341C116.812 116.532 115.856 114.457 116.447 112.517C116.493 112.374 116.523 112.225 116.534 112.074C116.593 111.19 116.062 110.372 115.23 110.065C114.398 109.758 113.464 110.036 112.934 110.747C112.845 110.87 112.771 111.002 112.713 111.141Z" fill="#4D8AF0"/>
<path opacity="0.5" d="M112.493 7.13245C112.493 3.53265 109.575 0.61438 105.975 0.61438C102.375 0.61438 99.457 3.53265 99.457 7.13245C99.457 10.7322 102.375 13.6504 105.975 13.6504C109.575 13.6504 112.493 10.7322 112.493 7.13245Z" fill="#47E6B1"/>
</svg>
