<svg width="632" height="233" viewBox="0 0 632 233" fill="none" xmlns="http://www.w3.org/2000/svg">
<g opacity="0.3">
<g opacity="0.5">
<path d="M121.873 224.771V221.512H103.406V224.771H121.873Z" fill="#47E6B1"/>
<path d="M114.269 213.908H111.01V232.375H114.269V213.908Z" fill="#47E6B1"/>
</g>
<g opacity="0.5">
<path d="M504.08 66.0344V62.7754H485.613V66.0344H504.08Z" fill="#47E6B1"/>
<path d="M496.476 55.1714H493.217V73.6384H496.476V55.1714Z" fill="#47E6B1"/>
</g>
<path opacity="0.5" d="M240.699 76.2524C240.699 79.8522 243.617 82.7704 247.217 82.7704C250.817 82.7704 253.735 79.8522 253.735 76.2524C253.735 72.6526 250.817 69.7344 247.217 69.7344C243.617 69.7344 240.699 72.6526 240.699 76.2524Z" fill="#F55F44"/>
<path opacity="0.5" d="M7.69501 13.4705C6.88516 11.6117 4.81048 10.6552 2.87101 11.2465C2.72729 11.2929 2.57859 11.3221 2.42801 11.3335C1.5432 11.3925 0.725227 10.8617 0.418526 10.0297C0.111824 9.19763 0.389635 8.26297 1.10102 7.73353C1.22291 7.64473 1.35481 7.57055 1.49401 7.51253C3.35287 6.70268 4.30936 4.62799 3.71801 2.68853C3.67166 2.5448 3.64246 2.39611 3.63101 2.24553C3.57763 1.36376 4.10904 0.551415 4.93834 0.247085C5.76764 -0.0572454 6.69838 0.218536 7.22801 0.925527C7.31705 1.04637 7.39156 1.17727 7.45002 1.31553C8.25987 3.17438 10.3346 4.13087 12.274 3.53953C12.4178 3.49323 12.5664 3.46403 12.717 3.45253C13.5988 3.39833 14.4117 3.92909 14.7167 4.7582C15.0217 5.5873 14.7467 6.51833 14.04 7.04853C13.9182 7.13774 13.7863 7.21225 13.647 7.27053C11.7882 8.08038 10.8317 10.1551 11.423 12.0945C11.4693 12.2383 11.4985 12.387 11.51 12.5375C11.5689 13.4223 11.0382 14.2403 10.2062 14.547C9.37411 14.8537 8.43946 14.5759 7.91002 13.8645C7.8232 13.742 7.75104 13.6098 7.69501 13.4705Z" fill="#4D8AF0"/>
<path opacity="0.5" d="M618.18 193.671C618.18 197.27 621.098 200.189 624.698 200.189C628.298 200.189 631.216 197.27 631.216 193.671C631.216 190.071 628.298 187.153 624.698 187.153C621.098 187.153 618.18 190.071 618.18 193.671Z" fill="#4D8AF0"/>
</g>
</svg>
