<svg width="476" height="164" viewBox="0 0 476 164" fill="none" xmlns="http://www.w3.org/2000/svg">
<g opacity="0.5">
<path d="M77.1479 36.7991V40.0581H95.6149V36.7991H77.1479Z" fill="#47E6B1"/>
<path d="M88.011 29.1951H84.752V47.6621H88.011V29.1951Z" fill="#47E6B1"/>
</g>
<g opacity="0.5">
<path d="M362.148 122.799V126.058H380.615V122.799H362.148Z" fill="#47E6B1"/>
<path d="M373.011 115.195H369.752V133.662H373.011V115.195Z" fill="#47E6B1"/>
</g>
<path opacity="0.5" d="M193.125 101.536C193.125 97.9362 190.207 95.018 186.607 95.018C183.007 95.018 180.089 97.9362 180.089 101.536C180.089 105.136 183.007 108.054 186.607 108.054C190.207 108.054 193.125 105.136 193.125 101.536Z" fill="#F55F44"/>
<path opacity="0.5" d="M276.713 2.13998C275.903 3.99883 273.829 4.95532 271.889 4.36398C271.745 4.31764 271.597 4.28846 271.446 4.277C270.561 4.21807 269.743 4.74879 269.437 5.58084C269.13 6.41288 269.408 7.34754 270.119 7.87698C270.241 7.96578 270.373 8.03996 270.512 8.09799C272.371 8.90784 273.327 10.9825 272.736 12.922C272.69 13.0657 272.661 13.2144 272.649 13.365C272.59 14.2498 273.121 15.0678 273.953 15.3745C274.785 15.6812 275.72 15.4034 276.249 14.692C276.338 14.5701 276.412 14.4382 276.47 14.299C277.28 12.4401 279.355 11.4836 281.294 12.075C281.438 12.1213 281.587 12.1505 281.737 12.162C282.622 12.2209 283.44 11.6902 283.747 10.8581C284.053 10.0261 283.775 9.09142 283.064 8.56198C282.942 8.47277 282.81 8.39826 282.671 8.33999C280.812 7.53014 279.856 5.45542 280.447 3.51595C280.493 3.37221 280.523 3.22353 280.534 3.07296C280.593 2.18815 280.062 1.3702 279.23 1.0635C278.398 0.7568 277.464 1.03462 276.934 1.746C276.845 1.86818 276.771 2.00041 276.713 2.13998Z" fill="#4D8AF0"/>
<path opacity="0.5" d="M7.71315 150.14C6.9033 151.999 4.82863 152.956 2.88917 152.364C2.74544 152.318 2.59664 152.289 2.44606 152.277C1.56125 152.218 0.743237 152.749 0.436537 153.581C0.129837 154.413 0.407774 155.348 1.11915 155.877C1.24105 155.966 1.37278 156.04 1.51198 156.098C3.37083 156.908 4.32744 158.983 3.7361 160.922C3.68974 161.066 3.66062 161.215 3.64918 161.365C3.59025 162.25 4.12085 163.068 4.95289 163.375C5.78494 163.681 6.7196 163.404 7.24904 162.692C7.33793 162.57 7.41205 162.438 7.46998 162.299C8.27983 160.44 10.3547 159.484 12.2942 160.075C12.4379 160.122 12.5865 160.151 12.7371 160.162C13.6219 160.221 14.4399 159.69 14.7466 158.858C15.0533 158.026 14.7754 157.092 14.064 156.562C13.9422 156.473 13.8104 156.399 13.6712 156.34C11.8123 155.53 10.8557 153.456 11.447 151.516C11.4933 151.372 11.5227 151.224 11.5342 151.073C11.5931 150.188 11.0623 149.37 10.2302 149.064C9.39819 148.757 8.46354 149.035 7.9341 149.746C7.84519 149.868 7.77106 150.001 7.71315 150.14Z" fill="#4D8AF0"/>
<path opacity="0.5" d="M475.403 53.924C475.403 50.3242 472.485 47.4059 468.885 47.4059C465.285 47.4059 462.367 50.3242 462.367 53.924C462.367 57.5237 465.285 60.4419 468.885 60.4419C472.485 60.4419 475.403 57.5237 475.403 53.924Z" fill="#4D8AF0"/>
</svg>
