<svg width="1160" height="2989" viewBox="0 0 1160 2989" fill="none" xmlns="http://www.w3.org/2000/svg">
<g opacity="0.5">
<path d="M11.6418 0.847168H8.38281V19.3142H11.6418V0.847168Z" fill="#47E6B1"/>
<path d="M19.2456 11.7102V8.45117L0.778606 8.45117V11.7102L19.2456 11.7102Z" fill="#47E6B1"/>
</g>
<g opacity="0.5">
<path d="M759.642 720.847H756.383V739.314H759.642V720.847Z" fill="#47E6B1"/>
<path d="M767.246 731.71V728.451H748.779V731.71H767.246Z" fill="#47E6B1"/>
</g>
<path opacity="0.5" d="M375.905 349.823C379.505 349.823 382.423 346.905 382.423 343.305C382.423 339.705 379.505 336.787 375.905 336.787C372.305 336.787 369.387 339.705 369.387 343.305C369.387 346.905 372.305 349.823 375.905 349.823Z" fill="#F55F44"/>
<path opacity="0.5" d="M874.905 806.823C876.848 806.823 878.423 805.248 878.423 803.305C878.423 801.362 876.848 799.787 874.905 799.787C872.962 799.787 871.387 801.362 871.387 803.305C871.387 805.248 872.962 806.823 874.905 806.823Z" fill="#F55F44"/>
<path opacity="0.5" d="M1112.91 494.823C1116.5 494.823 1119.42 491.905 1119.42 488.305C1119.42 484.705 1116.5 481.787 1112.91 481.787C1109.31 481.787 1106.39 484.705 1106.39 488.305C1106.39 491.905 1109.31 494.823 1112.91 494.823Z" fill="#F55F44"/>
<path opacity="0.5" d="M238.3 286.412C236.441 285.602 235.485 283.527 236.076 281.588C236.122 281.444 236.152 281.296 236.163 281.145C236.222 280.26 235.691 279.442 234.859 279.136C234.027 278.829 233.092 279.107 232.563 279.818C232.474 279.94 232.4 280.072 232.342 280.211C231.532 282.07 229.457 283.026 227.518 282.435C227.374 282.389 227.226 282.359 227.075 282.348C226.19 282.289 225.372 282.82 225.065 283.652C224.759 284.484 225.037 285.419 225.748 285.948C225.87 286.037 226.002 286.111 226.141 286.169C228 286.979 228.956 289.053 228.365 290.993C228.319 291.137 228.289 291.285 228.278 291.436C228.219 292.321 228.75 293.139 229.582 293.446C230.414 293.752 231.349 293.474 231.878 292.763C231.967 292.641 232.042 292.509 232.1 292.37C232.91 290.511 234.985 289.555 236.924 290.146C237.068 290.192 237.216 290.221 237.367 290.233C238.252 290.292 239.07 289.761 239.376 288.929C239.683 288.097 239.405 287.163 238.694 286.633C238.572 286.544 238.44 286.47 238.3 286.412Z" fill="#4D8AF0"/>
<path opacity="0.5" d="M1008.3 441.39C1006.44 440.58 1005.48 438.505 1006.08 436.566C1006.12 436.422 1006.15 436.274 1006.16 436.123C1006.22 435.238 1005.69 434.42 1004.86 434.114C1004.03 433.807 1003.09 434.085 1002.56 434.796C1002.47 434.918 1002.4 435.05 1002.34 435.189C1001.53 437.048 999.457 438.004 997.518 437.413C997.374 437.367 997.225 437.337 997.075 437.326C996.19 437.267 995.372 437.798 995.065 438.63C994.759 439.462 995.037 440.397 995.748 440.926C995.87 441.015 996.002 441.089 996.141 441.147C998 441.957 998.956 444.032 998.365 445.971C998.319 446.115 998.289 446.264 998.278 446.414C998.219 447.299 998.75 448.117 999.582 448.424C1000.41 448.73 1001.35 448.452 1001.88 447.741C1001.97 447.619 1002.04 447.487 1002.1 447.348C1002.91 445.489 1004.98 444.533 1006.92 445.124C1007.07 445.17 1007.22 445.199 1007.37 445.211C1008.25 445.27 1009.07 444.739 1009.38 443.907C1009.68 443.075 1009.41 442.141 1008.69 441.611C1008.57 441.522 1008.44 441.448 1008.3 441.39Z" fill="#4D8AF0"/>
<path opacity="0.5" d="M120.517 40.1019C124.117 40.1019 127.035 37.1837 127.035 33.5839C127.035 29.9841 124.117 27.0659 120.517 27.0659C116.917 27.0659 113.999 29.9841 113.999 33.5839C113.999 37.1837 116.917 40.1019 120.517 40.1019Z" fill="#4D8AF0"/>
<path opacity="0.5" d="M655.517 780.102C659.117 780.102 662.035 777.184 662.035 773.584C662.035 769.984 659.117 767.066 655.517 767.066C651.917 767.066 648.999 769.984 648.999 773.584C648.999 777.184 651.917 780.102 655.517 780.102Z" fill="#4D8AF0"/>
<path d="M411.844 271.754C413.599 271.754 415.022 270.331 415.022 268.576C415.022 266.821 413.599 265.398 411.844 265.398C410.089 265.398 408.666 266.821 408.666 268.576C408.666 270.331 410.089 271.754 411.844 271.754Z" fill="#DBDBDB"/>
<g opacity="0.5">
<path d="M230.642 1722.85H227.383V1741.31H230.642V1722.85Z" fill="#47E6B1"/>
<path d="M238.246 1733.71V1730.45H219.779V1733.71H238.246Z" fill="#47E6B1"/>
</g>
<path opacity="0.5" d="M932.905 1339.82C936.505 1339.82 939.423 1336.9 939.423 1333.3C939.423 1329.71 936.505 1326.79 932.905 1326.79C929.305 1326.79 926.387 1329.71 926.387 1333.3C926.387 1336.9 929.305 1339.82 932.905 1339.82Z" fill="#F55F44"/>
<path opacity="0.5" d="M409.905 1780.82C413.505 1780.82 416.423 1777.9 416.423 1774.3C416.423 1770.71 413.505 1767.79 409.905 1767.79C406.305 1767.79 403.387 1770.71 403.387 1774.3C403.387 1777.9 406.305 1780.82 409.905 1780.82Z" fill="#F55F44"/>
<path opacity="0.5" d="M780.3 1288.39C778.441 1287.58 777.485 1285.51 778.076 1283.57C778.122 1283.42 778.151 1283.27 778.163 1283.12C778.222 1282.24 777.691 1281.42 776.859 1281.11C776.027 1280.81 775.092 1281.08 774.563 1281.8C774.474 1281.92 774.4 1282.05 774.342 1282.19C773.532 1284.05 771.457 1285 769.518 1284.41C769.374 1284.37 769.225 1284.34 769.075 1284.33C768.19 1284.27 767.372 1284.8 767.065 1285.63C766.759 1286.46 767.037 1287.4 767.748 1287.93C767.87 1288.01 768.002 1288.09 768.141 1288.15C770 1288.96 770.956 1291.03 770.365 1292.97C770.319 1293.11 770.289 1293.26 770.278 1293.41C770.219 1294.3 770.75 1295.12 771.582 1295.42C772.414 1295.73 773.349 1295.45 773.878 1294.74C773.967 1294.62 774.042 1294.49 774.1 1294.35C774.91 1292.49 776.984 1291.53 778.924 1292.12C779.068 1292.17 779.216 1292.2 779.367 1292.21C780.252 1292.27 781.07 1291.74 781.376 1290.91C781.683 1290.08 781.405 1289.14 780.694 1288.61C780.572 1288.52 780.44 1288.45 780.3 1288.39Z" fill="#4D8AF0"/>
<path opacity="0.5" d="M361.3 1461.39C359.441 1460.58 358.485 1458.51 359.076 1456.57C359.122 1456.42 359.152 1456.27 359.163 1456.12C359.222 1455.24 358.691 1454.42 357.859 1454.11C357.027 1453.81 356.092 1454.08 355.563 1454.8C355.474 1454.92 355.4 1455.05 355.342 1455.19C354.532 1457.05 352.457 1458 350.518 1457.41C350.374 1457.37 350.226 1457.34 350.075 1457.33C349.19 1457.27 348.372 1457.8 348.065 1458.63C347.759 1459.46 348.037 1460.4 348.748 1460.93C348.87 1461.01 349.002 1461.09 349.141 1461.15C351 1461.96 351.956 1464.03 351.365 1465.97C351.319 1466.11 351.289 1466.26 351.278 1466.41C351.219 1467.3 351.75 1468.12 352.582 1468.42C353.414 1468.73 354.349 1468.45 354.878 1467.74C354.967 1467.62 355.042 1467.49 355.1 1467.35C355.91 1465.49 357.985 1464.53 359.924 1465.12C360.068 1465.17 360.216 1465.2 360.367 1465.21C361.252 1465.27 362.07 1464.74 362.376 1463.91C362.683 1463.08 362.405 1462.14 361.694 1461.61C361.572 1461.52 361.44 1461.45 361.3 1461.39Z" fill="#4D8AF0"/>
<path opacity="0.5" d="M516.3 1703.39C514.441 1702.58 513.485 1700.5 514.076 1698.56C514.122 1698.42 514.152 1698.27 514.163 1698.12C514.222 1697.24 513.691 1696.42 512.859 1696.11C512.027 1695.81 511.092 1696.08 510.563 1696.79C510.474 1696.92 510.4 1697.05 510.342 1697.19C509.532 1699.05 507.457 1700 505.518 1699.41C505.374 1699.37 505.226 1699.34 505.075 1699.33C504.19 1699.27 503.372 1699.8 503.065 1700.63C502.759 1701.46 503.037 1702.4 503.748 1702.93C503.87 1703.01 504.002 1703.09 504.141 1703.15C506 1703.96 506.956 1706.03 506.365 1707.97C506.319 1708.11 506.289 1708.26 506.278 1708.41C506.219 1709.3 506.75 1710.12 507.582 1710.42C508.414 1710.73 509.349 1710.45 509.878 1709.74C509.967 1709.62 510.042 1709.49 510.1 1709.35C510.91 1707.49 512.985 1706.53 514.924 1707.12C515.068 1707.17 515.216 1707.2 515.367 1707.21C516.252 1707.27 517.07 1706.74 517.376 1705.91C517.683 1705.07 517.405 1704.14 516.694 1703.61C516.572 1703.52 516.44 1703.45 516.3 1703.39Z" fill="#4D8AF0"/>
<path opacity="0.5" d="M1025.91 997.823C1027.85 997.823 1029.42 996.248 1029.42 994.305C1029.42 992.362 1027.85 990.787 1025.91 990.787C1023.96 990.787 1022.39 992.362 1022.39 994.305C1022.39 996.248 1023.96 997.823 1025.91 997.823Z" fill="#F55F44"/>
<path opacity="0.5" d="M483.905 1374.82C485.848 1374.82 487.423 1373.25 487.423 1371.3C487.423 1369.36 485.848 1367.79 483.905 1367.79C481.962 1367.79 480.387 1369.36 480.387 1371.3C480.387 1373.25 481.962 1374.82 483.905 1374.82Z" fill="#F55F44"/>
<path opacity="0.5" d="M1114.52 1025.1C1118.12 1025.1 1121.04 1022.18 1121.04 1018.58C1121.04 1014.98 1118.12 1012.07 1114.52 1012.07C1110.92 1012.07 1108 1014.98 1108 1018.58C1108 1022.18 1110.92 1025.1 1114.52 1025.1Z" fill="#4D8AF0"/>
<path d="M657.844 1348.75C659.599 1348.75 661.022 1347.33 661.022 1345.58C661.022 1343.82 659.599 1342.4 657.844 1342.4C656.089 1342.4 654.666 1343.82 654.666 1345.58C654.666 1347.33 656.089 1348.75 657.844 1348.75Z" fill="#DBDBDB"/>
<g opacity="0.5">
<path d="M86.6418 1981.85H83.3828V2000.31H86.6418V1981.85Z" fill="#47E6B1"/>
<path d="M94.2456 1992.71V1989.45H75.7786V1992.71H94.2456Z" fill="#47E6B1"/>
</g>
<g opacity="0.5">
<path d="M833.642 2573.85H830.383V2592.31H833.642V2573.85Z" fill="#47E6B1"/>
<path d="M841.246 2584.71V2581.45H822.779V2584.71H841.246Z" fill="#47E6B1"/>
</g>
<g opacity="0.5">
<path d="M287.642 2629.85H284.383V2648.31H287.642V2629.85Z" fill="#47E6B1"/>
<path d="M295.246 2640.71V2637.45H276.779V2640.71H295.246Z" fill="#47E6B1"/>
</g>
<path opacity="0.5" d="M490.905 1981.82C494.505 1981.82 497.423 1978.9 497.423 1975.3C497.423 1971.71 494.505 1968.79 490.905 1968.79C487.305 1968.79 484.387 1971.71 484.387 1975.3C484.387 1978.9 487.305 1981.82 490.905 1981.82Z" fill="#F55F44"/>
<path opacity="0.5" d="M539.905 2680.82C543.505 2680.82 546.423 2677.9 546.423 2674.31C546.423 2670.71 543.505 2667.79 539.905 2667.79C536.305 2667.79 533.387 2670.71 533.387 2674.31C533.387 2677.9 536.305 2680.82 539.905 2680.82Z" fill="#F55F44"/>
<path opacity="0.5" d="M1153.48 2548.82C1157.08 2548.82 1160 2545.9 1160 2542.31C1160 2538.71 1157.08 2535.79 1153.48 2535.79C1149.88 2535.79 1146.96 2538.71 1146.96 2542.31C1146.96 2545.9 1149.88 2548.82 1153.48 2548.82Z" fill="#F55F44"/>
<path opacity="0.5" d="M228.3 2043.39C226.441 2042.58 225.485 2040.5 226.076 2038.56C226.122 2038.42 226.152 2038.27 226.163 2038.12C226.222 2037.24 225.691 2036.42 224.859 2036.11C224.027 2035.81 223.092 2036.08 222.563 2036.79C222.474 2036.92 222.4 2037.05 222.342 2037.19C221.532 2039.05 219.457 2040 217.518 2039.41C217.374 2039.37 217.226 2039.34 217.075 2039.33C216.19 2039.27 215.372 2039.8 215.065 2040.63C214.759 2041.46 215.037 2042.4 215.748 2042.93C215.87 2043.01 216.002 2043.09 216.141 2043.15C218 2043.96 218.956 2046.03 218.365 2047.97C218.319 2048.11 218.289 2048.26 218.278 2048.41C218.219 2049.3 218.75 2050.12 219.582 2050.42C220.414 2050.73 221.349 2050.45 221.878 2049.74C221.967 2049.62 222.042 2049.49 222.1 2049.35C222.91 2047.49 224.985 2046.53 226.924 2047.12C227.068 2047.17 227.216 2047.2 227.367 2047.21C228.252 2047.27 229.07 2046.74 229.376 2045.91C229.683 2045.07 229.405 2044.14 228.694 2043.61C228.572 2043.52 228.44 2043.45 228.3 2043.39Z" fill="#4D8AF0"/>
<path opacity="0.5" d="M54.2999 2710.39C52.4411 2709.58 51.4846 2707.5 52.0759 2705.56C52.1223 2705.42 52.1515 2705.27 52.1629 2705.12C52.2219 2704.24 51.6911 2703.42 50.8591 2703.11C50.027 2702.81 49.0924 2703.08 48.5629 2703.79C48.4741 2703.92 48.4 2704.05 48.342 2704.19C47.5321 2706.05 45.4574 2707 43.518 2706.41C43.3742 2706.37 43.2255 2706.34 43.075 2706.33C42.1901 2706.27 41.3722 2706.8 41.0655 2707.63C40.7588 2708.46 41.0366 2709.4 41.7479 2709.92C41.8698 2710.01 42.0017 2710.09 42.1409 2710.15C43.9998 2710.96 44.9563 2713.03 44.3649 2714.97C44.3186 2715.11 44.2895 2715.26 44.278 2715.41C44.219 2716.3 44.7498 2717.12 45.5818 2717.42C46.4138 2717.73 47.3485 2717.45 47.8779 2716.74C47.9672 2716.62 48.0417 2716.49 48.1 2716.35C48.9098 2714.49 50.9845 2713.53 52.924 2714.12C53.0677 2714.17 53.2164 2714.2 53.367 2714.21C54.2518 2714.27 55.0697 2713.74 55.3764 2712.91C55.6831 2712.07 55.4053 2711.14 54.694 2710.61C54.5718 2710.52 54.4395 2710.45 54.2999 2710.39Z" fill="#4D8AF0"/>
<path opacity="0.5" d="M1060.3 2699.39C1058.44 2698.58 1057.48 2696.5 1058.08 2694.56C1058.12 2694.42 1058.15 2694.27 1058.16 2694.12C1058.22 2693.24 1057.69 2692.42 1056.86 2692.11C1056.03 2691.81 1055.09 2692.08 1054.56 2692.79C1054.47 2692.92 1054.4 2693.05 1054.34 2693.19C1053.53 2695.05 1051.46 2696 1049.52 2695.41C1049.37 2695.37 1049.23 2695.34 1049.07 2695.33C1048.19 2695.27 1047.37 2695.8 1047.07 2696.63C1046.76 2697.46 1047.04 2698.4 1047.75 2698.92C1047.87 2699.01 1048 2699.09 1048.14 2699.15C1050 2699.96 1050.96 2702.03 1050.36 2703.97C1050.32 2704.11 1050.29 2704.26 1050.28 2704.41C1050.22 2705.3 1050.75 2706.12 1051.58 2706.42C1052.41 2706.73 1053.35 2706.45 1053.88 2705.74C1053.97 2705.62 1054.04 2705.49 1054.1 2705.35C1054.91 2703.49 1056.98 2702.53 1058.92 2703.12C1059.07 2703.17 1059.22 2703.2 1059.37 2703.21C1060.25 2703.27 1061.07 2702.74 1061.38 2701.91C1061.68 2701.07 1061.41 2700.14 1060.69 2699.61C1060.57 2699.52 1060.44 2699.45 1060.3 2699.39Z" fill="#4D8AF0"/>
<path d="M697.844 2720.75C699.599 2720.75 701.022 2719.33 701.022 2717.58C701.022 2715.82 699.599 2714.4 697.844 2714.4C696.089 2714.4 694.666 2715.82 694.666 2717.58C694.666 2719.33 696.089 2720.75 697.844 2720.75Z" fill="#DBDBDB"/>
<path opacity="0.5" d="M303.905 2920.82C307.505 2920.82 310.423 2917.9 310.423 2914.31C310.423 2910.71 307.505 2907.79 303.905 2907.79C300.305 2907.79 297.387 2910.71 297.387 2914.31C297.387 2917.9 300.305 2920.82 303.905 2920.82Z" fill="#F55F44"/>
<path opacity="0.5" d="M1090.91 2988.82C1094.5 2988.82 1097.42 2985.9 1097.42 2982.31C1097.42 2978.71 1094.5 2975.79 1090.91 2975.79C1087.31 2975.79 1084.39 2978.71 1084.39 2982.31C1084.39 2985.9 1087.31 2988.82 1090.91 2988.82Z" fill="#F55F44"/>
<g opacity="0.5">
<path d="M492.642 2944.85H489.383V2963.31H492.642V2944.85Z" fill="#47E6B1"/>
<path d="M500.246 2955.71V2952.45H481.779V2955.71H500.246Z" fill="#47E6B1"/>
</g>
<g opacity="0.5">
<path d="M789.642 2950.85H786.383V2969.31H789.642V2950.85Z" fill="#47E6B1"/>
<path d="M797.246 2961.71V2958.45H778.779V2961.71H797.246Z" fill="#47E6B1"/>
</g>
<path opacity="0.5" d="M719.3 2928.39C717.441 2927.58 716.485 2925.5 717.076 2923.56C717.122 2923.42 717.151 2923.27 717.163 2923.12C717.222 2922.24 716.691 2921.42 715.859 2921.11C715.027 2920.81 714.092 2921.08 713.563 2921.79C713.474 2921.92 713.4 2922.05 713.342 2922.19C712.532 2924.05 710.457 2925 708.518 2924.41C708.374 2924.37 708.225 2924.34 708.075 2924.33C707.19 2924.27 706.372 2924.8 706.065 2925.63C705.759 2926.46 706.037 2927.4 706.748 2927.92C706.87 2928.01 707.002 2928.09 707.141 2928.15C709 2928.96 709.956 2931.03 709.365 2932.97C709.319 2933.11 709.289 2933.26 709.278 2933.41C709.219 2934.3 709.75 2935.12 710.582 2935.42C711.414 2935.73 712.349 2935.45 712.878 2934.74C712.967 2934.62 713.042 2934.49 713.1 2934.35C713.91 2932.49 715.984 2931.53 717.924 2932.12C718.068 2932.17 718.216 2932.2 718.367 2932.21C719.252 2932.27 720.07 2931.74 720.376 2930.91C720.683 2930.07 720.405 2929.14 719.694 2928.61C719.572 2928.52 719.44 2928.45 719.3 2928.39Z" fill="#4D8AF0"/>
</svg>
