<svg width="801" height="82" viewBox="0 0 801 82" fill="none" xmlns="http://www.w3.org/2000/svg">
<path opacity="0.5" d="M6.90521 13.8232C10.505 13.8232 13.4232 10.905 13.4232 7.30518C13.4232 3.70538 10.505 0.787109 6.90521 0.787109C3.30542 0.787109 0.387207 3.70538 0.387207 7.30518C0.387207 10.905 3.30542 13.8232 6.90521 13.8232Z" fill="#F55F44"/>
<path opacity="0.5" d="M793.905 81.8232C797.505 81.8232 800.423 78.905 800.423 75.3052C800.423 71.7054 797.505 68.7871 793.905 68.7871C790.305 68.7871 787.387 71.7054 787.387 75.3052C787.387 78.905 790.305 81.8232 793.905 81.8232Z" fill="#F55F44"/>
<path d="M195.642 37.8472H192.383V56.3142H195.642V37.8472Z" fill="#47E6B1"/>
<path d="M203.246 48.7102V45.4512H184.779V48.7102H203.246Z" fill="#47E6B1"/>
<path d="M492.642 43.8472H489.383V62.3142H492.642V43.8472Z" fill="#47E6B1"/>
<path d="M500.246 54.7102V51.4512H481.779V54.7102H500.246Z" fill="#47E6B1"/>
<path opacity="0.5" d="M422.3 21.3892C420.441 20.5793 419.485 18.5044 420.076 16.565C420.122 16.4212 420.151 16.2727 420.163 16.1221C420.222 15.2373 419.691 14.419 418.859 14.1123C418.027 13.8056 417.092 14.0836 416.563 14.7949C416.474 14.9168 416.4 15.0488 416.342 15.188C415.532 17.0469 413.457 18.0035 411.518 17.4121C411.374 17.3658 411.225 17.3366 411.075 17.3252C410.19 17.2663 409.372 17.7969 409.065 18.6289C408.759 19.461 409.037 20.3954 409.748 20.9248C409.87 21.0137 410.002 21.0881 410.141 21.146C412 21.9559 412.956 24.0308 412.365 25.9702C412.319 26.114 412.289 26.2625 412.278 26.4131C412.219 27.2979 412.75 28.1157 413.582 28.4224C414.414 28.7291 415.349 28.4516 415.878 27.7402C415.967 27.6184 416.042 27.4865 416.1 27.3472C416.91 25.4883 418.984 24.5317 420.924 25.1231C421.068 25.1693 421.216 25.1985 421.367 25.21C422.252 25.2689 423.07 24.7383 423.376 23.9063C423.683 23.0742 423.405 22.1393 422.694 21.6099C422.572 21.521 422.44 21.4471 422.3 21.3892Z" fill="#4D8AF0"/>
</svg>
