<svg width="200" height="162" viewBox="0 0 200 162" fill="none" xmlns="http://www.w3.org/2000/svg">
<path d="M80 161C123.63 161 159 125.63 159 82C159 38.3695 123.63 3 80 3C36.3695 3 1 38.3695 1 82C1 125.63 36.3695 161 80 161Z" stroke="#B40031" stroke-width="2"/>
<path d="M27 58C41.9117 58 54 45.9117 54 31C54 16.0883 41.9117 4 27 4C12.0883 4 0 16.0883 0 31C0 45.9117 12.0883 58 27 58Z" fill="white"/>
<path d="M25.056 47V16.28L28.416 19.64H18.336V13.4H32.832V47H25.056Z" fill="#B40031"/>
<path opacity="0.1" d="M61.697 23.8632C68.476 17.8072 79.119 16.5732 88.805 17.0552C119.23 18.5702 146.694 33.2792 170.45 49.9192C179.05 55.9432 187.517 62.4402 193.105 70.7302C204.47 87.6162 201.098 111.01 185.297 124.921C179.92 129.655 173.402 133.283 166.712 136.5C154.812 142.219 141.982 146.808 128.478 148.115C118.849 149.046 109.109 148.287 99.529 146.99C72.784 143.357 46.529 135.327 24.529 121.581C14.874 115.554 5.77803 108.06 1.80003 98.3042C-2.17797 88.5482 0.36504 76.2012 10.219 70.4252C14.295 68.0372 19.167 66.9602 23.938 65.9472C30.961 64.4582 38.095 62.9882 44.433 59.9592C50.979 56.8302 58.728 50.7792 57.433 43.8532C56.042 36.4272 54.927 29.9012 61.697 23.8632Z" fill="#ED1D55"/>
<path d="M44.3931 93.196C45.4617 92.4602 46.817 92.2779 48.0421 92.705C48.0421 92.705 47.5231 93.805 45.2111 93.794L44.3931 93.196Z" fill="#4D8AF0"/>
<path d="M44.17 93.2671C43.9122 94.5392 44.2767 95.8579 45.151 96.8171C45.151 96.8171 45.96 95.9061 45.04 93.7851L44.17 93.2671Z" fill="#ED1D55"/>
<path d="M41.7991 91.303C41.7991 91.303 41.8651 89.485 45.9811 89.93C45.9468 90.7469 45.4079 91.4561 44.6301 91.708C43.7029 92.2263 42.5437 92.0605 41.7991 91.303Z" fill="#ED1D55"/>
<path d="M41.5451 91.2979C41.5451 91.2979 39.8351 91.9208 41.5261 95.6978C42.2925 95.4135 42.8011 94.6823 42.801 93.8648C43.0055 92.8243 42.4921 91.775 41.5451 91.2979Z" fill="#ED1D55"/>
<path d="M39.129 88.8068C39.129 88.8068 38.783 85.8328 42.975 85.9778C42.975 85.9778 43.375 88.6668 39.895 89.4958L39.129 88.8068Z" fill="#ED1D55"/>
<path d="M113.974 69.0416C114.904 68.1365 116.21 67.7284 117.49 67.9425C117.49 67.9425 117.163 69.1189 114.879 69.4972L113.974 69.0416Z" fill="#ED1D55"/>
<path d="M113.766 69.1511C113.726 70.4479 114.307 71.6858 115.329 72.4845C115.329 72.4845 115.969 71.4537 114.714 69.5142L113.766 69.1511Z" fill="#ED1D55"/>
<path d="M111.097 67.6207C111.097 67.6207 110.857 65.8171 114.987 65.5625C115.093 66.3746 114.682 67.167 113.956 67.5466C113.128 68.211 111.958 68.2413 111.097 67.6207Z" fill="#ED1D55"/>
<path d="M110.848 67.6612C110.848 67.6612 109.274 68.56 111.572 72.0063C112.281 71.5964 112.659 70.7881 112.52 69.9812C112.548 68.9199 111.864 67.9705 110.848 67.6612Z" fill="#ED1D55"/>
<path d="M108.047 65.6158C108.047 65.6158 107.204 62.7457 111.361 62.1801C111.361 62.1801 112.209 64.7626 108.918 66.1656L108.047 65.6158Z" fill="#ED1D55"/>
<path d="M104.646 62.8844C104.646 62.8844 104.511 59.4593 108.812 59.5809C108.812 59.5809 109.43 62.4398 105.48 63.5346L104.646 62.8844Z" fill="#ED1D55"/>
<path d="M101.952 59.8994C101.952 59.8994 102.212 56.4672 106.474 56.5851C106.081 58.6287 104.414 60.185 102.348 60.4371L101.952 59.8994Z" fill="#ED1D55"/>
<path d="M99.3716 56.966C99.3716 56.966 99.5876 53.425 103.714 53.6074C103.714 53.6074 103.077 57.0613 99.7512 57.4819L99.3716 56.966Z" fill="#ED1D55"/>
<path d="M97.4949 54.0577C97.4949 54.0577 97.3406 49.8165 101.184 49.9537C101.184 49.9537 100.906 53.8999 97.8894 54.5963L97.4949 54.0577Z" fill="#ED1D55"/>
<path d="M95.5558 50.4746C95.5558 50.4746 95.5347 46.1711 99.4788 46.5946C99.4788 46.5946 98.8502 50.797 95.9331 50.9905L95.5558 50.4746Z" fill="#ED1D55"/>
<path d="M94.1041 47.0662C94.1041 47.0662 94.5764 42.6606 97.4626 42.1686C97.4626 42.1686 97.002 46.8152 94.5183 47.844L94.1041 47.0662Z" fill="#ED1D55"/>
<path d="M92.9339 43.6864C92.9339 43.6864 93.3522 38.4126 95.7602 38.3058C95.7602 38.3058 95.5438 42.315 93.1808 44.4461L92.9339 43.6864Z" fill="#ED1D55"/>
<path d="M91.8004 39.6005C91.8004 39.6005 92.3043 35.1731 94.5619 34.5245C94.5619 34.5245 94.491 38.7907 92.0786 40.6641L91.8004 39.6005Z" fill="#ED1D55"/>
<path d="M90.7111 35.7975C90.7111 35.7975 91.549 31.2898 93.0499 30.883C93.0499 30.883 93.1639 35.1178 91.0045 36.446L90.7111 35.7975Z" fill="#ED1D55"/>
<path d="M89.7651 32.2445C89.7651 32.2445 89.8746 27.5299 91.3076 26.8312C91.3076 26.8312 91.8739 30.555 89.9897 32.5532L89.7651 32.2445Z" fill="#ED1D55"/>
<path d="M88.2043 27.6616C88.2043 27.6616 88.5585 23.8436 89.6678 23.0337C89.6678 23.0337 90.3148 27.3123 88.6707 28.4733L88.2043 27.6616Z" fill="#ED1D55"/>
<path d="M87.0796 24.6725L85.5283 18.3923C85.5283 18.3923 88.8194 22.6839 87.4787 25.7441L87.0796 24.6725Z" fill="#ED1D55"/>
<path d="M83.9868 18.7613C83.9868 18.7613 81.364 14.4928 80.9105 14.312C80.9105 14.312 84.7823 16.6242 85.275 20.5471L83.9868 18.7613Z" fill="#ED1D55"/>
<path d="M107.933 65.6218C107.933 65.6218 104.941 65.8565 105.9 69.9413C105.9 69.9413 108.614 69.8165 108.757 66.2412L107.933 65.6218Z" fill="#ED1D55"/>
<path d="M104.486 62.8098C104.486 62.8098 101.128 63.5062 102.285 67.6508C102.285 67.6508 105.21 67.5623 105.315 63.465L104.486 62.8098Z" fill="#ED1D55"/>
<path d="M101.977 60.1783C101.977 60.1783 98.6293 59.3902 97.4539 63.4908C99.5209 63.7325 101.508 62.6119 102.37 60.7178L101.977 60.1783Z" fill="#ED1D55"/>
<path d="M99.3111 57.0102C99.3111 57.0102 95.8703 56.1473 94.7969 60.1353C94.7969 60.1353 98.2836 60.5708 99.6903 57.5297L99.3111 57.0102Z" fill="#ED1D55"/>
<path d="M97.555 54.1382C97.555 54.1382 93.9472 51.9036 92.1605 55.3067C92.1605 55.3067 95.7276 57.0211 97.8248 54.7493L97.555 54.1382Z" fill="#ED1D55"/>
<path d="M95.7055 50.3413C95.7055 50.3413 92.0659 48.0443 90.3359 51.6115C90.3359 51.6115 94.2334 53.3136 95.9398 50.9357L95.7055 50.3413Z" fill="#ED1D55"/>
<path d="M94.3867 46.8853C94.3867 46.8853 91.2901 43.7134 88.7238 45.1109C88.7238 45.1109 91.9565 48.4839 94.5454 47.7562L94.3867 46.8853Z" fill="#ED1D55"/>
<path d="M92.9914 43.6536C92.9914 43.6536 89.6729 39.5308 87.6258 40.7995C87.6258 40.7995 90.0633 43.9907 93.215 44.4162L92.9914 43.6536Z" fill="#ED1D55"/>
<path d="M91.9129 39.3298C91.9129 39.3298 88.7366 36.2041 86.571 37.1235C86.571 37.1235 89.3172 40.392 92.3677 40.3326L91.9129 39.3298Z" fill="#ED1D55"/>
<path d="M90.9498 35.6622C90.9498 35.6622 88.2282 31.9794 86.6915 32.2675C86.6915 32.2675 88.4417 36.1254 90.9624 36.3763L90.9498 35.6622Z" fill="#ED1D55"/>
<path d="M89.8211 32.141C89.8211 32.141 86.8745 28.4505 85.3125 28.7705C85.3125 28.7705 87.1189 32.0756 89.8289 32.5175L89.8211 32.141Z" fill="#ED1D55"/>
<path d="M88.5894 27.8449C88.5894 27.8449 86.3177 24.7566 84.9497 24.64C84.9497 24.64 86.5995 28.64 88.6158 28.7888L88.5894 27.8449Z" fill="#ED1D55"/>
<path d="M86.867 24.5855L82.2819 20.0274C82.2819 20.0274 84.2642 25.061 87.5863 25.4861L86.867 24.5855Z" fill="#ED1D55"/>
<path d="M83.2799 19.3538C83.2799 19.3538 78.6578 17.4171 78.4176 16.9985C78.4176 16.9985 81.2982 20.469 85.2459 20.3554L83.2799 19.3538Z" fill="#ED1D55"/>
<path d="M82.7747 18.1537C82.7747 18.1537 77.2031 14.675 76.0221 14.9277C78.6504 14.6887 81.2191 15.8064 82.8358 17.8925L82.7747 18.1537Z" fill="#ED1D55"/>
<path d="M88.6817 28.5126L88.5122 28.572C86.2113 21.9397 84.0946 18.1777 82.5551 17.9823L82.5788 17.8086C84.2124 18.0189 86.321 21.7211 88.6817 28.5126Z" fill="#ED1D55"/>
<path d="M93.398 44.5482L93.1468 44.6235C92.9605 43.9979 92.7785 43.3521 92.6153 42.7125C91.1859 37.1232 89.7201 32.0239 88.4056 28.2459L88.5157 28.0304C89.8344 31.8231 91.4367 37.0515 92.8693 42.647C93.0248 43.2827 93.2076 43.9191 93.398 44.5482Z" fill="#ED1D55"/>
<path d="M119.416 71.281C115.617 70.2835 112.02 68.636 108.783 66.4115C105.466 64.1878 102.522 61.4522 100.062 58.3066C96.8689 54.0412 94.4755 49.2326 92.9971 44.1139L93.2883 44.1832C95.8249 53.086 101.366 60.8357 108.97 66.1154C112.169 68.3228 115.727 69.9563 119.487 70.9428L119.416 71.281Z" fill="#ED1D55"/>
<g opacity="0.7">
<path d="M109.628 67.4458C110.868 67.0618 112.217 67.2909 113.26 68.0628C113.26 68.0628 112.435 68.9628 110.232 68.2628L109.628 67.4458Z" fill="#ED1D55"/>
<path d="M109.393 67.4492C108.77 68.5869 108.725 69.9536 109.274 71.1292C109.274 71.1292 110.312 70.5012 110.074 68.2032L109.393 67.4492Z" fill="#ED1D55"/>
<path d="M107.71 64.8781C107.71 64.8781 108.315 63.1621 112.11 64.8111C111.836 65.5832 111.11 66.1023 110.291 66.1111C109.251 66.327 108.195 65.8226 107.71 64.8781Z" fill="#ED1D55"/>
<path d="M107.47 64.7959C107.47 64.7959 105.654 64.8819 106.142 68.9959C106.959 68.953 107.663 68.406 107.906 67.6249C108.414 66.6913 108.236 65.5331 107.47 64.7959Z" fill="#ED1D55"/>
<path d="M105.903 61.7028C105.903 61.7028 106.455 58.7628 110.415 60.1468C110.415 60.1468 109.998 62.8328 106.429 62.5888L105.903 61.7028Z" fill="#ED1D55"/>
<path d="M104.112 57.7269C104.112 57.7269 105.547 54.6139 109.324 56.6759C109.324 56.6759 108.577 59.5039 104.56 58.6859L104.112 57.7269Z" fill="#ED1D55"/>
<path d="M103.067 53.8378C103.067 53.8378 104.857 50.8978 108.601 52.9378C107.322 54.579 105.13 55.2076 103.176 54.4938L103.067 53.8378Z" fill="#ED1D55"/>
<path d="M102.1 50.0572C102.1 50.0572 103.9 46.9992 107.494 49.0352C107.494 49.0352 105.358 51.8232 102.204 50.6882L102.1 50.0572Z" fill="#ED1D55"/>
<path d="M101.748 46.614C101.748 46.614 103.536 42.7641 106.898 44.6321C106.898 44.6321 104.859 48.022 101.855 47.273L101.748 46.614Z" fill="#ED1D55"/>
<path d="M101.647 42.541C101.647 42.541 103.582 38.697 106.904 40.865C106.904 40.865 104.436 44.324 101.749 43.172L101.647 42.541Z" fill="#ED1D55"/>
<path d="M101.901 38.846C101.901 38.846 104.322 35.135 107.117 36.006C107.117 36.006 104.597 39.937 101.917 39.726L101.901 38.846Z" fill="#ED1D55"/>
<path d="M102.388 35.3019C102.388 35.3019 105.155 30.7939 107.35 31.7909C107.35 31.7909 105.337 35.2649 102.264 36.0909L102.388 35.3019Z" fill="#ED1D55"/>
<path d="M103.238 31.1468C103.238 31.1468 105.697 27.4308 108.004 27.8788C108.004 27.8788 105.998 31.6468 103.004 32.2208L103.238 31.1468Z" fill="#ED1D55"/>
<path d="M103.991 27.2602C103.991 27.2602 106.784 23.6282 108.306 23.9432C108.306 23.9432 106.485 27.7682 103.958 27.9712L103.991 27.2602Z" fill="#ED1D55"/>
<path d="M104.764 23.669C104.764 23.669 107.002 19.519 108.596 19.546C108.596 19.546 107.41 23.121 104.824 24.046L104.764 23.669Z" fill="#ED1D55"/>
<path d="M105.454 18.877C105.454 18.877 107.503 15.636 108.859 15.418C108.859 15.418 107.493 19.524 105.501 19.812L105.454 18.877Z" fill="#ED1D55"/>
<path d="M105.809 15.7009L107.274 9.40088C107.274 9.40088 108.261 14.7189 105.674 16.8369L105.809 15.7009Z" fill="#ED1D55"/>
<path d="M105.737 9.0319C105.737 9.0319 105.337 4.0379 105.016 3.6709C105.016 3.6709 107.416 7.4889 106.074 11.2079L105.737 9.0319Z" fill="#ED1D55"/>
<path d="M105.798 61.656C105.798 61.656 103.031 60.508 102.026 64.582C102.026 64.582 104.501 65.703 106.251 62.582L105.798 61.656Z" fill="#ED1D55"/>
<path d="M104.004 57.586C104.004 57.586 100.696 56.686 99.845 60.899C99.845 60.899 102.491 62.148 104.445 58.545L104.004 57.586Z" fill="#ED1D55"/>
<path d="M102.963 54.102C102.963 54.102 100.338 51.88 97.429 55.002C99.161 56.1558 101.44 56.0592 103.068 54.763L102.963 54.102Z" fill="#ED1D55"/>
<path d="M102.026 50.07C102.026 50.07 99.352 47.739 96.585 50.805C96.585 50.805 99.494 52.776 102.128 50.705L102.026 50.07Z" fill="#ED1D55"/>
<path d="M101.765 46.7129C101.765 46.7129 99.565 43.0808 96.428 45.3048C96.428 45.3048 98.828 48.4519 101.728 47.3799L101.765 46.7129Z" fill="#ED1D55"/>
<path d="M101.841 42.4892C101.841 42.4892 99.641 38.7892 96.48 41.1832C96.48 41.1832 99.18 44.4692 101.78 43.1252L101.841 42.4892Z" fill="#ED1D55"/>
<path d="M102.235 38.8108C102.235 38.8108 100.916 34.5788 97.9951 34.6608C97.9951 34.6608 99.3441 39.1328 101.981 39.6608L102.235 38.8108Z" fill="#ED1D55"/>
<path d="M102.459 35.2991C102.459 35.2991 101.373 30.1201 98.9741 30.3201C98.9741 30.3201 99.6971 34.2701 102.312 36.0801L102.459 35.2991Z" fill="#ED1D55"/>
<path d="M103.461 30.9569C103.461 30.9569 102.05 26.7299 99.7031 26.5659C99.7031 26.5659 100.666 30.7249 103.411 32.0569L103.461 30.9569Z" fill="#ED1D55"/>
<path d="M104.267 27.2519C104.267 27.2519 103.51 22.7349 102.019 22.2939C102.019 22.2939 101.827 26.5259 103.959 27.8939L104.267 27.2519Z" fill="#ED1D55"/>
<path d="M104.861 23.6018C104.861 23.6018 103.912 18.9758 102.374 18.5518C102.374 18.5518 102.483 22.3168 104.697 23.9408L104.861 23.6018Z" fill="#ED1D55"/>
<path d="M105.714 19.215C105.714 19.215 105.091 15.431 103.926 14.707C103.926 14.707 103.58 19.02 105.309 20.068L105.714 19.215Z" fill="#ED1D55"/>
<path d="M105.659 15.5292L103.643 9.38623C103.643 9.38623 103.124 14.7712 105.891 16.6582L105.659 15.5292Z" fill="#ED1D55"/>
<path d="M104.838 9.23911C104.838 9.23911 101.599 5.41511 101.575 4.93311C101.575 4.93311 102.566 9.33311 106.135 11.0241L104.838 9.23911Z" fill="#ED1D55"/>
<path d="M104.933 7.94C104.933 7.94 101.549 2.311 100.381 2C102.831 2.98027 104.613 5.14237 105.106 7.735L104.933 7.94Z" fill="#ED1D55"/>
<path d="M105.493 19.8519L105.32 19.8279C106.276 12.8739 106.098 8.56095 104.82 7.68795L104.92 7.54395C106.275 8.47295 106.473 12.7289 105.493 19.8519Z" fill="#ED1D55"/>
<path d="M102.417 36.2811L102.159 36.2341C102.277 35.5921 102.408 34.9341 102.553 34.2901C103.817 28.6611 104.825 23.4521 105.37 19.4901L105.57 19.3481C105.023 23.3261 104.078 28.7121 102.813 34.3481C102.662 34.9841 102.531 35.6341 102.417 36.2811Z" fill="#ED1D55"/>
<path d="M113.461 71.9139C110.529 69.3005 108.072 66.1994 106.198 62.7479C104.251 59.2597 102.87 55.4848 102.106 51.5639C101.197 46.3142 101.246 40.9431 102.251 35.7109L102.479 35.9049C100.698 44.9897 102.118 54.4108 106.498 62.5669C108.346 65.986 110.775 69.0572 113.677 71.6429L113.461 71.9139Z" fill="#ED1D55"/>
</g>
<path d="M189.443 132.788C189.443 132.788 185.322 132.541 185.811 135.429C185.758 135.729 185.906 136.03 186.176 136.171C186.176 136.171 186.185 135.957 186.6 136.029C186.748 136.055 186.898 136.062 187.048 136.051C187.25 136.037 187.442 135.958 187.595 135.824C188.468 135.323 189.062 134.447 189.205 133.451C189.205 133.451 189.539 133.038 189.525 132.932L188.833 133.232C188.966 133.52 188.984 133.849 188.883 134.15C188.883 134.15 188.861 133.25 188.727 133.271C188.699 133.271 188.365 133.444 188.365 133.444C188.589 133.916 188.624 134.456 188.465 134.954C188.465 134.954 188.583 133.877 188.237 133.508L187.748 133.793C188.013 134.298 188.068 134.887 187.902 135.432C187.955 134.895 187.866 134.354 187.644 133.862L187.201 134.208C187.441 134.67 187.503 135.204 187.374 135.708C187.374 135.708 187.338 134.394 187.103 134.293C186.935 134.435 186.785 134.597 186.655 134.775C186.655 134.775 186.963 135.422 186.773 135.763C186.773 135.763 186.655 134.886 186.56 134.883C186.358 135.18 186.214 135.512 186.133 135.862C186.152 135.493 186.267 135.135 186.467 134.824C186.244 134.866 186.038 134.972 185.874 135.13C185.874 135.13 185.935 134.72 186.566 134.684C186.681 134.514 186.815 134.357 186.966 134.217C186.628 134.189 186.288 134.228 185.966 134.333C186.273 134.066 186.699 133.985 187.083 134.12L187.522 133.764C187.134 133.704 186.738 133.708 186.351 133.776C186.74 133.539 187.22 133.504 187.639 133.683L188.116 133.398C187.749 133.317 187.373 133.283 186.997 133.298C187.404 133.146 187.853 133.153 188.254 133.319L188.6 133.165C188.6 133.165 188.081 133.065 187.936 133.049C187.791 133.033 187.777 132.99 187.777 132.99C188.102 132.936 188.436 132.973 188.742 133.097C188.985 133.016 189.219 132.913 189.443 132.788Z" fill="#ED1D55"/>
<path opacity="0.1" d="M186.605 137.423C188.216 137.423 189.522 136.975 189.522 136.423C189.522 135.871 188.216 135.423 186.605 135.423C184.994 135.423 183.688 135.871 183.688 136.423C183.688 136.975 184.994 137.423 186.605 137.423Z" fill="#4D8AF0"/>
<path d="M165.112 135.296C165.112 135.296 160.135 134.996 160.723 138.483C160.658 138.847 160.837 139.211 161.164 139.383C161.164 139.383 161.164 139.125 161.674 139.21C161.853 139.24 162.034 139.249 162.215 139.238C162.459 139.22 162.691 139.125 162.876 138.965C163.931 138.36 164.648 137.303 164.82 136.099C164.82 136.099 165.22 135.599 165.206 135.473L164.367 135.831C164.528 136.18 164.55 136.577 164.428 136.941C164.428 136.941 164.402 135.853 164.24 135.879C164.207 135.879 163.804 136.088 163.804 136.088C164.074 136.658 164.117 137.31 163.925 137.911C163.925 137.911 164.067 136.611 163.65 136.164L163.059 136.51C163.379 137.12 163.446 137.831 163.244 138.49C163.308 137.84 163.201 137.186 162.934 136.59L162.398 137.007C162.69 137.564 162.766 138.209 162.611 138.819C162.611 138.819 162.568 137.231 162.282 137.11C162.079 137.282 161.898 137.477 161.742 137.693C161.742 137.693 162.112 138.473 161.882 138.885C161.882 138.885 161.742 137.828 161.626 137.823C161.383 138.182 161.207 138.582 161.107 139.004C161.129 138.56 161.267 138.129 161.507 137.755C161.238 137.806 160.99 137.935 160.793 138.125C160.793 138.125 160.866 137.625 161.623 137.585C161.764 137.379 161.928 137.19 162.112 137.021C161.703 136.986 161.291 137.034 160.901 137.161C161.271 136.838 161.786 136.74 162.248 136.905L162.777 136.474C162.308 136.402 161.831 136.406 161.364 136.488C161.835 136.204 162.413 136.163 162.92 136.376L163.496 136.03C163.053 135.932 162.599 135.892 162.145 135.912C162.636 135.728 163.178 135.737 163.663 135.936L164.076 135.767C164.076 135.767 163.457 135.646 163.276 135.627C163.095 135.608 163.086 135.558 163.086 135.558C163.479 135.493 163.882 135.538 164.25 135.688C164.549 135.584 164.837 135.453 165.112 135.296Z" fill="#ED1D55"/>
<path opacity="0.1" d="M161.686 140.683C163.632 140.683 165.209 140.235 165.209 139.683C165.209 139.131 163.632 138.683 161.686 138.683C159.74 138.683 158.163 139.131 158.163 139.683C158.163 140.235 159.74 140.683 161.686 140.683Z" fill="#4D8AF0"/>
<path opacity="0.1" d="M123.489 138.104L106.142 144.816L80.7861 154.616C79.8301 152.84 78.4191 150.41 76.6721 147.526C70.6721 137.574 60.7311 122.094 51.8871 108.491C41.9191 93.164 33.3411 80.221 33.3411 80.221L39.5511 78.421L90.2771 63.709L123.489 138.104Z" fill="black"/>
<path d="M123.835 135.893L106.488 142.605L81.132 152.405C80.176 150.629 78.765 148.199 77.018 145.315C71.018 135.363 61.077 119.883 52.233 106.28C42.265 90.9531 33.687 78.0101 33.687 78.0101L39.897 76.2101L90.623 61.498L123.835 135.893Z" fill="white"/>
<path opacity="0.1" d="M123.835 135.893L106.488 142.605C96.7992 144.623 86.9123 145.532 77.0179 145.315C71.0179 135.363 61.077 119.883 52.233 106.28L39.897 76.2101L90.623 61.498L123.835 135.893Z" fill="black"/>
<path d="M136.741 131.719C136.741 131.719 109.791 147.66 69.5551 144.063L37.4761 65.8642L52.8481 63.2232L105.988 54.0972L136.139 130.208L136.741 131.719Z" fill="#B40031"/>
<path opacity="0.1" d="M136.139 129.916C129.11 130.297 122.061 130.097 115.065 129.316C107.072 128.379 99.0411 126.438 92.1411 122.886C86.7295 120.195 81.6915 116.811 77.1541 112.819C65.9811 102.768 59.065 88.3898 52.854 62.9288L105.994 53.8027L136.139 129.916Z" fill="black"/>
<path d="M155.907 129.016C155.907 129.016 135.807 133.468 115.37 130.726C107.286 129.648 99.156 127.436 92.186 123.375C86.6375 120.241 81.5392 116.369 77.03 111.866C63.039 97.6309 55.656 75.8389 48.041 31.8109C48.041 31.8109 81.441 40.9229 114.45 20.9629C114.451 20.9629 125.583 99.5079 155.907 129.016Z" fill="white"/>
<path opacity="0.1" d="M115.824 129.9C107.831 128.957 99.7911 127.022 92.9001 123.47C87.4885 120.779 82.4505 117.395 77.9131 113.403C89.6881 112.447 91.3811 106.008 91.3811 106.008C100.111 119.865 115.824 129.9 115.824 129.9Z" fill="black"/>
<path opacity="0.3" d="M66.3301 54.6752C66.3301 54.6752 84.0731 56.7002 100.68 47.3682L101.818 51.0222C90.6671 56.0983 78.5811 58.7962 66.3301 58.9442V54.6752Z" fill="#ED1D55"/>
<path opacity="0.3" d="M66.3301 72.7411C79.2773 71.2083 91.8767 67.5194 103.606 61.8271L104.27 63.3452C104.27 63.3452 97.0431 72.4401 66.3301 74.8161V72.7411Z" fill="black"/>
<path opacity="0.3" d="M68.421 79.8011C81.368 78.2686 93.9674 74.5803 105.697 68.8892L106.361 70.4071C106.361 70.4071 99.136 79.5071 68.421 81.8881V79.8011Z" fill="black"/>
<path opacity="0.3" d="M70.333 87.4081C83.28 85.8755 95.8794 82.1873 107.609 76.4961L108.273 78.0141C108.273 78.0141 101.037 87.1141 70.333 89.4951V87.4081Z" fill="black"/>
<path opacity="0.3" d="M72.604 93.9271C85.551 92.3946 98.1503 88.7063 109.88 83.0151L110.544 84.5331C110.544 84.5331 103.319 93.6331 72.604 96.0161V93.9271Z" fill="black"/>
<path opacity="0.1" d="M74.697 100.991C87.6441 99.4586 100.243 95.7703 111.973 90.0791L112.637 91.5971C112.637 91.5971 105.41 100.697 74.697 103.078V100.991Z" fill="black"/>
<path opacity="0.997" d="M111.456 57.1136L106.52 58.7939L108.2 63.7298L113.136 62.0495L111.456 57.1136Z" fill="#FFF4F6"/>
<path opacity="0.997" d="M114.264 64.476L109.328 66.1562L111.008 71.0921L115.944 69.4118L114.264 64.476Z" fill="#FFF4F6"/>
<path opacity="0.997" d="M118.766 78.6395L113.83 80.3198L115.51 85.2556L120.446 83.5753L118.766 78.6395Z" fill="#FFF4F6"/>
<path opacity="0.997" d="M121.349 86.2406L116.413 87.9209L118.093 92.8567L123.029 91.1764L121.349 86.2406Z" fill="#FFF4F6"/>
<path opacity="0.997" d="M116.554 72.1229L111.618 73.8032L113.298 78.739L118.234 77.0588L116.554 72.1229Z" fill="#FFF4F6"/>
<path d="M168.163 93.623L167.978 93.45C168.455 93.35 168.905 93.31 168.905 93.31C168.905 93.31 167.267 87.385 164.505 85.41C163.144 84.3133 162.019 82.9527 161.197 81.41C159.731 78.8863 158.085 76.472 156.27 74.186L155.77 73.558L155.556 73.285C155.914 72.8974 156.134 72.4018 156.18 71.876C156.179 71.8727 156.179 71.8693 156.18 71.866C156.182 71.8384 156.182 71.8106 156.18 71.783C156.175 71.718 156.163 71.6536 156.145 71.591L156.126 71.62C155.893 70.942 154.995 70.643 154.326 70.269C152.77 69.392 152.104 67.476 151.772 65.695C151.513 64.312 151.298 62.755 150.216 61.864C149.524 61.292 148.583 61.103 147.887 60.534C147.277 59.9281 146.787 59.2122 146.443 58.424C145.791 57.1459 144.824 56.0549 143.633 55.254C142.434 54.4626 140.938 54.265 139.574 54.718C139.067 54.912 138.607 55.213 138.106 55.418C136.861 55.937 135.434 55.868 134.206 56.418C132.688 57.092 131.7 58.583 130.797 59.998C130.166 60.903 129.625 61.8672 129.18 62.877V62.765C128.98 63.2404 128.87 63.7492 128.858 64.265C128.85 64.484 128.874 64.7029 128.929 64.915C129.149 65.5631 129.672 66.0632 130.329 66.255C130.367 66.475 130.418 66.6927 130.481 66.907C131.088 68.9037 132.631 70.479 134.614 71.128C134.671 71.149 134.73 71.163 134.787 71.18C134.835 71.3167 134.905 71.445 134.993 71.56C135.545 72.252 136.651 72.055 137.371 71.551C137.4 71.532 137.428 71.508 137.456 71.487C137.461 71.5848 137.471 71.6823 137.487 71.779C137.503 71.862 137.515 71.952 137.532 72.026C137.844 73.9837 138.637 75.8332 139.841 77.408C139.841 77.408 139.995 77.64 140.241 78.024C140.21 79.8617 140.836 81.6501 142.007 83.067C141.13 83.574 139.24 84.567 138.071 84.483C138.071 84.483 133.771 85.038 133.277 84.76C133.208 84.722 133.142 84.774 133.077 84.891C131.894 84.17 128.112 82.091 127.789 84.76C127.497 87.181 130.943 87.491 132.589 87.503C132.515 88.212 132.473 88.779 132.473 88.779L139.53 88.297L143.205 87.756C142.859 88.2587 142.412 88.6843 141.893 89.006C141.893 89.006 138.571 91.695 137.993 91.719C137.912 91.719 137.886 91.8 137.893 91.93C136.493 91.93 132.15 92.13 133.355 94.553C134.45 96.748 137.531 95.229 138.925 94.39C139.254 95.028 139.534 95.528 139.534 95.528L145.229 91.473L146.462 90.435C146.88 90.4148 147.293 90.335 147.688 90.198C147.691 90.2138 147.697 90.229 147.705 90.243C147.75 90.3702 147.783 90.501 147.805 90.634C148.151 92.621 146.989 97.256 146.989 97.256C146.989 97.256 144.433 103.774 145.661 104.663C146.889 105.552 145.981 109.303 145.981 109.303C146.195 109.664 146.442 110.004 146.718 110.32C146.848 110.47 146.993 110.607 147.149 110.73C147.092 110.886 147.044 111.045 147.007 111.206C146.819 112.005 146.889 112.843 147.207 113.599C147.706 115.222 147.819 116.939 147.537 118.614L145.88 129.806C145.157 129.632 144.403 129.632 143.68 129.806C143.094 130.136 143.286 131.806 144.647 132.518C144.234 132.834 143.756 133.055 143.247 133.163C142.036 133.44 141.186 133.616 140.625 133.723C140.589 133.723 137.72 133.09 136.983 133.509C136.246 133.928 136.601 136.248 138.697 136.817C140.748 137.372 148.397 138.187 150.597 137.855L150.737 137.831C152.61 137.461 150.965 135 150.758 134.701C150.744 134.601 150.732 134.495 150.718 134.381C150.689 134.125 150.663 133.831 150.644 133.516C152.336 133.719 154.043 133.767 155.744 133.66C155.786 133.658 155.828 133.65 155.869 133.638C157.527 133.309 156.075 131.138 155.888 130.871L155.862 130.658V130.639C155.862 130.589 155.85 130.539 155.845 130.483C155.845 130.438 155.84 130.392 155.831 130.348C155.817 130.301 155.831 130.265 155.819 130.222C155.812 130.137 155.805 130.048 155.798 129.957V129.845C155.798 129.776 155.789 129.707 155.786 129.636V129.52C155.786 129.42 155.786 129.309 155.776 129.202V128.355C155.776 128.239 155.786 128.12 155.793 128L155.803 127.872C155.803 127.784 155.817 127.699 155.825 127.609C155.823 127.565 155.828 127.521 155.839 127.479C155.853 127.358 155.868 127.237 155.886 127.114C155.889 127.077 155.895 127.041 155.903 127.005C155.919 126.913 155.934 126.82 155.951 126.727C155.956 126.68 155.965 126.634 155.979 126.589C156 126.489 156.022 126.389 156.047 126.289C156.05 126.261 156.056 126.233 156.066 126.206C156.097 126.085 156.132 125.966 156.166 125.846C156.178 125.804 156.192 125.763 156.206 125.721C156.235 125.631 156.267 125.548 156.299 125.455L156.341 125.344C156.388 125.226 156.441 125.111 156.49 124.998C156.504 124.969 156.519 124.939 156.535 124.91C156.578 124.82 156.625 124.737 156.673 124.644L156.732 124.544C156.798 124.433 156.865 124.323 156.94 124.217C158.84 121.505 159.34 116.276 159.297 115.138C159.254 114 159.524 111.638 159.864 111.29C160.727 110.188 161.513 109.026 162.214 107.814C162.358 107.558 162.482 107.314 162.581 107.103C163.145 106.903 163.518 106.757 163.518 106.757C163.319 106.031 163.224 105.281 163.234 104.528C163.207 102.648 163.964 100.842 165.323 99.544C166.96 98.1529 167.982 96.1715 168.166 94.031V93.867C168.171 93.702 168.163 93.623 168.163 93.623Z" fill="url(#paint0_linear_721_1190)"/>
<path d="M161.591 105.474C160.922 106.67 160.171 107.818 159.343 108.91C158.925 110.131 158.741 111.42 158.802 112.71C158.847 113.832 158.371 119.01 156.554 121.687C154.737 124.364 155.67 129 155.67 129L152.77 130.017H149.285L146.885 129.299L146.252 127.558C146.252 127.558 147.096 127.428 149.192 126.93C150.387 126.686 151.274 125.678 151.362 124.462L152.834 114.184C153.072 112.718 152.976 111.218 152.552 109.795C152.143 108.771 152.23 107.616 152.787 106.665L152.834 106.592C154.269 105.48 155.804 104.504 157.419 103.676C159.468 102.687 161.547 102.216 162.137 103.976C162.091 104.515 161.903 105.032 161.591 105.474Z" fill="#A5636D"/>
<path opacity="0.05" d="M161.591 105.474C160.922 106.67 160.171 107.818 159.343 108.91C158.925 110.131 158.741 111.42 158.802 112.71C158.847 113.832 158.371 119.01 156.554 121.687C155.274 123.577 155.354 126.434 155.516 127.958C155.584 128.596 155.667 128.996 155.667 128.996L152.767 130.013H149.286L146.886 129.3L146.252 127.558C146.252 127.558 146.463 127.525 146.944 127.432C147.425 127.339 148.155 127.179 149.202 126.932C150.393 126.685 151.275 125.677 151.362 124.464L152.834 114.186C153.072 112.72 152.976 111.22 152.552 109.797C152.143 108.773 152.23 107.618 152.787 106.667L152.834 106.594C154.269 105.482 155.804 104.506 157.419 103.678C159.468 102.689 161.547 102.218 162.137 103.978C162.091 104.516 161.902 105.032 161.591 105.474Z" fill="black"/>
<path opacity="0.1" d="M155.67 131.66L152.77 132.677H149.285L146.885 131.958L146.252 130.215C146.252 130.215 146.463 130.182 146.944 130.089C146.874 130.744 147.302 131.349 147.944 131.5L149.307 131.547C149.499 131.547 149.693 131.557 149.883 131.557C151.8 131.558 153.703 131.241 155.517 130.621C155.591 131.256 155.67 131.66 155.67 131.66Z" fill="black"/>
<path d="M149.31 131.837L147.946 131.79C147.582 131.705 147.27 131.471 147.087 131.145C146.904 130.819 146.867 130.431 146.984 130.076C146.984 130.076 144.528 129.519 143.901 129.888C143.274 130.257 143.576 132.288 145.35 132.788C147.079 133.274 153.558 133.988 155.42 133.696L155.539 133.675C157.227 133.329 155.539 130.908 155.539 130.908C153.536 131.593 151.426 131.908 149.31 131.837Z" fill="#BEBED0"/>
<path d="M157.712 108.525C157.62 108.708 157.522 108.899 157.412 109.097C156.678 110.41 155.853 111.67 154.943 112.867C154.576 113.258 154.284 115.893 154.331 117.167C154.378 118.441 153.845 124.267 151.794 127.298C150.858 128.93 150.417 130.799 150.525 132.678C150.53 133.256 150.564 133.832 150.625 134.407C150.701 135.107 150.798 135.55 150.798 135.55L147.526 136.697H143.588L140.878 135.891L140.169 133.913C140.169 133.913 140.406 133.875 140.939 133.769C141.472 133.663 142.302 133.487 143.488 133.207C144.833 132.929 145.83 131.793 145.932 130.423L147.59 118.823C147.859 117.169 147.751 115.475 147.274 113.868C146.97 113.117 146.902 112.291 147.08 111.501C147.176 111.057 147.352 110.634 147.599 110.252C147.599 110.252 148.232 109.752 149.187 109.095C149.609 108.804 150.098 108.483 150.624 108.158C152.934 106.728 155.973 105.268 157.429 106.332C157.75 106.574 157.985 106.913 158.1 107.299C158.082 107.735 157.948 108.158 157.712 108.525Z" fill="#A5636D"/>
<path opacity="0.1" d="M150.788 135.551L147.516 136.698H143.587L140.877 135.892L140.168 133.914C140.168 133.914 140.405 133.876 140.938 133.77C140.869 134.246 141.041 134.725 141.398 135.048C141.671 135.28 142.015 135.41 142.373 135.415L143.613 135.455C143.829 135.455 144.047 135.467 144.263 135.467C146.427 135.467 148.576 135.109 150.624 134.409C150.7 135.112 150.788 135.551 150.788 135.551Z" fill="black"/>
<path d="M143.612 135.748L142.374 135.707C142.016 135.701 141.671 135.571 141.397 135.34C140.968 134.937 140.808 134.322 140.987 133.761C140.987 133.761 138.22 133.133 137.506 133.548C136.792 133.963 137.141 136.258 139.142 136.82C141.101 137.368 148.406 138.174 150.509 137.846L150.642 137.822C152.542 137.431 150.642 134.695 150.642 134.695C148.382 135.471 146 135.828 143.612 135.748Z" fill="#BEBED0"/>
<path opacity="0.1" d="M161.592 108.024C160.344 108.508 159.041 108.838 157.713 109.008C157.613 109.012 157.512 109.007 157.413 108.994C155.869 108.964 154.324 109.039 152.79 109.219C152.031 109.287 151.301 109.357 150.697 109.419C149.797 109.512 149.179 109.58 149.179 109.58V108.994C149.601 108.704 150.09 108.382 150.616 108.057C152.926 106.627 155.965 105.167 157.416 106.231C159.465 105.242 161.544 104.771 162.134 106.531C162.083 107.067 161.897 107.58 161.592 108.024Z" fill="black"/>
<path d="M167.276 94.3338C167.105 96.4332 166.132 98.3861 164.559 99.7868C161.559 102.718 162.83 106.928 162.83 106.928C161.182 107.6 159.463 108.085 157.706 108.372C157.606 108.376 157.505 108.371 157.406 108.358C155.159 108.363 152.914 108.505 150.684 108.783C149.784 108.876 149.166 108.944 149.166 108.944V96.4928L165.756 92.4648L167.256 93.9648C167.271 94.0873 167.278 94.2105 167.276 94.3338Z" fill="#5C5C8E"/>
<g opacity="0.1">
<path d="M149.45 108.79L149.177 108.819V108.95C149.177 108.95 149.796 108.882 150.695 108.789C152.213 108.635 154.532 108.419 156.066 108.355C153.854 108.379 151.646 108.524 149.45 108.79Z" fill="black"/>
<path d="M167.269 93.9678L165.769 92.4678L164.769 92.7188L166.028 93.9728C166.037 94.0976 166.037 94.2229 166.028 94.3478C165.857 96.4471 164.884 98.3999 163.311 99.8008C160.311 102.731 161.582 106.942 161.582 106.942C160.072 107.541 158.513 108.009 156.923 108.342C157.085 108.341 157.246 108.35 157.407 108.368C157.506 108.382 157.607 108.387 157.707 108.384C159.464 108.096 161.183 107.612 162.831 106.94C162.831 106.94 161.551 102.729 164.56 99.7988C166.133 98.3979 167.106 96.4451 167.277 94.3458C167.283 94.2197 167.28 94.0934 167.269 93.9678Z" fill="black"/>
</g>
<path d="M134.124 85.5442C134.124 85.5442 129.109 82.0652 128.741 85.1982C128.373 88.3312 134.124 87.8842 134.124 87.8842V85.5442Z" fill="#A5636D"/>
<path d="M142.771 83.229C142.771 83.229 140.058 85.029 138.557 84.913C138.557 84.913 134.457 85.463 133.978 85.188C133.499 84.913 133.21 89.166 133.21 89.166L139.955 88.69L144.278 88.029C144.278 88.029 146.44 86.711 146.44 85.575C146.44 84.439 142.771 83.229 142.771 83.229Z" fill="#F7CDDD"/>
<path opacity="0.05" d="M142.771 83.229C142.771 83.229 140.058 85.029 138.557 84.913C138.557 84.913 134.457 85.463 133.978 85.188C133.499 84.913 133.21 89.166 133.21 89.166L139.955 88.69L144.278 88.029C144.278 88.029 146.44 86.711 146.44 85.575C146.44 84.439 142.771 83.229 142.771 83.229Z" fill="black"/>
<path d="M138.791 92.3119C138.791 92.3119 132.691 92.0599 134.058 94.9059C135.425 97.7519 140.047 94.2968 140.047 94.2968L138.791 92.3119Z" fill="#A5636D"/>
<path d="M144.927 86.2037C144.927 86.2037 139.983 82.5038 140.68 78.0038C141.377 73.5038 144.927 81.4518 144.927 81.4518V86.2037Z" fill="#5C5C8E"/>
<path d="M143.561 65.7189C143.559 67.3394 142.929 68.896 141.802 70.0609C141.529 70.3472 141.227 70.6051 140.902 70.8309C140.279 71.2651 139.585 71.586 138.851 71.7789C138.559 71.8516 138.263 71.9041 137.964 71.9359C137.75 71.9569 137.533 71.969 137.314 71.969C136.613 71.9728 135.916 71.8558 135.254 71.6228C132.25 70.5742 130.513 67.4362 131.22 64.334C131.927 61.2318 134.851 59.1555 138.013 59.5113C141.175 59.867 143.564 62.5412 143.564 65.7229L143.561 65.7189Z" fill="#A5636D"/>
<path opacity="0.1" d="M167.276 94.3289C166.716 94.4289 166.024 94.62 166.024 94.91C166.024 95.399 158.211 98.0369 158.211 98.0369C158.211 98.0369 158.503 98.7179 157.723 99.8909C156.943 101.064 150.593 107.801 150.593 107.801L150.614 108.001L150.695 108.777L151.082 112.488C150.046 112.089 148.962 111.826 147.858 111.706C147.559 111.699 147.276 111.568 147.078 111.343C147.174 110.899 147.35 110.476 147.597 110.094C147.597 110.094 148.23 109.594 149.185 108.937V96.488L165.775 92.46L167.275 93.96C167.284 94.0828 167.284 94.206 167.276 94.3289Z" fill="black"/>
<path d="M167.978 93.4679C167.978 93.4679 166.024 93.6619 166.024 94.1509C166.024 94.6399 158.211 97.2779 158.211 97.2779C158.211 97.2779 158.503 97.9589 157.723 99.1319C156.943 100.305 150.593 107.044 150.593 107.044L151.082 111.731C150.046 111.332 148.962 111.069 147.858 110.949C147.512 110.992 147.123 110.671 146.803 110.295C146.54 109.983 146.306 109.649 146.103 109.295C146.103 109.295 146.983 105.582 145.811 104.704C144.639 103.826 147.08 97.3799 147.08 97.3799C147.08 97.3799 148.18 92.7969 147.858 90.8309C147.838 90.6995 147.807 90.5701 147.765 90.4439C147.763 90.4289 147.758 90.4144 147.751 90.4009C147.059 88.5229 139.561 72.7619 139.561 72.7619C139.566 72.3148 139.597 71.8683 139.654 71.4249C139.67 71.3019 139.69 71.1739 139.713 71.0449C139.751 70.8116 139.802 70.5807 139.865 70.3529C139.905 70.2069 139.952 70.063 140.007 69.9219C140.239 69.3269 140.593 68.869 141.122 68.858C141.666 68.3726 142.356 68.0823 143.083 68.0329C144.593 67.9134 146.108 68.1982 147.472 68.858C152.06 70.809 153.136 70.9089 153.136 70.9089L155.441 73.9349L155.915 74.5559C157.652 76.8213 159.225 79.208 160.621 81.6979C161.398 83.2155 162.473 84.5612 163.781 85.6549C166.415 87.6089 167.978 93.4679 167.978 93.4679Z" fill="#F7CDDD"/>
<path opacity="0.1" d="M150.861 82.3501C150.861 82.3501 157.381 83.9621 159.907 88.0261L150.861 82.3501Z" fill="black"/>
<path opacity="0.1" d="M152.876 89.499C152.876 89.499 154.109 97.777 153.767 98.399C153.425 99.021 152.876 89.499 152.876 89.499Z" fill="black"/>
<path opacity="0.1" d="M152.435 93.7322C151.961 94.3532 150.035 99.1522 150.035 99.1522L150.59 107.211L151.079 111.898C150.043 111.499 148.96 111.237 147.857 111.116C147.511 111.159 147.12 110.838 146.802 110.462C147.309 107.717 148.393 101.974 148.588 101.862C149.371 99.9158 149.924 97.8843 150.234 95.8092C150.303 94.5172 152.134 91.6382 152.134 91.6382C152.134 91.6382 152.914 93.1142 152.435 93.7322Z" fill="black"/>
<path opacity="0.1" d="M150.593 85.745C150.472 86.11 150.285 88.235 150.285 88.235C150.209 89.5903 149.196 90.7081 147.855 90.9161C147.835 90.7847 147.804 90.6552 147.762 90.529C147.176 88.871 139.562 72.8531 139.562 72.8531C139.569 72.0405 139.669 71.2314 139.862 70.4421C141.292 70.2095 142.755 70.2993 144.146 70.7051C144.905 70.6051 147.382 75.5281 147.382 75.5281C147.382 75.5281 149.032 79.298 149.213 79.812C149.287 80.3587 149.312 80.911 149.286 81.4621C149.359 81.7561 150.13 82.0081 150.239 82.4131C150.348 82.8181 150.277 83.6241 150.35 83.7671C150.541 84.4082 150.623 85.0768 150.593 85.745Z" fill="black"/>
<path d="M150.007 85.4261C149.886 85.7931 149.699 87.9161 149.699 87.9161C149.657 89.0929 148.874 90.1139 147.748 90.4601C147.371 90.5948 146.976 90.6732 146.576 90.6931L145.398 91.7171L139.959 95.7171C139.959 95.7171 137.932 91.9691 138.482 91.9491C139.032 91.9291 142.204 89.2651 142.204 89.2651C143.174 88.7461 144.146 87.0171 144.597 86.1281C144.571 86.022 144.551 85.9145 144.538 85.8061C144.338 84.1481 140.238 77.7971 140.238 77.7971C139.083 76.2278 138.328 74.4008 138.038 72.4741C138.021 72.3941 138.009 72.3131 137.993 72.2301C137.976 72.1225 137.965 72.014 137.962 71.9051C137.888 70.5751 138.856 70.0911 140.004 69.9771C140.604 69.9293 141.208 69.9477 141.804 70.0321C142.398 70.1068 142.985 70.2225 143.563 70.3781C144.054 70.3121 145.263 72.3551 146.063 73.8021C146.49 74.5871 146.798 75.2021 146.798 75.2021C146.798 75.2021 148.448 78.9741 148.629 79.4861C148.703 80.0327 148.728 80.585 148.702 81.1361C148.775 81.4281 149.546 81.6841 149.655 82.0891C149.764 82.4941 149.693 83.3001 149.766 83.4431C149.956 84.086 150.038 84.7563 150.007 85.4261Z" fill="#F7CDDD"/>
<path opacity="0.1" d="M156.315 76.9658C155.186 77.9325 153.592 78.1364 152.256 77.4848C150.953 76.8263 149.705 76.0642 148.524 75.2058C147.715 74.7108 146.857 74.3058 146.06 73.7968C145.942 73.7208 145.828 73.6448 145.714 73.5648C144.794 72.9148 143.997 72.0788 143.044 71.4898C142.407 71.0658 141.665 70.8264 140.9 70.7978C140.548 70.7945 140.199 70.8675 139.878 71.0118C139.818 71.0361 139.761 71.0645 139.705 71.0968C139.391 71.2768 139.101 71.4948 138.84 71.7458C138.57 71.9878 138.312 72.2458 138.029 72.4718C138.012 72.3918 138 72.3108 137.984 72.2278C137.967 72.1203 137.956 72.0117 137.953 71.9028C137.739 71.9238 137.522 71.9358 137.303 71.9358C136.602 71.9398 135.905 71.8227 135.243 71.5898C135.245 71.5628 135.24 71.5357 135.227 71.5118C135.108 70.2661 134.52 69.1123 133.581 68.2848C132.852 67.9158 132.086 67.6258 131.295 67.4198C130.538 64.7835 131.588 61.9614 133.884 60.4613C136.18 58.9613 139.187 59.1338 141.296 60.8868C143.406 62.6397 144.126 65.5635 143.072 68.0958C144.582 67.9762 146.097 68.261 147.461 68.9208C152.049 70.8718 153.125 70.9718 153.125 70.9718L155.43 73.9978C155.143 74.3427 154.952 74.7563 154.873 75.1978C154.83 76.0128 155.623 76.5818 156.315 76.9658Z" fill="black"/>
<path d="M133.589 67.6582C134.527 68.485 135.117 69.6374 135.237 70.8822C135.276 71.2709 135.405 71.6452 135.614 71.9752C136.133 72.6562 137.198 72.4642 137.885 71.9752C138.498 71.3873 139.166 70.8592 139.879 70.3982C140.948 70.0243 142.132 70.2009 143.045 70.8702C143.998 71.4702 144.795 72.3022 145.715 72.9452C146.606 73.5732 147.598 74.0212 148.525 74.5862C149.705 75.4465 150.953 76.2087 152.257 76.8652C153.592 77.513 155.185 77.3093 156.314 76.3462C155.622 75.9622 154.829 75.3952 154.882 74.5722C154.935 73.7492 155.894 73.1352 155.83 72.2912C155.766 71.4472 154.773 71.1172 154.061 70.7022C152.574 69.8372 151.939 67.9352 151.621 66.1802C151.374 64.8072 151.17 63.2732 150.144 62.3912C149.482 61.8242 148.588 61.6392 147.92 61.0772C147.334 60.4727 146.866 59.7651 146.537 58.9902C145.92 57.7371 144.998 56.6599 143.854 55.8582C142.722 55.0704 141.28 54.8736 139.978 55.3292C139.494 55.5212 139.053 55.8182 138.578 56.0212C137.388 56.5402 136.027 56.4652 134.85 57.0072C133.399 57.6752 132.457 59.1482 131.594 60.5472C130.864 61.7472 129.417 63.8592 129.827 65.4152C130.232 66.9922 132.513 66.9072 133.589 67.6582Z" fill="#4C3E42"/>
<g opacity="0.1">
<path d="M155.829 72.2681C155.824 72.2039 155.813 72.1404 155.796 72.0781C155.484 72.4529 155.27 72.8998 155.175 73.3781C155.168 73.4902 155.178 73.6027 155.203 73.7121C155.561 73.3102 155.78 72.804 155.829 72.2681Z" fill="black"/>
<path d="M152.549 75.675C151.246 75.0184 149.998 74.2562 148.819 73.396C147.89 72.83 146.898 72.383 146.007 71.755C145.087 71.105 144.29 70.269 143.337 69.68C142.422 69.0137 141.24 68.8367 140.17 69.206C139.455 69.6653 138.787 70.1942 138.176 70.785C137.488 71.285 136.433 71.477 135.905 70.785C135.696 70.4549 135.567 70.0807 135.528 69.692C135.408 68.4474 134.82 67.2949 133.882 66.468C132.805 65.716 130.524 65.8 130.11 64.22C130.041 63.9371 130.023 63.6442 130.056 63.355C129.773 63.9926 129.689 64.7009 129.816 65.387C130.231 66.975 132.516 66.887 133.588 67.635C134.526 68.4622 135.115 69.6149 135.236 70.86C135.275 71.2483 135.404 71.6224 135.611 71.953C136.13 72.634 137.195 72.442 137.883 71.944C138.494 71.3534 139.162 70.8252 139.877 70.367C140.946 69.9944 142.131 70.1716 143.044 70.841C143.997 71.441 144.794 72.273 145.714 72.916C146.605 73.546 147.597 73.992 148.524 74.557C149.703 75.4186 150.951 76.1815 152.256 76.838C153.592 77.4847 155.183 77.2811 156.313 76.319C156.046 76.1757 155.793 76.0083 155.557 75.819C154.57 76.1342 153.502 76.0831 152.549 75.675Z" fill="black"/>
</g>
<path d="M121.941 87.5819L135.776 82.4149C136.103 82.2922 136.465 82.3046 136.782 82.4492C137.1 82.5939 137.347 82.8589 137.469 83.1859C137.591 83.5129 137.578 83.875 137.433 84.1925C137.288 84.51 137.023 84.7569 136.696 84.8789L122.861 90.0479L119.897 89.7479L121.941 87.5819Z" fill="#5C5C8E"/>
<path opacity="0.1" d="M137.048 82.7721C137.302 83.4536 136.956 84.2121 136.275 84.467L122.44 89.6341L120.213 89.4111L119.893 89.7571L122.857 90.0571L136.692 84.8881C137.019 84.7661 137.284 84.5192 137.429 84.2017C137.574 83.8842 137.587 83.5221 137.465 83.1951C137.364 82.9224 137.174 82.6913 136.927 82.5381C136.974 82.6122 137.015 82.6905 137.048 82.7721Z" fill="white"/>
<path d="M121.941 87.6089L122.863 90.0749L120.43 89.8309L119.897 89.7769L120.625 89.0059L121.941 87.6089Z" fill="#EFC8C4"/>
<path d="M120.623 89.0142C120.68 89.0561 120.729 89.1091 120.765 89.1701C120.812 89.2433 120.812 89.337 120.765 89.4102C120.725 89.4503 120.68 89.484 120.63 89.5101C120.515 89.5844 120.441 89.7078 120.43 89.8441L119.897 89.7901L120.623 89.0142Z" fill="#727A9C"/>
<path d="M109.865 60.8081L107.532 59.6701C107.392 59.6019 107.334 59.4332 107.402 59.2932L107.649 58.7852C107.681 58.7176 107.739 58.6657 107.81 58.6413C107.881 58.6168 107.959 58.6219 108.026 58.6552L109.598 59.4212L111.239 56.0562C111.308 55.9167 111.476 55.8583 111.616 55.9251L112.124 56.1742C112.192 56.2065 112.243 56.2646 112.268 56.3355C112.292 56.4063 112.287 56.484 112.254 56.5512L110.241 60.6792C110.173 60.8192 110.004 60.8774 109.864 60.8092L109.865 60.8081Z" fill="#3ACC6C"/>
<path d="M114.961 75.399L112.628 74.261C112.488 74.1928 112.43 74.0241 112.498 73.8841L112.745 73.3761C112.814 73.2358 112.983 73.1777 113.124 73.2461L114.694 74.0121L116.333 70.643C116.402 70.5036 116.57 70.4452 116.71 70.5121L117.217 70.761C117.284 70.7936 117.336 70.8517 117.361 70.9224C117.385 70.9931 117.381 71.0707 117.348 71.138L115.335 75.266C115.266 75.4058 115.097 75.4638 114.956 75.396L114.961 75.399Z" fill="#3ACC6C"/>
<path d="M112.674 68.2061L110.341 67.0681C110.201 66.9995 110.143 66.8314 110.21 66.6911L110.459 66.1831C110.491 66.1155 110.549 66.0637 110.62 66.0392C110.691 66.0148 110.769 66.0198 110.836 66.0531L112.408 66.8191L114.049 63.4481C114.117 63.3081 114.286 63.2499 114.426 63.3181L114.934 63.5651C115.074 63.6345 115.132 63.8035 115.064 63.9441L113.049 68.0751C112.981 68.2151 112.812 68.2733 112.672 68.2051L112.674 68.2061Z" fill="#3ACC6C"/>
<path d="M117.175 81.9858L114.842 80.8478C114.702 80.7796 114.644 80.6108 114.712 80.4708L114.959 79.9628C115.027 79.8228 115.196 79.7646 115.336 79.8328L116.908 80.5988L118.549 77.2338C118.618 77.0936 118.787 77.0352 118.928 77.1028L119.435 77.3518C119.503 77.3841 119.554 77.4423 119.579 77.5131C119.603 77.584 119.598 77.6617 119.565 77.7288L117.554 81.8568C117.485 81.9966 117.316 82.0546 117.175 81.9868V81.9858Z" fill="#3ACC6C"/>
<defs>
<linearGradient id="paint0_linear_721_1190" x1="148.338" y1="137.932" x2="148.338" y2="54.479" gradientUnits="userSpaceOnUse">
<stop stop-color="#808080" stop-opacity="0.251"/>
<stop offset="0.54" stop-color="#808080" stop-opacity="0.122"/>
<stop offset="1" stop-color="#808080" stop-opacity="0.102"/>
</linearGradient>
</defs>
</svg>
