<svg width="203" height="164" viewBox="0 0 203 164" fill="none" xmlns="http://www.w3.org/2000/svg">
<path d="M80 161.999C123.63 161.999 159 126.63 159 82.9993C159 39.3688 123.63 3.99927 80 3.99927C36.3695 3.99927 1 39.3688 1 82.9993C1 126.63 36.3695 161.999 80 161.999Z" stroke="#0048C1" stroke-width="2"/>
<path d="M27 58.9993C41.9117 58.9993 54 46.911 54 31.9993C54 17.0876 41.9117 4.99927 27 4.99927C12.0883 4.99927 0 17.0876 0 31.9993C0 46.911 12.0883 58.9993 27 58.9993Z" fill="white"/>
<path d="M30.568 28.0793C33.512 28.5593 35.768 29.6633 37.336 31.3913C38.904 33.0873 39.688 35.1993 39.688 37.7273C39.688 39.6793 39.176 41.4873 38.152 43.1513C37.128 44.7833 35.56 46.0953 33.448 47.0873C31.368 48.0793 28.808 48.5753 25.768 48.5753C23.4 48.5753 21.064 48.2713 18.76 47.6633C16.488 47.0233 14.552 46.1273 12.952 44.9753L15.976 39.0233C17.256 39.9833 18.728 40.7353 20.392 41.2793C22.088 41.7913 23.816 42.0473 25.576 42.0473C27.528 42.0473 29.064 41.6793 30.184 40.9433C31.304 40.1753 31.864 39.1033 31.864 37.7273C31.864 34.9753 29.768 33.5993 25.576 33.5993H22.024V28.4633L28.936 20.6393H14.632V14.3993H38.152V19.4393L30.568 28.0793Z" fill="#0048C1"/>
<path opacity="0.1" d="M100.798 63.3963C93.6121 61.0703 86.014 59.1213 78.2491 59.3213C66.833 59.6213 55.857 64.9373 50.444 72.8003C45.868 79.4633 45.257 87.2943 43.26 94.7003C40.799 103.828 36.128 112.49 31.142 120.962C28.464 125.512 25.642 130.162 25.173 135.162C24.534 142.103 28.74 149.043 35.373 153.694C42.0061 158.345 50.8281 160.824 59.6931 161.403C64.41 161.709 69.34 161.473 73.5401 159.774C77.9831 157.983 81.2311 154.707 85.6921 152.936C89.826 151.297 94.6451 151.086 99.2821 151.326C105.288 151.63 111.236 152.649 117.001 154.362C123.465 156.296 129.471 159.079 135.921 161.041C142.371 163.003 149.581 164.113 156.19 162.535C162.395 161.055 167.317 157.406 171.756 153.71C178.909 147.768 185.56 141.246 191.641 134.21C195.65 129.557 199.384 124.642 201.175 119.21C204.595 108.81 200.013 97.0413 189.761 89.8813C181.268 83.9463 169.842 81.3263 158.653 79.7353C148.453 78.2693 136.643 78.1233 127.264 74.3893C118.318 70.8133 110.181 66.4323 100.798 63.3963Z" fill="#4D8AF0"/>
<path opacity="0.1" d="M174.786 100.983C177.325 100.983 179.384 100.535 179.384 99.9832C179.384 99.4309 177.325 98.9832 174.786 98.9832C172.247 98.9832 170.188 99.4309 170.188 99.9832C170.188 100.535 172.247 100.983 174.786 100.983Z" fill="#6C63FF"/>
<path opacity="0.1" d="M154.039 98.5662C156.579 98.5662 158.637 98.1184 158.637 97.5662C158.637 97.0139 156.579 96.5662 154.039 96.5662C151.5 96.5662 149.441 97.0139 149.441 97.5662C149.441 98.1184 151.5 98.5662 154.039 98.5662Z" fill="#6C63FF"/>
<path opacity="0.1" d="M181.835 106.068C183.641 106.068 185.104 105.621 185.104 105.068C185.104 104.516 183.641 104.068 181.835 104.068C180.03 104.068 178.566 104.516 178.566 105.068C178.566 105.621 180.03 106.068 181.835 106.068Z" fill="#6C63FF"/>
<path d="M174.686 99.8364C174.686 99.8364 181.136 78.6954 173.677 70.2284C168.106 63.8934 161.764 64.6574 158.929 65.4354C157.444 65.8307 156.207 66.8585 155.547 68.2463C154.552 70.3853 154.735 73.8563 161.734 77.9094C173.454 84.6954 174.184 94.0093 174.184 94.0093L174.686 99.8364Z" fill="#17BCE3"/>
<path d="M159.938 68.4373C159.938 68.4373 178.95 74.3823 174.686 99.8373" stroke="#565987"/>
<path d="M171.039 70.5684C171.039 70.5684 168.421 72.3334 169.248 74.9834" stroke="#565987"/>
<path d="M161.846 72.1342C162.777 71.206 164.171 70.9192 165.393 71.4042" stroke="#565987"/>
<path d="M169.36 80.3252C169.36 80.3252 172.169 78.9012 172.895 80.6852" stroke="#565987"/>
<path d="M176.314 83.2962C176.314 83.2962 174.203 83.1292 174.165 84.1382" stroke="#565987"/>
<path d="M174.947 100.009C174.947 100.009 167.387 84.6443 165.32 84.9803C164.325 85.1393 163.88 86.1103 163.675 87.0803C163.421 88.3395 163.565 89.6467 164.087 90.8203C166.142 95.3601 170.13 98.7346 174.947 100.009Z" fill="#4D8AF0"/>
<path d="M165.375 87.8972C165.375 87.8972 173.303 99.3972 174.835 99.8972" stroke="#565987"/>
<path d="M164.647 89.6912H166.497" stroke="#565987"/>
<path d="M166.863 93.8972L169.764 94.0202" stroke="#565987"/>
<path d="M168.628 90.5332L168.314 92.0432" stroke="#565987"/>
<path d="M171.712 95.1301L171.656 96.5031" stroke="#565987"/>
<path d="M174.724 100.009C174.724 100.009 182.284 84.6443 184.351 84.9803C185.346 85.1393 185.791 86.1103 185.996 87.0803C186.251 88.3395 186.107 89.6467 185.584 90.8203C183.53 95.3601 179.541 98.7346 174.724 100.009Z" fill="#4D8AF0"/>
<path d="M184.295 87.8972C184.295 87.8972 176.367 99.3972 174.835 99.8972" stroke="#565987"/>
<path d="M185.023 89.6912H183.173" stroke="#565987"/>
<path d="M182.808 93.8972L179.907 94.0202" stroke="#565987"/>
<path d="M181.043 90.5332L181.357 92.0432" stroke="#565987"/>
<path d="M177.957 95.1301L178.015 96.5031" stroke="#565987"/>
<path d="M180.943 103.598C180.738 103.43 180.588 103.204 180.513 102.949C180.444 102.685 180.569 102.409 180.813 102.286C181.111 102.23 181.416 102.337 181.613 102.567C181.807 102.794 182.087 102.929 182.385 102.939C182.079 102.662 181.941 102.244 182.021 101.839C182.035 101.757 182.069 101.679 182.121 101.614C182.274 101.451 182.553 101.522 182.736 101.65C183.274 102.135 183.552 102.845 183.486 103.566C183.518 103.301 183.522 103.032 183.496 102.766C183.473 102.497 183.586 102.235 183.796 102.066C183.934 101.991 184.091 101.954 184.248 101.959C184.511 101.922 184.778 101.998 184.982 102.168C185.179 102.44 185.167 102.81 184.952 103.068C184.735 103.31 184.479 103.513 184.194 103.668C183.976 103.797 183.791 103.974 183.651 104.185C183.635 104.215 183.622 104.246 183.611 104.277H181.968C181.597 104.098 181.252 103.87 180.943 103.598Z" fill="#4D8AF0"/>
<path d="M153.741 91.0881C153.741 91.0881 153.124 91.8941 154.025 93.1091C154.926 94.3241 155.666 95.3531 155.368 96.1091C155.368 96.1091 154.009 93.8511 152.903 93.8191C151.797 93.7871 152.523 92.4471 153.741 91.0881Z" fill="#4D8AF0"/>
<path opacity="0.1" d="M153.741 91.0881C153.687 91.1658 153.644 91.2511 153.614 91.3411C152.536 92.6081 151.961 93.7921 152.997 93.8221C153.964 93.8501 155.124 95.5771 155.397 96.0101C155.392 96.0451 155.381 96.0789 155.365 96.1101C155.365 96.1101 154.006 93.8521 152.9 93.8201C151.794 93.7881 152.523 92.4471 153.741 91.0881Z" fill="black"/>
<path d="M152.595 92.1151C152.595 92.4001 152.627 92.6281 152.667 92.6281C152.707 92.6281 152.737 92.3991 152.737 92.1151C152.737 91.8311 152.697 91.9661 152.659 91.9661C152.621 91.9661 152.595 91.8321 152.595 92.1151Z" fill="#FFD037"/>
<path d="M152.201 92.4534C152.45 92.5904 152.669 92.6724 152.686 92.6384C152.703 92.6044 152.519 92.4654 152.27 92.3304C152.021 92.1954 152.119 92.2924 152.099 92.3304C152.079 92.3684 151.952 92.3174 152.201 92.4534Z" fill="#FFD037"/>
<path d="M156.994 91.0881C156.994 91.0881 157.611 91.8941 156.71 93.1091C155.809 94.3241 155.069 95.3531 155.369 96.1091C155.369 96.1091 156.726 93.8511 157.832 93.8191C158.938 93.7871 158.212 92.4471 156.994 91.0881Z" fill="#4D8AF0"/>
<path opacity="0.1" d="M156.993 91.0881C157.048 91.1658 157.09 91.251 157.12 91.3411C158.198 92.6081 158.773 93.7921 157.737 93.8221C156.77 93.8501 155.61 95.5771 155.337 96.0101C155.346 96.0442 155.358 96.0776 155.371 96.1101C155.371 96.1101 156.728 93.8521 157.834 93.8201C158.94 93.7881 158.211 92.4471 156.993 91.0881Z" fill="black"/>
<path d="M158.139 92.1151C158.139 92.4001 158.107 92.6281 158.067 92.6281C158.027 92.6281 157.997 92.3991 157.997 92.1151C157.997 91.8311 158.037 91.9661 158.075 91.9661C158.113 91.9661 158.139 91.8321 158.139 92.1151Z" fill="#FFD037"/>
<path d="M158.534 92.4534C158.285 92.5904 158.066 92.6724 158.049 92.6384C158.032 92.6044 158.216 92.4654 158.465 92.3304C158.714 92.1954 158.616 92.2924 158.636 92.3304C158.656 92.3684 158.782 92.3174 158.534 92.4534Z" fill="#FFD037"/>
<path d="M157.943 96.0062C157.177 96.0031 156.418 95.8601 155.703 95.5842C155.184 95.2142 153.053 94.7722 152.918 95.3652C152.783 95.9582 150.332 98.3132 152.273 98.3292C153.974 98.3845 155.673 98.1757 157.31 97.7102C157.827 97.3952 157.943 96.0062 157.943 96.0062Z" fill="#A8A8A8"/>
<path opacity="0.2" d="M152.245 98.1231C153.946 98.1785 155.645 97.9697 157.282 97.5042C157.682 97.2652 157.833 96.4042 157.882 96.0042H157.938C157.938 96.0042 157.831 97.3972 157.311 97.7092C155.674 98.1729 153.975 98.3816 152.274 98.3281C151.713 98.3281 151.52 98.1281 151.53 97.8281C151.608 98.0141 151.827 98.1211 152.245 98.1231Z" fill="black"/>
<path opacity="0.1" d="M118.518 9.91313C120.895 9.91313 122.821 7.98661 122.821 5.61013C122.821 3.23365 120.895 1.30713 118.518 1.30713C116.142 1.30713 114.215 3.23365 114.215 5.61013C114.215 7.98661 116.142 9.91313 118.518 9.91313Z" fill="#6C63FF"/>
<path opacity="0.1" d="M32.5521 94.6852C36.5352 94.6852 39.7641 91.4563 39.7641 87.4732C39.7641 83.4902 36.5352 80.2612 32.5521 80.2612C28.569 80.2612 25.3401 83.4902 25.3401 87.4732C25.3401 91.4563 28.569 94.6852 32.5521 94.6852Z" fill="#6C63FF"/>
<path opacity="0.1" d="M167.623 63.2721C171.606 63.2721 174.835 60.0432 174.835 56.0601C174.835 52.0771 171.606 48.8481 167.623 48.8481C163.64 48.8481 160.411 52.0771 160.411 56.0601C160.411 60.0432 163.64 63.2721 167.623 63.2721Z" fill="#6C63FF"/>
<path d="M107.986 69.5663C107.731 69.5903 107.473 69.5783 107.22 69.6183C106.796 69.7025 106.391 69.865 106.026 70.0973C104.145 71.031 102.638 72.5795 101.757 74.4863C101.696 74.6057 101.676 74.7423 101.701 74.8743C101.746 74.9832 101.818 75.0782 101.912 75.1493L102.612 75.7903C102.701 75.8827 102.807 75.9571 102.924 76.0093C103.114 76.0589 103.315 76.0527 103.501 75.9913C105.437 75.5473 107.494 75.0363 108.853 73.5913C109.498 72.9053 110.092 71.9603 111.041 71.9343C111.432 71.9782 111.82 72.0449 112.203 72.1343C112.601 72.2181 113.002 72.0085 113.16 71.6343C113.19 71.4443 113.168 71.2496 113.096 71.0713L112.511 69.1233C112.352 68.5903 110.746 68.5623 110.211 68.6573C109.4 68.7903 108.851 69.4863 107.986 69.5663Z" fill="#65617D"/>
<path d="M114.878 80.5352C114.891 81.203 114.863 81.8709 114.794 82.5352C114.696 83.0556 114.528 83.5602 114.294 84.0352C113.936 84.8006 113.481 85.5168 112.941 86.1663C112.467 86.7953 111.825 87.2781 111.089 87.5592C110.331 87.8277 109.486 87.6043 108.96 86.9962C108.632 86.4454 108.501 85.7992 108.59 85.1642C108.605 83.5876 108.952 82.0318 109.609 80.5983C109.909 79.9983 110.295 79.4322 110.604 78.8292C111.249 77.5782 111.617 76.0932 112.729 75.2292C113.427 75.5517 114.173 75.7567 114.937 75.8363C115.237 75.8683 116.081 75.8882 116.18 76.2682C116.248 76.5252 115.691 77.2432 115.58 77.4962C115.158 78.4564 114.92 79.4872 114.878 80.5352Z" fill="#65617D"/>
<path d="M106.992 51.8443C107.28 52.4304 107.482 53.0547 107.592 53.6983C107.632 54.0983 107.592 54.4983 107.592 54.8923C107.626 55.4373 107.717 55.9772 107.863 56.5033L108.971 61.0393C109.176 61.7079 109.259 62.4081 109.216 63.1063C109.113 63.5587 109.038 64.0173 108.993 64.4793C109.014 64.8309 109.07 65.1796 109.16 65.5203C109.37 66.572 109.312 67.6595 108.993 68.6833C108.96 68.7605 108.948 68.845 108.959 68.9283C108.987 69.0573 109.112 69.1373 109.226 69.1993C110.419 69.852 111.72 70.2852 113.066 70.4783C114.281 67.588 115.13 64.5571 115.593 61.4563C115.875 59.5783 116.013 57.6763 116.375 55.8123C116.383 55.7044 116.429 55.6029 116.504 55.5253C116.639 55.4123 116.844 55.4833 117.004 55.5593C119.037 56.5369 120.993 57.6675 122.855 58.9413C124.181 57.2249 124.676 55.0085 124.206 52.8913C123.972 51.9903 123.638 51.1183 123.211 50.2913C122.756 49.2844 122.189 48.332 121.52 47.4523C119.954 45.6589 117.923 44.3323 115.651 43.6183C114.296 43.1293 112.901 42.7663 111.509 42.3963C110.729 42.1873 109.422 41.5073 108.664 42.0363C107.88 42.8046 107.311 43.7648 107.013 44.8213C106.61 45.897 106.391 47.0328 106.364 48.1813C106.33 49.4317 106.543 50.6766 106.992 51.8443Z" fill="#3F3D56"/>
<path d="M122.984 57.3132C122.568 57.7672 122.918 58.4912 122.839 59.1042C122.787 59.3809 122.688 59.6467 122.547 59.8902L120.647 63.6282C120.329 64.1894 120.091 64.7922 119.939 65.4192C119.678 66.7682 120.214 68.2842 119.529 69.4762C119.253 69.8226 119.032 70.2099 118.874 70.6242C118.846 70.9457 118.834 71.2685 118.84 71.5912C118.753 71.9597 118.633 72.3198 118.482 72.6672C118.395 73.015 118.333 73.3686 118.297 73.7252C118.056 75.2467 117.259 76.6248 116.061 77.5932C115.375 78.1752 114.493 78.4754 113.594 78.4332C112.68 78.3856 111.897 77.763 111.644 76.8832C111.631 76.5803 111.551 76.2842 111.409 76.0162C111.146 75.6722 110.593 75.6582 110.341 75.3062L111.32 73.6942C111.661 73.219 111.889 72.6715 111.984 72.0942C112.044 71.3802 111.7 70.6682 111.823 69.9612C111.928 69.3542 112.364 68.8492 112.495 68.2482C112.55 67.4843 112.433 66.7177 112.155 66.0042C111.876 64.1314 112.06 62.2187 112.69 60.4332C113.217 57.9827 114.093 55.6203 115.29 53.4182C117.885 54.8132 120.273 56.1562 122.984 57.3132Z" fill="#3F3D56"/>
<path d="M123.009 19.4183C123.116 19.8562 123.13 20.3115 123.051 20.7553C122.981 21.7503 123.192 22.7453 123.145 23.7553C123.037 24.7536 122.846 25.7411 122.572 26.7073C121.961 29.5073 122.108 32.4233 121.555 35.2343C120.873 38.7163 119.128 41.9593 118.784 45.4923C118.81 46.6235 118.567 47.7447 118.074 48.7633C114.421 47.1553 110.967 45.1269 107.784 42.7193C108.613 37.5413 109.047 32.308 109.084 27.0643C109.037 26.4303 109.081 25.793 109.213 25.1713C109.379 24.6511 109.617 24.1569 109.921 23.7033C110.691 22.4523 111.538 21.2503 112.384 20.0503C113.209 18.2156 115.329 17.352 117.201 18.0883L120.595 18.7093C121.302 18.8433 122.706 18.5963 123.009 19.4183Z" fill="#4D8AF0"/>
<path d="M95.7662 39.3222C95.302 38.858 94.7958 38.4379 94.2542 38.0672C94.9602 37.2082 94.8211 35.9672 94.9941 34.8672C95.1361 34.1525 95.3515 33.4545 95.6371 32.7842C95.7091 32.5952 95.8101 32.3842 96.0071 32.3362C96.1281 32.3213 96.2507 32.3407 96.3611 32.3922C96.9611 32.6032 98.2032 32.5922 98.6672 32.9772C99.2262 33.4472 98.7152 34.4292 98.5042 35.0162C98.3542 35.4072 96.0632 39.6212 95.7662 39.3222Z" fill="#BE6F72"/>
<path d="M97.4991 76.4772C97.7988 76.9624 97.9946 77.5045 98.0741 78.0692C98.148 78.6434 97.9021 79.212 97.4331 79.5512C96.8788 79.7972 96.2478 79.8045 95.6881 79.5712C93.2304 78.7716 91.23 76.9624 90.1881 74.5972C90.0089 73.8284 89.4719 73.1921 88.7441 72.8862C87.9295 72.4901 87.2635 71.8431 86.8441 71.0402C86.44 70.2061 86.669 69.2033 87.3951 68.6272C87.8672 68.354 88.4293 68.2819 88.9551 68.4272C89.4736 68.5747 89.97 68.7909 90.4311 69.0702C91.2667 69.4421 92.0658 69.891 92.8181 70.4112C93.4092 70.9462 93.9579 71.5263 94.4591 72.1462C95.0422 72.8124 95.5887 73.5097 96.0961 74.2352C96.2611 74.4442 97.6361 76.2842 97.4991 76.4772Z" fill="#65617D"/>
<path d="M82.9161 72.3012C82.8485 73.3021 82.6718 74.2927 82.3891 75.2552C82.2724 75.8116 81.9851 76.3178 81.5671 76.7032C81.1886 76.9487 80.7597 77.106 80.3121 77.1632C79.869 77.3163 79.3825 77.1035 79.1941 76.6742C78.4819 75.8283 77.9411 74.8518 77.6021 73.7992C77.2855 72.2171 77.5295 70.5741 78.2921 69.1522C78.5401 68.5699 78.9019 68.0429 79.3561 67.6022C79.9176 67.1409 80.5923 66.8381 81.3101 66.7252C82.0441 66.5782 82.9451 66.2632 82.9991 67.1572C83.0775 68.8723 83.0495 70.5906 82.9151 72.3022L82.9161 72.3012Z" fill="#65617D"/>
<path d="M93.9241 34.9062C95.2971 35.6162 96.8241 36.5193 97.1071 38.0373C97.1317 38.9782 97.096 39.9198 97.0001 40.8562C97.1636 41.6687 97.2818 42.4896 97.3541 43.3153C97.3072 43.7064 97.2405 44.0949 97.1541 44.4792C97.0842 45.2184 97.0582 45.961 97.0761 46.7032C96.8775 48.3628 96.5769 50.0086 96.1761 51.6312C95.9847 52.8089 95.94 54.0056 96.0431 55.1942C96.1091 55.9622 96.2431 56.7262 96.2431 57.4942C96.2432 58.0504 96.1974 58.6056 96.1061 59.1542C95.8393 60.8771 95.302 62.547 94.5141 64.1022C93.5571 65.9862 93.6921 68.4173 93.7941 70.5283C93.8384 70.819 93.8014 71.1163 93.6871 71.3872C93.4361 71.8432 92.8121 71.9082 92.2941 71.8643C90.3757 71.689 88.5966 70.788 87.3201 69.3452C87.134 69.164 87.0077 68.9302 86.9581 68.6752C86.9141 68.2492 87.2581 67.8993 87.5031 67.5472C88.3431 66.3532 88.1301 64.7362 88.2291 63.2702C88.3016 62.2034 88.5567 61.1569 88.9831 60.1763C89.2783 59.6315 89.4845 59.0431 89.5941 58.4333C89.6064 57.8547 89.5044 57.2794 89.2941 56.7402L88.6941 54.8462C87.8506 51.8774 86.7612 48.9841 85.4371 46.1962C84.5183 46.7941 83.8607 47.7183 83.5971 48.7822C83.0761 50.6562 83.8181 52.7493 83.1081 54.5522C82.9906 54.8022 82.893 55.061 82.8161 55.3262C82.7742 55.5551 82.7581 55.7878 82.7681 56.0202C82.7866 57.9584 82.9047 59.8943 83.1221 61.8202C83.1328 62.1123 83.2149 62.3972 83.3611 62.6502C83.4781 62.8193 83.6491 62.9442 83.7751 63.1062C84.0585 63.6067 84.1305 64.1995 83.9751 64.7533L83.5751 67.4152C83.5681 67.5502 83.5234 67.6805 83.4461 67.7913C83.3523 67.8821 83.2354 67.9454 83.1081 67.9743C81.844 68.3667 80.5114 68.4887 79.1971 68.3323C78.8067 68.2416 78.4425 68.0619 78.1331 67.8073C78.0991 67.4072 78.5951 67.1443 78.6121 66.7493C78.5941 66.5152 78.4866 66.2971 78.3121 66.1403C77.5721 65.3043 76.6891 64.4172 76.6971 63.3013C76.6971 63.0093 76.7671 62.7162 76.7571 62.4242C76.5901 61.6959 76.3475 60.9871 76.0331 60.3092C75.9282 59.3941 75.9915 58.4676 76.2201 57.5752C76.3162 56.3385 76.249 55.0944 76.0201 53.8752L75.3541 49.3752C75.2765 48.6762 75.138 47.9852 74.9401 47.3102C74.6893 46.6456 74.395 45.9982 74.0591 45.3722C73.4221 44.0792 72.8991 42.7342 72.3781 41.3932C72.2125 41.0289 72.1085 40.6396 72.0701 40.2412C72.0872 39.5515 72.3577 38.8922 72.8301 38.3892C73.6498 37.4132 74.7686 36.7348 76.0131 36.4592C76.2212 36.4011 76.4399 36.3922 76.6521 36.4333C76.832 36.4921 77.0009 36.5803 77.1521 36.6942C80.2699 38.7336 84.1629 39.1951 87.6711 37.9412C87.9254 38.0648 88.2239 38.0566 88.4711 37.9193C89.0843 37.5815 89.661 37.1814 90.1921 36.7253C91.2989 35.8706 92.569 35.2516 93.9241 34.9062Z" fill="#3F3D56"/>
<path d="M52.688 86.0033C52.7934 86.3082 52.9522 86.5919 53.157 86.8413C54.0009 87.6736 54.7361 88.6093 55.345 89.6263C55.445 89.8613 55.514 90.1073 55.604 90.3463C55.8763 91.0668 56.3201 91.71 56.897 92.2203C57.3373 92.5856 57.8158 92.9025 58.324 93.1653C59.1734 93.7029 60.1487 94.0087 61.153 94.0523C61.3549 94.048 61.5559 94.0239 61.753 93.9803C62.0638 93.9159 62.3633 93.806 62.642 93.6543C63.3275 93.3402 63.7506 92.6381 63.708 91.8853C63.6826 91.7469 63.6392 91.6124 63.579 91.4853C63.4735 91.284 63.3518 91.0917 63.215 90.9103C62.9102 90.4225 62.5111 90.0006 62.041 89.6693C61.4387 89.4329 60.8548 89.1521 60.294 88.8293C60.0989 88.6514 59.9305 88.4462 59.794 88.2203C59.3431 87.5274 59.0071 86.7663 58.799 85.9663C58.7236 85.3522 58.4861 84.7693 58.111 84.2773C57.4532 83.8435 56.6868 83.603 55.899 83.5833C55.618 83.6414 55.3269 83.627 55.053 83.5413C54.786 83.4083 54.697 83.2193 54.375 83.2413C54.1183 83.2743 53.8759 83.3782 53.675 83.5413C52.87 84.0801 52.4782 85.0576 52.688 86.0033Z" fill="#3F3D56"/>
<path d="M59.756 86.9043C59.8252 87.5932 60.1247 88.2386 60.606 88.7363C60.938 89.0223 61.406 89.2023 61.567 89.6053C61.6773 90.0592 61.5568 90.5384 61.245 90.8863C60.8946 91.3542 60.4602 91.753 59.964 92.0623C59.5576 92.3572 59.0516 92.4808 58.555 92.4063C58.1674 92.2785 57.8197 92.0521 57.546 91.7493C56.8239 91.1629 56.226 90.4384 55.787 89.6183C55.387 88.7273 55.369 87.6943 54.935 86.8183C54.6222 86.3415 54.3544 85.8366 54.135 85.3103C54.0663 85.1117 54.0663 84.8958 54.135 84.6973C54.2863 84.4075 54.5882 84.2279 54.915 84.2333C55.2354 84.2443 55.5513 84.312 55.848 84.4333C56.7461 84.7535 57.6653 85.0108 58.599 85.2033C58.971 85.2733 59.199 85.2713 59.399 85.6313C59.5831 86.0346 59.7036 86.464 59.756 86.9043Z" fill="#FBBEBE"/>
<path d="M62.0639 92.6063C61.9166 92.8319 61.8122 93.0828 61.7559 93.3463C61.7089 93.5514 61.7015 93.7635 61.7339 93.9713C62.0447 93.9069 62.3442 93.7971 62.6229 93.6453C63.3085 93.3312 63.7315 92.6292 63.6889 91.8763C63.6635 91.7379 63.6202 91.6035 63.5599 91.4763C63.3668 91.4331 63.1652 91.4959 63.0309 91.6413C62.6603 91.9106 62.334 92.2362 62.0639 92.6063Z" fill="#FBBEBE"/>
<path d="M54.9331 77.4892C54.8458 77.6764 54.8199 77.8864 54.8591 78.0892C54.9501 78.4892 55.3591 78.7162 55.7261 78.8972L59.2261 80.6082C59.4688 80.7206 59.7052 80.8461 59.9341 80.9842C60.5032 81.382 61.0312 81.8356 61.5101 82.3382C61.993 82.8415 62.5954 83.2144 63.2611 83.4222C63.9346 83.5697 64.6385 83.4774 65.2511 83.1612C65.5812 82.9967 65.8876 82.7885 66.1621 82.5422C66.4 82.3339 66.6198 82.1057 66.8191 81.8602C66.9903 81.6795 67.1128 81.4582 67.1751 81.2172C67.2055 80.8466 67.0884 80.479 66.8491 80.1942C66.727 80.0211 66.5934 79.8564 66.4491 79.7012C64.9799 78.299 63.0944 77.4127 61.0771 77.1762C60.3404 77.0215 59.6161 76.8126 58.9101 76.5512C58.2018 76.29 57.444 76.1903 56.6921 76.2592C55.932 76.336 55.2661 76.8016 54.9331 77.4892Z" fill="#3F3D56"/>
<path opacity="0.1" d="M54.9331 77.4892C54.8458 77.6764 54.8199 77.8864 54.8591 78.0892C54.9501 78.4892 55.3591 78.7162 55.7261 78.8972L59.2261 80.6082C59.4688 80.7206 59.7052 80.8461 59.9341 80.9842C60.5032 81.382 61.0312 81.8356 61.5101 82.3382C61.993 82.8415 62.5954 83.2144 63.2611 83.4222C63.9346 83.5697 64.6385 83.4774 65.2511 83.1612C65.5812 82.9967 65.8876 82.7885 66.1621 82.5422C66.4 82.3339 66.6198 82.1057 66.8191 81.8602C66.9903 81.6795 67.1128 81.4582 67.1751 81.2172C67.2055 80.8466 67.0884 80.479 66.8491 80.1942C66.727 80.0211 66.5934 79.8564 66.4491 79.7012C64.9799 78.299 63.0944 77.4127 61.0771 77.1762C60.3404 77.0215 59.6161 76.8126 58.9101 76.5512C58.2018 76.29 57.444 76.1903 56.6921 76.2592C55.932 76.336 55.2661 76.8016 54.9331 77.4892Z" fill="black"/>
<path d="M63.6949 78.5822C63.9642 78.8845 64.1858 79.2261 64.3519 79.5952C64.5014 79.837 64.5545 80.1261 64.5009 80.4052C64.4227 80.5929 64.2973 80.7572 64.1369 80.8822L63.7889 81.2042C63.6838 81.3137 63.5616 81.4052 63.4269 81.4752C63.2355 81.5472 63.0311 81.5779 62.8269 81.5652C62.3582 81.6172 61.8851 81.5188 61.4759 81.2842C60.9814 80.8488 60.8289 80.1417 61.0999 79.5412C61.3801 78.9617 61.8043 78.4638 62.3319 78.0952C62.7359 77.7662 63.4069 78.2812 63.6949 78.5822Z" fill="#FBBEBE"/>
<path d="M65.8161 80.6393C65.7517 80.9695 65.783 81.3112 65.9061 81.6243C65.9941 81.9243 66.0791 82.2243 66.1651 82.5243V82.5363C66.4029 82.3279 66.6227 82.0998 66.8221 81.8543C66.9932 81.6735 67.1157 81.4523 67.1781 81.2113C67.2085 80.8407 67.0913 80.473 66.8521 80.1883C66.7299 80.0152 66.5963 79.8505 66.4521 79.6953C66.3581 79.8163 66.2771 79.9363 66.2091 80.0133C66.0352 80.1918 65.9012 80.4051 65.8161 80.6393Z" fill="#FBBEBE"/>
<path d="M56.6741 65.8113C56.3528 67.5655 56.3467 69.3629 56.6561 71.1193C56.9244 72.4518 56.9094 73.8259 56.6121 75.1523C56.4013 75.6141 56.302 76.119 56.3221 76.6263C56.4911 77.5673 57.6221 77.9263 58.5641 78.1063C58.8351 78.1753 59.1168 78.1923 59.3941 78.1563C59.6724 78.0799 59.9305 77.9434 60.1501 77.7563C61.4851 76.7859 62.4989 75.438 63.0611 73.8863C63.3777 72.8337 63.5719 71.7483 63.6401 70.6513C63.899 68.8206 63.9326 66.9651 63.7401 65.1263C63.6601 64.5893 63.5401 64.0583 63.4911 63.5173C63.4284 62.5761 63.4805 61.6309 63.6461 60.7023C63.9888 58.4019 64.5076 56.1312 65.1981 53.9103C63.3036 54.1617 61.3779 53.8138 59.6911 52.9153C60.0171 53.0903 59.6431 55.8813 59.6031 56.2733C59.4823 57.4418 59.2713 58.5993 58.9721 59.7353C58.4121 61.8603 57.1771 63.7023 56.6741 65.8113Z" fill="#3F3D56"/>
<path opacity="0.1" d="M56.6741 65.8113C56.3528 67.5655 56.3467 69.3629 56.6561 71.1193C56.9244 72.4518 56.9094 73.8259 56.6121 75.1523C56.4013 75.6141 56.302 76.119 56.3221 76.6263C56.4911 77.5673 57.6221 77.9263 58.5641 78.1063C58.8351 78.1753 59.1168 78.1923 59.3941 78.1563C59.6724 78.0799 59.9305 77.9434 60.1501 77.7563C61.4851 76.7859 62.4989 75.438 63.0611 73.8863C63.3777 72.8337 63.5719 71.7483 63.6401 70.6513C63.899 68.8206 63.9326 66.9651 63.7401 65.1263C63.6601 64.5893 63.5401 64.0583 63.4911 63.5173C63.4284 62.5761 63.4805 61.6309 63.6461 60.7023C63.9888 58.4019 64.5076 56.1312 65.1981 53.9103C63.3036 54.1617 61.3779 53.8138 59.6911 52.9153C60.0171 53.0903 59.6431 55.8813 59.6031 56.2733C59.4823 57.4418 59.2713 58.5993 58.9721 59.7353C58.4121 61.8603 57.1771 63.7023 56.6741 65.8113Z" fill="black"/>
<path d="M67.0072 55.6682C67.6695 58.0259 67.7644 60.5068 67.2842 62.9082C66.8061 65.2997 66.5716 67.7335 66.5842 70.1722C66.7309 71.1183 66.7085 72.0829 66.5182 73.0212C66.3633 73.4667 66.1583 73.8931 65.9072 74.2922L59.5582 85.2702C59.2293 85.8492 58.6307 86.2233 57.9662 86.2654C57.2836 86.2721 56.608 86.1273 55.9882 85.8412C55.5677 85.7018 55.177 85.4851 54.8362 85.2022C54.4933 84.9164 54.3122 84.4809 54.3512 84.0362C54.6352 82.1302 55.0632 80.1782 55.3802 78.2662C55.5954 76.9688 56.0647 75.7267 56.7612 74.6112C57.2522 73.8112 57.8612 73.1012 58.2812 72.2732C59.4992 69.9022 59.0812 67.0092 58.1382 64.5142C57.1952 62.0192 55.8002 59.7032 55.0542 57.1532C54.8331 56.4436 54.7066 55.7079 54.6782 54.9652C54.6595 53.416 55.2578 51.9229 56.3412 50.8152C56.4975 50.6372 56.6949 50.4999 56.9162 50.4152C57.1747 50.3552 57.444 50.3601 57.7002 50.4292C61.2302 51.1182 65.8362 52.2622 67.0072 55.6682Z" fill="#3F3D56"/>
<path d="M124.069 21.2443C124.137 22.1286 123.91 23.0105 123.422 23.7513C121.586 26.6218 117.969 27.7805 114.807 26.5103C113.59 25.9049 112.469 25.1224 111.481 24.1883C111.111 23.9169 110.81 23.5632 110.6 23.1553C110.354 22.3634 110.62 21.5016 111.27 20.9863C111.913 20.4911 112.655 20.1389 113.445 19.9533C116.026 19.1513 123.455 16.6163 124.069 21.2443Z" fill="#FBBEBE"/>
<path d="M122.559 18.4792C125.214 20.4213 128.036 22.1249 130.991 23.5702C131.961 23.9269 132.76 24.638 133.227 25.5602C133.364 26.0953 133.384 26.6535 133.287 27.1972C133.226 28.259 133.012 29.3065 132.652 30.3072C132.08 31.4116 131.408 32.4616 130.645 33.4442C129.451 35.2702 128.751 37.4232 127.277 39.0372C128.405 42.2977 129.221 45.6577 129.714 49.0722C129.734 49.1667 129.723 49.265 129.684 49.3532C129.643 49.411 129.591 49.4591 129.529 49.4942L127.054 51.1172C126.784 51.2756 126.543 51.4785 126.34 51.7172C125.902 52.2862 125.96 53.0862 125.689 53.7482C125.389 54.4018 124.836 54.9048 124.157 55.1412C123.481 55.3743 122.76 55.4506 122.05 55.3642C121.146 55.3073 120.276 55.001 119.535 54.4792C118.931 53.9671 118.419 53.3556 118.021 52.6712C117.698 52.221 117.43 51.7343 117.221 51.2212C116.993 50.4736 116.902 49.6912 116.95 48.9112C116.957 47.427 117.099 45.9466 117.374 44.4882C117.489 43.9092 117.633 43.3382 117.724 42.7552C117.907 41.5812 117.871 40.3842 118.007 39.2042C118.192 37.8773 118.488 36.5684 118.892 35.2912C119.113 34.5001 119.286 33.6963 119.409 32.8842C119.681 31.4621 120.069 30.0647 120.569 28.7062L121.369 26.3562C121.538 25.8492 121.709 25.3432 121.91 24.8482C122.356 23.9561 122.686 23.0108 122.893 22.0352C123.034 20.9592 121.872 19.6812 122.264 18.6712C122.296 18.5552 122.469 18.4072 122.559 18.4792Z" fill="#3F3D56"/>
<path d="M132.59 25.0042C133.118 25.3138 133.498 25.8244 133.642 26.4191C134.086 27.7106 134.193 29.0939 133.952 30.4382C133.874 30.7762 133.821 31.1194 133.793 31.4651C133.797 31.8658 133.836 32.2653 133.91 32.6591C134.11 34.1811 133.91 35.7272 133.976 37.2592C134.044 38.9862 134.42 40.8102 133.695 42.3801C133.14 43.3899 132.355 44.2543 131.403 44.9031C128.055 47.5126 124.361 49.6446 120.427 51.2381C121.066 50.3632 121.158 49.2032 120.666 48.2381C120.166 47.2967 119.407 46.5181 118.478 45.9941C119.62 45.7403 120.726 45.3453 121.771 44.8181C123.812 43.6734 125.705 42.2824 127.407 40.6762C127.667 40.489 127.87 40.2326 127.992 39.9361C128.171 39.3361 127.678 38.7721 127.335 38.2491C126.299 36.6571 126.535 34.5781 126.973 32.7361C127.38 30.6923 128.229 28.7624 129.462 27.0821C130.234 26.0496 131.339 25.3155 132.59 25.0042Z" fill="#3F3D56"/>
<path d="M120.254 51.2933C120.075 51.5847 119.843 51.8398 119.57 52.0453C118.912 52.3738 118.134 52.3603 117.487 52.0093C116.868 51.7467 116.296 51.3831 115.796 50.9333C115.581 50.7047 115.327 50.5161 115.046 50.3763C114.525 50.1763 113.797 50.3263 113.504 49.8473C113.47 49.797 113.453 49.737 113.456 49.6763C113.474 49.5033 113.701 49.4553 113.876 49.4453C114.688 49.3914 115.475 49.1482 116.176 48.7353C115.952 48.5725 115.76 48.3689 115.611 48.1353C115.547 48.0546 115.512 47.9551 115.511 47.8523C115.535 47.7412 115.596 47.6414 115.684 47.5693C116.992 46.335 118.916 46.0141 120.554 46.7573C120.711 46.8206 120.849 46.9241 120.954 47.0573C121.028 47.18 121.077 47.3158 121.099 47.4573C121.228 48.0143 121.699 48.8503 121.527 49.4133C121.195 50.0979 120.767 50.7311 120.254 51.2933Z" fill="#FBBEBE"/>
<path d="M106.687 48.7812C109.162 45.9222 110.268 42.1602 111.295 38.5212L112.029 35.9352L113.8 29.7062C114.061 28.7872 114.321 27.8682 114.494 26.9312C114.753 25.3067 114.856 23.6612 114.8 22.0172C114.775 21.3358 114.619 20.6656 114.34 20.0432C114.167 19.6132 114.083 19.1562 113.94 18.7122C113.76 18.0934 113.49 17.5043 113.14 16.9632C113.043 16.8022 112.922 16.6572 112.78 16.5332C112.535 16.3668 112.258 16.2543 111.966 16.2032C111.334 16.0139 110.678 15.9129 110.018 15.9031C109.35 15.8992 108.71 16.1722 108.251 16.6572C107.972 17.0741 107.728 17.5132 107.521 17.9702C107.402 18.1469 107.294 18.3309 107.197 18.5212C107.088 18.8092 107.028 19.1133 107.018 19.4212C106.915 20.6745 106.826 21.9292 106.753 23.1852C106.719 23.7562 106.689 24.3312 106.711 24.9042C106.729 25.3502 106.777 25.7932 106.824 26.2372L107.296 30.5822C107.405 31.6032 107.328 32.5582 107.419 33.5822C107.518 36.0653 107.23 38.5486 106.565 40.9432C106.355 42.1073 105.99 43.238 105.479 44.3052C104.988 45.2282 104.251 46.1652 104.446 47.1942C104.558 47.5402 104.65 47.8921 104.723 48.2482C104.71 48.4723 104.732 48.6971 104.789 48.9142C104.956 49.2173 105.299 49.3787 105.639 49.3142C106.035 49.2472 106.4 49.0613 106.687 48.7812Z" fill="#3F3D56"/>
<path d="M106.989 37.3402C107.065 37.9112 107.007 38.4902 107.035 39.0652C107.098 39.8056 107.232 40.5383 107.435 41.2532C107.538 42.0834 107.951 42.8439 108.591 43.3822C108.766 43.4738 108.933 43.5795 109.091 43.6982C109.251 43.8247 109.316 44.0369 109.254 44.2312L108.707 44.1392C108.87 44.2707 108.945 44.4826 108.901 44.6872C108.857 44.8918 108.702 45.0544 108.499 45.1076C108.297 45.1608 108.082 45.0957 107.943 44.9392C107.964 45.1184 107.947 45.2999 107.893 45.4722C107.837 45.6467 107.676 45.7668 107.493 45.7722C107.39 45.7562 107.293 45.7154 107.209 45.6532L105.781 44.7682C105.353 44.5378 104.997 44.1934 104.752 43.7732L104.127 42.8322C103.989 42.6498 103.88 42.4475 103.803 42.2322C103.57 41.4322 104.221 40.5532 103.883 39.8032C103.781 39.6185 103.662 39.444 103.527 39.2822C102.923 38.1923 102.712 36.9284 102.927 35.7012C102.953 35.2852 103.027 34.7922 103.404 34.6112C103.723 34.5024 104.075 34.5647 104.337 34.7762C104.593 34.986 104.874 35.1631 105.173 35.3032C105.373 35.3712 105.591 35.3792 105.79 35.4502C106.069 35.5502 106.327 35.9272 106.514 36.1502C106.781 36.4947 106.945 36.9069 106.989 37.3402Z" fill="#FBBEBE"/>
<path d="M89.5552 19.4603C89.3863 19.848 89.1492 20.2023 88.8552 20.5063C88.5558 20.8152 88.1275 20.9637 87.7012 20.9063C87.2691 20.7651 86.8967 20.4835 86.6432 20.1063C85.8403 19.241 85.151 18.2769 84.5922 17.2373C83.915 15.5678 83.5676 13.7829 83.5692 11.9813C83.4357 11.459 83.5344 10.9045 83.8398 10.4603C84.1453 10.0161 84.6277 9.72555 85.1632 9.66327L88.1972 8.52927C88.3841 8.44081 88.5911 8.40321 88.7972 8.42027C89.2732 8.50027 89.4482 9.07327 89.5772 9.53627C89.8086 10.3693 90.1931 11.152 90.7112 11.8443C91.3912 12.7513 92.9172 13.9733 92.0462 15.1053C91.0721 16.4698 90.2375 17.9288 89.5552 19.4603Z" fill="#BE6F72"/>
<path d="M93.437 14.2834C94.6944 15.636 95.3185 17.4589 95.154 19.2984C94.98 21.1123 94.6938 22.9138 94.297 24.6924C93.9014 26.4863 94.0533 28.3577 94.733 30.0644C95.0459 30.6083 95.3206 31.1733 95.555 31.7554C95.7118 32.3471 95.7649 32.9615 95.712 33.5714C95.7088 34.2144 95.586 34.8512 95.35 35.4494C94.8433 36.3519 94.1093 37.1061 93.221 37.6374C91.5847 38.9562 89.7514 40.0098 87.788 40.7594C86.4218 41.157 85.0103 41.3778 83.588 41.4164C82.6288 41.4927 81.6642 41.4652 80.711 41.3344C79.0435 41.0564 77.5112 40.2452 76.344 39.0224C76.139 38.8258 75.9698 38.595 75.844 38.3404C75.7224 38.0091 75.6638 37.6581 75.671 37.3054C75.623 35.9987 75.631 34.6924 75.695 33.3864C75.7314 32.1412 75.9027 30.9036 76.206 29.6954C76.586 28.3024 77.245 26.9954 77.744 25.6404C79.483 20.9234 79.308 15.5554 81.723 11.1504C82.244 10.1994 83.116 9.19835 84.19 9.35035C84.3967 9.36294 84.5911 9.45249 84.735 9.60135C84.8589 9.78238 84.9283 9.99511 84.935 10.2144C85.0959 12.3851 85.6478 14.5089 86.564 16.4834C86.964 17.2414 87.559 18.3954 88.476 18.5984C89.393 18.8014 89.934 17.9264 90.426 17.3054C91.2895 16.1671 92.3026 15.1506 93.438 14.2834H93.437Z" fill="#E3E8F4"/>
<path d="M99.7971 11.0623C100.068 11.2087 100.321 11.3863 100.551 11.5913C101.117 12.1994 101.41 13.012 101.363 13.8413C101.313 14.6605 101.205 15.4752 101.04 16.2793C100.843 18.4913 100.87 20.7176 101.12 22.9243C101.159 23.282 101.137 23.6437 101.056 23.9943C100.956 24.3283 100.756 24.6233 100.628 24.9473C100.248 25.9063 100.535 27.0003 100.312 28.0073C100.073 29.0793 99.2561 30.0543 99.4121 31.1423C99.4741 31.5683 99.6791 31.9603 99.7661 32.3813C99.8935 32.803 99.7546 33.2599 99.4141 33.5393C99.0501 33.7663 98.5211 33.6013 98.0871 33.7263C97.911 33.7914 97.7396 33.8686 97.5741 33.9573C96.8794 34.2313 96.099 34.1833 95.4431 33.8263C94.7957 33.4729 94.2136 33.0112 93.7221 32.4613C92.9176 31.7275 92.2934 30.8179 91.8981 29.8033C91.55 28.256 91.7164 26.6374 92.3721 25.1933C93.0274 23.7589 93.3885 22.2076 93.4341 20.6313C93.3247 19.7546 93.1577 18.886 92.9341 18.0313C92.7271 16.8294 92.653 15.6084 92.7131 14.3903C92.6872 13.4952 92.8472 12.6044 93.1831 11.7743C93.7388 10.6816 94.8123 9.94682 96.0321 9.82425C97.3878 9.81974 98.7086 10.254 99.7971 11.0623Z" fill="#3F3D56"/>
<path opacity="0.1" d="M96.0351 30.2923C96.0491 30.9288 96.1632 31.5592 96.3731 32.1603C96.6764 31.3252 96.8274 30.4426 96.8191 29.5543C97.089 26.5609 97.6217 23.5972 98.4111 20.6973C97.9122 21.2733 97.5474 21.953 97.3431 22.6873C96.3482 25.0938 95.9013 27.6916 96.0351 30.2923Z" fill="black"/>
<path d="M82.6241 9.09615C81.6939 9.43822 80.7856 9.83697 79.9041 10.2902C78.9211 10.6378 77.9128 10.9093 76.8882 11.1022C74.493 11.5398 72.3289 12.8077 70.7762 14.6832C69.8768 16.2155 69.1433 17.8393 68.5882 19.5272C67.9022 20.849 67.2906 22.2081 66.7561 23.5982C66.2752 25.4865 66.1504 27.448 66.3881 29.3822C66.414 30.9718 66.7584 32.54 67.4012 33.9942C67.7792 34.7341 68.3012 35.3942 68.6782 36.1372C69.1322 37.0262 69.3702 38.0072 69.7482 38.9222C70.0732 39.874 70.7113 40.6875 71.5581 41.2301L73.0101 40.3802C75.1771 39.1132 77.3432 37.8431 79.4422 36.4671C81.3652 35.396 82.97 33.8343 84.0931 31.9412C84.8765 30.1564 85.1286 28.1836 84.8191 26.2592C84.5961 24.3352 84.0872 22.4532 83.8242 20.5352C83.4895 18.1212 83.5398 15.6694 83.9731 13.2712C84.1731 12.1892 84.7011 11.0712 84.8111 9.99215C84.9331 8.83915 83.4531 8.87715 82.6241 9.09615Z" fill="#3F3D56"/>
<path d="M73.645 40.7233C74.757 41.7753 76.357 42.0823 77.745 42.7133C78.7785 43.1931 79.709 43.869 80.485 44.7033C80.9832 45.1191 81.2221 45.7688 81.112 46.4083C80.8566 46.8957 80.4025 47.2485 79.867 47.3753C79.2569 47.6799 78.5574 47.7541 77.897 47.5843C77.5438 47.4046 77.2062 47.1955 76.888 46.9593C76.054 46.4593 75.004 46.4593 74.148 46.0043C72.942 45.3593 72.342 43.9413 71.207 43.1753C70.586 42.7573 69.729 42.4153 69.6649 41.6693C69.662 41.3995 69.7191 41.1324 69.832 40.8873C70.061 40.2783 70.451 38.1873 71.322 38.2433C72.274 38.3043 72.938 40.2203 73.645 40.7233Z" fill="#FBBEBE"/>
<path d="M67.817 31.3982C68.2565 32.6891 68.9682 33.8704 69.904 34.8622C70.625 35.5316 71.0989 36.4249 71.249 37.3972C71.2128 38.3385 70.6835 39.1912 69.856 39.6412C69.0371 40.0737 68.1279 40.3073 67.202 40.3232C66.4652 40.3942 65.7218 40.3425 65.002 40.1702C63.184 39.6772 61.922 38.0912 60.492 36.8702C59.5852 36.2159 58.7609 35.4544 58.037 34.6022C57.31 33.7152 57.1975 32.4746 57.753 31.4712C57.9852 31.1722 58.2539 30.9034 58.553 30.6712C59.6397 29.7292 60.5664 28.617 61.297 27.3782C61.5391 26.8502 61.9072 26.3897 62.369 26.0372C63.1421 25.7077 64.0145 25.6991 64.794 26.0132C65.667 26.2422 68.128 26.6892 68.3 27.8042C68.37 28.2622 67.8 28.9742 67.717 29.4652C67.6064 30.109 67.6406 30.7693 67.817 31.3982Z" fill="#FBBEBE"/>
<path d="M72.3181 33.8932C72.5789 34.3655 72.7935 34.8618 72.9591 35.3752C73.5661 37.4842 72.4821 39.6562 71.9641 41.7892C71.3031 44.5212 71.5841 47.3782 71.5521 50.1892C71.6799 51.4812 71.2933 52.7714 70.4761 53.7802C70.2142 53.9785 69.9831 54.2144 69.7901 54.4802C69.6904 54.6903 69.6162 54.9115 69.5691 55.1392C69.2829 56.135 68.5575 56.9456 67.5994 57.34C66.6413 57.7345 65.5555 57.6698 64.6511 57.1642C63.8971 56.7442 63.2421 56.0162 62.3791 55.9942C62.1075 56.0075 61.837 56.0375 61.5691 56.0842C60.7024 56.1006 59.8438 55.914 59.0621 55.5392C58.8698 55.4783 58.6905 55.3824 58.5331 55.2562C58.3881 55.1232 58.2941 54.9442 58.1611 54.8002C57.6701 54.2712 56.8301 54.3622 56.1221 54.2152C55.0431 53.9739 54.2005 53.1312 53.9591 52.0522C53.8613 51.3578 53.8952 50.6511 54.0591 49.9692L54.5921 46.8932C54.816 45.765 54.971 44.6243 55.0561 43.4772C55.1216 42.1809 55.0106 40.8817 54.7261 39.6152C54.4358 38.5948 54.1982 37.5601 54.0141 36.5152C53.7923 34.6254 54.2896 32.7213 55.4071 31.1812C55.644 30.7674 56.0478 30.4758 56.5151 30.3812C56.8995 30.3897 57.2719 30.5168 57.5811 30.7452C60.4478 32.4432 63.3365 34.1059 66.2471 35.7332C67.0267 36.216 67.8675 36.592 68.7471 36.8512C69.0141 36.9192 69.3961 36.8912 69.4331 36.6202C69.4379 36.5172 69.4106 36.4152 69.3551 36.3282C68.8551 35.3712 68.1371 34.5492 67.5641 33.6382C66.9275 32.7557 66.6275 31.6746 66.7181 30.5902C66.9491 29.1262 68.3101 28.1572 69.4181 29.3052C70.6012 30.6866 71.578 32.2319 72.3181 33.8932Z" fill="#F86D70"/>
<path d="M63.4071 52.4622C65.7507 52.4829 68.0749 52.8883 70.2871 53.6622C70.94 54.0429 71.6955 54.2103 72.4481 54.1412C72.8116 54.0307 73.1497 53.8496 73.4431 53.6082C74.3428 52.9485 75.1927 52.2236 75.9861 51.4392C75.9061 51.0032 75.3161 50.9392 74.8741 50.9482C73.7957 50.9553 72.7318 50.7 71.7741 50.2042C71.4597 50.015 71.1262 49.8594 70.7791 49.7402C69.8341 49.4792 68.8711 49.9772 67.9221 50.2192C66.4924 50.4829 65.0247 50.4619 63.6031 50.1572L59.7311 49.5862C59.3772 49.4878 58.9987 49.5342 58.6791 49.7152C58.4877 49.896 58.3564 50.1313 58.3031 50.3892C57.8291 51.9812 58.0561 52.1142 59.6321 52.2132L63.4071 52.4622Z" fill="#FBBEBE"/>
<path opacity="0.1" d="M116.272 24.8382C119.788 24.8382 122.638 21.988 122.638 18.4722C122.638 14.9564 119.788 12.1062 116.272 12.1062C112.756 12.1062 109.906 14.9564 109.906 18.4722C109.906 21.988 112.756 24.8382 116.272 24.8382Z" fill="black"/>
<path d="M116.226 24.5623C119.742 24.5623 122.592 21.7122 122.592 18.1963C122.592 14.6805 119.742 11.8303 116.226 11.8303C112.71 11.8303 109.86 14.6805 109.86 18.1963C109.86 21.7122 112.71 24.5623 116.226 24.5623Z" fill="#FBBEBE"/>
<path d="M121.6 10.1131C122.137 10.3831 122.593 10.7911 122.921 11.2951C123.071 11.6544 123.185 12.0275 123.261 12.4091C123.609 13.6031 124.536 14.6391 124.592 15.8831C124.513 17.2686 123.707 18.509 122.473 19.1441C122.209 19.3387 121.89 19.4457 121.562 19.4501C121.231 19.3822 120.915 19.2577 120.627 19.0821C119.32 18.5011 117.858 19.2371 116.473 19.5751C115.034 19.9225 113.524 19.8337 112.136 19.3201C111.372 19.0719 110.699 18.6049 110.198 17.9771C109.695 17.3358 109.603 16.4633 109.961 15.7311C110.161 15.3771 110.49 15.0571 110.468 14.6531C110.417 14.4157 110.35 14.1818 110.268 13.9531C110.248 13.5661 110.368 13.1848 110.606 12.8791C111.527 11.3976 112.69 10.0815 114.048 8.98612C114.425 8.62244 114.908 8.38843 115.427 8.31812C116.474 8.27212 117.373 9.05212 118.449 9.05612C119.582 9.08476 120.679 9.45301 121.6 10.1131Z" fill="#3F3D56"/>
<path opacity="0.1" d="M92.7901 16.8502C96.4158 16.8502 99.3551 13.911 99.3551 10.2852C99.3551 6.65947 96.4158 3.72021 92.7901 3.72021C89.1643 3.72021 86.2251 6.65947 86.2251 10.2852C86.2251 13.911 89.1643 16.8502 92.7901 16.8502Z" fill="black"/>
<path d="M92.9051 16.6893C96.5308 16.6893 99.4701 13.7501 99.4701 10.1243C99.4701 6.49858 96.5308 3.55933 92.9051 3.55933C89.2793 3.55933 86.3401 6.49858 86.3401 10.1243C86.3401 13.7501 89.2793 16.6893 92.9051 16.6893Z" fill="#BE6F72"/>
<path d="M96.412 13.8332C97.3845 14.2871 98.4896 14.3685 99.518 14.0622C100.105 13.952 100.661 13.7174 101.149 13.3742C101.641 13.0231 101.944 12.4657 101.971 11.8622C101.971 11.1962 101.533 10.5952 101.48 9.92824C101.414 9.08824 101.961 8.31324 102.019 7.46924C101.997 6.63534 101.731 5.82613 101.255 5.14124C100.621 3.86142 99.7807 2.69453 98.768 1.68724C97.7308 0.672941 96.2723 0.213532 94.841 0.450241C94.1816 0.69128 93.508 0.891656 92.824 1.05024C92.2009 1.04867 91.5798 0.978582 90.972 0.841241C90.356 0.707508 89.7124 0.854028 89.215 1.24124C88.972 1.48024 88.815 1.81624 88.533 1.99124C88.3391 2.08044 88.1385 2.15433 87.933 2.21224C87.2614 2.61019 86.7893 3.2734 86.633 4.03824L84.926 8.93024C85.5307 9.27263 86.1605 9.56849 86.81 9.81524C87.4678 10.0715 87.9697 10.6181 88.169 11.2952C88.269 11.8142 88.081 12.4112 88.384 12.8452C88.7165 13.2099 89.2219 13.3634 89.701 13.2452C90.1688 13.1228 90.6518 13.0692 91.135 13.0862C92.329 13.2672 92.772 13.9992 93.877 13.0862C94.982 12.1732 95.386 13.2562 96.412 13.8332Z" fill="#3F3D56"/>
<path opacity="0.1" d="M65.0051 30.9002C68.3017 30.9002 70.9741 28.2277 70.9741 24.9312C70.9741 21.6346 68.3017 18.9622 65.0051 18.9622C61.7085 18.9622 59.0361 21.6346 59.0361 24.9312C59.0361 28.2277 61.7085 30.9002 65.0051 30.9002Z" fill="black"/>
<path d="M65.2361 30.5762C68.5327 30.5762 71.2051 27.9038 71.2051 24.6072C71.2051 21.3106 68.5327 18.6382 65.2361 18.6382C61.9395 18.6382 59.2671 21.3106 59.2671 24.6072C59.2671 27.9038 61.9395 30.5762 65.2361 30.5762Z" fill="#FBBEBE"/>
<path d="M69.805 18.7713C68.3841 17.6811 66.7875 16.8414 65.084 16.2883C64.0093 15.8614 62.8311 15.7669 61.702 16.0173C60.202 16.4453 58.195 17.0833 57.265 18.3393C56.7719 18.9315 56.3855 19.6048 56.123 20.3293C55.681 21.8133 56.31 23.3953 56.268 24.9433C56.082 26.7503 55.3688 28.4626 54.217 29.8673C53.173 31.3393 52.962 33.4483 52.345 35.1473C52.134 35.7303 52.066 36.5403 52.61 36.8323C53.087 37.0973 53.664 36.7663 54.11 36.4483L56.766 34.5283C57.0773 34.2363 57.4966 34.088 57.9222 34.1194C58.3479 34.1507 58.7409 34.3589 59.006 34.6933L64.571 38.6323C64.7939 38.1774 64.8034 37.647 64.597 37.1843C65.0931 37.4186 65.5523 37.7242 65.96 38.0913C66.3927 38.4588 67.0304 38.4494 67.452 38.0693C67.7162 37.6061 67.5915 37.0184 67.162 36.7023C66.79 36.3523 66.301 36.1433 65.936 35.7833C65.214 35.0653 65.136 33.9313 64.685 33.0243C64.2796 32.4353 63.9173 31.8177 63.601 31.1763C63.3745 30.0181 63.5885 28.8171 64.201 27.8083C64.6428 26.4806 65.5018 25.3311 66.65 24.5313C67.062 24.3083 67.517 24.1773 67.939 23.9743C69.1455 23.356 70.1449 22.3984 70.814 21.2193C71.262 20.2733 70.571 19.3603 69.805 18.7713Z" fill="#3F3D56"/>
<path opacity="0.1" d="M60.771 38.4952C61.342 38.8592 61.987 39.0952 62.548 39.4722C63.1427 39.8166 63.5389 40.4224 63.616 41.1052C63.5534 41.7551 63.2712 42.3642 62.816 42.8322L57.97 49.1922L60.441 49.8472C60.1077 50.4376 59.8694 51.0768 59.735 51.7412C59.5921 52.4157 59.1198 52.9733 58.478 53.2252C57.878 53.3782 57.256 53.0642 56.64 53.1002C56.184 53.1282 55.755 53.3432 55.299 53.3612C54.7081 53.3303 54.1416 53.116 53.678 52.7482C52.588 52.0182 51.505 50.9712 51.513 49.6582C51.5391 49.2145 51.6283 48.7768 51.778 48.3582C52.3557 45.9846 53.3494 43.7321 54.713 41.7052C55.5385 40.6967 56.4565 39.7677 57.455 38.9302C57.6763 38.7076 57.9366 38.5276 58.223 38.3992C58.8958 38.2689 59.5925 38.3554 60.213 38.6462C60.872 38.8372 61.701 38.8652 62.081 38.3022" fill="black"/>
<path d="M60.562 38.1032C61.133 38.4652 61.778 38.7032 62.339 39.0802C62.9331 39.4246 63.3297 40.0292 63.409 40.7112C63.3527 41.3633 63.0696 41.9751 62.609 42.4402L57.761 48.7952L60.232 49.4502C59.8984 50.0404 59.6601 50.6796 59.526 51.3442C59.3836 52.019 58.9112 52.5767 58.269 52.8282C57.669 52.9812 57.047 52.6672 56.431 52.7032C55.975 52.7292 55.546 52.9462 55.09 52.9622C54.4992 52.9312 53.9326 52.717 53.469 52.3492C52.379 51.6212 51.296 50.5722 51.306 49.2612C51.3301 48.8174 51.4187 48.3795 51.569 47.9612C52.1459 45.5873 53.1397 43.3347 54.504 41.3082C55.3314 40.2984 56.2492 39.3662 57.246 38.5232C57.4683 38.3018 57.7284 38.122 58.014 37.9922C58.687 37.8616 59.384 37.9488 60.004 38.2412C60.663 38.4342 61.492 38.4602 61.872 37.8972" fill="#F86D70"/>
<g opacity="0.1">
<path d="M110.405 16.6594C110.906 17.2871 111.579 17.7541 112.343 18.0024C113.731 18.518 115.241 18.6068 116.68 18.2574C118.073 17.9194 119.527 17.1834 120.834 17.7644C121.121 17.9405 121.437 18.0657 121.767 18.1344C122.096 18.1285 122.415 18.0209 122.68 17.8264C123.51 17.3446 124.173 16.6206 124.58 15.7514C124.578 15.796 124.582 15.8408 124.592 15.8844C124.513 17.2699 123.707 18.5102 122.473 19.1454C122.209 19.34 121.89 19.447 121.562 19.4514C121.232 19.3834 120.915 19.2589 120.627 19.0834C119.32 18.5024 117.858 19.2384 116.473 19.5764C115.034 19.9237 113.524 19.8349 112.136 19.3214C111.372 19.0731 110.699 18.6061 110.198 17.9784C109.695 17.337 109.603 16.4646 109.961 15.7324L109.991 15.6824C110.055 16.0345 110.197 16.3681 110.405 16.6594Z" fill="black"/>
<path d="M110.67 13.3344C110.648 13.6395 110.526 13.9289 110.324 14.1584C110.299 14.0934 110.28 14.0265 110.266 13.9584C110.242 13.5951 110.349 13.2354 110.566 12.9434C110.62 13.0676 110.656 13.1995 110.67 13.3344Z" fill="black"/>
</g>
<path opacity="0.1" d="M87.1 3.3843L85.3931 8.2743C85.9973 8.61749 86.6271 8.91337 87.2771 9.1593C87.9352 9.41502 88.4373 9.96181 88.6361 10.6393C88.7361 11.1583 88.5481 11.7553 88.8511 12.1913C89.184 12.5552 89.6889 12.7086 90.1681 12.5913C90.636 12.4698 91.1189 12.4163 91.6021 12.4323C92.7961 12.6133 93.239 13.3453 94.344 12.4423C95.449 11.5393 95.844 12.6113 96.875 13.1883C97.847 13.644 98.9528 13.7256 99.981 13.4173C100.567 13.3077 101.124 13.0738 101.612 12.7313C101.682 12.6745 101.749 12.6141 101.812 12.5503C101.66 12.8764 101.431 13.1606 101.144 13.3783C100.656 13.7215 100.1 13.9561 99.513 14.0663C98.4846 14.373 97.3794 14.2915 96.4071 13.8373C95.3801 13.2603 94.9591 12.2083 93.8761 13.0913C92.7931 13.9743 92.324 13.2623 91.134 13.0913C90.6509 13.0744 90.1678 13.128 89.7001 13.2503C89.2209 13.3687 88.7154 13.2152 88.383 12.8503C88.083 12.4163 88.266 11.8193 88.168 11.3003C87.9693 10.6228 87.4672 10.076 86.809 9.8203C86.1595 9.57353 85.5297 9.27768 84.925 8.9353L86.64 4.0353C86.7994 3.47996 87.0778 2.96603 87.4561 2.5293C87.3177 2.80572 87.1988 3.0914 87.1 3.3843Z" fill="black"/>
<g opacity="0.1">
<path d="M65.0401 37.3991C65.4471 37.6487 65.9716 37.5898 66.3131 37.2561C66.5622 36.7907 66.4397 36.2134 66.0231 35.8891C65.6511 35.5371 65.1621 35.3301 64.7981 34.9701C64.0761 34.2541 63.9981 33.1201 63.5471 32.2131C63.142 31.6232 62.7798 31.0049 62.4631 30.3631C62.2366 29.2056 62.4506 28.0051 63.0631 26.9971C63.5048 25.6694 64.3639 24.5199 65.5121 23.7201C65.9241 23.4971 66.3791 23.3661 66.8011 23.1631C68.0077 22.5441 69.007 21.5858 69.6761 20.4061C70.1081 19.5061 69.4991 18.6371 68.7761 18.0461C69.1281 18.2751 69.4761 18.5161 69.8071 18.7721C70.5731 19.3721 71.2631 20.2721 70.8021 21.2151C70.1329 22.3942 69.1336 23.3518 67.9271 23.9701C67.5051 24.1701 67.0501 24.3041 66.6381 24.5271C65.4899 25.3269 64.6308 26.4764 64.1891 27.8041C63.5747 28.8122 63.3606 30.0139 63.5891 31.1721C63.9053 31.8135 64.2676 32.4311 64.6731 33.0201C65.1351 33.9271 65.2021 35.0611 65.9241 35.7791C66.2881 36.1391 66.7771 36.3461 67.1501 36.6981C67.5649 37.0235 67.6871 37.5994 67.4401 38.0651C67.1341 38.4711 66.4051 38.3871 65.9481 38.0871C65.6401 37.8781 65.3591 37.6051 65.0401 37.3991Z" fill="black"/>
<path d="M52.9771 35.634L55.6331 33.716C55.9436 33.4226 56.3633 33.2733 56.7895 33.3047C57.2156 33.336 57.6089 33.5452 57.8731 33.881L63.4441 37.82C63.667 37.3644 63.6765 36.8334 63.4701 36.37C63.9526 36.599 64.3995 36.8964 64.7971 37.253C64.7323 37.2236 64.6654 37.1989 64.5971 37.179C64.8035 37.6417 64.7939 38.1721 64.5711 38.627L59.0001 34.688C58.735 34.3536 58.3419 34.1454 57.9163 34.114C57.4906 34.0827 57.0713 34.231 56.7601 34.523L54.1041 36.443C53.6621 36.761 53.0851 37.092 52.6041 36.827C52.3381 36.6638 52.1795 36.371 52.1881 36.059C52.4716 35.9594 52.7378 35.816 52.9771 35.634Z" fill="black"/>
</g>
<path d="M119.332 48.6283C119.332 48.6283 107.932 49.5413 105.664 47.9283L116.093 46.3203L119.332 48.6283Z" fill="#E3E8F4"/>
<path opacity="0.1" d="M119.332 48.6283C119.332 48.6283 107.932 49.5413 105.664 47.9283L116.093 46.3203L119.332 48.6283Z" fill="black"/>
<path d="M119.332 48.6273L116.139 46.6063C116.139 46.6063 106.613 49.3443 104.003 48.2143L106.659 44.4883L116.097 46.3283L119.332 48.6273Z" fill="#E3E8F4"/>
<path d="M105.167 21.8252C104.815 22.2699 104.532 22.7656 104.329 23.2952C104.237 23.5762 104.192 23.8682 104.114 24.1522C103.896 24.8608 103.559 25.5275 103.119 26.1242C102.138 27.5502 100.913 28.9242 100.666 30.6402C100.582 31.4919 100.643 32.3516 100.845 33.1832C100.936 33.7357 101.093 34.275 101.315 34.7892C101.568 35.3342 101.944 35.8142 102.232 36.3412C102.495 36.8589 102.717 37.3965 102.896 37.9492C103.203 37.577 103.476 37.1773 103.71 36.7552C103.953 36.3314 104.383 36.0484 104.868 35.9932C105.421 35.9932 105.877 36.4512 106.424 36.5222C106.51 36.5394 106.598 36.5311 106.679 36.4982C106.879 36.4042 106.894 36.1362 106.879 35.9212C106.722 34.4212 105.862 32.9372 106.268 31.4802C106.642 30.1332 107.979 29.2922 108.681 28.0802C109.136 27.1688 109.408 26.1771 109.481 25.1612C109.691 23.9635 109.78 22.7477 109.746 21.5322C109.708 20.9212 109.223 17.0622 108.335 17.4652C108.027 17.6042 107.758 18.1952 107.565 18.4602L106.765 19.5882L105.167 21.8252Z" fill="#3F3D56"/>
<path d="M81.354 46.7243L74.954 51.9354L66.719 50.4634L72.264 46.1104L81.354 46.7243Z" fill="#E3E8F4"/>
<path opacity="0.1" d="M81.5849 46.4001L75.185 51.6111L66.95 50.1391L72.4949 45.7861L81.5849 46.4001Z" fill="black"/>
<path d="M81.542 46.1233L75.142 51.3323L66.905 49.8623L72.452 45.5073L81.542 46.1233Z" fill="#E3E8F4"/>
<path opacity="0.1" d="M81.7241 45.5151L75.3241 50.7261L67.0891 49.2541L72.6361 44.9011L81.7241 45.5151Z" fill="black"/>
<path d="M81.677 45.2441L75.277 50.4552L67.042 48.9832L72.582 44.6292L81.677 45.2441Z" fill="#E3E8F4"/>
<path d="M165.867 116.438C166.174 116.289 166.534 116.302 166.83 116.471C167.125 116.64 167.318 116.945 167.345 117.284L167.701 121.902L165.588 122.284L164.474 118.945L165.867 116.438Z" fill="#3F3D56"/>
<path d="M91.947 85.4873L59.611 101.896C58.8546 102.282 58.3797 103.061 58.3831 103.91C58.3865 104.759 58.8675 105.534 59.627 105.913L129.27 140.863C131.786 142.123 134.764 142.048 137.214 140.663L166.547 124.122C167.272 123.709 167.709 122.927 167.681 122.093C167.653 121.258 167.165 120.508 166.414 120.143L93.934 85.4652C93.3041 85.1639 92.57 85.172 91.947 85.4873Z" fill="#3F3D56"/>
<path d="M59.394 99.0422L58.381 99.7942L58.3006 103.394C58.2888 103.967 58.6038 104.497 59.113 104.759L129.946 141.107C130.273 141.276 130.664 141.262 130.978 141.071C131.293 140.88 131.484 140.538 131.484 140.17V134.94L59.394 99.0422Z" fill="#3F3D56"/>
<path d="M91.9461 81.3133L59.6101 97.7203C58.8531 98.1048 58.3771 98.8828 58.3792 99.7319C58.3813 100.581 58.8612 101.356 59.6201 101.737L129.269 136.687C131.786 137.946 134.763 137.871 137.213 136.487L166.546 119.943C167.271 119.53 167.708 118.748 167.68 117.914C167.652 117.079 167.164 116.329 166.413 115.964L93.9331 81.2873C93.3029 80.9865 92.5688 80.9954 91.9461 81.3113V81.3133Z" fill="#E3E8F4"/>
<path d="M98.639 84.2922L63.011 102.383L124.246 133.002L160.988 114.352L98.639 84.2922Z" fill="#3F3D56"/>
<path d="M146.654 127.434C148.729 127.434 150.412 126.438 150.412 125.208C150.412 123.979 148.729 122.982 146.654 122.982C144.579 122.982 142.896 123.979 142.896 125.208C142.896 126.438 144.579 127.434 146.654 127.434Z" fill="#3F3D56"/>
<path d="M78.1111 91.0671C78.6634 91.0671 79.1111 90.6194 79.1111 90.0671C79.1111 89.5149 78.6634 89.0671 78.1111 89.0671C77.5588 89.0671 77.1111 89.5149 77.1111 90.0671C77.1111 90.6194 77.5588 91.0671 78.1111 91.0671Z" fill="#3F3D56"/>
<path d="M77.0691 93.7812C77.6214 93.7812 78.0691 93.3335 78.0691 92.7812C78.0691 92.229 77.6214 91.7812 77.0691 91.7812C76.5168 91.7812 76.0691 92.229 76.0691 92.7812C76.0691 93.3335 76.5168 93.7812 77.0691 93.7812Z" fill="#3F3D56"/>
<path d="M78.5991 92.0852L82.7751 90.1372" stroke="#3F3D56"/>
<path d="M115.593 101.142L103.804 107.948C102.092 108.937 101.505 111.127 102.494 112.84C103.482 114.552 105.673 115.139 107.385 114.15L119.174 107.344C120.886 106.355 121.473 104.165 120.484 102.453C119.496 100.74 117.305 100.153 115.593 101.142Z" fill="#17BCE3"/>
<path d="M126.137 106.514L114.348 113.32C112.636 114.309 112.049 116.499 113.038 118.212C114.026 119.924 116.217 120.511 117.929 119.522L129.718 112.716C131.43 111.727 132.017 109.537 131.028 107.825C130.04 106.112 127.849 105.525 126.137 106.514Z" fill="#17BCE3"/>
<path d="M106.043 94.9748L94.2543 101.781C92.5415 102.77 91.9547 104.96 92.9436 106.673C93.9324 108.385 96.1225 108.972 97.8353 107.983L109.624 101.177C111.336 100.188 111.923 97.9983 110.934 96.2855C109.946 94.5728 107.755 93.9859 106.043 94.9748Z" fill="#17BCE3"/>
</svg>
