<svg width="201" height="160" viewBox="0 0 201 160" fill="none" xmlns="http://www.w3.org/2000/svg">
<path d="M81 159C124.63 159 160 123.63 160 80C160 36.3695 124.63 1 81 1C37.3695 1 2 36.3695 2 80C2 123.63 37.3695 159 81 159Z" stroke="#0B555F" stroke-width="2"/>
<path d="M28 56C42.9117 56 55 43.9117 55 29C55 14.0883 42.9117 2 28 2C13.0883 2 1 14.0883 1 29C1 43.9117 13.0883 56 28 56Z" fill="white"/>
<path d="M26.056 44.9999V14.2799L29.416 17.6399H19.336V11.3999H33.832V44.9999H26.056Z" fill="#0B555F"/>
<path d="M109.215 71.0519C110.286 70.3147 111.644 70.132 112.871 70.5599C112.871 70.5599 112.351 71.6649 110.035 71.6519L109.215 71.0519Z" fill="#0B555F"/>
<path d="M108.991 71.127C108.732 72.4014 109.097 73.7227 109.973 74.684C109.973 74.684 110.784 73.771 109.862 71.647L108.991 71.127Z" fill="#0B555F"/>
<path d="M106.616 69.1638C106.616 69.1638 106.682 67.3428 110.806 67.7878C110.772 68.6059 110.232 69.3162 109.453 69.5688C108.524 70.0884 107.362 69.9226 106.616 69.1638Z" fill="#0B555F"/>
<path d="M106.361 69.1602C106.361 69.1602 104.647 69.7842 106.342 73.5712C107.11 73.286 107.619 72.5532 107.619 71.7342C107.825 70.691 107.311 69.6384 106.361 69.1602Z" fill="#0B555F"/>
<path d="M103.941 66.6741C103.941 66.6741 103.594 63.6941 107.794 63.8391C107.794 63.8391 108.194 66.5331 104.708 67.3631L103.941 66.6741Z" fill="#0B555F"/>
<path d="M101.042 63.4062C101.042 63.4062 101.487 59.9982 105.72 60.8452C105.72 60.8452 105.848 63.7732 101.763 64.1872L101.042 63.4062Z" fill="#0B555F"/>
<path d="M98.885 59.9949C98.885 59.9949 99.72 56.6529 103.91 57.4879C103.18 59.4426 101.269 60.6996 99.185 60.5949L98.885 59.9949Z" fill="#0B555F"/>
<path d="M96.832 56.6608C96.832 56.6608 97.641 53.1958 101.683 54.0758C101.683 54.0758 100.47 57.3758 97.114 57.2348L96.832 56.6608Z" fill="#0B555F"/>
<path d="M95.468 53.474C95.468 53.474 96.031 49.258 99.8 50.042C99.8 50.042 98.861 53.894 95.763 54.072L95.468 53.474Z" fill="#0B555F"/>
<path d="M94.157 49.6088C94.157 49.6088 94.862 45.3548 98.688 46.4378C98.688 46.4378 97.357 50.4838 94.443 50.1818L94.157 49.6088Z" fill="#0B555F"/>
<path d="M93.297 46.0029C93.297 46.0029 94.51 41.7299 97.441 41.7319C97.441 41.7319 96.202 46.2319 93.574 46.8399L93.297 46.0029Z" fill="#0B555F"/>
<path d="M92.705 42.466C92.705 42.466 94.005 37.327 96.405 37.628C96.405 37.628 95.516 41.551 92.82 43.254L92.705 42.466Z" fill="#0B555F"/>
<path d="M92.284 38.234C92.284 38.234 93.526 33.947 95.869 33.688C95.869 33.688 95.069 37.888 92.378 39.333L92.284 38.234Z" fill="#0B555F"/>
<path d="M91.847 34.2979C91.847 34.2979 93.438 29.9919 94.987 29.8359C94.987 29.8359 94.387 34.0359 92.029 34.9869L91.847 34.2979Z" fill="#0B555F"/>
<path d="M91.513 30.6329C91.513 30.6329 92.413 25.9879 93.949 25.5479C93.949 25.5479 93.881 29.3199 91.681 30.9709L91.513 30.6329Z" fill="#0B555F"/>
<path d="M90.745 25.839C90.745 25.839 91.738 22.128 92.971 21.52C92.971 21.52 92.888 25.852 91.065 26.72L90.745 25.839Z" fill="#0B555F"/>
<path d="M90.138 22.6958L89.662 16.2368C89.662 16.2368 92.192 21.0298 90.355 23.8308L90.138 22.6958Z" fill="#0B555F"/>
<path d="M88.081 16.3372C88.081 16.3372 86.211 11.6782 85.796 11.4302C85.796 11.4302 89.227 14.3752 89.053 18.3222L88.081 16.3372Z" fill="#0B555F"/>
<path d="M103.826 66.6561C103.826 66.6561 100.837 66.3801 101.088 70.5771C101.088 70.5771 103.788 70.9111 104.534 67.4051L103.826 66.6561Z" fill="#0B555F"/>
<path d="M100.898 63.2988C100.898 63.2988 97.464 63.4188 97.907 67.7068C97.907 67.7068 100.807 68.1118 101.607 64.0838L100.898 63.2988Z" fill="#0B555F"/>
<path d="M98.863 60.2752C98.863 60.2752 95.689 58.9322 93.838 62.7822C95.838 63.3701 97.9888 62.5999 99.161 60.8762L98.863 60.2752Z" fill="#0B555F"/>
<path d="M96.763 56.6981C96.763 56.6981 93.513 55.2631 91.778 59.0231C91.778 59.0231 95.148 60.0401 97.049 57.2701L96.763 56.6981Z" fill="#0B555F"/>
<path d="M95.512 53.563C95.512 53.563 92.327 50.746 89.99 53.809C89.99 53.809 93.221 56.103 95.678 54.209L95.512 53.563Z" fill="#0B555F"/>
<path d="M94.326 49.5018C94.326 49.5018 91.121 46.6188 88.808 49.8488C88.808 49.8488 92.372 52.1788 94.462 50.1248L94.326 49.5018Z" fill="#0B555F"/>
<path d="M93.609 45.866C93.609 45.866 91.085 42.21 88.309 43.153C88.309 43.153 90.932 47.027 93.609 46.753V45.866Z" fill="#0B555F"/>
<path d="M92.775 42.437C92.775 42.437 90.192 37.807 87.957 38.714C87.957 38.714 89.825 42.276 92.866 43.228L92.775 42.437Z" fill="#0B555F"/>
<path d="M92.438 37.9868C92.438 37.9868 89.829 34.3658 87.538 34.9078C87.538 34.9078 89.699 38.5988 92.72 39.0538L92.438 37.9868Z" fill="#0B555F"/>
<path d="M92.105 34.204C92.105 34.204 90.034 30.104 88.479 30.131C88.479 30.131 89.555 34.237 92.003 34.91L92.105 34.204Z" fill="#0B555F"/>
<path d="M91.586 30.5348C91.586 30.5348 89.299 26.3938 87.701 26.4458C87.701 26.4458 88.928 30.0148 91.528 30.9088L91.586 30.5348Z" fill="#0B555F"/>
<path d="M91.095 26.0778C91.095 26.0778 89.371 22.6438 88.04 22.2988C88.04 22.2988 88.998 26.5268 90.954 27.0118L91.095 26.0778Z" fill="#0B555F"/>
<path d="M89.944 22.5811L86.186 17.3071C86.186 17.3071 87.3 22.6121 90.502 23.5931L89.944 22.5811Z" fill="#0B555F"/>
<path d="M87.279 16.8027C87.279 16.8027 83.05 14.1117 82.879 13.6567C82.879 13.6567 85.131 17.5687 89.058 18.1237L87.279 16.8027Z" fill="#0B555F"/>
<path d="M86.985 15.531C86.985 15.531 82.071 11.156 80.862 11.208C83.5005 11.4143 85.852 12.9511 87.1 15.285L86.985 15.531Z" fill="#0B555F"/>
<path d="M91.07 26.7711L90.897 26.8001C89.74 19.8611 88.282 15.7911 86.797 15.3371L86.847 15.1641C88.423 15.6421 89.889 19.6541 91.07 26.7711Z" fill="#0B555F"/>
<path d="M93.024 43.384L92.764 43.415C92.684 42.767 92.615 42.102 92.564 41.44C92.094 35.679 91.505 30.394 90.847 26.44L90.991 26.248C91.651 30.209 92.355 35.648 92.826 41.419C92.874 42.077 92.944 42.738 93.024 43.384Z" fill="#0B555F"/>
<path d="M114.211 74.1849C110.629 72.5605 107.357 70.3274 104.538 67.5849C101.636 64.8283 99.1895 61.6293 97.289 58.1069C94.8553 53.3561 93.3016 48.2041 92.703 42.8999L92.98 43.0179C93.9842 52.2352 98.1471 60.821 104.762 67.3179C107.55 70.0359 110.789 72.2491 114.335 73.8589L114.211 74.1849Z" fill="#0B555F"/>
<path opacity="0.1" d="M62.4339 20.5861C69.2259 14.4681 79.8889 13.222 89.5929 13.709C120.075 15.239 147.593 30.098 171.393 46.909C180.009 52.9941 188.493 59.557 194.093 67.931C205.48 84.989 202.101 108.62 186.27 122.672C180.883 127.454 174.353 131.119 167.649 134.372C155.73 140.149 142.872 144.785 129.342 146.105C119.695 147.046 109.936 146.278 100.342 144.968C73.542 141.298 47.2419 133.186 25.1989 119.301C15.5229 113.209 6.40595 105.639 2.42295 95.7831C-1.56005 85.9271 0.987935 73.451 10.8609 67.621C14.9449 65.209 19.8259 64.121 24.6059 63.097C31.6419 61.597 38.7889 60.108 45.1399 57.048C51.6979 53.888 59.462 47.7751 58.164 40.7781C56.769 33.2781 55.6509 26.6851 62.4339 20.5861Z" fill="#1CE5AF"/>
<g opacity="0.7">
<path d="M110.968 65.5699C112.21 65.1854 113.562 65.4152 114.607 66.189C114.607 66.189 113.781 67.089 111.573 66.389L110.968 65.5699Z" fill="#0B555F"/>
<path d="M110.733 65.5742C110.108 66.7139 110.063 68.0833 110.613 69.2612C110.613 69.2612 111.653 68.6322 111.413 66.3292L110.733 65.5742Z" fill="#0B555F"/>
<path d="M109.047 62.996C109.047 62.996 109.653 61.277 113.457 62.928C113.182 63.7008 112.454 64.22 111.634 64.228C110.593 64.4452 109.535 63.9412 109.047 62.996Z" fill="#0B555F"/>
<path d="M108.806 62.916C108.806 62.916 106.987 63.003 107.475 67.121C108.294 67.078 108.999 66.5297 109.242 65.747C109.75 64.8126 109.571 63.6544 108.806 62.916Z" fill="#0B555F"/>
<path d="M107.236 59.816C107.236 59.816 107.789 56.87 111.756 58.257C111.756 58.257 111.338 60.948 107.762 60.704L107.236 59.816Z" fill="#0B555F"/>
<path d="M105.441 55.8299C105.441 55.8299 106.879 52.7109 110.663 54.7769C110.663 54.7769 109.915 57.6099 105.89 56.7899L105.441 55.8299Z" fill="#0B555F"/>
<path d="M104.395 51.941C104.395 51.941 106.188 48.996 109.939 51.041C108.658 52.6858 106.462 53.3157 104.504 52.6L104.395 51.941Z" fill="#0B555F"/>
<path d="M103.426 48.148C103.426 48.148 105.226 45.085 108.826 47.124C108.826 47.124 106.686 49.917 103.526 48.78L103.426 48.148Z" fill="#0B555F"/>
<path d="M103.073 44.6989C103.073 44.6989 104.865 40.8419 108.233 42.7129C108.233 42.7129 106.19 46.1129 103.181 45.3589L103.073 44.6989Z" fill="#0B555F"/>
<path d="M102.972 40.6189C102.972 40.6189 104.911 36.7669 108.239 38.9399C108.239 38.9399 105.767 42.4049 103.074 41.2509L102.972 40.6189Z" fill="#0B555F"/>
<path d="M103.227 36.9162C103.227 36.9162 105.653 33.1982 108.453 34.0712C108.453 34.0712 105.929 38.0092 103.241 37.7982L103.227 36.9162Z" fill="#0B555F"/>
<path d="M103.714 33.3661C103.714 33.3661 106.486 28.8491 108.685 29.8491C108.685 29.8491 106.668 33.3301 103.585 34.1491L103.714 33.3661Z" fill="#0B555F"/>
<path d="M104.567 29.2021C104.567 29.2021 107.031 25.4791 109.342 25.9271C109.342 25.9271 107.332 29.7021 104.331 30.2781L104.567 29.2021Z" fill="#0B555F"/>
<path d="M105.32 25.3122C105.32 25.3122 108.12 21.6732 109.643 21.9892C109.643 21.9892 107.819 25.8222 105.287 26.0242L105.32 25.3122Z" fill="#0B555F"/>
<path d="M106.094 21.7102C106.094 21.7102 108.336 17.5522 109.934 17.5792C109.934 17.5792 108.745 21.1602 106.155 22.0792L106.094 21.7102Z" fill="#0B555F"/>
<path d="M106.786 16.9088C106.786 16.9088 108.839 13.6618 110.198 13.4438C110.198 13.4438 108.829 17.5568 106.833 17.8438L106.786 16.9088Z" fill="#0B555F"/>
<path d="M107.143 13.727L108.611 7.41699C108.611 7.41699 109.6 12.745 107.011 14.867L107.143 13.727Z" fill="#0B555F"/>
<path d="M107.07 7.04385C107.07 7.04385 106.67 2.04385 106.347 1.67285C106.347 1.67285 108.747 5.49885 107.407 9.22385L107.07 7.04385Z" fill="#0B555F"/>
<path d="M107.131 59.77C107.131 59.77 104.359 58.62 103.352 62.702C103.352 62.702 105.831 63.825 107.585 60.702L107.131 59.77Z" fill="#0B555F"/>
<path d="M105.334 55.6929C105.334 55.6929 102.019 54.7869 101.167 59.0129C101.167 59.0129 103.818 60.2639 105.779 56.6549L105.334 55.6929Z" fill="#0B555F"/>
<path d="M104.29 52.2009C104.29 52.2009 101.66 49.9749 98.746 53.1009C100.481 54.2569 102.764 54.1603 104.396 52.8619L104.29 52.2009Z" fill="#0B555F"/>
<path d="M103.352 48.1598C103.352 48.1598 100.673 45.8238 97.901 48.8958C97.901 48.8958 100.815 50.8708 103.454 48.7958L103.352 48.1598Z" fill="#0B555F"/>
<path d="M103.09 44.7972C103.09 44.7972 100.89 41.1582 97.743 43.3872C97.743 43.3872 100.143 46.5402 103.055 45.4662L103.09 44.7972Z" fill="#0B555F"/>
<path d="M103.166 40.5619C103.166 40.5619 100.966 36.8559 97.795 39.2539C97.795 39.2539 100.505 42.5459 103.109 41.1999L103.166 40.5619Z" fill="#0B555F"/>
<path d="M103.561 36.8809C103.561 36.8809 102.239 32.6409 99.313 32.7229C99.313 32.7229 100.664 37.2039 103.307 37.7339L103.561 36.8809Z" fill="#0B555F"/>
<path d="M103.784 33.3619C103.784 33.3619 102.696 28.1729 100.293 28.3739C100.293 28.3739 101.017 32.3309 103.637 34.1449L103.784 33.3619Z" fill="#0B555F"/>
<path d="M104.79 29.0108C104.79 29.0108 103.376 24.7758 101.025 24.6108C101.025 24.6108 101.99 28.7778 104.74 30.1108L104.79 29.0108Z" fill="#0B555F"/>
<path d="M105.597 25.3C105.597 25.3 104.838 20.774 103.345 20.333C103.345 20.333 103.153 24.573 105.289 25.945L105.597 25.3Z" fill="#0B555F"/>
<path d="M106.192 21.642C106.192 21.642 105.241 17.007 103.7 16.583C103.7 16.583 103.809 20.355 106.027 21.983L106.192 21.642Z" fill="#0B555F"/>
<path d="M107.048 17.248C107.048 17.248 106.424 13.457 105.256 12.731C105.256 12.731 104.909 17.052 106.642 18.102L107.048 17.248Z" fill="#0B555F"/>
<path d="M106.992 13.5539L104.972 7.3999C104.972 7.3999 104.452 12.7999 107.224 14.6859L106.992 13.5539Z" fill="#0B555F"/>
<path d="M106.169 7.25296C106.169 7.25296 102.924 3.42196 102.899 2.93896C102.899 2.93896 103.892 7.34496 107.468 9.03896L106.169 7.25296Z" fill="#0B555F"/>
<path d="M106.264 5.952C106.264 5.952 102.873 0.312 101.704 0C104.159 0.982009 105.943 3.1478 106.438 5.745L106.264 5.952Z" fill="#0B555F"/>
<path d="M106.825 17.8862L106.652 17.8622C107.61 10.8952 107.432 6.57418 106.146 5.69918L106.246 5.55518C107.608 6.48518 107.808 10.7492 106.825 17.8862Z" fill="#0B555F"/>
<path d="M103.743 34.3459L103.483 34.2999C103.601 33.6569 103.733 32.9999 103.883 32.3519C105.15 26.7119 106.16 21.4939 106.705 17.5219L106.905 17.3799C106.357 21.3649 105.405 26.7619 104.143 32.4109C103.989 33.0469 103.857 33.6999 103.743 34.3459Z" fill="#0B555F"/>
<path d="M114.808 70.0469C111.871 67.4287 109.409 64.3218 107.531 60.8639C105.581 57.3691 104.197 53.5871 103.431 49.6589C102.52 44.3992 102.569 39.0179 103.577 33.7759L103.806 33.9699C102.022 43.0717 103.445 52.5105 107.833 60.6819C109.684 64.1073 112.118 67.1843 115.025 69.7749L114.808 70.0469Z" fill="#0B555F"/>
</g>
<path d="M190.428 130.748C190.428 130.748 186.299 130.5 186.789 133.394C186.737 133.695 186.885 133.995 187.155 134.137C187.155 134.137 187.164 133.922 187.579 133.995C187.727 134.021 187.878 134.029 188.028 134.018C188.23 134.004 188.422 133.924 188.575 133.791C189.449 133.289 190.044 132.412 190.188 131.414C190.188 131.414 190.522 131 190.509 130.894L189.816 131.194C189.949 131.483 189.967 131.812 189.866 132.114C189.866 132.114 189.844 131.214 189.71 131.234C189.682 131.234 189.348 131.407 189.348 131.407C189.572 131.88 189.608 132.421 189.448 132.92C189.448 132.92 189.566 131.841 189.219 131.472L188.729 131.758C188.995 132.264 189.05 132.854 188.883 133.401C188.937 132.863 188.848 132.321 188.625 131.828L188.182 132.174C188.422 132.636 188.484 133.17 188.355 133.674C188.355 133.674 188.319 132.357 188.083 132.257C187.915 132.4 187.764 132.562 187.634 132.74C187.634 132.74 187.942 133.388 187.752 133.729C187.752 133.729 187.634 132.85 187.539 132.847C187.337 133.145 187.192 133.477 187.111 133.828C187.129 133.458 187.245 133.1 187.445 132.788C187.221 132.83 187.015 132.937 186.851 133.095C186.851 133.095 186.912 132.684 187.544 132.648C187.661 132.477 187.796 132.32 187.949 132.18C187.61 132.151 187.268 132.191 186.944 132.296C187.251 132.029 187.679 131.947 188.063 132.083L188.503 131.726C188.114 131.666 187.718 131.67 187.33 131.738C187.72 131.5 188.201 131.465 188.621 131.644L189.099 131.358C188.731 131.277 188.354 131.243 187.978 131.258C188.385 131.105 188.836 131.113 189.238 131.279L189.585 131.125C189.585 131.125 189.065 131.025 188.92 131.009C188.775 130.993 188.761 130.95 188.761 130.95C189.087 130.896 189.422 130.933 189.728 131.057C189.97 130.976 190.205 130.872 190.428 130.748Z" fill="#0B555F"/>
<path opacity="0.1" d="M187.58 135.39C189.194 135.39 190.503 134.942 190.503 134.39C190.503 133.838 189.194 133.39 187.58 133.39C185.966 133.39 184.657 133.838 184.657 134.39C184.657 134.942 185.966 135.39 187.58 135.39Z" fill="#0B555F"/>
<path d="M166.047 133.261C166.047 133.261 161.06 132.961 161.647 136.454C161.583 136.818 161.762 137.182 162.089 137.354C162.089 137.354 162.089 137.096 162.6 137.181C162.779 137.211 162.961 137.22 163.142 137.209C163.386 137.191 163.618 137.095 163.804 136.935C164.86 136.329 165.579 135.27 165.752 134.064C165.752 134.064 166.152 133.564 166.138 133.437L165.298 133.796C165.459 134.145 165.481 134.543 165.359 134.908C165.359 134.908 165.333 133.818 165.17 133.844C165.137 133.844 164.733 134.054 164.733 134.054C165.003 134.625 165.047 135.278 164.854 135.88C164.854 135.88 164.996 134.58 164.578 134.13L163.985 134.477C164.306 135.088 164.372 135.801 164.17 136.461C164.235 135.809 164.128 135.152 163.86 134.555L163.323 134.973C163.615 135.531 163.691 136.178 163.536 136.789C163.536 136.789 163.493 135.198 163.207 135.077C163.003 135.249 162.822 135.445 162.666 135.661C162.666 135.661 163.037 136.442 162.806 136.855C162.806 136.855 162.666 135.796 162.55 135.791C162.306 136.15 162.13 136.551 162.03 136.974C162.052 136.529 162.19 136.098 162.43 135.723C162.16 135.774 161.911 135.903 161.714 136.094C161.714 136.094 161.787 135.594 162.546 135.553C162.687 135.346 162.851 135.157 163.036 134.988C162.626 134.953 162.214 135.001 161.823 135.128C162.193 134.804 162.71 134.706 163.173 134.872L163.703 134.441C163.233 134.368 162.755 134.373 162.287 134.455C162.759 134.17 163.338 134.128 163.846 134.342L164.423 133.995C163.979 133.897 163.524 133.857 163.07 133.877C163.562 133.693 164.105 133.701 164.591 133.901L165.005 133.731C165.005 133.731 164.385 133.61 164.205 133.591C164.025 133.572 164.014 133.522 164.014 133.522C164.407 133.456 164.811 133.501 165.18 133.652C165.48 133.548 165.771 133.417 166.047 133.261Z" fill="#0B555F"/>
<path opacity="0.1" d="M162.612 138.656C164.561 138.656 166.141 138.209 166.141 137.656C166.141 137.104 164.561 136.656 162.612 136.656C160.663 136.656 159.083 137.104 159.083 137.656C159.083 138.209 160.663 138.656 162.612 138.656Z" fill="#0B555F"/>
<path opacity="0.1" d="M124.343 135.073L106.963 141.797L81.563 151.616C80.605 149.837 79.191 147.402 77.441 144.516C71.425 134.545 61.4689 119.036 52.6089 105.407C42.6219 90.051 34.028 77.083 34.028 77.083L40.25 75.283L91.072 60.543L124.343 135.073Z" fill="black"/>
<path d="M124.69 133.86L107.31 140.584L81.91 150.403C80.952 148.624 79.538 146.189 77.788 143.303C71.772 133.332 61.816 117.823 52.956 104.194C42.969 88.838 34.375 75.8701 34.375 75.8701L40.597 74.0701L91.4189 59.3301L124.69 133.86Z" fill="white"/>
<path opacity="0.1" d="M124.693 133.86L107.313 140.584C97.6058 142.606 87.7001 143.517 77.787 143.299C71.771 133.328 61.815 117.819 52.955 104.19L40.593 74.0632L91.415 59.3232L124.693 133.86Z" fill="black"/>
<path d="M137.621 129.677C137.621 129.677 110.621 145.649 70.308 142.045L38.167 63.6962L53.567 61.0502L106.808 51.9072L137.017 128.163L137.621 129.677Z" fill="#1CE5AF"/>
<path opacity="0.1" d="M137.018 128.163C129.975 128.546 122.913 128.345 115.904 127.563C107.896 126.624 99.849 124.68 92.936 121.121C87.5141 118.426 82.4663 115.036 77.92 111.037C66.725 100.967 59.796 86.5622 53.575 61.0522L106.816 51.9092L137.018 128.163Z" fill="black"/>
<path d="M156.824 123.783C156.824 123.783 136.912 127.683 116.665 125.283C108.657 124.339 100.602 122.4 93.697 118.841C88.2756 116.145 83.2285 112.754 78.683 108.754C64.822 96.2789 57.508 77.1818 49.964 38.5968C49.964 38.5968 83.058 46.5828 115.754 29.0898C115.753 29.0898 126.783 97.9229 156.824 123.783Z" fill="white"/>
<path opacity="0.1" d="M116.664 125.282C108.656 124.338 100.601 122.399 93.696 118.84C88.2744 116.144 83.2269 112.753 78.681 108.754C90.481 107.796 92.175 101.345 92.175 101.345C100.921 115.227 116.664 125.282 116.664 125.282Z" fill="black"/>
<path opacity="0.3" d="M67.076 52.7629C67.076 52.7629 84.853 54.7919 101.492 45.4429L102.632 49.1039C91.4596 54.1895 79.3505 56.8926 67.076 57.0409V52.7629Z" fill="#1CE5AF"/>
<path opacity="0.3" d="M67.076 70.8329C80.0489 69.2975 92.6733 65.6014 104.426 59.8979L105.091 61.4189C105.091 61.4189 97.85 70.5309 67.078 72.9119L67.076 70.8329Z" fill="black"/>
<path opacity="0.3" d="M69.171 77.8823C82.1427 76.3467 94.766 72.6513 106.518 66.9492L107.183 68.4702C107.183 68.4702 99.944 77.5912 69.17 79.9702L69.171 77.8823Z" fill="black"/>
<path opacity="0.3" d="M71.087 85.4789C84.0587 83.9433 96.682 80.248 108.434 74.5459L109.099 76.0669C109.099 76.0669 101.85 85.1819 71.086 87.5669L71.087 85.4789Z" fill="black"/>
<path opacity="0.3" d="M73.362 91.9911C86.3337 90.4556 98.957 86.7602 110.709 81.0581L111.374 82.5791C111.374 82.5791 104.135 91.6961 73.361 94.0791L73.362 91.9911Z" fill="black"/>
<path opacity="0.1" d="M75.459 99.0458C88.4307 97.5103 101.054 93.8149 112.806 88.1128L113.471 89.6338C113.471 89.6338 106.23 98.7508 75.4579 101.134L75.459 99.0458Z" fill="black"/>
<path opacity="0.3" d="M112.288 55.1534L107.343 56.8369L109.027 61.7822L113.972 60.0987L112.288 55.1534Z" fill="#B2F4DE"/>
<path opacity="0.3" d="M115.101 62.5103L110.156 64.1938L111.84 69.1391L116.785 67.4556L115.101 62.5103Z" fill="#B2F4DE"/>
<path opacity="0.3" d="M119.611 76.6656L114.666 78.3491L116.35 83.2945L121.295 81.611L119.611 76.6656Z" fill="#B2F4DE"/>
<path opacity="0.3" d="M122.199 84.2638L117.254 85.9473L118.937 90.8926L123.883 89.209L122.199 84.2638Z" fill="#B2F4DE"/>
<path opacity="0.3" d="M117.395 70.1534L112.45 71.8369L114.134 76.7822L119.079 75.0987L117.395 70.1534Z" fill="#B2F4DE"/>
<path d="M169.103 91.5088L168.918 91.3359C169.396 91.2359 169.847 91.1959 169.847 91.1959C169.847 91.1959 168.206 85.2598 165.439 83.2798C164.075 82.181 162.948 80.8176 162.124 79.2718C160.655 76.7436 159.006 74.3249 157.188 72.0348L156.688 71.4059L156.473 71.1319C156.832 70.7433 157.052 70.2467 157.098 69.7198C157.097 69.7166 157.097 69.7132 157.098 69.7099C157.1 69.6823 157.1 69.6545 157.098 69.6269C157.093 69.5619 157.081 69.4975 157.063 69.4349L157.044 69.4639C156.81 68.7849 155.911 68.4849 155.244 68.1109C153.685 67.2329 153.018 65.3109 152.685 63.5279C152.425 62.1419 152.21 60.5829 151.126 59.6899C150.433 59.1159 149.49 58.9278 148.792 58.3578C148.181 57.7509 147.69 57.0336 147.345 56.2439C146.691 54.9633 145.722 53.8702 144.529 53.0679C143.327 52.2758 141.829 52.0779 140.463 52.5309C139.955 52.7249 139.494 53.0309 138.992 53.2359C137.745 53.7559 136.315 53.6869 135.08 54.2359C133.559 54.9119 132.569 56.4049 131.665 57.8229C131.033 58.7298 130.49 59.696 130.045 60.7079V60.5948C129.845 61.0703 129.736 61.5791 129.723 62.0948C129.715 62.3141 129.739 62.5335 129.794 62.7458C130.015 63.3968 130.54 63.8985 131.201 64.0889C131.239 64.3093 131.29 64.5273 131.353 64.7419C131.961 66.7425 133.507 68.3209 135.494 68.9709C135.551 68.9919 135.61 69.0059 135.667 69.0229C135.715 69.16 135.785 69.2886 135.873 69.4039C136.426 70.0969 137.535 69.9039 138.255 69.3949C138.284 69.3759 138.312 69.3519 138.34 69.3309C138.345 69.429 138.355 69.5269 138.371 69.6239C138.387 69.7069 138.399 69.7969 138.416 69.8719C138.728 71.8332 139.523 73.6861 140.729 75.2639C140.729 75.2639 140.883 75.4959 141.134 75.8809C141.103 77.7218 141.73 79.5134 142.903 80.9329C142.025 81.4409 140.131 82.4329 138.959 82.3519C138.959 82.3519 134.659 82.9079 134.159 82.6289C134.09 82.5909 134.024 82.6429 133.959 82.7609C132.774 82.0389 128.985 79.9559 128.659 82.6289C128.366 85.0549 131.819 85.3649 133.459 85.3769C133.384 86.0869 133.343 86.6559 133.343 86.6559L140.414 86.1728L144.096 85.6309C143.749 86.1349 143.301 86.5615 142.781 86.8838C142.781 86.8838 139.453 89.5779 138.881 89.6029C138.8 89.6029 138.774 89.6839 138.781 89.8139C137.381 89.8139 133.027 90.0139 134.235 92.4419C135.335 94.6419 138.419 93.1189 139.816 92.2789C140.145 92.9179 140.426 93.4189 140.426 93.4189L146.132 89.3559L147.367 88.3159C147.786 88.2957 148.199 88.2159 148.595 88.0789C148.598 88.0947 148.604 88.11 148.612 88.1239C148.657 88.2514 148.69 88.3826 148.712 88.5159C149.058 90.5069 147.894 95.1499 147.894 95.1499C147.894 95.1499 145.333 101.68 146.563 102.571C147.793 103.462 146.884 107.22 146.884 107.22C147.099 107.581 147.346 107.922 147.622 108.239C147.752 108.389 147.896 108.527 148.053 108.65C147.996 108.805 147.948 108.964 147.911 109.126C147.722 109.927 147.792 110.767 148.111 111.526C148.611 113.152 148.725 114.873 148.442 116.551L146.782 127.765C146.056 127.59 145.299 127.59 144.573 127.765C143.986 128.096 144.173 129.765 145.542 130.482C145.129 130.798 144.651 131.019 144.142 131.128C142.929 131.405 142.077 131.582 141.515 131.689C141.479 131.689 138.604 131.055 137.866 131.474C137.128 131.893 137.483 134.219 139.583 134.789C141.638 135.345 149.301 136.161 151.509 135.829L151.649 135.805C153.525 135.434 151.878 132.969 151.67 132.669C151.656 132.569 151.644 132.463 151.63 132.348C151.601 132.092 151.575 131.797 151.555 131.482C153.249 131.685 154.958 131.733 156.661 131.626C156.703 131.623 156.745 131.615 156.786 131.603C158.448 131.274 156.992 129.094 156.805 128.831L156.779 128.618V128.599C156.779 128.549 156.767 128.499 156.762 128.443C156.762 128.398 156.757 128.352 156.748 128.308C156.734 128.261 156.748 128.225 156.736 128.182C156.729 128.097 156.722 128.008 156.715 127.917V127.804C156.715 127.735 156.706 127.665 156.703 127.594V127.478C156.703 127.378 156.703 127.267 156.693 127.159V126.312C156.693 126.196 156.703 126.076 156.71 125.957L156.72 125.829C156.72 125.741 156.734 125.656 156.743 125.566C156.741 125.522 156.746 125.478 156.757 125.436C156.771 125.315 156.786 125.193 156.804 125.07C156.807 125.033 156.813 124.997 156.821 124.961C156.837 124.869 156.852 124.776 156.87 124.682C156.874 124.635 156.884 124.588 156.898 124.543C156.919 124.442 156.941 124.342 156.966 124.243C156.969 124.215 156.975 124.187 156.985 124.16C157.016 124.039 157.051 123.919 157.085 123.8C157.097 123.758 157.111 123.717 157.125 123.675C157.154 123.585 157.186 123.502 157.219 123.408L157.261 123.297C157.308 123.179 157.361 123.063 157.41 122.951C157.424 122.922 157.439 122.892 157.455 122.863C157.498 122.773 157.545 122.69 157.594 122.596L157.653 122.496C157.719 122.385 157.786 122.274 157.861 122.169C159.767 119.452 160.269 114.213 160.223 113.069C160.177 111.925 160.45 109.564 160.791 109.214C161.656 108.109 162.443 106.945 163.146 105.731C163.29 105.475 163.415 105.231 163.513 105.019C164.078 104.819 164.452 104.672 164.452 104.672C164.253 103.945 164.157 103.193 164.168 102.439C164.141 100.556 164.899 98.7466 166.261 97.4459C167.901 96.0519 168.925 94.0666 169.109 91.9219V91.7569C169.112 91.5889 169.103 91.5088 169.103 91.5088Z" fill="url(#paint0_linear_700_1187)"/>
<path d="M162.519 106.04C161.849 107.238 161.096 108.389 160.267 109.483C159.847 110.708 159.663 112.001 159.725 113.295C159.77 114.42 159.294 119.604 157.473 122.289C155.652 124.974 156.588 129.616 156.588 129.616L153.682 130.635H150.191L147.791 129.916L147.157 128.166C147.157 128.166 148.003 128.036 150.103 127.537C151.3 127.293 152.189 126.282 152.277 125.064L153.751 114.764C153.99 113.295 153.894 111.791 153.469 110.364C153.06 109.338 153.147 108.181 153.705 107.228L153.752 107.155C155.189 106.041 156.727 105.063 158.345 104.234C160.398 103.243 162.481 102.772 163.072 104.534C163.025 105.076 162.834 105.596 162.519 106.04Z" fill="#A5636D"/>
<path opacity="0.05" d="M162.519 106.04C161.849 107.238 161.096 108.388 160.267 109.483C159.847 110.708 159.663 112.001 159.725 113.295C159.77 114.42 159.294 119.604 157.473 122.289C156.191 124.183 156.273 127.045 156.433 128.572C156.501 129.211 156.584 129.612 156.584 129.612L153.678 130.631H150.19L147.79 129.917L147.156 128.167C147.156 128.167 147.367 128.134 147.849 128.041C148.331 127.948 149.062 127.788 150.112 127.541C151.305 127.293 152.188 126.283 152.276 125.068L153.75 114.768C153.989 113.299 153.893 111.794 153.468 110.368C153.059 109.342 153.146 108.185 153.704 107.232L153.751 107.159C155.188 106.045 156.726 105.067 158.344 104.238C160.397 103.247 162.48 102.776 163.071 104.538C163.024 105.079 162.833 105.597 162.519 106.04Z" fill="black"/>
<path opacity="0.1" d="M156.586 129.619L153.68 130.638H150.189L147.789 129.917L147.15 128.17C147.15 128.17 147.361 128.137 147.843 128.044C147.772 128.702 148.205 129.309 148.85 129.458L150.215 129.505C150.407 129.505 150.601 129.515 150.792 129.515C152.712 129.516 154.62 129.199 156.437 128.578C156.506 129.213 156.586 129.619 156.586 129.619Z" fill="black"/>
<path d="M150.214 129.796L148.847 129.749C148.482 129.664 148.17 129.429 147.987 129.103C147.804 128.776 147.766 128.387 147.884 128.032C147.884 128.032 145.424 127.474 144.795 127.843C144.166 128.212 144.469 130.243 146.247 130.743C147.98 131.23 154.47 131.943 156.336 131.653L156.456 131.632C158.147 131.286 156.456 128.86 156.456 128.86C154.449 129.548 152.334 129.865 150.214 129.796Z" fill="#BEBED0"/>
<path d="M158.635 106.439C158.543 106.623 158.444 106.813 158.335 107.012C157.599 108.327 156.773 109.589 155.861 110.789C155.494 111.181 155.201 113.821 155.248 115.096C155.295 116.371 154.761 122.214 152.706 125.246C151.768 126.881 151.326 128.754 151.434 130.636C151.439 131.215 151.473 131.792 151.534 132.369C151.61 133.074 151.707 133.514 151.707 133.514L148.429 134.663H144.484L141.769 133.856L141.059 131.874C141.059 131.874 141.296 131.836 141.83 131.73C142.364 131.624 143.195 131.448 144.384 131.167C145.731 130.888 146.731 129.749 146.832 128.377L148.494 116.756C148.763 115.099 148.655 113.402 148.177 111.792C147.872 111.04 147.805 110.212 147.983 109.42C148.08 108.975 148.256 108.551 148.503 108.169C148.503 108.169 149.137 107.669 150.094 107.01C150.517 106.719 151.007 106.397 151.534 106.071C153.849 104.638 156.893 103.171 158.352 104.241C158.674 104.484 158.909 104.824 159.024 105.21C159.006 105.647 158.871 106.071 158.635 106.439Z" fill="#A5636D"/>
<path opacity="0.1" d="M151.695 133.517L148.417 134.666H144.48L141.765 133.859L141.055 131.877C141.055 131.877 141.292 131.839 141.826 131.733C141.757 132.21 141.93 132.69 142.287 133.013C142.56 133.245 142.906 133.375 143.264 133.38L144.506 133.42C144.723 133.42 144.941 133.432 145.157 133.432C147.325 133.432 149.478 133.073 151.53 132.372C151.607 133.077 151.695 133.517 151.695 133.517Z" fill="black"/>
<path d="M144.505 133.715L143.264 133.673C142.905 133.667 142.559 133.537 142.285 133.306C141.855 132.902 141.695 132.286 141.874 131.724C141.874 131.724 139.102 131.095 138.386 131.511C137.67 131.927 138.02 134.226 140.025 134.789C141.988 135.338 149.307 136.146 151.414 135.816L151.547 135.792C153.453 135.4 151.547 132.659 151.547 132.659C149.284 133.437 146.897 133.795 144.505 133.715Z" fill="#BEBED0"/>
<path opacity="0.1" d="M162.519 106.041C161.268 106.525 159.963 106.856 158.633 107.027C158.533 107.031 158.432 107.026 158.333 107.013C156.786 106.983 155.239 107.058 153.702 107.238C152.941 107.306 152.21 107.377 151.602 107.438C150.702 107.532 150.081 107.599 150.081 107.599V107.012C150.504 106.721 150.994 106.399 151.521 106.073C153.836 104.64 156.88 103.173 158.339 104.243C160.392 103.252 162.475 102.781 163.066 104.543C163.014 105.081 162.826 105.596 162.519 106.041Z" fill="black"/>
<path d="M168.214 92.3749C168.043 94.4782 167.068 96.4347 165.492 97.838C162.484 100.775 163.759 104.992 163.759 104.992C162.107 105.666 160.385 106.151 158.625 106.439C158.525 106.443 158.424 106.438 158.325 106.425C156.073 106.43 153.824 106.572 151.59 106.851C150.69 106.945 150.069 107.012 150.069 107.012V94.5369L166.69 90.502L168.196 92.002C168.21 92.1257 168.216 92.2503 168.214 92.3749Z" fill="#5C5C8E"/>
<g opacity="0.1">
<path d="M150.354 106.858L150.08 106.887V107.019C150.08 107.019 150.7 106.951 151.601 106.858C153.122 106.704 155.446 106.487 156.983 106.423C154.767 106.447 152.554 106.592 150.354 106.858Z" fill="black"/>
<path d="M168.207 92.0078L166.701 90.5078L165.701 90.7588L166.962 92.0148C166.97 92.14 166.97 92.2656 166.962 92.3908C166.79 94.494 165.816 96.4503 164.24 97.8538C161.232 100.789 162.507 105.008 162.507 105.008C160.994 105.609 159.432 106.079 157.839 106.413C158.001 106.412 158.163 106.421 158.324 106.439C158.423 106.453 158.524 106.458 158.624 106.455C160.384 106.167 162.106 105.681 163.758 105.008C163.758 105.008 162.476 100.789 165.491 97.8538C167.067 96.4503 168.041 94.494 168.213 92.3908C168.22 92.2632 168.218 92.1352 168.207 92.0078Z" fill="black"/>
</g>
<path d="M135 83.5628C135 83.5628 129.975 80.0768 129.606 83.2158C129.237 86.3548 135 85.9068 135 85.9068V83.5628Z" fill="#A5636D"/>
<path d="M143.663 81.252C143.663 81.252 140.945 83.0519 139.441 82.9399C139.441 82.9399 135.331 83.491 134.853 83.215C134.375 82.939 134.084 87.2 134.084 87.2L140.841 86.7239L145.173 86.062C145.173 86.062 147.339 84.742 147.339 83.603C147.339 82.464 143.663 81.252 143.663 81.252Z" fill="#F7CDDD"/>
<path opacity="0.05" d="M143.663 81.252C143.663 81.252 140.945 83.0519 139.441 82.9399C139.441 82.9399 135.331 83.491 134.853 83.215C134.375 82.939 134.084 87.2 134.084 87.2L140.841 86.7239L145.173 86.062C145.173 86.062 147.339 84.742 147.339 83.603C147.339 82.464 143.663 81.252 143.663 81.252Z" fill="black"/>
<path d="M139.676 90.3241C139.676 90.3241 133.565 90.0711 134.934 92.9241C136.303 95.7771 140.934 92.3141 140.934 92.3141L139.676 90.3241Z" fill="#A5636D"/>
<path d="M145.824 84.2607C145.824 84.2607 140.87 80.5547 141.569 76.0407C142.268 71.5267 145.824 79.4957 145.824 79.4957V84.2607Z" fill="#5C5C8E"/>
<path d="M144.454 63.7979C144.452 65.4217 143.821 66.9815 142.692 68.1489C142.419 68.4355 142.117 68.6938 141.792 68.9199C140.923 69.5366 139.908 69.918 138.848 70.0269C138.633 70.0479 138.417 70.06 138.197 70.06C137.494 70.0639 136.796 69.9465 136.133 69.7129C133.123 68.6625 131.382 65.5179 132.09 62.4092C132.799 59.3005 135.73 57.2204 138.898 57.578C142.066 57.9355 144.46 60.6166 144.458 63.8049L144.454 63.7979Z" fill="#A5636D"/>
<path opacity="0.1" d="M168.215 92.3749C167.654 92.4749 166.961 92.6659 166.961 92.9569C166.961 93.4469 159.133 96.09 159.133 96.09C159.133 96.09 159.426 96.773 158.644 97.947C157.862 99.121 151.5 105.872 151.5 105.872L151.521 106.072L151.602 106.85L151.99 110.568C150.952 110.169 149.866 109.905 148.76 109.785C148.46 109.778 148.177 109.646 147.979 109.421C148.076 108.976 148.252 108.552 148.499 108.17C148.499 108.17 149.133 107.67 150.09 107.011V94.5369L166.711 90.502L168.217 92.002C168.225 92.1262 168.224 92.2508 168.215 92.3749Z" fill="black"/>
<path d="M168.917 91.6847C168.917 91.6847 166.959 91.8788 166.959 92.3688C166.959 92.8588 159.131 95.5018 159.131 95.5018C159.131 95.5018 159.424 96.1848 158.642 97.3588C157.86 98.5328 151.498 105.286 151.498 105.286L151.988 109.986C150.95 109.586 149.864 109.323 148.758 109.203C148.411 109.246 148.022 108.924 147.701 108.548C147.436 108.234 147.2 107.897 146.996 107.541C146.996 107.541 147.878 103.821 146.703 102.941C145.528 102.061 147.975 95.6028 147.975 95.6028C147.975 95.6028 149.08 91.0108 148.755 89.0408C148.735 88.909 148.703 88.7792 148.661 88.6528C148.659 88.6378 148.654 88.6232 148.647 88.6097C147.954 86.7277 140.441 70.9368 140.441 70.9368C140.446 70.489 140.477 70.0419 140.535 69.5978C140.551 69.4748 140.571 69.3467 140.594 69.2167C140.632 68.9831 140.683 68.7518 140.746 68.5237C140.786 68.3777 140.833 68.2338 140.888 68.0928C141.12 67.4928 141.475 67.0377 142.005 67.0267C142.55 66.5406 143.241 66.2499 143.97 66.2007C145.484 66.0803 147.003 66.3654 148.37 67.0267C152.97 68.9807 154.044 69.0817 154.044 69.0817L156.354 72.1138L156.829 72.7358C158.569 75.0056 160.145 77.397 161.544 79.8918C162.323 81.412 163.399 82.7601 164.71 83.8558C167.353 85.8148 168.917 91.6847 168.917 91.6847Z" fill="#F7CDDD"/>
<path opacity="0.1" d="M151.768 80.3711C151.768 80.3711 158.3 81.9861 160.831 86.0581L151.768 80.3711Z" fill="black"/>
<path opacity="0.1" d="M153.786 87.5249C153.786 87.5249 155.021 95.8189 154.678 96.4429C154.335 97.0669 153.786 87.5249 153.786 87.5249Z" fill="black"/>
<path opacity="0.1" d="M153.345 91.7819C152.87 92.4039 150.945 97.2119 150.945 97.2119L151.501 105.286L151.991 109.986C150.953 109.587 149.868 109.323 148.763 109.203C148.417 109.246 148.025 108.924 147.706 108.548C148.214 105.798 149.3 100.048 149.496 99.9329C150.281 97.983 150.834 95.9478 151.145 93.869C151.214 92.575 153.051 89.6899 153.051 89.6899C153.051 89.6899 153.823 91.1599 153.345 91.7819Z" fill="black"/>
<path opacity="0.1" d="M151.499 83.8579C151.378 84.2239 151.191 86.3529 151.191 86.3529C151.115 87.7104 150.1 88.8301 148.757 89.0389C148.737 88.9072 148.705 88.7774 148.663 88.6509C148.076 86.9889 140.443 70.9419 140.443 70.9419C140.449 70.1281 140.55 69.3176 140.743 68.5269C142.175 68.2938 143.642 68.3836 145.035 68.7899C145.796 68.6899 148.277 73.6219 148.277 73.6219C148.277 73.6219 149.93 77.3989 150.112 77.9139C150.186 78.4616 150.211 79.0149 150.185 79.5669C150.258 79.8619 151.031 80.1149 151.14 80.5199C151.249 80.9249 151.178 81.7329 151.251 81.8769C151.444 82.5188 151.528 83.1883 151.499 83.8579Z" fill="black"/>
<path d="M150.912 83.5632C150.791 83.9302 150.604 86.0582 150.604 86.0582C150.562 87.2372 149.777 88.2601 148.65 88.6072C148.272 88.7423 147.876 88.8212 147.475 88.8412L146.295 89.8672L140.846 93.8782C140.846 93.8782 138.815 90.1233 139.366 90.1033C139.917 90.0833 143.095 87.4142 143.095 87.4142C144.067 86.8942 145.041 85.1622 145.495 84.2712C145.469 84.1652 145.449 84.0576 145.436 83.9492C145.236 82.2872 141.13 75.9252 141.13 75.9252C139.972 74.3533 139.214 72.5228 138.923 70.5922C138.906 70.5122 138.894 70.4313 138.878 70.3483C138.86 70.2404 138.85 70.1314 138.847 70.0222C138.773 68.6902 139.747 68.2043 140.893 68.0903C141.493 68.0426 142.097 68.061 142.693 68.1453C143.288 68.2203 143.876 68.3363 144.455 68.4922C144.947 68.4262 146.155 70.4722 146.955 71.9232C147.383 72.7102 147.691 73.3232 147.691 73.3232C147.691 73.3232 149.344 77.1022 149.526 77.6152C149.6 78.1629 149.625 78.7162 149.599 79.2682C149.672 79.5612 150.444 79.8173 150.554 80.2233C150.664 80.6293 150.592 81.4362 150.665 81.5802C150.857 82.2229 150.941 82.8931 150.912 83.5632Z" fill="#F7CDDD"/>
<path opacity="0.1" d="M157.232 75.0969C156.101 76.0651 154.504 76.2695 153.166 75.6169C151.86 74.957 150.61 74.1932 149.427 73.3329C148.616 72.8329 147.757 72.4329 146.958 71.9209C146.84 71.8449 146.726 71.7689 146.611 71.6889C145.689 71.0379 144.89 70.2009 143.936 69.6099C143.298 69.1852 142.554 68.9454 141.788 68.9169C141.435 68.9138 141.086 68.9871 140.764 69.1319C140.704 69.1562 140.647 69.1845 140.591 69.2168C140.277 69.3972 139.986 69.6155 139.725 69.8669C139.455 70.1099 139.197 70.3668 138.912 70.5948C138.895 70.5148 138.883 70.4339 138.867 70.3509C138.85 70.243 138.839 70.1341 138.836 70.0249C138.621 70.0459 138.405 70.0579 138.185 70.0579C137.482 70.0618 136.784 69.9444 136.121 69.7109C136.123 69.6839 136.118 69.6568 136.105 69.6329C135.986 68.3848 135.396 67.2289 134.456 66.3999C133.725 66.0304 132.957 65.7401 132.165 65.5339C131.406 62.8926 132.458 60.0652 134.759 58.5624C137.06 57.0595 140.071 57.2323 142.185 58.9885C144.299 60.7446 145.021 63.6737 143.965 66.2109C145.479 66.0907 146.998 66.3762 148.365 67.0379C152.965 68.9919 154.039 69.0929 154.039 69.0929L156.349 72.1249C156.062 72.4698 155.87 72.8833 155.791 73.3249C155.744 74.1429 156.539 74.7129 157.232 75.0969Z" fill="black"/>
<path d="M134.462 65.809C135.402 66.6373 135.992 67.7919 136.113 69.039C136.151 69.4301 136.281 69.8068 136.491 70.1389C137.011 70.8219 138.078 70.6289 138.766 70.1389C139.381 69.5497 140.05 69.0207 140.766 68.559C141.837 68.1845 143.023 68.3614 143.938 69.0319C144.893 69.632 145.691 70.467 146.613 71.111C147.505 71.74 148.5 72.189 149.429 72.755C150.611 73.6171 151.861 74.381 153.168 75.039C154.506 75.6879 156.101 75.4838 157.233 74.5189C156.54 74.1339 155.745 73.566 155.798 72.741C155.851 71.916 156.812 71.301 156.747 70.456C156.682 69.611 155.688 69.28 154.975 68.864C153.485 67.998 152.849 66.092 152.53 64.333C152.282 62.957 152.078 61.42 151.05 60.533C150.386 59.965 149.491 59.779 148.822 59.216C148.235 58.6102 147.765 57.9013 147.436 57.125C146.818 55.8687 145.893 54.7887 144.747 53.985C143.612 53.1959 142.168 52.9988 140.864 53.455C140.379 53.647 139.937 53.945 139.459 54.148C138.267 54.668 136.903 54.593 135.723 55.136C134.269 55.805 133.323 57.281 132.46 58.683C131.729 59.883 130.279 62.001 130.689 63.56C131.099 65.142 133.384 65.057 134.462 65.809Z" fill="#4C3E42"/>
<g opacity="0.1">
<path d="M156.744 70.3551C156.739 70.2905 156.728 70.2266 156.711 70.1641C156.399 70.5389 156.185 70.9857 156.089 71.4641C156.082 71.5762 156.092 71.6886 156.117 71.7981C156.475 71.3963 156.694 70.8907 156.744 70.3551Z" fill="black"/>
<path d="M153.459 73.7679C152.153 73.1099 150.903 72.346 149.722 71.4839C148.792 70.9169 147.797 70.4689 146.905 69.8399C145.983 69.1889 145.184 68.3519 144.23 67.7609C143.314 67.0936 142.129 66.9163 141.058 67.2859C140.341 67.746 139.671 68.2759 139.058 68.8679C138.368 69.3679 137.311 69.5609 136.783 68.8679C136.573 68.5357 136.443 68.159 136.405 67.7679C136.285 66.521 135.696 65.3664 134.756 64.5379C133.677 63.7839 131.391 63.8689 130.977 62.2859C130.908 62.0027 130.89 61.7095 130.923 61.4199C130.639 62.0587 130.555 62.7685 130.682 63.4559C131.098 65.0469 133.382 64.9619 134.461 65.7079C135.401 66.5367 135.991 67.6916 136.112 68.9389C136.151 69.3297 136.279 69.7063 136.488 70.0389C137.008 70.7219 138.075 70.5289 138.765 70.0299C139.378 69.4382 140.048 68.9089 140.765 68.4499C141.836 68.0769 143.022 68.2545 143.937 68.9249C144.892 69.5249 145.69 70.3599 146.612 71.0039C147.504 71.6349 148.499 72.0819 149.428 72.6479C150.609 73.511 151.86 74.2752 153.167 74.9329C154.505 75.581 156.1 75.377 157.232 74.4129C156.965 74.2696 156.712 74.1023 156.475 73.9129C155.485 74.2291 154.414 74.1776 153.459 73.7679Z" fill="black"/>
</g>
<path d="M122.793 85.6199L136.654 80.4429C136.982 80.319 137.346 80.3309 137.665 80.476C137.984 80.6211 138.232 80.8874 138.354 81.216C138.477 81.5441 138.465 81.9079 138.319 82.2268C138.174 82.5458 137.908 82.7938 137.579 82.916L123.718 88.0949L120.748 87.7949L122.793 85.6199Z" fill="#5C5C8E"/>
<path opacity="0.1" d="M137.929 80.799C138.052 81.1272 138.039 81.4908 137.894 81.8097C137.749 82.1286 137.482 82.3766 137.154 82.499L123.293 87.676L121.061 87.452L120.74 87.799L123.71 88.099L137.571 82.92C137.899 82.7976 138.166 82.5495 138.311 82.2306C138.456 81.9116 138.468 81.548 138.345 81.22C138.243 80.9469 138.054 80.7155 137.806 80.562C137.854 80.637 137.895 80.7164 137.929 80.799Z" fill="white"/>
<path d="M122.793 85.6201L123.717 88.0911L121.279 87.8471L120.745 87.7931L121.474 87.0201L122.793 85.6201Z" fill="#EFC8C4"/>
<path d="M121.472 87.02C121.529 87.062 121.578 87.115 121.614 87.176C121.661 87.2494 121.661 87.3436 121.614 87.417C121.574 87.4571 121.529 87.4909 121.479 87.517C121.364 87.5914 121.29 87.7147 121.279 87.851L120.745 87.797L121.472 87.02Z" fill="#727A9C"/>
<path d="M110.693 58.8481L108.356 57.7081C108.288 57.6754 108.237 57.6171 108.212 57.5461C108.188 57.4752 108.193 57.3975 108.226 57.3301L108.474 56.8211C108.507 56.7534 108.565 56.7016 108.636 56.6772C108.707 56.6528 108.785 56.6578 108.852 56.6911L110.427 57.4591L112.071 54.0871C112.139 53.9467 112.308 53.8877 112.449 53.9551L112.958 54.2051C113.026 54.2377 113.078 54.2959 113.102 54.3669C113.126 54.438 113.121 54.5158 113.088 54.5831L111.071 58.7191C111.038 58.7864 110.98 58.8379 110.909 58.8621C110.838 58.8863 110.76 58.8813 110.693 58.8481Z" fill="#3ACC6C"/>
<path d="M115.799 73.4278L113.462 72.2878C113.394 72.2551 113.343 72.1968 113.318 72.1258C113.294 72.0549 113.299 71.9771 113.332 71.9098L113.58 71.4008C113.649 71.2606 113.818 71.2024 113.959 71.2708L115.532 72.0388L117.175 68.6638C117.243 68.5234 117.412 68.4644 117.553 68.5318L118.061 68.7818C118.129 68.8142 118.181 68.8723 118.206 68.9433C118.23 69.0143 118.226 69.0922 118.193 69.1598L116.176 73.2958C116.106 73.4352 115.938 73.493 115.797 73.4258L115.799 73.4278Z" fill="#3ACC6C"/>
<path d="M113.508 66.2442L111.171 65.1042C111.031 65.0359 110.972 64.8671 111.039 64.7262L111.288 64.2172C111.321 64.1495 111.379 64.0977 111.45 64.0732C111.521 64.0488 111.599 64.0538 111.666 64.0872L113.241 64.8552L114.885 61.4782C114.918 61.4107 114.976 61.3591 115.047 61.3347C115.118 61.3103 115.196 61.3151 115.263 61.3482L115.772 61.5962C115.911 61.666 115.969 61.8345 115.902 61.9752L113.883 66.1142C113.85 66.1817 113.792 66.2334 113.721 66.2578C113.65 66.2822 113.572 66.2773 113.505 66.2442H113.508Z" fill="#3ACC6C"/>
<path d="M118.017 80.0158L115.68 78.8758C115.613 78.8431 115.561 78.7848 115.536 78.7138C115.512 78.6429 115.517 78.5652 115.55 78.4978L115.798 77.9889C115.831 77.9214 115.889 77.8697 115.96 77.8453C116.031 77.8209 116.109 77.8258 116.176 77.8588L117.751 78.6269L119.395 75.2548C119.464 75.1147 119.633 75.0559 119.774 75.1228L120.282 75.3728C120.35 75.4054 120.401 75.4637 120.426 75.5347C120.45 75.6057 120.445 75.6835 120.412 75.7508L118.397 79.8869C118.327 80.0264 118.158 80.0838 118.017 80.0158Z" fill="#3ACC6C"/>
<defs>
<linearGradient id="paint0_linear_700_1187" x1="149.244" y1="135.906" x2="149.244" y2="52.292" gradientUnits="userSpaceOnUse">
<stop stop-color="#808080" stop-opacity="0.251"/>
<stop offset="0.54" stop-color="#808080" stop-opacity="0.122"/>
<stop offset="1" stop-color="#808080" stop-opacity="0.102"/>
</linearGradient>
</defs>
</svg>