<svg width="203" height="164" viewBox="0 0 203 164" fill="none" xmlns="http://www.w3.org/2000/svg">
<path d="M80 162C123.63 162 159 126.63 159 83C159 39.3695 123.63 4 80 4C36.3695 4 1 39.3695 1 83C1 126.63 36.3695 162 80 162Z" stroke="#0B555F" stroke-width="2"/>
<path d="M27 59C41.9117 59 54 46.9117 54 32C54 17.0883 41.9117 5 27 5C12.0883 5 0 17.0883 0 32C0 46.9117 12.0883 59 27 59Z" fill="white"/>
<path d="M25.768 48.576C23.432 48.576 21.112 48.272 18.808 47.664C16.504 47.024 14.552 46.128 12.952 44.976L15.976 39.024C17.256 39.952 18.744 40.688 20.44 41.232C22.136 41.776 23.848 42.048 25.576 42.048C27.528 42.048 29.064 41.664 30.184 40.896C31.304 40.128 31.864 39.072 31.864 37.728C31.864 36.448 31.368 35.44 30.376 34.704C29.384 33.968 27.784 33.6 25.576 33.6H22.024V28.464L31.384 17.856L32.248 20.64H14.632V14.4H38.152V19.44L28.84 30.048L24.904 27.792H27.16C31.288 27.792 34.408 28.72 36.52 30.576C38.632 32.432 39.688 34.816 39.688 37.728C39.688 39.616 39.192 41.392 38.2 43.056C37.208 44.688 35.688 46.016 33.64 47.04C31.592 48.064 28.968 48.576 25.768 48.576Z" fill="#0B555F"/>
<path opacity="0.1" d="M100.798 63.3968C93.6121 61.0708 86.0141 59.1218 78.2491 59.3218C66.833 59.6218 55.857 64.9378 50.444 72.8008C45.868 79.4638 45.257 87.2948 43.26 94.7008C40.799 103.829 36.128 112.491 31.142 120.963C28.464 125.513 25.642 130.163 25.173 135.163C24.534 142.104 28.74 149.044 35.373 153.695C42.006 158.346 50.8281 160.825 59.6931 161.404C64.4101 161.71 69.3401 161.474 73.5401 159.775C77.9831 157.984 81.2311 154.708 85.6921 152.937C89.8261 151.298 94.6451 151.087 99.2821 151.327C105.288 151.631 111.236 152.65 117.001 154.363C123.465 156.297 129.471 159.08 135.921 161.042C142.371 163.004 149.581 164.114 156.19 162.536C162.395 161.056 167.317 157.407 171.756 153.711C178.909 147.768 185.56 141.246 191.641 134.211C195.65 129.558 199.384 124.643 201.175 119.211C204.595 108.811 200.013 97.0418 189.761 89.8818C181.268 83.9468 169.842 81.3268 158.653 79.7358C148.453 78.2698 136.643 78.1238 127.264 74.3898C118.318 70.8138 110.181 66.4328 100.798 63.3968Z" fill="#1CE5AF"/>
<path opacity="0.1" d="M174.786 100.984C177.325 100.984 179.384 100.536 179.384 99.9839C179.384 99.4316 177.325 98.9839 174.786 98.9839C172.247 98.9839 170.188 99.4316 170.188 99.9839C170.188 100.536 172.247 100.984 174.786 100.984Z" fill="#6C63FF"/>
<path opacity="0.1" d="M154.039 98.5669C156.578 98.5669 158.637 98.1192 158.637 97.5669C158.637 97.0146 156.578 96.5669 154.039 96.5669C151.5 96.5669 149.441 97.0146 149.441 97.5669C149.441 98.1192 151.5 98.5669 154.039 98.5669Z" fill="#6C63FF"/>
<path opacity="0.1" d="M181.835 106.069C183.64 106.069 185.104 105.621 185.104 105.069C185.104 104.517 183.64 104.069 181.835 104.069C180.03 104.069 178.566 104.517 178.566 105.069C178.566 105.621 180.03 106.069 181.835 106.069Z" fill="#6C63FF"/>
<path d="M174.686 99.8368C174.686 99.8368 181.136 78.6958 173.677 70.2288C168.106 63.8938 161.764 64.6578 158.929 65.4358C157.444 65.8312 156.207 66.859 155.547 68.2468C154.552 70.3858 154.735 73.8568 161.734 77.9098C173.454 84.6958 174.184 94.0098 174.184 94.0098L174.686 99.8368Z" fill="#1CE5AF"/>
<path d="M159.938 68.4375C159.938 68.4375 178.95 74.3825 174.686 99.8375" stroke="#565987"/>
<path d="M171.039 70.5688C171.039 70.5688 168.421 72.3338 169.248 74.9838" stroke="#565987"/>
<path d="M161.846 72.1347C162.777 71.2064 164.171 70.9196 165.393 71.4047" stroke="#565987"/>
<path d="M169.36 80.3259C169.36 80.3259 172.169 78.9019 172.895 80.6859" stroke="#565987"/>
<path d="M176.314 83.2969C176.314 83.2969 174.203 83.13 174.165 84.139" stroke="#565987"/>
<path d="M174.947 100.01C174.947 100.01 167.387 84.6445 165.32 84.9805C164.325 85.1395 163.88 86.1105 163.675 87.0805C163.421 88.3397 163.565 89.6469 164.087 90.8205C166.142 95.3604 170.13 98.7348 174.947 100.01Z" fill="#0B555F"/>
<path d="M165.375 87.8979C165.375 87.8979 173.303 99.3979 174.835 99.8979" stroke="#565987"/>
<path d="M164.647 89.6919H166.497" stroke="#565987"/>
<path d="M166.863 93.8979L169.764 94.021" stroke="#565987"/>
<path d="M168.628 90.5337L168.314 92.0437" stroke="#565987"/>
<path d="M171.712 95.1309L171.656 96.5039" stroke="#565987"/>
<path d="M174.724 100.01C174.724 100.01 182.284 84.6445 184.351 84.9805C185.346 85.1395 185.791 86.1105 185.996 87.0805C186.251 88.3397 186.107 89.6469 185.584 90.8205C183.529 95.3604 179.541 98.7348 174.724 100.01Z" fill="#0B555F"/>
<path d="M184.295 87.8979C184.295 87.8979 176.367 99.3979 174.835 99.8979" stroke="#565987"/>
<path d="M185.023 89.6919H183.173" stroke="#565987"/>
<path d="M182.808 93.8979L179.907 94.021" stroke="#565987"/>
<path d="M181.043 90.5337L181.357 92.0437" stroke="#565987"/>
<path d="M177.957 95.1309L178.015 96.5039" stroke="#565987"/>
<path d="M180.943 103.599C180.738 103.43 180.588 103.204 180.513 102.95C180.444 102.686 180.569 102.409 180.813 102.287C181.111 102.23 181.416 102.337 181.613 102.568C181.807 102.795 182.087 102.93 182.385 102.94C182.079 102.662 181.941 102.245 182.021 101.84C182.034 101.757 182.069 101.68 182.121 101.615C182.274 101.452 182.553 101.523 182.736 101.651C183.274 102.136 183.552 102.846 183.486 103.567C183.518 103.301 183.521 103.033 183.496 102.767C183.473 102.498 183.586 102.236 183.796 102.067C183.934 101.991 184.091 101.954 184.248 101.96C184.511 101.922 184.778 101.998 184.982 102.169C185.179 102.44 185.167 102.811 184.952 103.069C184.735 103.31 184.479 103.513 184.194 103.669C183.976 103.798 183.79 103.974 183.651 104.186C183.635 104.215 183.622 104.246 183.611 104.278H181.968C181.597 104.099 181.252 103.871 180.943 103.599Z" fill="#0B555F"/>
<path d="M153.741 91.0889C153.741 91.0889 153.124 91.8949 154.025 93.1099C154.926 94.3249 155.666 95.3539 155.368 96.1099C155.368 96.1099 154.009 93.8519 152.903 93.8199C151.797 93.7879 152.523 92.4479 153.741 91.0889Z" fill="#0B555F"/>
<path opacity="0.1" d="M153.741 91.0889C153.687 91.1666 153.644 91.2518 153.614 91.3419C152.536 92.6089 151.961 93.7929 152.997 93.8229C153.964 93.8509 155.124 95.5779 155.397 96.0109C155.392 96.0458 155.381 96.0796 155.365 96.1109C155.365 96.1109 154.006 93.8529 152.9 93.8209C151.794 93.7889 152.523 92.4479 153.741 91.0889Z" fill="black"/>
<path d="M152.595 92.1156C152.595 92.4006 152.627 92.6286 152.667 92.6286C152.707 92.6286 152.737 92.3996 152.737 92.1156C152.737 91.8316 152.697 91.9666 152.659 91.9666C152.621 91.9666 152.595 91.8326 152.595 92.1156Z" fill="#FFD037"/>
<path d="M152.201 92.4536C152.45 92.5906 152.669 92.6726 152.686 92.6386C152.703 92.6046 152.519 92.4656 152.27 92.3306C152.021 92.1956 152.119 92.2926 152.099 92.3306C152.079 92.3686 151.952 92.3176 152.201 92.4536Z" fill="#FFD037"/>
<path d="M156.994 91.0889C156.994 91.0889 157.611 91.8949 156.71 93.1099C155.809 94.3249 155.069 95.3539 155.369 96.1099C155.369 96.1099 156.726 93.8519 157.832 93.8199C158.938 93.7879 158.212 92.4479 156.994 91.0889Z" fill="#0B555F"/>
<path opacity="0.1" d="M156.993 91.0889C157.048 91.1665 157.09 91.2518 157.12 91.3419C158.198 92.6089 158.773 93.7929 157.737 93.8229C156.77 93.8509 155.61 95.5779 155.337 96.0109C155.346 96.0449 155.358 96.0783 155.371 96.1109C155.371 96.1109 156.728 93.8529 157.834 93.8209C158.94 93.7889 158.211 92.4479 156.993 91.0889Z" fill="black"/>
<path d="M158.139 92.1156C158.139 92.4006 158.107 92.6286 158.067 92.6286C158.027 92.6286 157.997 92.3996 157.997 92.1156C157.997 91.8316 158.037 91.9666 158.075 91.9666C158.113 91.9666 158.139 91.8326 158.139 92.1156Z" fill="#FFD037"/>
<path d="M158.534 92.4536C158.285 92.5906 158.066 92.6726 158.049 92.6386C158.032 92.6046 158.216 92.4656 158.465 92.3306C158.714 92.1956 158.616 92.2926 158.636 92.3306C158.656 92.3686 158.782 92.3176 158.534 92.4536Z" fill="#FFD037"/>
<path d="M157.943 96.0069C157.177 96.0038 156.418 95.8608 155.703 95.5849C155.184 95.2149 153.053 94.7729 152.918 95.3659C152.783 95.9589 150.332 98.3139 152.273 98.3299C153.974 98.3853 155.673 98.1765 157.31 97.7109C157.827 97.3959 157.943 96.0069 157.943 96.0069Z" fill="#A8A8A8"/>
<path opacity="0.2" d="M152.245 98.1239C153.946 98.1792 155.645 97.9704 157.282 97.5049C157.682 97.2659 157.833 96.4049 157.882 96.0049H157.938C157.938 96.0049 157.831 97.3979 157.311 97.7099C155.674 98.1736 153.975 98.3824 152.274 98.3289C151.713 98.3289 151.52 98.1289 151.53 97.8289C151.608 98.0149 151.827 98.1219 152.245 98.1239Z" fill="black"/>
<path opacity="0.1" d="M118.518 9.91362C120.895 9.91362 122.821 7.9871 122.821 5.61062C122.821 3.23414 120.895 1.30762 118.518 1.30762C116.142 1.30762 114.215 3.23414 114.215 5.61062C114.215 7.9871 116.142 9.91362 118.518 9.91362Z" fill="#1CE5AF"/>
<path opacity="0.1" d="M32.552 94.6857C36.5351 94.6857 39.764 91.4568 39.764 87.4737C39.764 83.4906 36.5351 80.2617 32.552 80.2617C28.5689 80.2617 25.34 83.4906 25.34 87.4737C25.34 91.4568 28.5689 94.6857 32.552 94.6857Z" fill="#1CE5AF"/>
<path opacity="0.1" d="M167.623 63.2726C171.606 63.2726 174.835 60.0437 174.835 56.0606C174.835 52.0776 171.606 48.8486 167.623 48.8486C163.64 48.8486 160.411 52.0776 160.411 56.0606C160.411 60.0437 163.64 63.2726 167.623 63.2726Z" fill="#1CE5AF"/>
<path d="M107.986 69.5668C107.731 69.5908 107.473 69.5788 107.22 69.6188C106.796 69.703 106.391 69.8655 106.026 70.0978C104.144 71.0315 102.638 72.58 101.757 74.4868C101.695 74.6062 101.676 74.7428 101.701 74.8748C101.745 74.9837 101.818 75.0786 101.912 75.1498L102.612 75.7908C102.701 75.8832 102.807 75.9576 102.924 76.0098C103.114 76.0594 103.314 76.0531 103.501 75.9918C105.437 75.5478 107.494 75.0368 108.853 73.5918C109.498 72.9058 110.092 71.9608 111.041 71.9348C111.432 71.9786 111.82 72.0454 112.203 72.1348C112.601 72.2185 113.002 72.0089 113.16 71.6348C113.19 71.4448 113.168 71.2501 113.096 71.0718L112.511 69.1238C112.352 68.5908 110.746 68.5628 110.211 68.6578C109.4 68.7908 108.851 69.4868 107.986 69.5668Z" fill="#65617D"/>
<path d="M114.878 80.5355C114.891 81.2032 114.863 81.8712 114.794 82.5355C114.696 83.0558 114.528 83.5605 114.294 84.0355C113.936 84.8009 113.482 85.5171 112.941 86.1665C112.467 86.7956 111.825 87.2783 111.089 87.5595C110.331 87.828 109.486 87.6045 108.96 86.9965C108.632 86.4456 108.502 85.7995 108.59 85.1645C108.605 83.5878 108.952 82.032 109.609 80.5985C109.909 79.9985 110.295 79.4325 110.604 78.8295C111.249 77.5785 111.617 76.0935 112.729 75.2295C113.427 75.5519 114.173 75.757 114.937 75.8365C115.237 75.8685 116.081 75.8885 116.18 76.2685C116.248 76.5255 115.691 77.2435 115.58 77.4965C115.158 78.4566 114.92 79.4875 114.878 80.5355Z" fill="#65617D"/>
<path d="M106.992 51.8445C107.28 52.4306 107.482 53.055 107.592 53.6985C107.632 54.0985 107.592 54.4985 107.592 54.8925C107.626 55.4375 107.717 55.9775 107.863 56.5035L108.971 61.0395C109.176 61.7082 109.259 62.4084 109.216 63.1065C109.112 63.5589 109.038 64.0175 108.993 64.4795C109.014 64.8312 109.07 65.1799 109.16 65.5205C109.37 66.5722 109.312 67.6597 108.993 68.6835C108.96 68.7607 108.948 68.8453 108.959 68.9285C108.987 69.0575 109.112 69.1375 109.226 69.1995C110.419 69.8522 111.72 70.2855 113.066 70.4785C114.281 67.5882 115.13 64.5574 115.593 61.4565C115.875 59.5785 116.013 57.6765 116.375 55.8125C116.383 55.7047 116.429 55.6031 116.504 55.5255C116.639 55.4125 116.844 55.4835 117.004 55.5595C119.037 56.5371 120.993 57.6677 122.855 58.9415C124.181 57.2251 124.676 55.0087 124.206 52.8915C123.972 51.9906 123.638 51.1185 123.211 50.2915C122.756 49.2846 122.189 48.3323 121.52 47.4525C119.953 45.6592 117.923 44.3326 115.651 43.6185C114.296 43.1295 112.901 42.7665 111.509 42.3965C110.729 42.1875 109.422 41.5075 108.664 42.0365C107.88 42.8048 107.311 43.765 107.013 44.8215C106.61 45.8973 106.391 47.0331 106.364 48.1815C106.33 49.432 106.543 50.6768 106.992 51.8445Z" fill="#3F3D56"/>
<path d="M122.984 57.3139C122.568 57.7679 122.918 58.4919 122.839 59.1049C122.787 59.3817 122.688 59.6475 122.547 59.8909L120.647 63.6289C120.329 64.1901 120.091 64.7929 119.939 65.4199C119.678 66.7689 120.214 68.2849 119.529 69.4769C119.253 69.8233 119.032 70.2106 118.874 70.625C118.846 70.9465 118.834 71.2692 118.84 71.5919C118.753 71.9604 118.633 72.3205 118.482 72.6679C118.395 73.0157 118.333 73.3693 118.297 73.7259C118.056 75.2474 117.259 76.6255 116.061 77.5939C115.375 78.176 114.493 78.4761 113.594 78.4339C112.68 78.3863 111.897 77.7638 111.644 76.8839C111.631 76.5811 111.551 76.2849 111.409 76.0169C111.146 75.6729 110.593 75.6589 110.341 75.3069L111.32 73.695C111.661 73.2197 111.889 72.6722 111.984 72.0949C112.044 71.3809 111.7 70.6689 111.823 69.9619C111.928 69.3549 112.364 68.8499 112.495 68.2489C112.55 67.485 112.433 66.7185 112.155 66.0049C111.876 64.1321 112.06 62.2195 112.69 60.4339C113.217 57.9834 114.093 55.6211 115.29 53.4189C117.885 54.8139 120.273 56.1569 122.984 57.3139Z" fill="#3F3D56"/>
<path d="M123.009 19.4185C123.116 19.8564 123.13 20.3118 123.051 20.7555C122.981 21.7505 123.192 22.7455 123.145 23.7555C123.038 24.7539 122.846 25.7414 122.572 26.7075C121.961 29.5075 122.108 32.4235 121.555 35.2345C120.873 38.7165 119.128 41.9595 118.784 45.4925C118.81 46.6237 118.567 47.7449 118.074 48.7635C114.421 47.1555 110.968 45.1272 107.784 42.7195C108.613 37.5416 109.047 32.3082 109.084 27.0645C109.037 26.4306 109.081 25.7932 109.213 25.1715C109.379 24.6514 109.617 24.1572 109.921 23.7035C110.691 22.4525 111.538 21.2505 112.384 20.0505C113.209 18.2159 115.329 17.3523 117.201 18.0885L120.595 18.7095C121.302 18.8435 122.706 18.5965 123.009 19.4185Z" fill="#009B84"/>
<path d="M95.766 39.3229C95.3019 38.8587 94.7957 38.4386 94.254 38.0679C94.96 37.2089 94.821 35.9679 94.994 34.8679C95.1359 34.1532 95.3514 33.4552 95.637 32.7849C95.709 32.5959 95.81 32.3849 96.007 32.3369C96.1279 32.322 96.2506 32.3414 96.361 32.3929C96.961 32.6039 98.203 32.5929 98.667 32.9779C99.226 33.4479 98.715 34.4299 98.504 35.0169C98.354 35.4079 96.063 39.6219 95.766 39.3229Z" fill="#BE6F72"/>
<path d="M97.4991 76.478C97.7988 76.9632 97.9946 77.5052 98.0741 78.07C98.148 78.6441 97.9021 79.2127 97.4331 79.552C96.8788 79.798 96.2478 79.8052 95.6881 79.572C93.2304 78.7723 91.23 76.9632 90.1881 74.598C90.0089 73.8291 89.4719 73.1928 88.7441 72.887C87.9295 72.4909 87.2635 71.8438 86.8441 71.041C86.44 70.2068 86.669 69.204 87.3951 68.628C87.8672 68.3547 88.4293 68.2826 88.9551 68.428C89.4736 68.5754 89.97 68.7917 90.4311 69.071C91.2667 69.4428 92.0658 69.8918 92.8181 70.412C93.4092 70.9469 93.9579 71.527 94.4591 72.147C95.0422 72.8131 95.5887 73.5105 96.0961 74.236C96.2611 74.445 97.6361 76.285 97.4991 76.478Z" fill="#65617D"/>
<path d="M82.9161 72.3019C82.8485 73.3028 82.6718 74.2934 82.3891 75.2559C82.2723 75.8123 81.985 76.3185 81.5671 76.7039C81.1885 76.9495 80.7596 77.1067 80.3121 77.1639C79.8689 77.317 79.3825 77.1043 79.1941 76.6749C78.4818 75.829 77.9411 74.8525 77.6021 73.7999C77.2854 72.2178 77.5294 70.5748 78.2921 69.1529C78.5401 68.5706 78.9018 68.0437 79.3561 67.6029C79.9176 67.1416 80.5922 66.8389 81.3101 66.7259C82.0441 66.5789 82.9451 66.2639 82.9991 67.1579C83.0775 68.873 83.0494 70.5913 82.9151 72.3029L82.9161 72.3019Z" fill="#65617D"/>
<path d="M93.9241 34.9067C95.2971 35.6167 96.8241 36.5197 97.1071 38.0377C97.1317 38.9787 97.096 39.9203 97.0001 40.8567C97.1636 41.6692 97.2818 42.4901 97.3541 43.3157C97.3072 43.7069 97.2405 44.0954 97.1541 44.4797C97.0842 45.2189 97.0582 45.9615 97.0761 46.7037C96.8775 48.3633 96.5769 50.0091 96.1761 51.6317C95.9847 52.8093 95.94 54.0061 96.0431 55.1947C96.1091 55.9627 96.2431 56.7267 96.2431 57.4947C96.2432 58.0509 96.1974 58.6061 96.1061 59.1547C95.8393 60.8776 95.302 62.5475 94.5141 64.1027C93.5571 65.9867 93.6921 68.4177 93.7941 70.5287C93.8384 70.8195 93.8014 71.1168 93.6871 71.3877C93.4361 71.8437 92.8121 71.9087 92.2941 71.8647C90.3757 71.6895 88.5966 70.7884 87.3201 69.3457C87.134 69.1645 87.0077 68.9307 86.9581 68.6757C86.9141 68.2497 87.2581 67.8997 87.5031 67.5477C88.3431 66.3537 88.1301 64.7367 88.2291 63.2707C88.3016 62.2039 88.5567 61.1574 88.9831 60.1767C89.2783 59.632 89.4845 59.0436 89.5941 58.4337C89.6064 57.8552 89.5044 57.2799 89.2941 56.7407L88.6941 54.8467C87.8506 51.8779 86.7612 48.9846 85.4371 46.1967C84.5183 46.7946 83.8607 47.7188 83.5971 48.7827C83.0761 50.6567 83.8181 52.7497 83.1081 54.5527C82.9906 54.8027 82.893 55.0615 82.8161 55.3267C82.7742 55.5556 82.7581 55.7883 82.7681 56.0207C82.7866 57.9589 82.9047 59.8947 83.1221 61.8207C83.1328 62.1128 83.2149 62.3977 83.3611 62.6507C83.4781 62.8197 83.6491 62.9447 83.7751 63.1067C84.0585 63.6072 84.1305 64.2 83.9751 64.7537L83.5751 67.4157C83.5681 67.5507 83.5234 67.6809 83.4461 67.7917C83.3523 67.8826 83.2354 67.9459 83.1081 67.9747C81.844 68.3672 80.5114 68.4892 79.1971 68.3327C78.8067 68.2421 78.4425 68.0624 78.1331 67.8077C78.0991 67.4077 78.5951 67.1447 78.6121 66.7497C78.5941 66.5157 78.4866 66.2976 78.3121 66.1407C77.5721 65.3047 76.6891 64.4177 76.6971 63.3017C76.6971 63.0097 76.7671 62.7167 76.7571 62.4247C76.5901 61.6964 76.3475 60.9876 76.0331 60.3097C75.9282 59.3946 75.9915 58.468 76.2201 57.5757C76.3162 56.339 76.249 55.0949 76.0201 53.8757L75.3541 49.3757C75.2765 48.6767 75.138 47.9857 74.9401 47.3107C74.6893 46.6461 74.395 45.9987 74.0591 45.3727C73.4221 44.0797 72.8991 42.7347 72.3781 41.3937C72.2125 41.0294 72.1085 40.6401 72.0701 40.2417C72.0872 39.552 72.3577 38.8927 72.8301 38.3897C73.6498 37.4136 74.7686 36.7352 76.0131 36.4597C76.2212 36.4016 76.4399 36.3927 76.6521 36.4337C76.832 36.4926 77.0009 36.5808 77.1521 36.6947C80.2699 38.7341 84.1629 39.1956 87.6711 37.9417C87.9254 38.0653 88.2239 38.0571 88.4711 37.9197C89.0843 37.582 89.661 37.1818 90.1921 36.7257C91.2989 35.8711 92.569 35.2521 93.9241 34.9067Z" fill="#3F3D56"/>
<path d="M52.6881 86.0035C52.7935 86.3084 52.9523 86.5922 53.1571 86.8415C54.001 87.6738 54.7362 88.6096 55.3451 89.6265C55.4451 89.8615 55.5141 90.1075 55.6041 90.3465C55.8763 91.067 56.3201 91.7102 56.8971 92.2205C57.3374 92.5859 57.8158 92.9027 58.3241 93.1655C59.1734 93.7032 60.1488 94.009 61.1531 94.0525C61.355 94.0483 61.5559 94.0241 61.7531 93.9805C62.0638 93.9161 62.3634 93.8063 62.6421 93.6545C63.3276 93.3404 63.7507 92.6384 63.7081 91.8855C63.6827 91.7471 63.6393 91.6127 63.5791 91.4855C63.4736 91.2843 63.3519 91.0919 63.2151 90.9105C62.9103 90.4228 62.5111 90.0009 62.0411 89.6695C61.4388 89.4331 60.8548 89.1523 60.2941 88.8295C60.099 88.6516 59.9306 88.4465 59.7941 88.2205C59.3432 87.5276 59.0072 86.7665 58.7991 85.9665C58.7236 85.3524 58.4862 84.7695 58.1111 84.2775C57.4532 83.8437 56.6868 83.6033 55.8991 83.5835C55.6181 83.6417 55.3269 83.6272 55.0531 83.5415C54.7861 83.4085 54.6971 83.2195 54.3751 83.2415C54.1184 83.2745 53.876 83.3784 53.6751 83.5415C52.8701 84.0803 52.4782 85.0579 52.6881 86.0035Z" fill="#3F3D56"/>
<path d="M59.756 86.9045C59.8252 87.5934 60.1247 88.2389 60.606 88.7365C60.938 89.0225 61.406 89.2025 61.567 89.6055C61.6773 90.0595 61.5568 90.5386 61.245 90.8865C60.8946 91.3545 60.4602 91.7532 59.964 92.0625C59.5576 92.3575 59.0516 92.481 58.555 92.4065C58.1674 92.2788 57.8197 92.0524 57.546 91.7495C56.8239 91.1631 56.226 90.4387 55.787 89.6185C55.387 88.7275 55.369 87.6945 54.935 86.8185C54.6222 86.3417 54.3544 85.8369 54.135 85.3105C54.0663 85.112 54.0663 84.8961 54.135 84.6975C54.2863 84.4078 54.5882 84.2282 54.915 84.2335C55.2354 84.2446 55.5513 84.3123 55.848 84.4335C56.7461 84.7537 57.6653 85.011 58.599 85.2035C58.971 85.2735 59.199 85.2715 59.399 85.6315C59.5831 86.0348 59.7036 86.4643 59.756 86.9045Z" fill="#FBBEBE"/>
<path d="M62.0641 92.6068C61.9167 92.8324 61.8123 93.0833 61.7561 93.3468C61.7091 93.5519 61.7016 93.764 61.7341 93.9718C62.0448 93.9074 62.3444 93.7976 62.6231 93.6458C63.3086 93.3317 63.7317 92.6297 63.6891 91.8768C63.6636 91.7384 63.6203 91.604 63.5601 91.4768C63.3669 91.4336 63.1654 91.4964 63.0311 91.6418C62.6604 91.9111 62.3341 92.2367 62.0641 92.6068Z" fill="#FBBEBE"/>
<path d="M54.933 77.4895C54.8457 77.6767 54.8198 77.8867 54.859 78.0895C54.95 78.4895 55.359 78.7165 55.726 78.8975L59.226 80.6085C59.4687 80.7208 59.7051 80.8463 59.934 80.9845C60.5031 81.3822 61.0311 81.8358 61.51 82.3385C61.9929 82.8417 62.5953 83.2146 63.261 83.4225C63.9345 83.57 64.6384 83.4777 65.251 83.1615C65.5811 82.9969 65.8875 82.7887 66.162 82.5425C66.3999 82.3341 66.6197 82.106 66.819 81.8605C66.9902 81.6797 67.1126 81.4585 67.175 81.2175C67.2054 80.8468 67.0883 80.4792 66.849 80.1945C66.7269 80.0214 66.5933 79.8567 66.449 79.7015C64.9798 78.2992 63.0942 77.413 61.077 77.1765C60.3403 77.0217 59.616 76.8128 58.91 76.5515C58.2016 76.2903 57.4439 76.1905 56.692 76.2595C55.9319 76.3362 55.266 76.8019 54.933 77.4895Z" fill="#3F3D56"/>
<path opacity="0.1" d="M54.933 77.4895C54.8457 77.6767 54.8198 77.8867 54.859 78.0895C54.95 78.4895 55.359 78.7165 55.726 78.8975L59.226 80.6085C59.4687 80.7208 59.7051 80.8463 59.934 80.9845C60.5031 81.3822 61.0311 81.8358 61.51 82.3385C61.9929 82.8417 62.5953 83.2146 63.261 83.4225C63.9345 83.57 64.6384 83.4777 65.251 83.1615C65.5811 82.9969 65.8875 82.7887 66.162 82.5425C66.3999 82.3341 66.6197 82.106 66.819 81.8605C66.9902 81.6797 67.1126 81.4585 67.175 81.2175C67.2054 80.8468 67.0883 80.4792 66.849 80.1945C66.7269 80.0214 66.5933 79.8567 66.449 79.7015C64.9798 78.2992 63.0942 77.413 61.077 77.1765C60.3403 77.0217 59.616 76.8128 58.91 76.5515C58.2016 76.2903 57.4439 76.1905 56.692 76.2595C55.9319 76.3362 55.266 76.8019 54.933 77.4895Z" fill="black"/>
<path d="M63.6951 78.5827C63.9643 78.885 64.1859 79.2266 64.3521 79.5957C64.5015 79.8375 64.5547 80.1266 64.5011 80.4057C64.4228 80.5934 64.2974 80.7577 64.1371 80.8827L63.7891 81.2047C63.684 81.3141 63.5617 81.4057 63.4271 81.4757C63.2357 81.5477 63.0312 81.5784 62.8271 81.5657C62.3583 81.6176 61.8852 81.5192 61.4761 81.2847C60.9815 80.8493 60.829 80.1422 61.1001 79.5417C61.3802 78.9622 61.8044 78.4643 62.3321 78.0957C62.7361 77.7667 63.4071 78.2817 63.6951 78.5827Z" fill="#FBBEBE"/>
<path d="M65.8161 80.6398C65.7517 80.97 65.783 81.3117 65.9061 81.6248C65.9941 81.9248 66.0791 82.2248 66.1651 82.5248V82.5368C66.4029 82.3284 66.6227 82.1003 66.8221 81.8548C66.9932 81.674 67.1157 81.4528 67.1781 81.2118C67.2085 80.8412 67.0913 80.4735 66.8521 80.1888C66.7299 80.0157 66.5963 79.851 66.4521 79.6958C66.3581 79.8168 66.2771 79.9368 66.2091 80.0138C66.0352 80.1922 65.9012 80.4056 65.8161 80.6398Z" fill="#FBBEBE"/>
<path d="M56.6741 65.8115C56.3527 67.5657 56.3466 69.3632 56.6561 71.1195C56.9244 72.4521 56.9094 73.8262 56.6121 75.1525C56.4013 75.6144 56.302 76.1193 56.3221 76.6265C56.4911 77.5675 57.6221 77.9265 58.5641 78.1065C58.8351 78.1755 59.1167 78.1925 59.3941 78.1565C59.6723 78.0802 59.9304 77.9436 60.1501 77.7565C61.485 76.7861 62.4989 75.4382 63.0611 73.8865C63.3776 72.834 63.5719 71.7485 63.6401 70.6515C63.8989 68.8209 63.9325 66.9654 63.7401 65.1265C63.6601 64.5895 63.5401 64.0585 63.4911 63.5175C63.4284 62.5764 63.4804 61.6311 63.6461 60.7025C63.9887 58.4021 64.5076 56.1314 65.1981 53.9105C63.3035 54.162 61.3778 53.8141 59.6911 52.9155C60.0171 53.0905 59.6431 55.8815 59.6031 56.2735C59.4822 57.4421 59.2713 58.5995 58.9721 59.7355C58.4121 61.8605 57.1771 63.7025 56.6741 65.8115Z" fill="#3F3D56"/>
<path opacity="0.1" d="M56.6741 65.8115C56.3527 67.5657 56.3466 69.3632 56.6561 71.1195C56.9244 72.4521 56.9094 73.8262 56.6121 75.1525C56.4013 75.6144 56.302 76.1193 56.3221 76.6265C56.4911 77.5675 57.6221 77.9265 58.5641 78.1065C58.8351 78.1755 59.1167 78.1925 59.3941 78.1565C59.6723 78.0802 59.9304 77.9436 60.1501 77.7565C61.485 76.7861 62.4989 75.4382 63.0611 73.8865C63.3776 72.834 63.5719 71.7485 63.6401 70.6515C63.8989 68.8209 63.9325 66.9654 63.7401 65.1265C63.6601 64.5895 63.5401 64.0585 63.4911 63.5175C63.4284 62.5764 63.4804 61.6311 63.6461 60.7025C63.9887 58.4021 64.5076 56.1314 65.1981 53.9105C63.3035 54.162 61.3778 53.8141 59.6911 52.9155C60.0171 53.0905 59.6431 55.8815 59.6031 56.2735C59.4822 57.4421 59.2713 58.5995 58.9721 59.7355C58.4121 61.8605 57.1771 63.7025 56.6741 65.8115Z" fill="black"/>
<path d="M67.007 55.6687C67.6694 58.0264 67.7643 60.5073 67.284 62.9087C66.806 65.3002 66.5715 67.7339 66.584 70.1727C66.7308 71.1188 66.7084 72.0834 66.518 73.0217C66.3632 73.4671 66.1582 73.8935 65.907 74.2927L59.558 85.2707C59.2291 85.8496 58.6306 86.2238 57.966 86.2659C57.2835 86.2726 56.6079 86.1277 55.988 85.8417C55.5676 85.7023 55.1769 85.4856 54.836 85.2027C54.4932 84.9169 54.312 84.4813 54.351 84.0367C54.635 82.1307 55.063 80.1787 55.38 78.2667C55.5952 76.9693 56.0646 75.7272 56.761 74.6117C57.252 73.8117 57.861 73.1017 58.281 72.2737C59.499 69.9027 59.081 67.0097 58.138 64.5147C57.195 62.0197 55.8 59.7037 55.054 57.1537C54.8329 56.4441 54.7065 55.7084 54.678 54.9657C54.6594 53.4164 55.2577 51.9234 56.341 50.8157C56.4974 50.6377 56.6947 50.5004 56.916 50.4157C57.1745 50.3557 57.4439 50.3605 57.7 50.4297C61.23 51.1187 65.836 52.2627 67.007 55.6687Z" fill="#3F3D56"/>
<path d="M124.069 21.2446C124.137 22.1289 123.91 23.0108 123.422 23.7516C121.587 26.622 117.969 27.7807 114.807 26.5106C113.59 25.9051 112.469 25.1226 111.481 24.1886C111.111 23.9171 110.81 23.5635 110.6 23.1556C110.354 22.3636 110.62 21.5019 111.27 20.9866C111.913 20.4913 112.655 20.1391 113.445 19.9536C116.026 19.1516 123.455 16.6166 124.069 21.2446Z" fill="#FBBEBE"/>
<path d="M122.559 18.4799C125.214 20.422 128.036 22.1257 130.991 23.5709C131.961 23.9276 132.76 24.6387 133.227 25.5609C133.363 26.0961 133.384 26.6542 133.287 27.1979C133.226 28.2597 133.012 29.3072 132.652 30.3079C132.08 31.4123 131.408 32.4623 130.645 33.4449C129.451 35.2709 128.751 37.4239 127.277 39.0379C128.404 42.2985 129.22 45.6585 129.714 49.0729C129.734 49.1674 129.723 49.2657 129.684 49.3539C129.643 49.4117 129.59 49.4599 129.529 49.4949L127.054 51.1179C126.784 51.2764 126.543 51.4792 126.34 51.7179C125.902 52.2869 125.96 53.0869 125.689 53.7489C125.389 54.4025 124.836 54.9056 124.157 55.1419C123.481 55.3751 122.76 55.4513 122.05 55.3649C121.146 55.308 120.275 55.0017 119.535 54.4799C118.931 53.9678 118.419 53.3563 118.021 52.6719C117.698 52.2217 117.43 51.735 117.221 51.2219C116.993 50.4743 116.901 49.6919 116.95 48.9119C116.957 47.4278 117.099 45.9473 117.374 44.4889C117.489 43.9099 117.633 43.3389 117.724 42.7559C117.907 41.5819 117.871 40.3849 118.007 39.2049C118.192 37.8781 118.488 36.5691 118.892 35.2919C119.113 34.5008 119.286 33.697 119.409 32.8849C119.68 31.4628 120.068 30.0654 120.569 28.7069L121.369 26.3569C121.538 25.8499 121.709 25.3439 121.91 24.8489C122.356 23.9568 122.686 23.0115 122.893 22.0359C123.034 20.9599 121.872 19.6819 122.264 18.6719C122.296 18.5559 122.469 18.4079 122.559 18.4799Z" fill="#3F3D56"/>
<path d="M132.59 25.0049C133.118 25.3145 133.498 25.8251 133.642 26.4199C134.086 27.7113 134.193 29.0947 133.952 30.4389C133.874 30.7769 133.821 31.1202 133.793 31.4659C133.797 31.8665 133.836 32.2661 133.91 32.6599C134.11 34.1819 133.91 35.7279 133.976 37.2599C134.044 38.9869 134.42 40.8109 133.695 42.3809C133.14 43.3906 132.355 44.255 131.403 44.9039C128.055 47.5133 124.361 49.6453 120.427 51.2389C121.066 50.3639 121.158 49.204 120.666 48.2389C120.166 47.2974 119.407 46.5188 118.478 45.9949C119.62 45.741 120.726 45.346 121.771 44.8189C123.812 43.6742 125.705 42.2831 127.407 40.6769C127.667 40.4897 127.87 40.2334 127.992 39.9369C128.171 39.3369 127.678 38.7729 127.335 38.2499C126.299 36.6579 126.535 34.5789 126.973 32.7369C127.38 30.693 128.229 28.7631 129.462 27.0829C130.234 26.0504 131.339 25.3163 132.59 25.0049Z" fill="#3F3D56"/>
<path d="M120.254 51.2938C120.075 51.5852 119.843 51.8403 119.57 52.0458C118.911 52.3743 118.134 52.3608 117.487 52.0098C116.868 51.7472 116.296 51.3836 115.796 50.9338C115.581 50.7052 115.327 50.5166 115.046 50.3768C114.525 50.1768 113.797 50.3268 113.504 49.8478C113.47 49.7975 113.453 49.7375 113.456 49.6768C113.474 49.5038 113.701 49.4558 113.876 49.4458C114.688 49.3919 115.475 49.1487 116.176 48.7358C115.952 48.5729 115.76 48.3694 115.611 48.1358C115.547 48.055 115.512 47.9555 115.511 47.8528C115.535 47.7416 115.596 47.6419 115.684 47.5698C116.992 46.3355 118.916 46.0146 120.554 46.7578C120.711 46.8211 120.849 46.9246 120.954 47.0578C121.028 47.1805 121.077 47.3163 121.099 47.4578C121.228 48.0148 121.699 48.8508 121.527 49.4138C121.195 50.0984 120.767 50.7316 120.254 51.2938Z" fill="#FBBEBE"/>
<path d="M106.687 48.7819C109.162 45.9229 110.268 42.1609 111.295 38.5219L112.029 35.9359L113.8 29.7069C114.061 28.7879 114.321 27.8689 114.494 26.9319C114.753 25.3075 114.856 23.6619 114.8 22.0179C114.775 21.3365 114.619 20.6663 114.34 20.0439C114.167 19.6139 114.083 19.1569 113.94 18.7129C113.76 18.0942 113.49 17.505 113.14 16.9639C113.043 16.8029 112.921 16.6579 112.78 16.5339C112.535 16.3676 112.258 16.2551 111.966 16.2039C111.334 16.0146 110.678 15.9136 110.018 15.9039C109.35 15.8999 108.71 16.1729 108.251 16.6579C107.972 17.0748 107.728 17.514 107.521 17.9709C107.402 18.1476 107.293 18.3317 107.197 18.5219C107.088 18.8099 107.028 19.1141 107.018 19.4219C106.915 20.6752 106.826 21.9299 106.753 23.1859C106.719 23.7569 106.689 24.3319 106.711 24.9049C106.729 25.3509 106.777 25.7939 106.824 26.2379L107.296 30.5829C107.405 31.6039 107.328 32.5589 107.419 33.5829C107.518 36.066 107.229 38.5493 106.565 40.9439C106.355 42.108 105.99 43.2388 105.479 44.3059C104.988 45.2289 104.251 46.1659 104.446 47.1949C104.557 47.5409 104.65 47.8928 104.723 48.2489C104.71 48.473 104.732 48.6978 104.789 48.9149C104.956 49.2181 105.299 49.3795 105.639 49.3149C106.034 49.2479 106.4 49.062 106.687 48.7819Z" fill="#3F3D56"/>
<path d="M106.989 37.3407C107.065 37.9117 107.007 38.4907 107.035 39.0657C107.098 39.8061 107.232 40.5388 107.435 41.2537C107.538 42.0838 107.951 42.8444 108.591 43.3827C108.766 43.4743 108.933 43.58 109.091 43.6987C109.251 43.8251 109.316 44.0374 109.254 44.2317L108.707 44.1397C108.87 44.2712 108.945 44.4831 108.901 44.6877C108.857 44.8923 108.702 45.0548 108.499 45.1081C108.297 45.1613 108.082 45.0962 107.943 44.9397C107.964 45.1189 107.947 45.3004 107.893 45.4727C107.837 45.6472 107.676 45.7673 107.493 45.7727C107.39 45.7567 107.293 45.7158 107.209 45.6537L105.781 44.7687C105.353 44.5383 104.997 44.1939 104.752 43.7737L104.127 42.8327C103.989 42.6503 103.88 42.448 103.803 42.2327C103.57 41.4327 104.221 40.5537 103.883 39.8037C103.781 39.619 103.662 39.4445 103.527 39.2827C102.923 38.1928 102.712 36.9288 102.927 35.7017C102.953 35.2857 103.027 34.7927 103.404 34.6117C103.723 34.5029 104.075 34.5652 104.337 34.7767C104.593 34.9865 104.874 35.1636 105.173 35.3037C105.373 35.3717 105.591 35.3797 105.79 35.4507C106.069 35.5507 106.327 35.9277 106.514 36.1507C106.781 36.4952 106.945 36.9074 106.989 37.3407Z" fill="#FBBEBE"/>
<path d="M89.555 19.4605C89.3861 19.8482 89.149 20.2025 88.855 20.5065C88.5557 20.8155 88.1274 20.9639 87.701 20.9065C87.269 20.7653 86.8966 20.4837 86.643 20.1065C85.8402 19.2413 85.1509 18.2772 84.592 17.2375C83.9149 15.568 83.5675 13.7831 83.569 11.9815C83.4356 11.4592 83.5342 10.9047 83.8397 10.4606C84.1451 10.0164 84.6276 9.7258 85.163 9.66351L88.197 8.52951C88.384 8.44105 88.5909 8.40345 88.797 8.42051C89.273 8.50051 89.448 9.07351 89.577 9.53651C89.8085 10.3696 90.193 11.1523 90.711 11.8445C91.391 12.7515 92.917 13.9735 92.046 15.1055C91.0719 16.4701 90.2374 17.9291 89.555 19.4605Z" fill="#BE6F72"/>
<path d="M93.4371 14.2838C94.6944 15.6365 95.3185 17.4594 95.1541 19.2988C94.98 21.1128 94.6938 22.9143 94.2971 24.6928C93.9015 26.4868 94.0534 28.3582 94.7331 30.0648C95.046 30.6087 95.3206 31.1738 95.555 31.7558C95.7119 32.3476 95.765 32.962 95.7121 33.5718C95.7088 34.2149 95.5861 34.8517 95.3501 35.4498C94.8433 36.3523 94.1094 37.1066 93.2211 37.6378C91.5848 38.9567 89.7514 40.0102 87.7881 40.7598C86.4219 41.1574 85.0104 41.3782 83.5881 41.4168C82.6289 41.4931 81.6643 41.4657 80.7111 41.3348C79.0436 41.0569 77.5113 40.2456 76.3441 39.0228C76.1391 38.8262 75.9699 38.5955 75.8441 38.3408C75.7225 38.0096 75.6638 37.6586 75.6711 37.3058C75.6231 35.9992 75.6311 34.6928 75.6951 33.3868C75.7314 32.1417 75.9028 30.9041 76.2061 29.6958C76.5861 28.3028 77.2451 26.9958 77.7441 25.6408C79.4831 20.9238 79.3081 15.5558 81.7231 11.1508C82.2441 10.1998 83.1161 9.19884 84.1901 9.35084C84.3967 9.36343 84.5912 9.45298 84.7351 9.60184C84.8589 9.78287 84.9283 9.9956 84.9351 10.2148C85.096 12.3856 85.6478 14.5094 86.5641 16.4838C86.9641 17.2418 87.5591 18.3958 88.4761 18.5988C89.3931 18.8018 89.9341 17.9268 90.4261 17.3058C91.2895 16.1676 92.3027 15.1511 93.4381 14.2838H93.4371Z" fill="#E3E8F4"/>
<path d="M99.7971 11.0628C100.068 11.2092 100.321 11.3868 100.551 11.5918C101.117 12.1999 101.41 13.0125 101.363 13.8418C101.313 14.661 101.205 15.4757 101.04 16.2798C100.843 18.4918 100.87 20.7181 101.12 22.9248C101.159 23.2825 101.137 23.6442 101.056 23.9948C100.956 24.3288 100.756 24.6238 100.628 24.9478C100.248 25.9068 100.535 27.0008 100.312 28.0078C100.073 29.0798 99.2561 30.0548 99.4121 31.1428C99.4741 31.5688 99.6791 31.9608 99.7661 32.3818C99.8935 32.8034 99.7546 33.2604 99.4141 33.5398C99.0501 33.7668 98.5211 33.6018 98.0871 33.7268C97.911 33.7919 97.7396 33.8691 97.5741 33.9578C96.8794 34.2318 96.099 34.1838 95.4431 33.8268C94.7957 33.4734 94.2136 33.0117 93.7221 32.4618C92.9176 31.728 92.2934 30.8184 91.8981 29.8038C91.55 28.2565 91.7164 26.6379 92.3721 25.1938C93.0274 23.7594 93.3885 22.2081 93.4341 20.6318C93.3247 19.7551 93.1577 18.8865 92.9341 18.0318C92.7271 16.8299 92.653 15.6089 92.7131 14.3908C92.6872 13.4957 92.8472 12.6049 93.1831 11.7748C93.7388 10.6821 94.8123 9.94731 96.0321 9.82474C97.3878 9.82023 98.7086 10.2545 99.7971 11.0628Z" fill="#3F3D56"/>
<path opacity="0.1" d="M96.0351 30.2928C96.049 30.9293 96.1631 31.5597 96.3731 32.1608C96.6763 31.3257 96.8274 30.4431 96.8191 29.5548C97.0889 26.5614 97.6216 23.5977 98.4111 20.6978C97.9121 21.2738 97.5474 21.9535 97.3431 22.6878C96.3481 25.0943 95.9013 27.6921 96.0351 30.2928Z" fill="black"/>
<path d="M82.624 9.09664C81.6938 9.43871 80.7855 9.83745 79.904 10.2906C78.921 10.6383 77.9127 10.9098 76.888 11.1026C74.4929 11.5402 72.3287 12.8082 70.776 14.6836C69.8766 16.216 69.1432 17.8398 68.588 19.5276C67.9021 20.8495 67.2904 22.2086 66.756 23.5986C66.2751 25.487 66.1503 27.4485 66.388 29.3826C66.4138 30.9723 66.7583 32.5405 67.401 33.9946C67.779 34.7346 68.301 35.3946 68.678 36.1376C69.132 37.0266 69.37 38.0076 69.748 38.9226C70.0731 39.8745 70.7111 40.688 71.558 41.2306L73.01 40.3806C75.177 39.1136 77.343 37.8436 79.442 36.4676C81.365 35.3964 82.9698 33.8348 84.093 31.9416C84.8764 30.1569 85.1285 28.184 84.819 26.2596C84.596 24.3356 84.087 22.4536 83.824 20.5356C83.4894 18.1217 83.5397 15.6699 83.973 13.2716C84.173 12.1896 84.701 11.0716 84.811 9.99264C84.933 8.83964 83.453 8.87764 82.624 9.09664Z" fill="#3F3D56"/>
<path d="M73.6451 40.7238C74.7571 41.7758 76.3571 42.0828 77.7451 42.7138C78.7785 43.1936 79.7091 43.8694 80.4851 44.7038C80.9832 45.1196 81.2221 45.7693 81.1121 46.4088C80.8567 46.8962 80.4025 47.2489 79.8671 47.3758C79.257 47.6803 78.5575 47.7546 77.8971 47.5848C77.5438 47.4051 77.2063 47.196 76.8881 46.9598C76.0541 46.4598 75.0041 46.4598 74.1481 46.0048C72.9421 45.3598 72.3421 43.9418 71.2071 43.1758C70.5861 42.7578 69.7291 42.4158 69.665 41.6698C69.6621 41.4 69.7192 41.1329 69.8321 40.8878C70.0611 40.2788 70.4511 38.1878 71.3221 38.2438C72.2741 38.3048 72.9381 40.2208 73.6451 40.7238Z" fill="#FBBEBE"/>
<path d="M67.817 31.3987C68.2565 32.6896 68.9683 33.8709 69.904 34.8627C70.6251 35.5321 71.099 36.4254 71.249 37.3977C71.2129 38.339 70.6836 39.1917 69.856 39.6417C69.0371 40.0742 68.128 40.3078 67.202 40.3237C66.4653 40.3947 65.7219 40.343 65.002 40.1707C63.184 39.6777 61.922 38.0917 60.492 36.8707C59.5853 36.2164 58.761 35.4549 58.037 34.6027C57.3101 33.7157 57.1976 32.4751 57.753 31.4717C57.9852 31.1727 58.254 30.9039 58.553 30.6717C59.6397 29.7296 60.5664 28.6175 61.297 27.3787C61.5392 26.8507 61.9073 26.3902 62.369 26.0377C63.1421 25.7082 64.0145 25.6996 64.794 26.0137C65.667 26.2427 68.128 26.6897 68.3 27.8047C68.37 28.2627 67.8 28.9747 67.717 29.4657C67.6065 30.1095 67.6406 30.7698 67.817 31.3987Z" fill="#FBBEBE"/>
<path d="M72.3181 33.894C72.5788 34.3662 72.7935 34.8625 72.9591 35.376C73.5661 37.485 72.4821 39.657 71.9641 41.79C71.3031 44.522 71.5841 47.379 71.5521 50.19C71.6798 51.4819 71.2932 52.7721 70.4761 53.781C70.2142 53.9792 69.983 54.2151 69.7901 54.481C69.6904 54.691 69.6162 54.9123 69.5691 55.14C69.2828 56.1358 68.5574 56.9463 67.5994 57.3408C66.6413 57.7353 65.5555 57.6705 64.6511 57.165C63.8971 56.745 63.2421 56.017 62.3791 55.995C62.1075 56.0082 61.8369 56.0383 61.5691 56.085C60.7023 56.1014 59.8438 55.9147 59.0621 55.54C58.8698 55.479 58.6904 55.3831 58.5331 55.257C58.3881 55.124 58.2941 54.945 58.1611 54.801C57.6701 54.272 56.8301 54.363 56.1221 54.216C55.043 53.9746 54.2004 53.132 53.9591 52.053C53.8612 51.3585 53.8951 50.6518 54.0591 49.97L54.5921 46.894C54.816 45.7658 54.9709 44.625 55.0561 43.478C55.1215 42.1816 55.0105 40.8824 54.7261 39.616C54.4357 38.5955 54.1981 37.5608 54.0141 36.516C53.7923 34.6261 54.2895 32.722 55.4071 31.182C55.6439 30.7681 56.0477 30.4766 56.5151 30.382C56.8994 30.3904 57.2718 30.5175 57.5811 30.746C60.4477 32.444 63.3364 34.1066 66.2471 35.734C67.0266 36.2167 67.8675 36.5928 68.7471 36.852C69.0141 36.92 69.3961 36.892 69.4331 36.621C69.4378 36.5179 69.4106 36.4159 69.3551 36.329C68.8551 35.372 68.1371 34.55 67.5641 33.639C66.9275 32.7564 66.6274 31.6753 66.7181 30.591C66.9491 29.127 68.3101 28.158 69.4181 29.306C70.6011 30.6873 71.5779 32.2327 72.3181 33.894Z" fill="#F86D70"/>
<path d="M63.407 52.4627C65.7506 52.4834 68.0749 52.8888 70.287 53.6627C70.94 54.0434 71.6954 54.2108 72.448 54.1417C72.8115 54.0312 73.1497 53.8501 73.443 53.6087C74.3427 52.949 75.1927 52.224 75.986 51.4397C75.906 51.0037 75.316 50.9397 74.874 50.9487C73.7957 50.9558 72.7317 50.7005 71.774 50.2047C71.4596 50.0154 71.1261 49.8599 70.779 49.7407C69.834 49.4797 68.871 49.9777 67.922 50.2197C66.4923 50.4834 65.0246 50.4624 63.603 50.1577L59.731 49.5867C59.3772 49.4883 58.9987 49.5347 58.679 49.7157C58.4876 49.8965 58.3564 50.1318 58.303 50.3897C57.829 51.9817 58.056 52.1147 59.632 52.2137L63.407 52.4627Z" fill="#FBBEBE"/>
<path opacity="0.1" d="M116.272 24.8389C119.788 24.8389 122.638 21.9888 122.638 18.4729C122.638 14.9571 119.788 12.1069 116.272 12.1069C112.756 12.1069 109.906 14.9571 109.906 18.4729C109.906 21.9888 112.756 24.8389 116.272 24.8389Z" fill="black"/>
<path d="M116.226 24.5626C119.742 24.5626 122.592 21.7124 122.592 18.1966C122.592 14.6807 119.742 11.8306 116.226 11.8306C112.71 11.8306 109.86 14.6807 109.86 18.1966C109.86 21.7124 112.71 24.5626 116.226 24.5626Z" fill="#FBBEBE"/>
<path d="M121.6 10.1139C122.137 10.3839 122.593 10.7918 122.921 11.2959C123.071 11.6551 123.185 12.0282 123.261 12.4099C123.609 13.6039 124.536 14.6399 124.592 15.8839C124.513 17.2694 123.707 18.5097 122.473 19.1449C122.209 19.3394 121.89 19.4464 121.562 19.4509C121.231 19.3829 120.915 19.2584 120.627 19.0829C119.32 18.5019 117.858 19.2379 116.473 19.5759C115.034 19.9232 113.524 19.8344 112.136 19.3209C111.372 19.0726 110.699 18.6056 110.198 17.9779C109.695 17.3365 109.603 16.4641 109.961 15.7319C110.161 15.3779 110.49 15.0579 110.468 14.6539C110.417 14.4164 110.35 14.1826 110.268 13.9539C110.248 13.5669 110.368 13.1855 110.606 12.8799C111.527 11.3983 112.69 10.0823 114.048 8.98685C114.425 8.62317 114.908 8.38917 115.427 8.31885C116.474 8.27285 117.373 9.05285 118.449 9.05685C119.582 9.08549 120.679 9.45374 121.6 10.1139Z" fill="#3F3D56"/>
<path opacity="0.1" d="M92.79 16.8507C96.4158 16.8507 99.355 13.9115 99.355 10.2857C99.355 6.65995 96.4158 3.7207 92.79 3.7207C89.1643 3.7207 86.225 6.65995 86.225 10.2857C86.225 13.9115 89.1643 16.8507 92.79 16.8507Z" fill="black"/>
<path d="M92.905 16.6896C96.5308 16.6896 99.47 13.7503 99.47 10.1246C99.47 6.49882 96.5308 3.55957 92.905 3.55957C89.2793 3.55957 86.34 6.49882 86.34 10.1246C86.34 13.7503 89.2793 16.6896 92.905 16.6896Z" fill="#BE6F72"/>
<path d="M96.412 13.8337C97.3845 14.2875 98.4896 14.369 99.518 14.0627C100.105 13.9525 100.661 13.7179 101.149 13.3747C101.641 13.0236 101.944 12.4662 101.971 11.8627C101.971 11.1967 101.533 10.5957 101.48 9.92873C101.414 9.08873 101.961 8.31373 102.019 7.46973C101.997 6.63583 101.731 5.82662 101.255 5.14173C100.621 3.86191 99.7807 2.69502 98.768 1.68773C97.7308 0.673429 96.2723 0.21402 94.841 0.450729C94.1816 0.691769 93.508 0.892145 92.824 1.05073C92.2009 1.04916 91.5798 0.97907 90.972 0.841729C90.356 0.707996 89.7124 0.854516 89.215 1.24173C88.972 1.48073 88.815 1.81673 88.533 1.99173C88.3391 2.08093 88.1385 2.15482 87.933 2.21273C87.2614 2.61068 86.7893 3.27389 86.633 4.03873L84.926 8.93073C85.5307 9.27312 86.1605 9.56898 86.81 9.81573C87.4678 10.072 87.9697 10.6185 88.169 11.2957C88.269 11.8147 88.081 12.4117 88.384 12.8457C88.7165 13.2104 89.2219 13.3639 89.701 13.2457C90.1688 13.1233 90.6518 13.0697 91.135 13.0867C92.329 13.2677 92.772 13.9997 93.877 13.0867C94.982 12.1737 95.386 13.2567 96.412 13.8337Z" fill="#3F3D56"/>
<path opacity="0.1" d="M65.0051 30.9009C68.3017 30.9009 70.9741 28.2285 70.9741 24.9319C70.9741 21.6353 68.3017 18.9629 65.0051 18.9629C61.7085 18.9629 59.0361 21.6353 59.0361 24.9319C59.0361 28.2285 61.7085 30.9009 65.0051 30.9009Z" fill="black"/>
<path d="M65.236 30.5767C68.5326 30.5767 71.205 27.9043 71.205 24.6077C71.205 21.3111 68.5326 18.6387 65.236 18.6387C61.9394 18.6387 59.267 21.3111 59.267 24.6077C59.267 27.9043 61.9394 30.5767 65.236 30.5767Z" fill="#FBBEBE"/>
<path d="M69.805 18.7718C68.3841 17.6816 66.7875 16.8419 65.084 16.2888C64.0093 15.8618 62.8311 15.7674 61.702 16.0178C60.202 16.4458 58.195 17.0838 57.265 18.3398C56.7719 18.932 56.3855 19.6053 56.123 20.3298C55.681 21.8138 56.31 23.3958 56.268 24.9438C56.082 26.7508 55.3688 28.4631 54.217 29.8678C53.173 31.3398 52.962 33.4488 52.345 35.1478C52.134 35.7308 52.066 36.5408 52.61 36.8328C53.087 37.0978 53.664 36.7668 54.11 36.4488L56.766 34.5288C57.0773 34.2368 57.4966 34.0885 57.9222 34.1198C58.3479 34.1512 58.7409 34.3594 59.006 34.6938L64.571 38.6328C64.7939 38.1779 64.8034 37.6475 64.597 37.1848C65.0931 37.4191 65.5523 37.7247 65.96 38.0918C66.3927 38.4593 67.0304 38.4499 67.452 38.0698C67.7162 37.6066 67.5915 37.0189 67.162 36.7028C66.79 36.3528 66.301 36.1438 65.936 35.7838C65.214 35.0658 65.136 33.9318 64.685 33.0248C64.2796 32.4358 63.9173 31.8182 63.601 31.1768C63.3745 30.0186 63.5885 28.8176 64.201 27.8088C64.6428 26.4811 65.5018 25.3316 66.65 24.5318C67.062 24.3088 67.517 24.1778 67.939 23.9748C69.1455 23.3565 70.1449 22.3989 70.814 21.2198C71.262 20.2738 70.571 19.3608 69.805 18.7718Z" fill="#3F3D56"/>
<path opacity="0.1" d="M60.771 38.4957C61.342 38.8597 61.987 39.0957 62.548 39.4727C63.1427 39.817 63.5389 40.4229 63.616 41.1057C63.5534 41.7556 63.2712 42.3647 62.816 42.8327L57.97 49.1927L60.441 49.8477C60.1077 50.4381 59.8694 51.0772 59.735 51.7417C59.5921 52.4162 59.1198 52.9738 58.478 53.2257C57.878 53.3787 57.256 53.0647 56.64 53.1007C56.184 53.1287 55.755 53.3437 55.299 53.3617C54.7081 53.3308 54.1416 53.1165 53.678 52.7487C52.588 52.0187 51.505 50.9717 51.513 49.6587C51.5391 49.215 51.6283 48.7773 51.778 48.3587C52.3557 45.9851 53.3494 43.7326 54.713 41.7057C55.5385 40.6972 56.4565 39.7682 57.455 38.9307C57.6763 38.7081 57.9366 38.5281 58.223 38.3997C58.8958 38.2694 59.5925 38.3559 60.213 38.6467C60.872 38.8377 61.701 38.8657 62.081 38.3027" fill="black"/>
<path d="M60.562 38.104C61.133 38.466 61.778 38.704 62.339 39.081C62.9331 39.4253 63.3297 40.0299 63.409 40.712C63.3527 41.3641 63.0696 41.9758 62.609 42.441L57.761 48.796L60.232 49.451C59.8984 50.0411 59.6601 50.6804 59.526 51.345C59.3836 52.0197 58.9112 52.5775 58.269 52.8289C57.669 52.9819 57.047 52.6679 56.431 52.7039C55.975 52.7299 55.546 52.947 55.09 52.963C54.4992 52.932 53.9326 52.7177 53.469 52.3499C52.379 51.6219 51.296 50.573 51.306 49.262C51.3301 48.8181 51.4187 48.3802 51.569 47.962C52.1459 45.5881 53.1397 43.3354 54.504 41.309C55.3314 40.2991 56.2492 39.3669 57.246 38.524C57.4683 38.3026 57.7284 38.1227 58.014 37.993C58.687 37.8623 59.384 37.9496 60.004 38.242C60.663 38.435 61.492 38.4609 61.872 37.8979" fill="#F86D70"/>
<g opacity="0.1">
<path d="M110.405 16.6596C110.906 17.2874 111.579 17.7544 112.343 18.0026C113.731 18.5182 115.241 18.607 116.68 18.2576C118.073 17.9196 119.527 17.1836 120.834 17.7646C121.121 17.9408 121.437 18.066 121.767 18.1346C122.096 18.1287 122.415 18.0211 122.68 17.8266C123.51 17.3448 124.173 16.6208 124.58 15.7516C124.578 15.7963 124.582 15.841 124.592 15.8846C124.513 17.2701 123.707 18.5105 122.473 19.1456C122.209 19.3402 121.89 19.4472 121.562 19.4516C121.232 19.3837 120.915 19.2592 120.627 19.0836C119.32 18.5026 117.858 19.2386 116.473 19.5766C115.034 19.924 113.524 19.8352 112.136 19.3216C111.372 19.0734 110.699 18.6064 110.198 17.9786C109.695 17.3373 109.603 16.4648 109.961 15.7326L109.991 15.6826C110.055 16.0348 110.197 16.3684 110.405 16.6596Z" fill="black"/>
<path d="M110.67 13.3348C110.648 13.6399 110.526 13.9294 110.324 14.1588C110.299 14.0939 110.28 14.027 110.266 13.9588C110.242 13.5956 110.349 13.2359 110.566 12.9438C110.621 13.0681 110.656 13.2 110.67 13.3348Z" fill="black"/>
</g>
<path opacity="0.1" d="M87.1 3.38479L85.3931 8.27479C85.9973 8.61797 86.6271 8.91386 87.2771 9.15978C87.9352 9.4155 88.4373 9.9623 88.6361 10.6398C88.7361 11.1588 88.5481 11.7558 88.8511 12.1918C89.184 12.5557 89.6889 12.7091 90.1681 12.5918C90.636 12.4703 91.1189 12.4168 91.6021 12.4328C92.7961 12.6138 93.239 13.3458 94.344 12.4428C95.449 11.5398 95.844 12.6118 96.875 13.1888C97.847 13.6445 98.9528 13.7261 99.981 13.4178C100.567 13.3082 101.124 13.0743 101.612 12.7318C101.682 12.675 101.749 12.6146 101.812 12.5508C101.66 12.8769 101.431 13.1611 101.144 13.3788C100.656 13.722 100.1 13.9566 99.513 14.0668C98.4846 14.3735 97.3794 14.292 96.4071 13.8378C95.3801 13.2608 94.9591 12.2088 93.8761 13.0918C92.7931 13.9748 92.324 13.2628 91.134 13.0918C90.6509 13.0749 90.1678 13.1284 89.7001 13.2508C89.2209 13.3692 88.7154 13.2157 88.383 12.8508C88.083 12.4168 88.266 11.8198 88.168 11.3008C87.9693 10.6233 87.4672 10.0765 86.809 9.82079C86.1595 9.57402 85.5297 9.27817 84.925 8.93578L86.64 4.03579C86.7994 3.48045 87.0778 2.96652 87.4561 2.52979C87.3177 2.8062 87.1988 3.09189 87.1 3.38479Z" fill="black"/>
<g opacity="0.1">
<path d="M65.0401 37.3999C65.4471 37.6495 65.9716 37.5905 66.3131 37.2569C66.5622 36.7914 66.4397 36.2141 66.0231 35.8899C65.6511 35.5379 65.1621 35.3309 64.7981 34.9709C64.0761 34.2549 63.9981 33.1209 63.5471 32.2139C63.142 31.6239 62.7798 31.0056 62.4631 30.3639C62.2366 29.2063 62.4506 28.0059 63.0631 26.9979C63.5048 25.6701 64.3639 24.5207 65.5121 23.7209C65.9241 23.4979 66.3791 23.3669 66.8011 23.1639C68.0077 22.5448 69.007 21.5865 69.6761 20.4069C70.1081 19.5069 69.4991 18.6379 68.7761 18.0469C69.1281 18.2759 69.4761 18.5169 69.8071 18.7729C70.5731 19.3729 71.2631 20.2729 70.8021 21.2159C70.1329 22.3949 69.1336 23.3526 67.9271 23.9709C67.5051 24.1709 67.0501 24.3049 66.6381 24.5279C65.4899 25.3277 64.6308 26.4771 64.1891 27.8049C63.5747 28.8129 63.3606 30.0147 63.5891 31.1729C63.9053 31.8142 64.2676 32.4319 64.6731 33.0209C65.1351 33.9279 65.2021 35.0619 65.9241 35.7799C66.2881 36.1399 66.7771 36.3469 67.1501 36.6989C67.5649 37.0243 67.6871 37.6001 67.4401 38.0659C67.1341 38.4719 66.4051 38.3879 65.9481 38.0879C65.6401 37.8789 65.3591 37.6059 65.0401 37.3999Z" fill="black"/>
<path d="M52.9771 35.6348L55.6331 33.7168C55.9436 33.4233 56.3633 33.274 56.7895 33.3054C57.2156 33.3368 57.6089 33.546 57.8731 33.8818L63.4441 37.8208C63.667 37.3651 63.6765 36.8341 63.4701 36.3708C63.9526 36.5997 64.3995 36.8971 64.7971 37.2538C64.7323 37.2243 64.6654 37.1996 64.5971 37.1798C64.8035 37.6424 64.7939 38.1728 64.5711 38.6278L59.0001 34.6888C58.735 34.3543 58.3419 34.1461 57.9163 34.1148C57.4906 34.0834 57.0713 34.2317 56.7601 34.5238L54.1041 36.4438C53.6621 36.7618 53.0851 37.0928 52.6041 36.8278C52.3381 36.6645 52.1795 36.3717 52.1881 36.0598C52.4716 35.9601 52.7378 35.8167 52.9771 35.6348Z" fill="black"/>
</g>
<path d="M119.332 48.6288C119.332 48.6288 107.932 49.5418 105.664 47.9288L116.093 46.3208L119.332 48.6288Z" fill="#E3E8F4"/>
<path opacity="0.1" d="M119.332 48.6288C119.332 48.6288 107.932 49.5418 105.664 47.9288L116.093 46.3208L119.332 48.6288Z" fill="black"/>
<path d="M119.332 48.6278L116.139 46.6068C116.139 46.6068 106.613 49.3448 104.003 48.2148L106.659 44.4888L116.097 46.3288L119.332 48.6278Z" fill="#E3E8F4"/>
<path d="M105.167 21.826C104.815 22.2707 104.532 22.7663 104.329 23.296C104.237 23.577 104.192 23.869 104.114 24.153C103.896 24.8616 103.559 25.5283 103.119 26.125C102.138 27.551 100.913 28.925 100.666 30.641C100.582 31.4927 100.643 32.3524 100.845 33.184C100.936 33.7364 101.093 34.2758 101.315 34.79C101.568 35.335 101.944 35.8149 102.232 36.3419C102.495 36.8596 102.717 37.3973 102.896 37.95C103.203 37.5777 103.476 37.178 103.71 36.756C103.953 36.3321 104.383 36.0491 104.868 35.9939C105.421 35.9939 105.877 36.4519 106.424 36.5229C106.51 36.5402 106.598 36.5318 106.679 36.499C106.879 36.405 106.894 36.137 106.879 35.922C106.722 34.422 105.862 32.938 106.268 31.481C106.642 30.134 107.979 29.293 108.681 28.081C109.136 27.1695 109.408 26.1779 109.481 25.162C109.691 23.9643 109.78 22.7485 109.746 21.533C109.708 20.922 109.223 17.063 108.335 17.466C108.027 17.605 107.758 18.196 107.565 18.461L106.765 19.589L105.167 21.826Z" fill="#3F3D56"/>
<path d="M81.3541 46.7248L74.9541 51.9358L66.7191 50.4638L72.2641 46.1108L81.3541 46.7248Z" fill="#E3E8F4"/>
<path opacity="0.1" d="M81.5851 46.4006L75.1851 51.6116L66.9501 50.1396L72.4951 45.7866L81.5851 46.4006Z" fill="black"/>
<path d="M81.542 46.1238L75.142 51.3328L66.905 49.8628L72.452 45.5078L81.542 46.1238Z" fill="#E3E8F4"/>
<path opacity="0.1" d="M81.724 45.5159L75.3241 50.7269L67.0891 49.2549L72.6361 44.9019L81.724 45.5159Z" fill="black"/>
<path d="M81.6771 45.2449L75.2771 50.4559L67.0421 48.9839L72.5821 44.6299L81.6771 45.2449Z" fill="#E3E8F4"/>
<path d="M165.867 116.439C166.174 116.29 166.534 116.302 166.829 116.472C167.125 116.641 167.318 116.945 167.345 117.285L167.701 121.903L165.588 122.285L164.474 118.946L165.867 116.439Z" fill="#3F3D56"/>
<path d="M91.9471 85.4875L59.6111 101.896C58.8546 102.282 58.3798 103.061 58.3831 103.91C58.3865 104.759 58.8676 105.534 59.6271 105.913L129.27 140.863C131.786 142.123 134.764 142.048 137.214 140.663L166.547 124.122C167.272 123.709 167.709 122.927 167.681 122.093C167.653 121.258 167.165 120.508 166.414 120.143L93.9341 85.4655C93.3042 85.1641 92.5701 85.1722 91.9471 85.4875Z" fill="#3F3D56"/>
<path d="M59.3941 99.043L58.3811 99.795L58.3007 103.395C58.2889 103.968 58.604 104.497 59.1131 104.76L129.946 141.108C130.273 141.277 130.664 141.263 130.978 141.072C131.293 140.88 131.484 140.539 131.484 140.171V134.941L59.3941 99.043Z" fill="#3F3D56"/>
<path d="M91.9461 81.3138L59.6101 97.7208C58.8531 98.1053 58.3771 98.8833 58.3792 99.7323C58.3813 100.581 58.8612 101.357 59.6201 101.738L129.269 136.688C131.786 137.946 134.763 137.871 137.213 136.488L166.546 119.944C167.271 119.53 167.708 118.749 167.68 117.914C167.652 117.08 167.164 116.329 166.413 115.965L93.9331 81.2878C93.3029 80.987 92.5688 80.9959 91.9461 81.3118V81.3138Z" fill="#E3E8F4"/>
<path d="M98.639 84.293L63.011 102.384L124.246 133.003L160.988 114.353L98.639 84.293Z" fill="#3F3D56"/>
<path d="M146.654 127.435C148.73 127.435 150.412 126.438 150.412 125.209C150.412 123.98 148.73 122.983 146.654 122.983C144.579 122.983 142.896 123.98 142.896 125.209C142.896 126.438 144.579 127.435 146.654 127.435Z" fill="#3F3D56"/>
<path d="M78.111 91.0679C78.6633 91.0679 79.111 90.6202 79.111 90.0679C79.111 89.5156 78.6633 89.0679 78.111 89.0679C77.5587 89.0679 77.111 89.5156 77.111 90.0679C77.111 90.6202 77.5587 91.0679 78.111 91.0679Z" fill="#3F3D56"/>
<path d="M77.069 93.7817C77.6213 93.7817 78.069 93.334 78.069 92.7817C78.069 92.2295 77.6213 91.7817 77.069 91.7817C76.5167 91.7817 76.069 92.2295 76.069 92.7817C76.069 93.334 76.5167 93.7817 77.069 93.7817Z" fill="#3F3D56"/>
<path d="M78.5991 92.0857L82.7751 90.1377" stroke="#3F3D56"/>
<path d="M115.593 101.142L103.804 107.948C102.092 108.937 101.505 111.127 102.494 112.84C103.482 114.553 105.673 115.14 107.385 114.151L119.174 107.345C120.886 106.356 121.473 104.166 120.484 102.453C119.496 100.74 117.305 100.153 115.593 101.142Z" fill="#1CE5AF"/>
<path d="M126.137 106.514L114.348 113.32C112.636 114.309 112.049 116.499 113.038 118.212C114.026 119.925 116.217 120.512 117.929 119.523L129.718 112.717C131.43 111.728 132.017 109.538 131.028 107.825C130.04 106.112 127.849 105.525 126.137 106.514Z" fill="#1CE5AF"/>
<path d="M106.043 94.9753L94.2543 101.781C92.5415 102.77 91.9547 104.96 92.9436 106.673C93.9324 108.386 96.1225 108.973 97.8353 107.984L109.624 101.178C111.336 100.189 111.923 97.9988 110.934 96.286C109.946 94.5732 107.755 93.9864 106.043 94.9753Z" fill="#1CE5AF"/>
</svg>





