<svg width="174" height="162" viewBox="0 0 174 162" fill="none" xmlns="http://www.w3.org/2000/svg">
<path d="M79.9473 161C123.549 161 158.895 125.63 158.895 82C158.895 38.3695 123.549 3 79.9473 3C36.3455 3 0.999329 38.3695 0.999329 82C0.999329 125.63 36.3455 161 79.9473 161Z" stroke="#0B555F" stroke-width="2"/>
<path d="M27.9815 4C42.8834 4 54.9637 16.0883 54.9637 31C54.9637 45.9117 42.8834 58 27.9815 58C13.0797 58 0.999329 45.9117 0.999329 31C0.999329 16.0883 13.0797 4 27.9815 4Z" fill="white"/>
<path d="M15.5748 47V41.96L28.5348 29.72C29.5588 28.792 30.3108 27.96 30.7908 27.224C31.2708 26.488 31.5908 25.816 31.7508 25.208C31.9428 24.6 32.0388 24.04 32.0388 23.528C32.0388 22.184 31.5748 21.16 30.6468 20.456C29.7508 19.72 28.4228 19.352 26.6628 19.352C25.2548 19.352 23.9428 19.624 22.7268 20.168C21.5428 20.712 20.5348 21.56 19.7028 22.712L14.0388 19.064C15.3188 17.144 17.1108 15.624 19.4148 14.504C21.7188 13.384 24.3748 12.824 27.3828 12.824C29.8788 12.824 32.0548 13.24 33.9108 14.072C35.7988 14.872 37.2548 16.008 38.2788 17.48C39.3348 18.952 39.8628 20.712 39.8628 22.76C39.8628 23.848 39.7188 24.936 39.4308 26.024C39.1748 27.08 38.6308 28.2 37.7988 29.384C36.9988 30.568 35.8148 31.896 34.2468 33.368L23.4948 43.496L22.0068 40.664H40.9668V47H15.5748Z" fill="#0B555F"/>
<path d="M107.103 151.341C139.702 151.341 166.128 143.786 166.128 134.466C166.128 125.146 139.702 117.591 107.103 117.591C74.5053 117.591 48.0793 125.146 48.0793 134.466C48.0793 143.786 74.5053 151.341 107.103 151.341Z" fill="#F5F5F5"/>
<path d="M154.265 68.8198C147.927 75.9088 146.162 85.9842 149.712 94.8078C155.614 110.333 139.594 136.152 139.594 136.152C139.594 136.152 139.763 136.127 140.085 136.071C150.148 134.289 158.647 127.574 162.712 118.191C166.777 108.809 165.867 98.0109 160.287 89.4428C155.854 82.6558 152.206 74.6928 154.265 68.8198Z" fill="#1CE5AF"/>
<path d="M154.265 68.8198C154.265 68.8198 148.363 81.6448 154.265 92.1078C160.167 102.571 155.278 131.933 139.594 136.152" stroke="#535461" stroke-width="2"/>
<path d="M172.887 111.138C172.887 111.138 160.956 109.238 159.868 119.938C158.779 130.638 136.933 132.12 136.933 132.12C136.933 132.12 137.075 132.22 137.342 132.393C155.387 144.246 172.637 139.943 170.038 124.203C169.066 118.352 169.142 112.474 172.887 111.138Z" fill="#0B555F"/>
<path d="M172.887 111.138C172.887 111.138 163.625 113.173 164.386 121.601C165.146 130.029 150.627 140.126 136.926 132.116" stroke="#535461" stroke-width="2"/>
<path opacity="0.128" d="M49.6313 10.4799C47.7761 10.3406 45.9112 10.5533 44.1349 11.1069C39.399 12.8119 37.1535 18.3909 37.884 23.2229C38.6146 28.0549 41.6166 32.2499 44.7315 36.0949C47.8465 39.9399 51.2223 43.7349 52.9261 48.3239C53.9064 50.5834 54.0429 53.1201 53.3109 55.4719C51.9758 59.0009 47.9484 60.9719 44.083 61.3819C40.2175 61.7919 36.3351 60.9929 32.4556 60.7149C29.0226 60.155 25.5432 61.4017 23.2457 64.0149C18.215 68.7059 14.1877 75.1149 14.8392 81.8339C15.5758 89.4559 22.1474 95.4819 29.3447 98.7119C31.7281 99.7839 34.2484 100.651 36.3461 102.181C41.8714 106.214 43.1126 113.772 42.563 120.445C42.0133 127.118 40.1386 133.797 41.1819 140.412C42.5842 148.329 47.8248 155.032 55.1666 158.3C61.6943 161.19 69.863 161.01 75.6531 156.921C78.3879 154.835 80.702 152.249 82.4726 149.299C85.2693 144.997 87.5454 140.379 89.2532 135.54C90.0616 133.248 90.8211 130.782 92.7069 129.188C93.9277 128.254 95.3312 127.587 96.8262 127.231C101.274 125.946 105.96 125.592 110.449 124.449C114.938 123.306 119.456 121.176 121.897 117.367C125.35 111.962 123.738 105.049 123.754 98.6899C123.782 84.2019 132.759 71.2299 136.072 57.1109C137.155 52.4949 137.557 47.3879 135.14 43.2719C133.326 40.5188 130.792 38.3168 127.814 36.9059C121.418 33.4729 114.138 31.9449 106.979 30.4579C97.031 28.3949 84.95 28.1279 77.2391 21.4529C69.846 15.0469 59.7226 10.4799 49.6313 10.4799Z" fill="#B2F4DE"/>
<g opacity="0.5">
<path d="M71.9516 71.0899C71.951 68.4417 71.5366 65.8099 70.7234 63.2899L68.6987 57.0069V56.6959C68.7607 52.6709 65.6258 50.6629 64.4185 50.8809C63.1824 51.1039 59.7526 49.3809 59.7526 49.3809V49.4279C59.5173 49.1571 59.305 48.8671 59.118 48.5609C60.3164 47.6891 61.1122 46.3701 61.3252 44.903C61.5381 43.4359 61.1502 41.9448 60.2493 40.7679C60.6201 40.489 60.9028 40.1092 61.0638 39.6739C61.3058 38.8595 61.1622 37.9791 60.674 37.2839C60.4801 36.9926 60.2538 36.7242 59.9995 36.4839C59.6137 36.1017 59.1924 35.7571 58.7413 35.4549C57.64 34.6319 56.3744 34.0562 55.0307 33.7669C54.7974 33.7118 54.5545 33.7118 54.3212 33.7669C54.1187 33.8489 53.926 33.9532 53.7466 34.0779C52.7435 34.4522 51.6553 34.5365 50.6067 34.3209C49.5414 34.2649 48.2452 34.5639 47.9084 35.5649C47.8351 35.8817 47.7787 36.2021 47.7395 36.5249C47.47 37.2757 47.0519 37.9644 46.5104 38.5499C45.9661 39.1531 45.8027 40.0094 46.0866 40.7709C46.2186 41.0069 46.4234 41.2249 46.4234 41.4949C46.3932 41.6862 46.3364 41.8724 46.2545 42.0479C46.172 42.4833 46.3422 42.928 46.6942 43.1969C46.8395 43.3535 47.0106 43.4841 47.1999 43.5829C47.7346 43.8559 48.3501 43.9409 48.8988 44.1939C49.1706 44.3216 49.42 44.4925 49.6373 44.6999C50.1744 45.2643 50.4625 46.0209 50.4368 46.7999L50.5497 46.8119V46.9119C50.6676 46.9249 50.7925 46.9369 50.9155 46.9419C51.0928 47.2263 51.2955 47.494 51.5211 47.7419C51.4831 47.8859 51.4398 48.0322 51.3911 48.1809C49.2441 49.6467 46.6561 50.3234 44.067 50.0959C40.1326 49.5409 37.883 66.7529 37.883 66.7529C37.7371 67.7371 37.666 68.7309 37.6702 69.7259C37.6532 72.2569 38.1848 75.5699 41.1439 75.0819L42.7169 74.5639V83.0769C42.8371 84.3968 42.6447 85.7264 42.1552 86.9579C41.3697 88.5069 44.6296 87.9579 44.6296 87.9579C44.6296 87.9579 44.7545 88.0879 44.9834 88.3089L44.9104 88.5089L45.0103 88.6089C44.5817 90.0756 44.0037 91.4944 43.2855 92.8429L43.3784 92.8899C43.3195 93.0029 43.2855 93.0589 43.2855 93.0589C43.2855 93.0589 44.4967 93.6779 46.1626 94.4759C47.5017 99.0049 50.4328 109.495 49.4684 111.493L49.4954 111.55C50.1933 112.983 50.5316 114.564 50.4807 116.157C50.2969 117.966 52.7992 126.186 53.7336 129.171L53.2919 129.26L54.8648 134.923L54.5271 138.588C54.5271 138.588 52.6163 143.696 57.1124 142.697C58.2716 142.546 59.3047 141.89 59.9338 140.904C60.5629 139.918 60.7235 138.705 60.3722 137.589L60.4851 129.259C60.4851 129.259 60.0514 129.018 59.5168 128.786C58.8835 127.197 58.4898 125.523 58.3486 123.818C58.3486 121.709 56.8865 112.601 56.8865 112.601V112.537L56.8785 112.415V112.395C56.8785 112.282 56.8595 112.127 56.8465 111.938V111.928C56.4545 106.875 56.3528 101.804 56.5417 96.7399C56.8668 96.5197 57.2049 96.3193 57.5541 96.1399C58.6533 98.9079 61.4695 106.385 61.2896 109.522C61.0658 113.403 61.2336 110.356 61.2896 109.859C61.3066 109.705 61.3186 109.891 61.3236 110.308V111.95C61.3236 112.287 61.3236 112.662 61.3116 113.05V113.286C61.3116 113.524 61.3116 113.767 61.2996 114.013C61.2996 114.35 61.2866 114.678 61.2796 115.013C61.2626 115.772 61.2406 116.54 61.2137 117.259C61.2137 117.339 61.211 117.418 61.2057 117.497C61.2003 117.654 61.194 117.808 61.1867 117.959C61.1794 118.11 61.1727 118.257 61.1667 118.401C61.16 118.544 61.1527 118.683 61.1447 118.818C61.1367 118.977 61.1257 119.129 61.1177 119.274L60.5071 119.186L60.3772 120.586C60.1728 122.815 60.4608 125.062 61.2207 127.167C61.4295 127.744 61.5914 128.222 61.6274 128.392C61.7403 128.947 61.6274 132.948 61.6274 132.948C61.6274 132.948 62.3019 138.167 65.4509 137.167C66.7709 136.61 67.6969 135.394 67.8843 133.973C68.2492 132.38 68.113 130.714 67.4945 129.202C66.9222 127.981 66.7199 126.619 66.9129 125.284C67.2803 123.606 67.4686 121.894 67.4745 120.176L67.1268 120.127C67.2135 119.962 67.2919 119.793 67.3616 119.621C67.3616 119.621 67.2487 111.958 68.261 110.959C68.8176 110.409 68.7667 109.088 68.5988 108.008C68.3578 106.445 68.3011 104.859 68.4299 103.283C68.4539 102.684 68.5495 102.089 68.7147 101.513C69.0145 100.926 69.3083 95.0059 67.9942 92.1569L68.264 92.0729L68.222 91.8639L68.264 91.8499C68.4622 92.3791 68.6873 92.8978 68.9386 93.4039C69.0048 93.4558 69.081 93.4935 69.1624 93.5149C72.803 92.8749 72.9499 89.4749 72.7481 87.6149C72.902 87.6889 72.9859 87.7369 72.9859 87.7369L73.3227 82.8429C73.6689 81.9354 73.8247 80.9663 73.7804 79.9959C73.6024 76.9546 72.9865 73.955 71.9516 71.0899ZM67.9382 84.9999C67.6884 82.8689 67.3386 80.8619 67.3386 80.8619L65.6527 74.8619V72.6779L68.327 82.6679L67.9382 84.9999Z" fill="url(#paint0_linear_700_782)"/>
</g>
<path d="M60.3562 117.76L60.2313 119.132C60.0343 121.312 60.3132 123.508 61.0488 125.57C61.2487 126.135 61.4066 126.601 61.4395 126.77C61.5475 127.313 61.4395 131.22 61.4395 131.22C61.4395 131.22 62.0901 136.32 65.1281 135.344C66.4056 134.79 67.2974 133.604 67.4756 132.222C67.8266 130.666 67.6948 129.04 67.0978 127.561C66.5442 126.366 66.3491 125.036 66.5362 123.732C66.8914 122.091 67.0732 120.418 67.0788 118.74L60.3562 117.76Z" fill="#5A5773"/>
<path d="M57.1024 94.2093C57.1024 94.2093 61.3316 104.52 61.1148 108.317C60.8979 112.114 61.0608 109.13 61.1148 108.643C61.1894 112.19 61.0806 115.739 60.789 119.274C60.789 119.274 65.2361 122.529 66.9709 118.189C66.9709 118.189 66.863 110.702 67.8373 109.724C68.374 109.187 68.321 107.895 68.1631 106.84C67.9291 105.315 67.8724 103.767 67.9942 102.228C68.0131 101.642 68.1054 101.061 68.2691 100.498C68.5948 99.8473 68.9196 92.4673 66.9699 90.4053L57.1024 94.2093Z" fill="#605D82"/>
<path opacity="0.1" d="M61.3326 119.278C61.6241 115.742 61.7328 112.194 61.6584 108.647C61.6044 109.135 61.4405 112.12 61.6584 108.321C61.8763 104.522 57.6461 94.2131 57.6461 94.2131L67.1088 90.5711C67.0648 90.5151 67.0199 90.4631 66.9739 90.4141L57.1054 94.2141C57.1054 94.2141 61.3336 104.525 61.1168 108.325C60.8999 112.125 61.0628 109.138 61.1168 108.651C61.1913 112.198 61.0826 115.746 60.791 119.282C61.8189 120.02 63.0479 120.425 64.3127 120.443C63.2397 120.302 62.2171 119.902 61.3326 119.278Z" fill="black"/>
<path d="M53.4149 127.635L54.9329 133.17L54.6071 136.751C54.6071 136.751 52.7643 141.743 57.1054 140.766C58.2295 140.605 59.2265 139.959 59.832 138.998C60.4376 138.036 60.5905 136.858 60.2503 135.774L60.3583 127.635C59.5947 127.175 58.7438 126.88 57.8599 126.768C57.1014 126.877 53.4149 127.635 53.4149 127.635Z" fill="#5A5773"/>
<path d="M45.9318 91.605C45.9318 91.605 50.9205 107.775 49.7293 110.271C50.4155 111.689 50.7504 113.252 50.7056 114.827C50.4898 116.995 54.1763 128.609 54.1763 128.609L59.5997 127.632C58.9116 125.932 58.474 124.141 58.3006 122.315C58.3006 120.253 56.8905 111.346 56.8905 111.346C56.8905 111.346 55.6983 95.067 57.1084 93.33L45.9318 91.605Z" fill="#605D82"/>
<g opacity="0.1">
<path d="M56.6827 94.6533C55.7833 98.3393 56.7776 111.901 56.7776 111.901C56.7776 111.901 58.1877 120.801 58.1877 122.87C58.3213 124.526 58.6974 126.152 59.3039 127.698L59.5978 127.646C58.9096 125.946 58.472 124.155 58.2986 122.329C58.2986 120.267 56.8885 111.36 56.8885 111.36C56.8885 111.36 55.9771 98.9653 56.6827 94.6533Z" fill="black"/>
<path d="M49.7283 110.27L49.7553 110.326C49.7633 110.27 49.7723 110.211 49.7773 110.157C49.7629 110.196 49.7465 110.233 49.7283 110.27Z" fill="black"/>
<path d="M56.8576 93.865C56.907 93.6779 56.99 93.5014 57.1024 93.344L45.9318 91.605C45.9318 91.605 45.9977 91.816 46.1106 92.192L56.8576 93.865Z" fill="black"/>
</g>
<path d="M71.9596 85.7439C71.9596 85.7439 73.5866 91.8189 68.7068 92.6899C68.6275 92.6694 68.5533 92.6326 68.4889 92.5819C68.4889 92.5819 65.6688 87.047 67.8383 84.877L71.9596 85.7439Z" fill="#A1616A"/>
<path d="M52.0057 45.377C52.0057 45.377 52.3315 49.933 48.7529 52.105C45.1743 54.277 56.3419 60.244 56.3419 60.244L62.199 50.91C62.199 50.91 59.7067 51.232 58.1887 46.895L52.0057 45.377Z" fill="#A1616A"/>
<path opacity="0.1" d="M49.6183 52.4277C49.6183 52.4277 55.1497 63.9277 60.1384 53.0787L67.8383 91.2787C67.8383 91.2787 55.9072 94.9697 55.8013 96.7057C55.6953 98.4417 43.7652 92.2567 43.7652 92.2567C43.7652 92.2567 46.3635 87.4807 45.7179 84.5517C45.0723 81.6227 49.6183 52.4277 49.6183 52.4277Z" fill="black"/>
<path d="M49.6183 52.21C49.6183 52.21 55.1497 63.71 60.1384 52.861L67.8383 91.061C67.8383 91.061 55.9072 94.752 55.8013 96.488C55.6953 98.224 43.7652 92.039 43.7652 92.039C43.7652 92.039 46.3635 87.263 45.7179 84.334C45.0723 81.405 49.6183 52.21 49.6183 52.21Z" fill="#E1E7EF"/>
<path d="M55.0418 130.674C55.0418 130.674 53.6317 127.527 56.8846 127.527C60.1374 127.527 59.5968 130.349 59.5968 130.349L55.0418 130.674Z" fill="#5A5773"/>
<path d="M62.4159 122.534C62.4159 122.534 61.1167 119.169 64.3686 119.061C67.6204 118.953 65.9955 122.099 65.9955 122.099L62.4159 122.534Z" fill="#5A5773"/>
<path opacity="0.1" d="M59.6508 49.7646C59.6508 49.7646 62.9576 51.4526 64.1478 51.2296C65.338 51.0066 68.4849 53.0737 68.2691 57.1987L70.2288 63.3517C71.0126 65.8186 71.4107 68.392 71.409 70.9806C71.409 70.9806 74.2291 78.7937 72.7081 82.2667L72.3824 87.0427C70.8208 86.2103 69.0442 85.8697 67.2857 86.0656L67.9413 82.1657L65.0072 71.0937L60.1334 59.2646L59.6508 49.7646Z" fill="black"/>
<path d="M59.6508 49.5498C59.6508 49.5498 62.9576 51.2378 64.1478 51.0148C65.338 50.7918 68.4849 52.8588 68.2691 56.9838L70.2288 63.1368C71.0126 65.6038 71.4107 68.1772 71.409 70.7658C71.409 70.7658 74.2291 78.5788 72.7081 82.0518L72.3824 86.8278C70.8208 85.9954 69.0442 85.6549 67.2857 85.8508L67.9363 81.9438L65.0072 70.8758L60.1314 59.0468L59.6508 49.5498Z" fill="#67647E"/>
<path opacity="0.1" d="M65.1282 62.737V75L66.7551 80.861C66.7551 80.861 67.8394 87.261 67.5136 89.218C67.1878 91.175 61.9822 91.606 60.5722 89.977C59.1621 88.348 59.9216 74.452 59.9216 74.452L59.6498 54.109L59.8676 53.458L65.1282 62.737Z" fill="black"/>
<path d="M65.35 62.195V74.462L66.9769 80.323C66.9769 80.323 68.0612 86.723 67.7354 88.68C67.4096 90.637 62.2041 91.068 60.794 89.439C59.3839 87.81 60.1434 73.914 60.1434 73.914L59.8736 53.562L65.35 62.195Z" fill="#67647E"/>
<path opacity="0.1" d="M43.4924 72.3966L46.9631 83.1966L45.3362 87.8086C45.3362 87.8086 53.0361 95.9476 57.9169 92.0406C57.9169 92.0406 58.4595 75.4356 57.3742 71.5286C56.2889 67.6216 51.0844 54.4846 51.0844 54.4846L50.0081 51.0166L44.2609 54.2716L43.4924 72.3966Z" fill="black"/>
<path d="M43.2205 71.8519V82.4829C43.3375 83.7745 43.1517 85.0757 42.6779 86.2829C41.9174 87.8019 45.0643 87.2599 45.0643 87.2599C45.0643 87.2599 52.7642 95.3989 57.645 91.4919C57.645 91.4919 58.1877 74.8869 57.1024 70.9799C56.0171 67.0729 50.8125 53.9359 50.8125 53.9359L49.7282 50.4629L43.981 53.7179L43.2205 71.8519Z" fill="#67647E"/>
<path opacity="0.1" d="M51.6261 48.5752C49.5535 50.0209 47.0398 50.6933 44.5227 50.4752C40.7253 49.9322 38.5577 66.7542 38.5577 66.7542C38.5577 66.7542 37.1476 75.4362 41.7026 74.6772L51.789 71.3122C50.5074 69.8899 49.8443 68.0156 49.9462 66.1032L45.0644 68.0552L45.2832 58.7232L51.6261 48.5752Z" fill="black"/>
<path opacity="0.1" d="M38.7734 66.5348C38.7734 66.5348 37.3634 75.2168 41.9184 74.4578L52.0047 71.0928C50.7225 69.6708 50.0594 67.7963 50.1619 65.8838L45.2831 67.8378L38.7734 66.5348Z" fill="black"/>
<path d="M49.9222 67.0276C49.9222 67.0276 53.3069 62.5746 55.7993 64.7126C58.2917 66.8506 50.8156 70.7686 50.8156 70.7686L49.9222 67.0276Z" fill="#A1616A"/>
<path d="M51.6261 48.3569C49.5535 49.8027 47.0398 50.4751 44.5227 50.2569C40.7253 49.7139 38.5577 66.5359 38.5577 66.5359C38.5577 66.5359 37.1476 75.2179 41.7026 74.4589L51.789 71.0939C50.5074 69.6716 49.8443 67.7973 49.9462 65.8849L45.0644 67.8389L45.2832 58.5049L50.8146 53.9489L51.6261 48.3569Z" fill="#67647E"/>
<path opacity="0.1" d="M58.2946 47.1088L52.1127 45.5898C52.1127 45.5898 52.4345 45.9548 52.0587 47.3798C53.0581 48.5218 54.2763 50.0399 55.9092 50.0399C57.0773 50.0419 58.2145 49.6647 59.15 48.9648C58.8007 48.3779 58.514 47.7558 58.2946 47.1088Z" fill="black"/>
<path d="M55.8013 49.8237C58.7966 49.8237 61.2247 47.394 61.2247 44.3967C61.2247 41.3995 58.7966 38.9697 55.8013 38.9697C52.806 38.9697 50.3779 41.3995 50.3779 44.3967C50.3779 47.394 52.806 49.8237 55.8013 49.8237Z" fill="#A1616A"/>
<path opacity="0.1" d="M57.8569 42.0409C59.1151 41.8269 60.4981 41.2679 60.9199 40.0629C61.1538 39.2675 61.0157 38.4088 60.5441 37.7269C60.0724 37.0568 59.4763 36.4837 58.7883 36.0389C57.7277 35.2344 56.5038 34.6722 55.2026 34.3919C54.9776 34.3381 54.7431 34.3381 54.5181 34.3919C54.3226 34.4709 54.1366 34.5715 53.9635 34.6919C52.9946 35.058 51.9415 35.1406 50.9275 34.9299C49.8941 34.8759 48.654 35.1679 48.3292 36.1449C48.2292 36.4449 48.2352 36.7729 48.1603 37.0829C47.8986 37.814 47.4978 38.4874 46.9801 39.0659C46.4579 39.6603 46.3015 40.4924 46.5723 41.2359C46.6992 41.4669 46.9101 41.6799 46.9101 41.9429C46.8775 42.1302 46.8207 42.3124 46.7412 42.4849C46.6659 43.0786 46.9977 43.6491 47.5507 43.8769C48.0663 44.1439 48.66 44.2259 49.1866 44.4769C50.193 44.973 50.8177 46.0108 50.7856 47.1329C51.2569 47.261 51.761 47.1599 52.1467 46.8599C52.2916 46.6999 52.3625 46.4849 52.4944 46.3149C52.6893 46.1132 52.9066 45.9344 53.142 45.7819C54.2773 44.8489 53.4708 43.5599 54.1134 42.5539C54.4501 42.0359 54.9868 42.1949 55.5304 42.2029C56.3093 42.2215 57.0881 42.1673 57.8569 42.0409Z" fill="black"/>
<path d="M57.7489 41.933C59.0071 41.719 60.3902 41.16 60.8119 39.955C61.046 39.1596 60.9078 38.3008 60.4361 37.619C59.9645 36.9489 59.3684 36.3758 58.6803 35.931C57.6197 35.1264 56.3958 34.5642 55.0947 34.284C54.8697 34.2302 54.6351 34.2302 54.4101 34.284C54.2146 34.363 54.0286 34.4636 53.8555 34.584C52.8866 34.9501 51.8335 35.0327 50.8195 34.822C49.7862 34.768 48.546 35.06 48.2212 36.037C48.1213 36.337 48.1263 36.665 48.0523 36.975C47.7906 37.7061 47.3898 38.3795 46.8721 38.958C46.3499 39.5523 46.1935 40.3845 46.4644 41.128C46.5913 41.359 46.8011 41.572 46.8011 41.835C46.7685 42.0222 46.7118 42.2044 46.6323 42.377C46.557 42.9707 46.8887 43.5412 47.4417 43.769C47.9574 44.036 48.551 44.118 49.0776 44.369C50.0863 44.8662 50.7116 45.9074 50.6766 47.032C51.1479 47.1601 51.6521 47.059 52.0377 46.759C52.1826 46.599 52.2535 46.384 52.3855 46.214C52.5803 46.0123 52.7976 45.8334 53.033 45.681C54.1683 44.748 53.3618 43.459 54.0044 42.453C54.3412 41.935 54.8778 42.094 55.4215 42.102C56.2008 42.1183 56.9801 42.0618 57.7489 41.933Z" fill="#4A4347"/>
<path opacity="0.1" d="M64.3137 60.187C64.3137 60.187 65.5067 66.373 64.9647 68.761C64.6338 70.15 64.6828 71.6025 65.1067 72.966" fill="black"/>
<path opacity="0.1" d="M45.0425 62.791C45.0425 62.791 44.5225 66.915 45.3885 67.783Z" fill="black"/>
<path d="M75.3226 113.616C75.4623 113.616 75.5756 113.503 75.5756 113.363C75.5756 113.223 75.4623 113.11 75.3226 113.11C75.1829 113.11 75.0696 113.223 75.0696 113.363C75.0696 113.503 75.1829 113.616 75.3226 113.616Z" fill="black"/>
<g opacity="0.5">
<path d="M153.213 84.127V83.987L107.201 48.587C107.142 48.5433 107.061 48.5433 107.002 48.587L60.9879 83.987V138.865H61.0758V138.953H153.306V84.075L153.213 84.127Z" fill="url(#paint1_linear_700_782)"/>
</g>
<path d="M151.624 137.334H62.5828V84.3458L107.103 50.0898L151.624 84.3458V137.334Z" fill="white"/>
<path d="M148.419 134.194H65.7856V85.02L107.102 53.229L148.419 85.02V134.194Z" fill="#E0E0E0"/>
<path d="M121.12 52.4936L70.7134 65.7168L87.5201 129.868L137.926 116.645L121.12 52.4936Z" fill="#1CE5AF"/>
<path d="M133.411 62.2402H81.3015V128.559H133.411V62.2402Z" fill="#F5F5F5"/>
<path opacity="0.05" d="M63.0035 84.4307L107.524 110.925L63.0035 137.419V84.4307Z" fill="black"/>
<path d="M62.6667 84.4307L107.187 110.925L62.6667 137.419V84.4307Z" fill="white"/>
<path opacity="0.05" d="M151.37 84.4307L106.85 110.925L151.37 137.419V84.4307Z" fill="black"/>
<path d="M151.708 84.4307L107.187 110.925L151.708 137.419V84.4307Z" fill="white"/>
<path opacity="0.05" d="M62.6667 136.576L107.187 101.813L151.708 136.576H62.6667Z" fill="black"/>
<path d="M62.6667 137.419L107.187 102.656L151.708 137.419H62.6667Z" fill="white"/>
<path d="M71.7138 141.443C71.7138 141.443 69.4773 133.849 72.1335 128.257C73.2617 125.92 73.6018 123.279 73.1029 120.731C72.8566 119.524 72.5004 118.342 72.0386 117.199" stroke="#535461" stroke-width="2"/>
<path d="M73.6905 113.665C73.6905 114.597 72.0036 117.295 72.0036 117.295C72.0036 117.295 70.3177 114.595 70.3177 113.665C70.34 112.749 71.0884 112.018 72.0041 112.018C72.9197 112.018 73.6682 112.749 73.6905 113.665Z" fill="#0B555F"/>
<path d="M76.4816 118.823C75.9759 119.604 73.0948 120.954 73.0948 120.954C73.0948 120.954 73.1468 117.771 73.6535 116.99C74.1793 116.26 75.1843 116.071 75.9387 116.56C76.6931 117.049 76.9318 118.044 76.4816 118.823Z" fill="#0B555F"/>
<path d="M76.3527 127.633C75.5213 128.052 72.3553 127.763 72.3553 127.763C72.3553 127.763 74.0063 125.043 74.8357 124.624C75.3769 124.319 76.0418 124.336 76.5664 124.669C77.0911 125.001 77.3907 125.596 77.3462 126.216C77.3018 126.835 76.9205 127.381 76.3537 127.635L76.3527 127.633Z" fill="#0B555F"/>
<path d="M74.7618 134.28C74.0133 134.834 70.8423 135.08 70.8423 135.08C70.8423 135.08 72.0096 132.12 72.7581 131.567C73.506 131.09 74.4953 131.274 75.0219 131.988C75.5485 132.702 75.4327 133.702 74.7568 134.277L74.7618 134.28Z" fill="#0B555F"/>
<path d="M69.5512 121.133C70.2257 121.781 73.3267 122.454 73.3267 122.454C73.3267 122.454 72.5662 119.364 71.8986 118.716C71.223 118.126 70.2046 118.168 69.5799 118.812C68.9553 119.455 68.9426 120.475 69.5512 121.134V121.133Z" fill="#0B555F"/>
<path d="M67.7884 128.931C68.6198 129.35 71.7857 129.061 71.7857 129.061C71.7857 129.061 70.1348 126.341 69.3054 125.922C68.4839 125.558 67.5221 125.903 67.1175 126.705C66.7129 127.507 67.0074 128.486 67.7874 128.932L67.7884 128.931Z" fill="#0B555F"/>
<path d="M67.1138 136.741C67.8623 137.294 71.0332 137.541 71.0332 137.541C71.0332 137.541 69.866 134.581 69.1175 134.028C68.6372 133.62 67.9694 133.513 67.3862 133.752C66.8029 133.991 66.4014 134.536 66.3452 135.164C66.2889 135.792 66.5873 136.399 67.1188 136.738L67.1138 136.741Z" fill="#0B555F"/>
<path opacity="0.5" d="M105.248 65.2778H84.3364V66.9658H105.248V65.2778Z" fill="#009B84"/>
<path opacity="0.5" d="M129.532 72.0278H84.3364V73.7158H129.532V72.0278Z" fill="#009B84"/>
<path opacity="0.5" d="M129.532 76.416H84.3364V78.104H129.532V76.416Z" fill="#009B84"/>
<path opacity="0.4" d="M129.532 80.8027H84.3364V82.4907H129.532V80.8027Z" fill="#009B84"/>
<path opacity="0.4" d="M129.532 85.1909H84.3364V86.8789H129.532V85.1909Z" fill="#009B84"/>
<path opacity="0.3" d="M110.138 89.5781H84.3364V91.2661H110.138V89.5781Z" fill="#009B84"/>
<path opacity="0.3" d="M119.582 93.9658H84.3364V95.6538H119.582V93.9658Z" fill="#009B84"/>
<defs>
<linearGradient id="paint0_linear_700_782" x1="37.6698" y1="88.276" x2="73.7516" y2="88.276" gradientUnits="userSpaceOnUse">
<stop stop-color="#808080" stop-opacity="0.251"/>
<stop offset="0.54" stop-color="#808080" stop-opacity="0.122"/>
<stop offset="1" stop-color="#808080" stop-opacity="0.102"/>
</linearGradient>
<linearGradient id="paint1_linear_700_782" x1="107.147" y1="138.953" x2="107.147" y2="48.5542" gradientUnits="userSpaceOnUse">
<stop stop-color="#808080" stop-opacity="0.251"/>
<stop offset="0.54" stop-color="#808080" stop-opacity="0.122"/>
<stop offset="1" stop-color="#808080" stop-opacity="0.102"/>
</linearGradient>
</defs>
</svg>
