<svg width="180" height="162" viewBox="0 0 180 162" fill="none" xmlns="http://www.w3.org/2000/svg">
<path d="M79.9472 160.999C123.549 160.999 158.895 125.63 158.895 81.9993C158.895 38.3688 123.549 2.99927 79.9472 2.99927C36.3455 2.99927 0.999268 38.3688 0.999268 81.9993C0.999268 125.63 36.3455 160.999 79.9472 160.999Z" stroke="#0048C1" stroke-width="2"/>
<path d="M27.9815 3.99927C42.8833 3.99927 54.9637 16.0876 54.9637 30.9993C54.9637 45.911 42.8833 57.9993 27.9815 57.9993C13.0796 57.9993 0.999268 45.911 0.999268 30.9993C0.999268 16.0876 13.0796 3.99927 27.9815 3.99927Z" fill="white"/>
<path d="M40.9667 40.6633V46.9993H15.5747V41.9593L28.5347 29.7193C29.9107 28.4073 30.8387 27.2873 31.3187 26.3593C31.7987 25.3993 32.0387 24.4553 32.0387 23.5273C32.0387 22.1833 31.5747 21.1593 30.6467 20.4553C29.7507 19.7193 28.4227 19.3513 26.6627 19.3513C25.1907 19.3513 23.8627 19.6393 22.6787 20.2153C21.4947 20.7593 20.5027 21.5913 19.7027 22.7113L14.0387 19.0633C15.3507 17.1113 17.1587 15.5913 19.4627 14.5033C21.7667 13.3833 24.4067 12.8233 27.3827 12.8233C29.8787 12.8233 32.0547 13.2393 33.9107 14.0713C35.7987 14.8713 37.2547 16.0233 38.2787 17.5273C39.3347 18.9993 39.8627 20.7433 39.8627 22.7593C39.8627 24.5833 39.4787 26.2953 38.7107 27.8953C37.9427 29.4953 36.4547 31.3193 34.2467 33.3673L26.5187 40.6633H40.9667Z" fill="#0048C1"/>
<path d="M113.174 151.34C145.794 151.34 172.237 143.785 172.237 134.465C172.237 125.146 145.794 117.59 113.174 117.59C80.5545 117.59 54.1111 125.146 54.1111 134.465C54.1111 143.785 80.5545 151.34 113.174 151.34Z" fill="#F5F5F5"/>
<path d="M160.367 68.8193C154.025 75.9083 152.259 85.9837 155.811 94.8073C161.717 110.332 145.686 136.151 145.686 136.151C145.686 136.151 145.855 136.126 146.177 136.07C156.247 134.289 164.752 127.573 168.82 118.191C172.888 108.808 171.976 98.0104 166.393 89.4423C161.957 82.6553 158.306 74.6923 160.367 68.8193Z" fill="#17BCE3"/>
<path d="M160.367 68.8193C160.367 68.8193 154.461 81.6443 160.367 92.1073C166.273 102.57 161.38 131.932 145.686 136.151" stroke="#535461" stroke-width="2"/>
<path d="M179.001 111.137C179.001 111.137 167.062 109.237 165.973 119.937C164.884 130.637 143.023 132.119 143.023 132.119C143.023 132.119 143.165 132.219 143.433 132.392C161.489 144.245 178.751 139.942 176.15 124.202C175.177 118.351 175.254 112.473 179.001 111.137Z" fill="#6C63FF"/>
<path opacity="0.2" d="M179.001 111.137C179.001 111.137 167.062 109.237 165.973 119.937C164.884 130.637 143.023 132.119 143.023 132.119C143.023 132.119 143.165 132.219 143.433 132.392C161.489 144.245 178.751 139.942 176.15 124.202C175.177 118.351 175.254 112.473 179.001 111.137Z" fill="#4D8AF0"/>
<path d="M179.001 111.137C179.001 111.137 169.733 113.172 170.494 121.6C171.255 130.028 156.726 140.125 143.016 132.115" stroke="#535461" stroke-width="2"/>
<path opacity="0.1" d="M69.6642 10.4794C67.8077 10.3401 65.9416 10.5528 64.1642 11.1064C59.4252 12.8114 57.1782 18.3904 57.9092 23.2224C58.6402 28.0544 61.6442 32.2494 64.7612 36.0944C67.8782 39.9394 71.2562 43.7344 72.9612 48.3234C73.9421 50.583 74.0787 53.1196 73.3462 55.4714C72.0102 59.0004 67.9802 60.9714 64.1122 61.3814C60.2442 61.7914 56.3592 60.9924 52.4772 60.7144C49.0419 60.1545 45.5602 61.4012 43.2612 64.0144C38.2272 68.7054 34.1972 75.1144 34.8492 81.8334C35.5862 89.4554 42.1622 95.4814 49.3642 98.7114C51.7492 99.7834 54.2712 100.65 56.3702 102.18C61.8992 106.213 63.1412 113.771 62.5912 120.444C62.0412 127.117 60.1652 133.796 61.2092 140.411C62.6125 148.329 67.8565 155.032 75.2032 158.299C81.7352 161.189 89.9092 161.009 95.7032 156.92C98.4397 154.835 100.755 152.248 102.527 149.298C105.326 144.997 107.603 140.378 109.312 135.539C110.121 133.247 110.881 130.781 112.768 129.187C113.99 128.253 115.394 127.587 116.89 127.23C121.341 125.945 126.03 125.591 130.522 124.448C135.014 123.305 139.535 121.175 141.977 117.366C145.433 111.961 143.82 105.048 143.836 98.6894C143.864 84.2014 152.847 71.2294 156.162 57.1104C157.245 52.4944 157.648 47.3874 155.229 43.2714C153.414 40.5183 150.879 38.3163 147.898 36.9054C141.498 33.4724 134.213 31.9444 127.05 30.4574C117.095 28.3944 105.006 28.1274 97.2902 21.4524C89.8922 15.0464 79.7622 10.4794 69.6642 10.4794Z" fill="#4D8AF0"/>
<g opacity="0.5">
<path d="M77.9992 71.0894C77.9987 68.4412 77.584 65.8094 76.7702 63.2894L74.7442 57.0064V56.6954C74.8062 52.6704 71.6692 50.6624 70.4612 50.8804C69.2242 51.1034 65.7922 49.3804 65.7922 49.3804V49.4274C65.5567 49.1566 65.3443 48.8666 65.1572 48.5604C66.3563 47.6886 67.1527 46.3696 67.3658 44.9025C67.5789 43.4354 67.1907 41.9443 66.2892 40.7674C66.6603 40.4885 66.9432 40.1087 67.1042 39.6734C67.3464 38.859 67.2027 37.9786 66.7142 37.2834C66.5202 36.9921 66.2937 36.7237 66.0392 36.4834C65.6532 36.1012 65.2316 35.7566 64.7802 35.4544C63.6782 34.6314 62.4118 34.0557 61.0672 33.7664C60.8338 33.7113 60.5907 33.7113 60.3572 33.7664C60.1546 33.8484 59.9617 33.9527 59.7822 34.0774C58.7785 34.4518 57.6896 34.536 56.6402 34.3204C55.5742 34.2644 54.2772 34.5634 53.9402 35.5644C53.8668 35.8812 53.8104 36.2016 53.7712 36.5244C53.5015 37.2752 53.0831 37.9639 52.5412 38.5494C51.9966 39.1526 51.8331 40.009 52.1172 40.7704C52.2492 41.0064 52.4542 41.2244 52.4542 41.4944C52.424 41.6857 52.3671 41.8719 52.2852 42.0474C52.2026 42.4828 52.3729 42.9275 52.7252 43.1964C52.8706 43.353 53.0418 43.4836 53.2312 43.5824C53.7662 43.8554 54.3822 43.9404 54.9312 44.1934C55.2032 44.3211 55.4528 44.492 55.6702 44.6994C56.2077 45.2638 56.4959 46.0205 56.4702 46.7994L56.5832 46.8114V46.9114C56.7012 46.9244 56.8262 46.9364 56.9492 46.9414C57.1267 47.2258 57.3295 47.4935 57.5552 47.7414C57.5172 47.8854 57.4739 48.0317 57.4252 48.1804C55.2768 49.6462 52.6871 50.3229 50.0962 50.0954C46.1592 49.5404 43.9082 66.7524 43.9082 66.7524C43.7622 67.7366 43.691 68.7304 43.6952 69.7254C43.6782 72.2564 44.2102 75.5694 47.1712 75.0814L48.7452 74.5634V83.0764C48.8656 84.3963 48.673 85.7259 48.1832 86.9574C47.3972 88.5064 50.6592 87.9574 50.6592 87.9574C50.6592 87.9574 50.7842 88.0874 51.0132 88.3084L50.9402 88.5084L51.0402 88.6084C50.6113 90.0751 50.0329 91.4939 49.3142 92.8424L49.4072 92.8894C49.3482 93.0024 49.3142 93.0584 49.3142 93.0584C49.3142 93.0584 50.5262 93.6774 52.1932 94.4754C53.5332 99.0044 56.4662 109.494 55.5012 111.492L55.5282 111.549C56.2266 112.982 56.5651 114.563 56.5142 116.156C56.3302 117.965 58.8342 126.185 59.7692 129.17L59.3272 129.259L60.9012 134.922L60.5632 138.587C60.5632 138.587 58.6512 143.695 63.1502 142.696C64.3102 142.546 65.344 141.89 65.9735 140.904C66.603 139.918 66.7637 138.704 66.4122 137.588L66.5252 129.258C66.5252 129.258 66.0912 129.017 65.5562 128.785C64.9226 127.196 64.5286 125.522 64.3872 123.817C64.3872 121.708 62.9242 112.6 62.9242 112.6V112.536L62.9162 112.414V112.394C62.9162 112.281 62.8972 112.126 62.8842 111.937V111.927C62.492 106.875 62.3901 101.804 62.5792 96.7394C62.9045 96.5192 63.2428 96.3188 63.5922 96.1394C64.6922 98.9074 67.5102 106.384 67.3302 109.521C67.1062 113.402 67.2742 110.355 67.3302 109.858C67.3472 109.704 67.3592 109.89 67.3642 110.307V111.949C67.3642 112.286 67.3642 112.661 67.3522 113.049V113.285C67.3522 113.523 67.3522 113.766 67.3402 114.012C67.3402 114.349 67.3272 114.677 67.3202 115.012C67.3032 115.771 67.2812 116.539 67.2542 117.258C67.2542 117.338 67.2515 117.418 67.2462 117.496C67.2409 117.654 67.2345 117.808 67.2272 117.958C67.2199 118.109 67.2132 118.256 67.2072 118.4C67.2005 118.543 67.1932 118.682 67.1852 118.817C67.1772 118.976 67.1662 119.128 67.1582 119.273L66.5472 119.185L66.4172 120.585C66.2127 122.814 66.5008 125.061 67.2612 127.166C67.4702 127.743 67.6322 128.221 67.6682 128.391C67.7812 128.946 67.6682 132.947 67.6682 132.947C67.6682 132.947 68.3432 138.166 71.4942 137.166C72.8151 136.609 73.7417 135.394 73.9292 133.972C74.2944 132.38 74.1581 130.713 73.5392 129.201C72.9665 127.98 72.7641 126.618 72.9572 125.283C73.3249 123.605 73.5133 121.893 73.5192 120.175L73.1712 120.126C73.258 119.962 73.3364 119.793 73.4062 119.62C73.4062 119.62 73.2932 111.957 74.3062 110.958C74.8632 110.408 74.8122 109.087 74.6442 108.007C74.4031 106.444 74.3463 104.859 74.4752 103.282C74.4992 102.683 74.5949 102.089 74.7602 101.512C75.0602 100.925 75.3542 95.0054 74.0392 92.1564L74.3092 92.0724L74.2672 91.8634L74.3092 91.8494C74.5075 92.3786 74.7328 92.8973 74.9842 93.4034C75.0505 93.4553 75.1268 93.4931 75.2082 93.5144C78.8512 92.8744 78.9982 89.4744 78.7962 87.6144C78.9502 87.6884 79.0342 87.7364 79.0342 87.7364L79.3712 82.8424C79.7177 81.9349 79.8736 80.9658 79.8292 79.9954C79.6512 76.9541 79.0348 73.9545 77.9992 71.0894ZM73.9832 84.9994C73.7332 82.8684 73.3832 80.8614 73.3832 80.8614L71.6962 74.8614V72.6774L74.3722 82.6674L73.9832 84.9994Z" fill="url(#paint0_linear_698_777)"/>
</g>
<path d="M66.3961 117.76L66.2711 119.132C66.0739 121.311 66.3531 123.508 67.0891 125.57C67.2891 126.135 67.4471 126.601 67.4801 126.77C67.5881 127.313 67.4801 131.22 67.4801 131.22C67.4801 131.22 68.1311 136.32 71.1711 135.344C72.4495 134.789 73.3419 133.603 73.5201 132.222C73.8714 130.666 73.7395 129.04 73.1421 127.561C72.5881 126.365 72.3929 125.035 72.5801 123.732C72.9355 122.091 73.1175 120.418 73.1231 118.74L66.3961 117.76Z" fill="#5A5773"/>
<path d="M63.1401 94.2085C63.1401 94.2085 67.3721 104.52 67.1551 108.317C66.9381 112.114 67.1011 109.13 67.1551 108.643C67.2298 112.189 67.121 115.738 66.8291 119.274C66.8291 119.274 71.2791 122.529 73.0151 118.189C73.0151 118.189 72.9071 110.702 73.8821 109.724C74.4191 109.187 74.3661 107.895 74.2081 106.84C73.9739 105.314 73.9172 103.766 74.0391 102.228C74.058 101.642 74.1504 101.06 74.3141 100.498C74.6401 99.8465 74.9651 92.4665 73.0141 90.4045L63.1401 94.2085Z" fill="#605D82"/>
<path opacity="0.1" d="M67.3731 119.277C67.6647 115.742 67.7735 112.193 67.6991 108.646C67.6451 109.134 67.4811 112.119 67.6991 108.32C67.9171 104.521 63.6841 94.2123 63.6841 94.2123L73.1531 90.5703C73.1091 90.5143 73.0641 90.4623 73.0181 90.4133L63.1431 94.2133C63.1431 94.2133 67.3741 104.524 67.1571 108.324C66.9401 112.124 67.1031 109.137 67.1571 108.65C67.2317 112.197 67.1229 115.746 66.8311 119.281C67.8597 120.019 69.0894 120.424 70.3551 120.442C69.2814 120.301 68.2581 119.901 67.3731 119.277Z" fill="black"/>
<path d="M59.4502 127.634L60.9692 133.169L60.6432 136.75C60.6432 136.75 58.7992 141.742 63.1432 140.765C64.2681 140.605 65.2657 139.959 65.8716 138.997C66.4776 138.036 66.6306 136.857 66.2902 135.773L66.3982 127.634C65.6341 127.175 64.7827 126.88 63.8982 126.767C63.1392 126.876 59.4502 127.634 59.4502 127.634Z" fill="#5A5773"/>
<path d="M51.9622 91.6045C51.9622 91.6045 56.9542 107.774 55.7622 110.27C56.4489 111.689 56.784 113.251 56.7392 114.826C56.5232 116.994 60.2122 128.608 60.2122 128.608L65.6392 127.631C64.9506 125.931 64.5127 124.14 64.3392 122.314C64.3392 120.252 62.9282 111.345 62.9282 111.345C62.9282 111.345 61.7352 95.0665 63.1462 93.3295L51.9622 91.6045Z" fill="#605D82"/>
<g opacity="0.1">
<path d="M62.7203 94.6526C61.8203 98.3386 62.8153 111.901 62.8153 111.901C62.8153 111.901 64.2263 120.801 64.2263 122.87C64.36 124.525 64.7364 126.152 65.3433 127.698L65.6373 127.646C64.9487 125.946 64.5108 124.155 64.3373 122.329C64.3373 120.267 62.9263 111.36 62.9263 111.36C62.9263 111.36 62.0143 98.9646 62.7203 94.6526Z" fill="black"/>
<path d="M55.7612 110.269L55.7882 110.325C55.7962 110.269 55.8052 110.21 55.8102 110.156C55.7958 110.195 55.7795 110.233 55.7612 110.269Z" fill="black"/>
<path d="M62.8952 93.8645C62.9447 93.6774 63.0277 93.5009 63.1402 93.3435L51.9622 91.6045C51.9622 91.6045 52.0282 91.8155 52.1412 92.1915L62.8952 93.8645Z" fill="black"/>
</g>
<path d="M78.0071 85.7435C78.0071 85.7435 79.6351 91.8185 74.7521 92.6895C74.6728 92.6689 74.5986 92.6321 74.5341 92.5815C74.5341 92.5815 71.7121 87.0465 73.8831 84.8765L78.0071 85.7435Z" fill="#A1616A"/>
<path d="M58.0403 45.3765C58.0403 45.3765 58.3663 49.9325 54.7853 52.1045C51.2043 54.2765 62.3793 60.2435 62.3793 60.2435L68.2403 50.9095C68.2403 50.9095 65.7463 51.2315 64.2273 46.8945L58.0403 45.3765Z" fill="#A1616A"/>
<path opacity="0.1" d="M55.6512 52.4275C55.6512 52.4275 61.1862 63.9275 66.1782 53.0785L73.8832 91.2785C73.8832 91.2785 61.9442 94.9695 61.8382 96.7055C61.7322 98.4415 49.7942 92.2565 49.7942 92.2565C49.7942 92.2565 52.3942 87.4805 51.7482 84.5515C51.1022 81.6225 55.6512 52.4275 55.6512 52.4275Z" fill="black"/>
<path d="M55.6512 52.2095C55.6512 52.2095 61.1862 63.7095 66.1782 52.8605L73.8832 91.0605C73.8832 91.0605 61.9442 94.7515 61.8382 96.4875C61.7322 98.2235 49.7942 92.0385 49.7942 92.0385C49.7942 92.0385 52.3942 87.2625 51.7482 84.3335C51.1022 81.4045 55.6512 52.2095 55.6512 52.2095Z" fill="#E1E7EF"/>
<path d="M61.0782 130.673C61.0782 130.673 59.6672 127.526 62.9222 127.526C66.1772 127.526 65.6362 130.348 65.6362 130.348L61.0782 130.673Z" fill="#5A5773"/>
<path d="M68.4571 122.533C68.4571 122.533 67.1571 119.168 70.4111 119.06C73.6651 118.952 72.0391 122.098 72.0391 122.098L68.4571 122.533Z" fill="#5A5773"/>
<path opacity="0.1" d="M65.6902 49.7644C65.6902 49.7644 68.9992 51.4524 70.1902 51.2294C71.3812 51.0064 74.5302 53.0734 74.3142 57.1984L76.2752 63.3514C77.0595 65.8184 77.4578 68.3918 77.4562 70.9804C77.4562 70.9804 80.2782 78.7934 78.7562 82.2664L78.4302 87.0424C76.8676 86.21 75.0898 85.8695 73.3302 86.0654L73.9862 82.1654L71.0502 71.0934L66.1732 59.2644L65.6902 49.7644Z" fill="black"/>
<path d="M65.6902 49.5493C65.6902 49.5493 68.9992 51.2373 70.1902 51.0143C71.3812 50.7913 74.5302 52.8583 74.3142 56.9833L76.2752 63.1363C77.0595 65.6033 77.4578 68.1767 77.4562 70.7653C77.4562 70.7653 80.2782 78.5783 78.7562 82.0513L78.4302 86.8273C76.8676 85.9949 75.0898 85.6544 73.3302 85.8503L73.9812 81.9433L71.0502 70.8753L66.1712 59.0463L65.6902 49.5493Z" fill="#67647E"/>
<path opacity="0.1" d="M71.1712 62.7365V74.9995L72.7992 80.8605C72.7992 80.8605 73.8842 87.2605 73.5582 89.2175C73.2322 91.1745 68.0232 91.6055 66.6122 89.9765C65.2012 88.3475 65.9612 74.4515 65.9612 74.4515L65.6892 54.1085L65.9072 53.4575L71.1712 62.7365Z" fill="black"/>
<path d="M71.3931 62.1945V74.4615L73.0211 80.3225C73.0211 80.3225 74.1061 86.7225 73.7801 88.6795C73.4541 90.6365 68.2451 91.0675 66.8341 89.4385C65.4231 87.8095 66.1831 73.9135 66.1831 73.9135L65.9131 53.5615L71.3931 62.1945Z" fill="#67647E"/>
<path opacity="0.1" d="M49.5212 72.3964L52.9942 83.1964L51.3662 87.8084C51.3662 87.8084 59.0712 95.9474 63.9552 92.0404C63.9552 92.0404 64.4982 75.4354 63.4122 71.5284C62.3262 67.6214 57.1182 54.4844 57.1182 54.4844L56.0412 51.0164L50.2902 54.2714L49.5212 72.3964Z" fill="black"/>
<path d="M49.2493 71.8514V82.4824C49.3664 83.7741 49.1804 85.0752 48.7063 86.2824C47.9453 87.8014 51.0943 87.2594 51.0943 87.2594C51.0943 87.2594 58.7993 95.3984 63.6833 91.4914C63.6833 91.4914 64.2263 74.8864 63.1403 70.9794C62.0543 67.0724 56.8463 53.9354 56.8463 53.9354L55.7613 50.4624L50.0103 53.7174L49.2493 71.8514Z" fill="#67647E"/>
<path opacity="0.1" d="M57.6603 48.5745C55.5863 50.0202 53.071 50.6926 50.5523 50.4745C46.7523 49.9315 44.5833 66.7535 44.5833 66.7535C44.5833 66.7535 43.1723 75.4355 47.7303 74.6765L57.8233 71.3115C56.5408 69.8891 55.8773 68.0148 55.9793 66.1025L51.0943 68.0545L51.3133 58.7225L57.6603 48.5745Z" fill="black"/>
<path opacity="0.1" d="M44.7991 66.5345C44.7991 66.5345 43.3881 75.2165 47.9461 74.4576L58.0391 71.0925C56.7561 69.6706 56.0925 67.796 56.1951 65.8835L51.3131 67.8375L44.7991 66.5345Z" fill="black"/>
<path d="M55.9551 67.0274C55.9551 67.0274 59.3421 62.5744 61.8361 64.7124C64.3301 66.8504 56.8491 70.7684 56.8491 70.7684L55.9551 67.0274Z" fill="#A1616A"/>
<path d="M57.6603 48.3564C55.5863 49.8022 53.071 50.4746 50.5523 50.2564C46.7523 49.7134 44.5833 66.5354 44.5833 66.5354C44.5833 66.5354 43.1723 75.2174 47.7303 74.4584L57.8233 71.0934C56.5408 69.6711 55.8773 67.7968 55.9793 65.8844L51.0943 67.8384L51.3133 58.5044L56.8483 53.9484L57.6603 48.3564Z" fill="#67647E"/>
<path opacity="0.1" d="M64.3333 47.1084L58.1473 45.5894C58.1473 45.5894 58.4693 45.9544 58.0933 47.3794C59.0933 48.5214 60.3123 50.0394 61.9463 50.0394C63.1151 50.0414 64.2531 49.6642 65.1893 48.9644C64.8397 48.3774 64.5528 47.7553 64.3333 47.1084Z" fill="black"/>
<path d="M61.8381 49.8235C64.8354 49.8235 67.2651 47.3937 67.2651 44.3965C67.2651 41.3992 64.8354 38.9695 61.8381 38.9695C58.8409 38.9695 56.4111 41.3992 56.4111 44.3965C56.4111 47.3937 58.8409 49.8235 61.8381 49.8235Z" fill="#A1616A"/>
<path opacity="0.1" d="M63.8951 42.0404C65.1541 41.8264 66.5381 41.2674 66.9601 40.0624C67.1941 39.267 67.0559 38.4083 66.5841 37.7264C66.1121 37.0563 65.5156 36.4832 64.8271 36.0384C63.7658 35.2339 62.541 34.6717 61.2391 34.3914C61.0139 34.3376 60.7792 34.3376 60.5541 34.3914C60.3584 34.4704 60.1723 34.5711 59.9991 34.6914C59.0295 35.0575 57.9758 35.1401 56.9611 34.9294C55.9271 34.8754 54.6861 35.1674 54.3611 36.1444C54.2611 36.4444 54.2671 36.7724 54.1921 37.0824C53.9302 37.8135 53.5291 38.487 53.0111 39.0654C52.4885 39.6598 52.332 40.4919 52.6031 41.2354C52.7301 41.4664 52.9411 41.6794 52.9411 41.9424C52.9084 42.1297 52.8516 42.3119 52.7721 42.4844C52.6967 43.0781 53.0287 43.6486 53.5821 43.8764C54.0981 44.1434 54.6921 44.2254 55.2191 44.4764C56.2261 44.9725 56.8513 46.0103 56.8191 47.1324C57.2907 47.2606 57.7952 47.1594 58.1811 46.8594C58.3261 46.6994 58.3971 46.4844 58.5291 46.3144C58.7241 46.1127 58.9415 45.9339 59.1771 45.7814C60.3131 44.8484 59.5061 43.5594 60.1491 42.5534C60.4861 42.0354 61.0231 42.1944 61.5671 42.2024C62.3464 42.221 63.1258 42.1668 63.8951 42.0404Z" fill="black"/>
<path d="M63.7872 41.9325C65.0462 41.7185 66.4301 41.1595 66.8521 39.9545C67.0864 39.1591 66.9481 38.3003 66.4761 37.6185C66.0042 36.9484 65.4077 36.3753 64.7191 35.9305C63.6579 35.126 62.4331 34.5638 61.1312 34.2835C60.906 34.2297 60.6713 34.2297 60.4461 34.2835C60.2505 34.3625 60.0644 34.4632 59.8911 34.5835C58.9216 34.9496 57.8679 35.0322 56.8531 34.8215C55.8191 34.7675 54.5781 35.0595 54.2531 36.0365C54.1531 36.3365 54.1581 36.6645 54.0841 36.9745C53.8223 37.7056 53.4212 38.379 52.9031 38.9575C52.3806 39.5519 52.2241 40.384 52.4951 41.1275C52.6221 41.3585 52.8321 41.5715 52.8321 41.8345C52.7995 42.0218 52.7427 42.2039 52.6631 42.3765C52.5878 42.9702 52.9198 43.5407 53.4731 43.7685C53.9891 44.0355 54.5832 44.1175 55.1102 44.3685C56.1195 44.8657 56.7451 45.9069 56.7101 47.0315C57.1818 47.1596 57.6863 47.0585 58.0721 46.7585C58.2171 46.5985 58.2881 46.3835 58.4201 46.2135C58.6152 46.0118 58.8326 45.833 59.0681 45.6805C60.2041 44.7475 59.3971 43.4585 60.0401 42.4525C60.3771 41.9345 60.9142 42.0935 61.4581 42.1015C62.2381 42.1179 63.0178 42.0613 63.7872 41.9325Z" fill="#4A4347"/>
<path opacity="0.1" d="M70.3562 60.1865C70.3562 60.1865 71.5492 66.3725 71.0072 68.7605C70.6763 70.1495 70.7254 71.602 71.1492 72.9655" fill="black"/>
<path opacity="0.1" d="M51.0723 62.7905C51.0723 62.7905 50.5523 66.9145 51.4183 67.7825L51.0723 62.7905Z" fill="black"/>
<path d="M81.3721 113.615C81.5119 113.615 81.6251 113.502 81.6251 113.362C81.6251 113.223 81.5119 113.109 81.3721 113.109C81.2324 113.109 81.1191 113.223 81.1191 113.362C81.1191 113.502 81.2324 113.615 81.3721 113.615Z" fill="black"/>
<g opacity="0.5">
<path d="M159.314 84.1265V83.9865L113.272 48.5865C113.213 48.5428 113.132 48.5428 113.072 48.5865L67.0281 83.9865V138.864H67.1161V138.952H159.407V84.0745L159.314 84.1265Z" fill="url(#paint1_linear_698_777)"/>
</g>
<path d="M157.724 137.333H68.6243V84.3454L113.174 50.0894L157.724 84.3454V137.333Z" fill="white"/>
<path d="M154.517 134.194H71.8291V85.0195L113.173 53.2285L154.517 85.0195V134.194Z" fill="#E0E0E0"/>
<path d="M127.2 52.4934L76.7603 65.7166L93.578 129.868L144.018 116.645L127.2 52.4934Z" fill="#17BCE3"/>
<path d="M139.499 62.2395H87.3552V128.559H139.499V62.2395Z" fill="#F5F5F5"/>
<path opacity="0.05" d="M69.0452 84.4304L113.595 110.924L69.0452 137.418V84.4304Z" fill="black"/>
<path d="M68.7083 84.4304L113.258 110.924L68.7083 137.418V84.4304Z" fill="white"/>
<path opacity="0.05" d="M157.47 84.4304L112.92 110.924L157.47 137.418V84.4304Z" fill="black"/>
<path d="M157.808 84.4304L113.258 110.924L157.808 137.418V84.4304Z" fill="white"/>
<path opacity="0.05" d="M68.7083 136.576L113.258 101.812L157.808 136.576H68.7083Z" fill="black"/>
<path d="M68.7083 137.419L113.258 102.656L157.808 137.419H68.7083Z" fill="white"/>
<path d="M77.7611 141.442C77.7611 141.442 75.5231 133.848 78.1811 128.256C79.31 125.919 79.6504 123.278 79.1511 120.73C78.9047 119.523 78.5482 118.341 78.0861 117.198" stroke="#535461" stroke-width="2"/>
<path d="M79.7393 113.664C79.7393 114.596 78.0513 117.294 78.0513 117.294C78.0513 117.294 76.3643 114.594 76.3643 113.664C76.3866 112.749 77.1355 112.018 78.0518 112.018C78.968 112.018 79.717 112.749 79.7393 113.664Z" fill="#3D3691"/>
<path d="M82.5321 118.823C82.0261 119.604 79.1431 120.953 79.1431 120.953C79.1431 120.953 79.1951 117.771 79.7021 116.99C80.2282 116.26 81.2339 116.071 81.9888 116.56C82.7436 117.049 82.9826 118.044 82.5321 118.823Z" fill="#3D3691"/>
<path d="M82.4031 127.633C81.5711 128.052 78.4031 127.763 78.4031 127.763C78.4031 127.763 80.0551 125.043 80.8851 124.624C81.4266 124.319 82.0919 124.336 82.6169 124.668C83.142 125.001 83.4417 125.595 83.3973 126.215C83.3528 126.835 82.9712 127.38 82.4041 127.635L82.4031 127.633Z" fill="#3D3691"/>
<path d="M80.8112 134.279C80.0622 134.833 76.8892 135.079 76.8892 135.079C76.8892 135.079 78.0572 132.119 78.8062 131.566C79.5546 131.089 80.5445 131.273 81.0715 131.988C81.5985 132.702 81.4825 133.702 80.8062 134.276L80.8112 134.279Z" fill="#3D3691"/>
<path d="M75.5972 121.132C76.2722 121.78 79.3752 122.453 79.3752 122.453C79.3752 122.453 78.6142 119.363 77.9462 118.715C77.2701 118.126 76.251 118.168 75.6259 118.811C75.0009 119.455 74.9882 120.475 75.5972 121.133V121.132Z" fill="#3D3691"/>
<path d="M73.8333 128.93C74.6653 129.349 77.8333 129.06 77.8333 129.06C77.8333 129.06 76.1813 126.34 75.3513 125.921C74.5293 125.558 73.5669 125.903 73.162 126.705C72.7571 127.507 73.0518 128.486 73.8323 128.931L73.8333 128.93Z" fill="#3D3691"/>
<path d="M73.1582 136.741C73.9072 137.294 77.0802 137.541 77.0802 137.541C77.0802 137.541 75.9122 134.581 75.1632 134.028C74.6826 133.619 74.0144 133.513 73.4308 133.752C72.8471 133.991 72.4454 134.535 72.3891 135.163C72.3328 135.791 72.6314 136.399 73.1632 136.738L73.1582 136.741Z" fill="#3D3691"/>
<path opacity="0.5" d="M111.317 65.2773H90.3921V66.9653H111.317V65.2773Z" fill="#4D8AF0"/>
<path opacity="0.5" d="M135.617 72.0273H90.3921V73.7153H135.617V72.0273Z" fill="#4D8AF0"/>
<path opacity="0.5" d="M135.617 76.4155H90.3921V78.1035H135.617V76.4155Z" fill="#4D8AF0"/>
<path opacity="0.4" d="M135.617 80.8025H90.3921V82.4905H135.617V80.8025Z" fill="#4D8AF0"/>
<path opacity="0.4" d="M135.617 85.1904H90.3921V86.8784H135.617V85.1904Z" fill="#4D8AF0"/>
<path opacity="0.3" d="M116.211 89.5774H90.3921V91.2654H116.211V89.5774Z" fill="#4D8AF0"/>
<path opacity="0.3" d="M125.661 93.9653H90.3921V95.6533H125.661V93.9653Z" fill="#4D8AF0"/>
<defs>
<linearGradient id="paint0_linear_698_777" x1="43.6948" y1="88.2755" x2="79.8005" y2="88.2755" gradientUnits="userSpaceOnUse">
<stop stop-color="#808080" stop-opacity="0.251"/>
<stop offset="0.54" stop-color="#808080" stop-opacity="0.122"/>
<stop offset="1" stop-color="#808080" stop-opacity="0.102"/>
</linearGradient>
<linearGradient id="paint1_linear_698_777" x1="113.218" y1="138.952" x2="113.218" y2="48.5537" gradientUnits="userSpaceOnUse">
<stop stop-color="#808080" stop-opacity="0.251"/>
<stop offset="0.54" stop-color="#808080" stop-opacity="0.122"/>
<stop offset="1" stop-color="#808080" stop-opacity="0.102"/>
</linearGradient>
</defs>
</svg>
