<svg width="227" height="165" viewBox="0 0 227 165" fill="none" xmlns="http://www.w3.org/2000/svg">
<path d="M106.956 7C96.4293 7 86.2188 9.06203 76.6079 13.1288C71.9884 15.0835 67.5328 17.503 63.3648 20.32C59.2358 23.1106 55.3531 26.3155 51.8244 29.8457C48.2957 33.3758 45.0922 37.2602 42.3027 41.3908C39.4869 45.5606 37.0684 50.0181 35.1145 54.6395C31.0495 64.2544 28.9883 74.4692 28.9883 85C28.9883 95.5308 31.0495 105.746 35.1145 115.361C37.0684 119.982 39.4869 124.439 42.3027 128.609C45.0922 132.74 48.2957 136.624 51.8244 140.154C55.3531 143.684 59.2358 146.889 63.3648 149.68C67.5328 152.497 71.9884 154.917 76.6079 156.871C86.2188 160.938 96.4293 163 106.956 163C117.482 163 127.693 160.938 137.304 156.871C141.923 154.917 146.379 152.497 150.547 149.68C154.676 146.889 158.558 143.684 162.087 140.154C165.616 136.624 168.819 132.74 171.609 128.609C174.425 124.439 176.843 119.982 178.797 115.361C182.862 105.746 184.923 95.5308 184.923 85C184.923 74.4692 182.862 64.2544 178.797 54.6395C176.843 50.0181 174.425 45.5606 171.609 41.3908C168.819 37.2602 165.616 33.3758 162.087 29.8457C158.558 26.3155 154.676 23.1106 150.547 20.32C146.379 17.503 141.923 15.0835 137.304 13.1288C127.693 9.06203 117.482 7 106.956 7ZM106.956 5C151.12 5 186.922 40.8172 186.922 85C186.922 129.183 151.12 165 106.956 165C62.7914 165 26.9891 129.183 26.9891 85C26.9891 40.8172 62.7914 5 106.956 5Z" fill="#B40031"/>
<path d="M54.9774 7C69.8829 7 81.9661 19.0883 81.9661 34C81.9661 48.9117 69.8829 61 54.9774 61C40.072 61 27.9887 48.9117 27.9887 34C27.9887 19.0883 40.072 7 54.9774 7Z" fill="white"/>
<path d="M71.6241 42.944H66.1521V50H58.5681V42.944H40.4721V37.712L56.3121 16.4H64.4721L49.7841 36.608H58.8081V30.32H66.1521V36.608H71.6241V42.944Z" fill="#B40031"/>
<path opacity="0.1" d="M209.773 131.918C209.07 132.536 208.351 133.136 207.618 133.718C207.494 133.818 207.367 133.918 207.242 134.018C204.623 136.05 201.874 137.908 199.012 139.58L198.477 139.892C198.349 139.97 198.221 140.043 198.086 140.115C195.095 141.842 191.993 143.432 188.854 144.937L188.821 144.955L188.585 145.067C186.052 146.281 183.483 147.443 180.876 148.552L180.813 148.576C179.637 149.071 178.461 149.554 177.285 150.023C176.805 150.223 176.323 150.401 175.841 150.588C174.933 150.935 174.025 151.276 173.107 151.603L172.993 151.646L172.793 151.715L172.548 151.805C170.157 152.66 167.733 153.449 165.276 154.173L165.233 154.185C163.521 154.684 161.797 155.146 160.063 155.571L159.826 155.63C157.279 156.246 154.69 156.775 152.086 157.198L151.486 157.298C149.582 157.597 147.664 157.842 145.733 158.031C134.879 159.08 123.896 158.231 113.108 156.765C91.3262 153.809 69.8322 148.265 50.2284 139.581C46.466 137.914 42.7769 136.13 39.161 134.229C39.1321 134.213 39.1061 134.198 39.0771 134.184C36.9127 133.046 34.7776 131.86 32.6718 130.626C32.054 130.269 31.4413 129.905 30.8315 129.538C30.0819 129.086 29.3352 128.629 28.5915 128.166C27.6119 127.555 26.632 126.928 25.6517 126.286L25.1929 125.98L25.017 125.86C24.7681 125.693 24.5232 125.527 24.2763 125.36C15.0661 119.087 6.85356 111.485 2.97418 101.971C-1.50894 90.9931 1.35986 77.071 12.4642 70.586C16.2816 68.351 20.7178 67.138 25.2009 66.136L25.6597 66.0361C26.4184 65.8691 27.1761 65.7091 27.9307 65.5481C30.5746 64.9871 33.2285 64.4311 35.8634 63.8091C37.2349 63.4861 38.5933 63.1461 39.9427 62.7801L40.4955 62.6271C43.7515 61.7532 46.9358 60.6312 50.0205 59.271H50.0405C50.3737 59.1237 50.7002 58.9714 51.0201 58.8141C51.228 58.7141 51.4359 58.6141 51.6428 58.5141C55.1688 56.8033 58.3999 54.5416 61.2148 51.8141C61.4327 51.5941 61.6437 51.3711 61.8496 51.1471C62.0085 50.9731 62.1654 50.796 62.3164 50.62C64.1968 48.6021 65.4088 46.0528 65.7869 43.3201C65.8713 42.4412 65.8316 41.5548 65.669 40.6871C65.3611 39.0421 65.0632 37.4331 64.8443 35.8631C64.3616 33.0531 64.3684 30.1807 64.8643 27.373C65.513 24.3219 67.0402 21.5273 69.2575 19.334C69.6353 18.942 70.0421 18.5501 70.478 18.1581C72.5017 16.382 74.7917 14.9347 77.2641 13.8691L78.1867 13.477C85.0609 10.693 93.3204 10.1131 101.037 10.4971C108.247 10.8683 115.41 11.8654 122.447 13.477C123.006 13.602 123.564 13.7341 124.119 13.8691C130.105 15.3199 135.994 17.1421 141.754 19.3251C156.721 24.9571 170.847 32.7771 184.044 41.4061L184.436 41.6611C184.987 42.0204 185.536 42.381 186.081 42.743C187.135 43.4424 188.18 44.1461 189.216 44.8541L189.916 45.3301C190.261 45.5654 190.604 45.8014 190.945 46.0381L191.995 46.7651C192.045 46.7948 192.092 46.8282 192.136 46.865L193.03 47.4841C193.548 47.8451 194.06 48.2071 194.576 48.5721L195.682 49.3561C195.911 49.5211 196.142 49.6831 196.371 49.8501L197.547 50.709L197.81 50.909C197.865 50.948 197.92 50.9871 197.973 51.0311L198.006 51.0531C201.192 53.3921 204.303 55.8171 207.216 58.3871L207.592 58.7201L207.631 58.7551C207.948 59.0371 208.265 59.323 208.577 59.612C212.347 62.9719 215.704 66.7674 218.579 70.9191C231.378 89.9341 227.578 116.26 209.773 131.918Z" fill="#ED1D55"/>
<path d="M218.161 77.1767C218.286 76.8357 217.35 74.9417 217.35 74.8477C217.35 74.7537 216.37 73.7007 216.37 73.1087C216.37 72.5167 215.09 71.2467 215.09 71.2467C214.127 70.8428 213.417 69.9994 213.182 68.9807C212.994 67.4297 211.191 67.3967 211.121 67.3947C211.121 67.3947 211.121 67.2537 211.133 67.0377C211.164 66.4238 211.086 65.8092 210.902 65.2227C210.679 64.7952 210.298 64.4721 209.84 64.3227C209.763 63.762 209.57 63.2233 209.275 62.7407C208.849 62.2944 208.685 61.6596 208.84 61.0627C208.925 60.5659 208.838 60.0551 208.595 59.6137C208.43 59.2102 208.096 58.8997 207.682 58.7647H207.649C206.749 58.5467 205.749 58.2137 205.749 58.2137C205.749 58.2137 205.649 58.2337 205.496 58.2547L205.372 58.2137C205.155 58.2539 204.936 58.2813 204.717 58.2957C204.525 58.3023 204.337 58.2406 204.186 58.1217C203.142 57.6138 202.023 57.2782 200.872 57.1277C200.245 56.9954 199.635 56.7869 199.058 56.5067L197.716 55.4817C197.262 54.9886 196.867 54.4439 196.54 53.8587L196.524 53.8367C196.426 53.6146 196.344 53.3861 196.277 53.1527C196.263 53.1097 196.253 53.0667 196.24 53.0197C196.513 52.7343 196.763 52.4277 196.987 52.1027V52.0927C197.048 52.0087 197.105 51.9167 197.161 51.8277C197.244 51.6944 197.322 51.559 197.396 51.4217C197.427 51.3607 197.457 51.2987 197.488 51.2397C197.556 51.2374 197.623 51.2263 197.688 51.2067L197.772 51.1757C197.849 51.1402 197.922 51.0948 197.988 51.0407L198.051 50.9837C198.227 50.8176 198.361 50.6119 198.442 50.3837C198.464 50.3167 198.483 50.2487 198.499 50.1837C198.502 50.1594 198.508 50.1355 198.517 50.1127C198.523 50.0907 198.538 50.0187 198.546 49.9697L198.558 49.8917C198.562 49.8448 198.57 49.7983 198.581 49.7527C198.585 49.7262 198.585 49.6992 198.581 49.6727C198.581 49.6157 198.597 49.5547 198.603 49.4967C198.63 49.2747 198.654 49.0577 198.703 48.8417C198.704 48.8384 198.704 48.835 198.703 48.8317C198.806 48.4163 198.962 48.0156 199.166 47.6397C199.366 47.2617 199.578 46.8887 199.754 46.4987C199.805 46.3867 199.854 46.2737 199.897 46.1597C199.94 46.0457 199.983 45.9087 200.022 45.7817C200.026 45.7421 200.035 45.7032 200.049 45.6657C200.075 45.5735 200.096 45.4801 200.112 45.3857C200.122 45.3449 200.13 45.3035 200.136 45.2617C200.159 45.1327 200.175 45.0027 200.187 44.8697C200.25 44.1273 200.14 43.3804 199.866 42.6877C199.633 42.0997 199.278 41.5797 199.045 40.9977C198.686 40.1137 198.592 39.1137 198.154 38.2707C197.419 36.857 195.768 36.1852 194.255 36.6847C193.577 36.9357 192.988 37.4277 192.296 37.6487C191.348 37.8428 190.368 37.822 189.429 37.5877C188.475 37.3575 187.468 37.5311 186.646 38.0677C185.763 38.7867 185.52 40.1397 184.687 40.9277C184.485 41.1105 184.266 41.2745 184.034 41.4177C183.865 41.5337 183.696 41.6467 183.535 41.7787C183.276 41.9839 183.076 42.2546 182.957 42.5627C182.949 42.5846 182.942 42.607 182.936 42.6297C182.927 42.6558 182.919 42.6826 182.914 42.7097C182.911 42.7406 182.906 42.7713 182.9 42.8017C182.898 42.8233 182.898 42.8451 182.9 42.8667C182.897 42.9137 182.897 42.9607 182.9 43.0077V43.0317C182.904 43.0846 182.912 43.1372 182.925 43.1887V43.2317C182.934 43.2757 182.947 43.3189 182.964 43.3607C182.965 43.3694 182.965 43.3781 182.964 43.3867C182.98 43.4347 182.999 43.4818 183.021 43.5277C183.026 43.5527 183.035 43.5767 183.048 43.5987C183.059 43.6172 183.068 43.637 183.075 43.6577C183.196 43.8866 183.293 44.1276 183.365 44.3767C183.403 44.5353 183.393 44.7019 183.336 44.8547C183.306 44.9309 183.263 45.0018 183.211 45.0647C183.143 45.1502 183.07 45.2313 182.992 45.3077C182.37 45.9552 181.889 46.7247 181.579 47.5677C181.544 47.6677 181.51 47.7677 181.479 47.8597L181.52 47.8717L181.561 47.8817C181.638 47.9047 181.715 47.9212 181.794 47.9307C181.846 47.9396 181.899 47.9456 181.951 47.9487C182.166 47.96 182.38 47.9429 182.59 47.8977C182.624 47.8915 182.657 47.8835 182.69 47.8737C182.701 47.8719 182.711 47.8685 182.721 47.8637H182.741C182.917 47.8182 183.089 47.7587 183.255 47.6857C183.294 47.6677 183.335 47.6527 183.375 47.6327V48.3617C183.523 50.871 184.938 53.1322 187.129 54.3617C187.241 54.4267 187.35 54.4867 187.464 54.5437C187.474 54.6107 187.484 54.6787 187.491 54.7437C187.498 54.8087 187.507 54.8557 187.513 54.9127L187.427 54.8327C187.354 54.8009 187.274 54.7849 187.194 54.7857C187.064 54.786 186.935 54.8205 186.822 54.8857C186.622 55.0008 186.454 55.1645 186.334 55.3617C185.945 55.8907 185.414 56.2984 184.802 56.5377C184.802 56.5377 179.119 57.4377 178.897 58.1827L176.24 58.3397C176.24 58.3397 175.301 58.4637 175.209 60.4197V60.4647C175.195 60.6977 175.178 60.9057 175.156 61.0917V61.1187C174.991 62.4187 174.619 62.5617 174.619 62.5617C174.085 63.4539 173.745 64.4484 173.62 65.4807C173.621 65.4887 173.621 65.4967 173.62 65.5047C173.632 65.6386 173.623 65.7736 173.594 65.9047C173.47 66.3509 173.176 66.7305 172.775 66.9617L172.652 68.7257C171.999 68.6596 171.415 69.1306 171.34 69.7827C171.22 70.4238 170.951 71.0279 170.556 71.5467C170.556 71.5467 168.838 72.9757 168.744 74.1857L167.68 74.8387C167.68 74.8387 165.213 74.2797 164.649 73.2857C164.649 73.2857 164.582 73.2187 164.477 73.1227L164.461 73.0987C164.46 73.1027 164.46 73.1067 164.461 73.1107C164.141 72.7798 163.796 72.4748 163.428 72.1987C163.501 72.355 163.519 72.5311 163.479 72.6987L163.295 72.4987L162.803 71.9497C162.803 71.9497 162.104 71.2907 161.11 70.5047C160.884 70.3247 160.646 70.1404 160.394 69.9517C159.253 68.9938 157.915 68.299 156.475 67.9167C156.451 67.8697 156.357 67.5167 156.136 67.5167C156.043 67.5247 155.956 67.5676 155.893 67.6367C155.225 68.2511 154.844 69.116 154.84 70.0236C154.836 70.9313 155.21 71.7995 155.872 72.4197L156.129 72.6587L156.929 73.4037L159.614 75.9127C159.647 75.9367 159.679 75.9617 159.714 75.9837L159.873 76.1837L159.996 76.3427L160.21 76.6147L160.518 77.0067C160.502 77.0477 160.485 77.0867 160.471 77.1267C160.355 77.4087 160.255 77.6837 160.171 77.9347V77.9617C160.151 78.0247 160.132 78.0837 160.114 78.1417C160.11 78.1629 160.104 78.1833 160.094 78.2027C160.074 78.2617 160.059 78.3207 160.041 78.3737C160.03 78.4065 160.021 78.4398 160.014 78.4737C160.009 78.4944 160.002 78.5148 159.994 78.5347C159.907 78.8467 159.852 79.0857 159.823 79.2187L159.615 79.1537L159.815 79.2417C159.815 79.2527 159.815 79.2637 159.815 79.2747L159.803 79.3377C159.864 79.3667 159.928 79.3947 160.002 79.4217L160.047 79.4417L160.815 79.7807C160.97 79.8497 161.138 79.9217 161.315 80.0037C161.492 80.0857 161.635 80.1467 161.809 80.2217C163.53 80.9289 165.206 81.7421 166.827 82.6567C168.005 83.673 169.669 83.9032 171.079 83.2447C172.139 82.7376 172.958 81.8336 173.358 80.7277C174.046 79.8081 174.673 78.8439 175.235 77.8417C175.282 77.5557 176.121 77.2317 176.509 77.0967L176.546 77.0847L176.702 77.0337V77.5077C176.728 78.8994 176.632 80.2906 176.417 81.6657C176.416 81.6697 176.416 81.6738 176.417 81.6777C176.355 82.0353 176.25 82.3841 176.105 82.7167C175.386 84.2377 174.044 90.9777 174.044 90.9777H174.075C174.152 90.9636 174.231 90.9595 174.309 90.9657C174.282 91.0907 174.265 91.1897 174.251 91.2557C174.237 91.3217 174.231 91.3557 174.231 91.3557H174.255C174.329 91.3415 174.405 91.3367 174.481 91.3417C174.507 91.343 174.532 91.3463 174.557 91.3517C174.554 91.399 174.547 91.4461 174.537 91.4927V91.5417C174.537 91.5497 174.525 91.6027 174.521 91.6357C174.358 92.7567 173.889 95.6757 173.889 95.6757C173.81 96.4172 173.642 97.1465 173.389 97.8477C173.224 98.3545 173.135 98.8829 173.126 99.4157C173.126 99.5157 173.112 99.6157 173.104 99.7157C173.053 100.547 173.045 101.325 173.045 101.325L173.031 101.376L172.57 103.466C172.578 103.485 172.586 103.504 172.595 103.523C172.628 103.586 172.681 103.694 172.758 103.823L172.782 103.874C173.059 104.439 173.426 104.955 173.868 105.403C173.97 105.504 174.08 105.598 174.197 105.683C174.194 105.706 174.189 105.729 174.183 105.752C174.183 105.772 174.171 105.826 174.165 105.862C174.124 106.131 174.05 106.395 173.943 106.646C173.82 106.916 173.744 107.205 173.718 107.501C173.694 107.712 173.687 107.924 173.698 108.136L173.672 108.252C173.603 108.572 173.407 109.509 173.302 110.271C173.276 110.445 173.253 110.614 173.239 110.771C173.226 110.916 173.226 111.062 173.239 111.208C173.251 111.453 173.238 111.698 173.2 111.941C173.196 112.013 173.187 112.085 173.174 112.157C173.068 112.847 172.894 113.57 172.894 113.57L172.331 118.97V119.29C172.333 119.337 172.329 119.384 172.319 119.431C172.319 119.558 172.299 119.709 172.286 119.886C172.286 119.953 172.282 120.019 172.274 120.086C172.276 120.148 172.272 120.21 172.262 120.272V120.372C172.263 120.424 172.26 120.475 172.252 120.527C172.247 120.576 172.247 120.626 172.252 120.676V120.815C172.234 121.103 172.215 121.415 172.201 121.73V122.03C172.203 122.13 172.199 122.23 172.187 122.33V124.33C172.192 124.538 172.207 124.746 172.234 124.953C172.255 125.106 172.271 125.267 172.279 125.431V125.658C172.281 125.696 172.281 125.734 172.279 125.772V126.65C172.23 127.324 172.138 127.871 172.124 127.958V128.142C172.124 128.191 172.136 128.254 172.142 128.322V128.422C172.141 128.46 172.145 128.499 172.154 128.536C172.166 128.575 172.154 128.573 172.154 128.595C172.157 128.668 172.164 128.742 172.174 128.815C172.182 128.891 172.192 128.974 172.197 129.056L172.209 129.211C172.209 129.286 172.225 129.364 172.231 129.44V129.518C172.231 129.571 172.243 129.618 172.247 129.677L172.265 129.918C172.265 129.971 172.277 130.026 172.281 130.079C172.283 130.106 172.283 130.133 172.281 130.161L172.306 130.479C172.305 130.531 172.308 130.584 172.316 130.636C172.319 130.718 172.326 130.799 172.336 130.881C172.344 130.959 172.336 131.061 172.35 131.144C172.36 131.223 172.364 131.303 172.362 131.383C172.385 131.604 172.385 131.827 172.362 132.048C172.311 132.272 172.146 132.897 172.052 133.575C172.052 133.636 172.034 133.697 172.028 133.759C172.025 133.795 172.025 133.832 172.028 133.869L172.016 134.016C172.016 134.134 172.002 134.253 172.002 134.369C171.994 134.633 172.023 134.897 172.09 135.153C172.136 135.323 172.169 135.496 172.19 135.671C172.189 135.7 172.192 135.729 172.2 135.757C172.2 135.82 172.214 135.884 172.22 135.957C172.226 136.03 172.23 136.09 172.234 136.157C172.234 136.294 172.246 136.435 172.252 136.578V136.862C172.266 137.689 172.226 138.499 172.215 138.707V138.758C172.215 138.758 172.415 142.238 172.621 143.358C172.648 143.505 172.668 143.658 172.682 143.807C172.681 143.864 172.684 143.921 172.692 143.978C172.719 144.624 172.675 145.271 172.559 145.907C172.501 146.709 172.397 147.507 172.247 148.297C172.057 148.567 171.958 148.891 171.967 149.222V149.238C171.953 150.125 172.329 150.974 172.996 151.559L173.09 151.651L173.204 151.608C174.121 151.281 175.03 150.94 175.938 150.593C176.42 150.407 176.901 150.221 177.382 150.028C178.568 149.561 179.744 149.079 180.91 148.581C180.854 148.551 180.814 148.5 180.798 148.44C180.719 147.708 180.767 146.967 180.941 146.252C180.996 146.025 181.503 141.188 181.503 141.188C181.398 140.466 181.419 139.732 181.566 139.018C181.825 138.367 181.253 135.848 181.253 135.848C181.139 135.612 181.204 135.328 181.41 135.166C181.762 134.794 181.629 131.466 181.629 131.466C181.629 131.466 181.598 129.788 181.598 129.353C181.69 128.469 181.933 127.607 182.316 126.805C182.518 126.098 182.561 125.355 182.443 124.629L182.463 124.504C182.468 124.445 182.477 124.387 182.49 124.33L182.519 124.163C182.667 123.251 182.87 122.35 183.127 121.463C183.535 120.163 184.002 117.863 184.002 117.863L186.736 110.529L186.826 110.302L186.859 110.212C187.638 111.694 188.095 113.324 188.202 114.995C188.36 116.158 188.445 117.33 188.455 118.504C188.476 119.926 188.57 121.345 188.734 122.758C188.734 122.758 189.134 127.79 189.134 128.006C189.285 129.583 189.557 131.146 189.95 132.681C190.264 133.269 189.636 135.073 189.45 135.259C189.377 136.843 189.398 138.429 189.513 140.011C189.513 140.011 189.04 143.611 188.948 144.357C188.93 144.492 188.903 144.696 188.874 144.945C192.009 143.439 195.116 141.845 198.106 140.122C198.234 140.049 198.362 139.977 198.497 139.899L198.519 135.443C198.636 134.472 198.625 133.49 198.488 132.522C198.237 131.681 197.989 130.072 198.333 129.636C198.678 129.2 198.364 127.184 198.364 127.184C198.364 127.184 198.364 122.928 198.833 121.873C199.302 120.818 199.147 114.141 199.147 114.141L199.271 109.762C199.271 109.762 200.271 108.817 200.055 103.922V103.737C200.887 103.624 201.731 103.639 202.559 103.782C203.487 104.508 204.643 104.882 205.821 104.837C206.036 104.796 206.24 104.711 206.421 104.588C206.966 104.214 207.489 103.809 207.988 103.377L207.489 94.9997L207.436 94.0687C207.53 94.2117 207.612 94.3397 207.683 94.4607C207.882 94.7607 207.982 94.9407 207.982 94.9407C207.982 93.6407 211.672 89.4147 211.672 89.4147C212.977 87.6842 214.375 86.0254 215.859 84.4457C216.736 83.4361 217.482 82.3196 218.079 81.1227C218.296 80.5896 218.547 80.0709 218.83 79.5697C219.167 79.0097 218.036 77.5177 218.161 77.1767ZM207.159 83.1367C207.09 83.4454 206.947 83.7326 206.743 83.9737C206.727 83.7737 206.712 83.5957 206.696 83.3997V83.3487C206.474 81.2355 206.358 79.1125 206.349 76.9877C206.448 76.4605 206.492 75.9241 206.478 75.3877C206.492 74.6367 206.478 73.9217 206.478 73.9217L206.513 73.8727C207.144 75.4169 208.018 76.8504 209.102 78.1187C209.102 78.1187 209.447 79.1127 209.853 79.1437C210.258 79.1747 210.102 80.4437 210.102 80.4437C209.913 80.4752 209.732 80.5431 209.569 80.6437C209.376 80.755 209.191 80.88 209.016 81.0177C208.24 81.5693 207.604 82.295 207.159 83.1367Z" fill="url(#paint0_linear_721_1193)"/>
<path d="M159.989 79.7371C159.989 79.7371 161.129 73.7581 164.794 73.7271L167.474 79.243L165.675 80.4681C165.675 80.4681 161.799 80.5921 159.989 79.7371Z" fill="#65617D"/>
<path opacity="0.1" d="M167.466 79.2361L165.667 80.4691C164.096 80.5125 162.526 80.3811 160.984 80.0771C160.641 79.9973 160.306 79.8838 159.984 79.7381C159.986 79.704 159.993 79.6703 160.004 79.6381C160.004 79.6304 160.004 79.6227 160.004 79.6151C160.173 78.8634 160.405 78.1275 160.698 77.4151C160.81 77.1461 160.939 76.8701 161.076 76.5941C161.564 75.5216 162.377 74.6302 163.4 74.0461C163.781 73.8589 164.196 73.7501 164.621 73.7261H164.783L164.844 73.8481L165.75 75.7121L167.466 79.2361Z" fill="black"/>
<path d="M197.901 104.079C197.901 104.079 201.751 103.71 202.09 103.987C202.429 104.264 204.616 105.687 205.911 104.787C207.207 103.887 206.342 100.78 206.342 100.657C206.342 100.534 206.218 96.1267 206.218 96.1267L203.908 93.0137L201.009 87.5597L195.096 86.9717L195.249 95.6327L195.219 100.071L197.901 104.079Z" fill="#65617D"/>
<path opacity="0.1" d="M197.901 104.079C197.901 104.079 201.751 103.71 202.09 103.987C202.429 104.264 204.616 105.687 205.911 104.787C207.207 103.887 206.342 100.78 206.342 100.657C206.342 100.534 206.218 96.1267 206.218 96.1267L203.908 93.0137L201.009 87.5597L195.096 86.9717L195.249 95.6327L195.219 100.071L197.901 104.079Z" fill="black"/>
<path d="M164.015 73.5662C164.015 73.5662 163.715 77.3263 161.36 77.3853C160.824 77.0567 160.304 76.7009 159.805 76.3193C157.747 74.7803 154.485 71.8192 155.385 69.0662C156.679 65.1222 162.963 72.3993 162.963 72.3993L163.447 72.9403L164.015 73.5662Z" fill="#A5636D"/>
<path opacity="0.1" d="M164.015 73.5661C164.015 73.5661 163.715 77.3261 161.36 77.3851C160.824 77.0559 160.304 76.6995 159.805 76.3171L159.605 76.0601C160.002 76.2684 160.44 76.3869 160.888 76.4071C161.614 76.444 162.284 76.021 162.563 75.3502C162.809 74.8662 163.026 74.368 163.212 73.8582C163.323 73.5591 163.402 73.2489 163.447 72.9331L164.015 73.5661Z" fill="black"/>
<path d="M162.997 80.3761L162.47 79.6981L160.707 77.4141L159.792 76.2471C160.188 76.4545 160.626 76.5722 161.073 76.592C161.799 76.6298 162.47 76.2066 162.748 75.5351C162.995 75.0515 163.212 74.5533 163.397 74.0431C163.689 73.2121 163.683 72.7841 163.579 72.6431C163.94 72.9201 164.28 73.2229 164.598 73.5491L164.612 73.5611L164.781 73.722L164.846 73.847L165.737 75.6331V75.7071C165.819 76.2711 166.119 79.8661 162.997 80.3761Z" fill="#E7EFFD"/>
<path d="M180.881 148.546C180.825 148.498 180.763 148.457 180.697 148.424H180.681C180.312 148.269 180.65 146.358 180.712 146.111C180.774 145.864 181.267 141.096 181.267 141.096C181.167 140.379 181.189 139.65 181.33 138.94C181.384 137.885 181.28 136.827 181.02 135.803C180.914 135.568 180.977 135.291 181.175 135.125C181.513 134.754 181.391 131.457 181.391 131.457C181.391 131.457 181.362 129.795 181.362 129.357C181.45 128.48 181.689 127.625 182.069 126.83C182.27 126.129 182.312 125.393 182.193 124.674L182.211 124.549C182.221 124.504 182.229 124.449 182.239 124.377L182.268 124.212C182.272 124.17 182.28 124.128 182.29 124.087C182.308 123.987 182.327 123.887 182.349 123.765C182.361 123.694 182.374 123.62 182.39 123.545C182.435 123.31 182.49 123.051 182.545 122.786C182.563 122.704 182.582 122.619 182.602 122.537C182.622 122.455 182.649 122.337 182.675 122.237C182.691 122.176 182.704 122.117 182.722 122.057C182.767 121.877 182.816 121.702 182.869 121.536C183.261 120.236 183.734 117.96 183.734 117.96L186.596 110.436L186.629 110.346L186.719 110.52C187.441 111.942 187.861 113.498 187.952 115.09C188.109 116.244 188.191 117.407 188.199 118.572C188.219 119.984 188.312 121.393 188.477 122.795C188.477 122.795 188.868 127.786 188.868 128.002C189.015 129.572 189.283 131.127 189.668 132.656C189.786 133.537 189.613 134.432 189.174 135.205C189.101 136.777 189.122 138.352 189.237 139.922C189.237 139.922 188.774 143.496 188.68 144.235C188.66 144.411 188.621 144.707 188.581 145.07L188.817 144.958L188.85 144.94C191.986 143.434 195.092 141.84 198.082 140.117L198.107 135.391C198.221 134.427 198.211 133.452 198.078 132.491C197.833 131.66 197.584 130.056 197.921 129.623C198.257 129.19 197.954 127.19 197.954 127.19C197.954 127.19 197.954 122.967 198.414 121.921C198.875 120.875 198.724 114.246 198.724 114.246L198.846 109.902C198.846 109.902 199.852 108.943 199.614 103.941C199.589 103.408 199.549 102.829 199.494 102.198C199.323 100.31 199.151 98.598 198.994 97.121C198.98 96.994 198.967 96.868 198.953 96.747C198.937 96.582 198.918 96.42 198.902 96.261C198.865 95.926 198.829 95.604 198.794 95.298C198.782 95.208 198.772 95.12 198.763 95.031C198.713 94.5917 198.665 94.1866 198.62 93.816C198.604 93.671 198.585 93.528 198.569 93.393C198.543 93.193 198.52 93.001 198.498 92.819C198.495 92.7757 198.489 92.7326 198.48 92.69C198.477 92.6145 198.468 92.5393 198.453 92.465C198.353 91.665 198.29 91.228 198.29 91.228H198.263L195.165 91.255L188.403 91.32H188.203L184.675 91.353H184.459L182.766 91.371H182.478L178.951 91.404H178.737L177.288 97.375L174.331 104.156C174.331 104.156 174.286 104.899 174.183 105.624V105.667C174.185 105.691 174.181 105.716 174.171 105.738C174.161 105.774 174.155 105.811 174.153 105.848C174.112 106.177 174.028 106.5 173.904 106.807C173.804 107.021 173.737 107.249 173.704 107.483C173.665 107.731 173.65 107.983 173.659 108.234V108.275C173.659 108.275 173.424 109.343 173.286 110.253C173.261 110.427 173.237 110.596 173.223 110.753C173.196 110.943 173.187 111.135 173.196 111.327C173.207 111.523 173.199 111.72 173.174 111.915C173.17 111.988 173.162 112.06 173.149 112.131C173.049 112.852 172.859 113.66 172.859 113.66L172.302 119.024C172.303 119.03 172.303 119.036 172.302 119.042V119.266C172.304 119.313 172.3 119.361 172.29 119.407C172.29 119.534 172.27 119.685 172.257 119.862C172.257 119.929 172.253 119.996 172.245 120.062C172.247 120.124 172.243 120.186 172.233 120.248V120.348C172.234 120.4 172.231 120.452 172.223 120.503C172.218 120.553 172.218 120.602 172.223 120.652V120.791C172.207 121.079 172.188 121.391 172.174 121.707V122.007C172.176 122.107 172.172 122.207 172.16 122.307V124.318C172.163 124.537 172.178 124.756 172.207 124.973C172.227 125.118 172.242 125.267 172.252 125.42V126.639C172.203 127.313 172.111 127.86 172.097 127.947V128.131C172.097 128.18 172.109 128.243 172.115 128.311V128.411C172.114 128.449 172.118 128.488 172.127 128.525C172.139 128.564 172.127 128.562 172.127 128.584C172.127 128.655 172.139 128.727 172.147 128.804C172.155 128.881 172.163 128.963 172.17 129.045L172.182 129.2C172.182 129.274 172.198 129.353 172.204 129.429V129.507C172.204 129.56 172.216 129.607 172.22 129.666L172.238 129.907C172.238 129.96 172.25 130.015 172.254 130.068V130.15L172.28 130.468C172.279 130.521 172.282 130.573 172.29 130.625C172.29 130.707 172.302 130.792 172.31 130.87C172.318 130.948 172.31 131.05 172.324 131.133C172.334 131.212 172.338 131.292 172.336 131.372C172.356 131.586 172.356 131.801 172.336 132.015C172.207 132.526 172.105 133.043 172.03 133.564C172.03 133.625 172.012 133.686 172.006 133.748C172.003 133.785 172.003 133.821 172.006 133.858L171.994 134.005C171.994 134.123 171.98 134.242 171.98 134.358C171.976 134.607 172.005 134.856 172.068 135.097C172.122 135.311 172.158 135.528 172.176 135.748C172.192 135.873 172.202 136.007 172.209 136.14C172.216 136.273 172.221 136.418 172.227 136.562V136.846C172.239 137.777 172.188 138.667 172.188 138.667C172.188 138.675 172.188 138.683 172.188 138.691V138.707C172.208 139.099 172.388 142.191 172.58 143.23C172.614 143.414 172.637 143.6 172.649 143.787C172.648 143.844 172.651 143.901 172.659 143.958C172.673 144.561 172.627 145.164 172.52 145.758C172.439 146.562 172.312 147.362 172.14 148.152C171.93 148.468 171.832 148.846 171.865 149.224V149.24C171.897 150.067 172.264 150.845 172.881 151.396L173.101 151.616C174.018 151.289 174.927 150.947 175.835 150.6C176.317 150.414 176.798 150.228 177.279 150.035C178.465 149.568 179.641 149.086 180.807 148.588L180.881 148.546Z" fill="#3F3D56"/>
<path d="M197.039 55.936L192.476 60.8079C192.476 60.8079 186.624 58.456 187.24 57.671C187.469 56.9009 187.49 56.0841 187.303 55.303C187.087 53.596 186.625 51.629 186.625 51.629C186.625 51.629 196.852 49.9649 195.988 51.6919C195.712 52.3423 195.689 53.0724 195.923 53.7389C196.176 54.5261 196.553 55.2678 197.039 55.936Z" fill="#A5636D"/>
<path opacity="0.1" d="M195.991 51.6839C195.677 52.3129 195.526 52.3739 195.723 53.0559C194.386 54.4909 192.685 56.0609 190.571 56.0609C189.438 56.0628 188.32 55.8009 187.306 55.2959C187.09 53.5889 186.628 51.6219 186.628 51.6219C186.628 51.6219 196.854 49.9569 195.991 51.6839Z" fill="black"/>
<path d="M197.903 48.541C197.933 51.1822 196.543 53.636 194.261 54.9655C191.98 56.2951 189.16 56.2951 186.879 54.9655C184.598 53.636 183.207 51.1822 183.238 48.541C183.238 48.5057 183.238 48.4703 183.238 48.435C183.257 45.8145 184.672 43.4031 186.95 42.1092C189.228 40.8153 192.022 40.8356 194.282 42.1622C196.541 43.4889 197.921 45.9205 197.902 48.541H197.903Z" fill="#A5636D"/>
<path opacity="0.1" d="M198.963 96.9302C197.984 96.9302 194.758 96.9653 191.144 97.0223H191.099L189.906 97.0422H189.869C185.584 97.1112 181.361 96.2743 179.665 96.4323C176.06 96.7713 180.959 93.0992 180.959 93.0992C183.645 93.7511 186.407 94.0307 189.169 93.9302L190.206 93.8752C192.994 93.8015 195.768 93.4633 198.492 92.8652C198.612 93.8232 198.786 95.2092 198.963 96.9302Z" fill="black"/>
<path d="M198.963 96.7447C197.984 96.7447 194.758 96.7777 191.144 96.8367H191.099L189.906 96.8567H189.869C185.584 96.9257 181.361 96.0887 179.665 96.2467C176.06 96.5837 180.959 92.9137 180.959 92.9137C183.645 93.5655 186.407 93.8444 189.169 93.7427L190.206 93.6897C192.994 93.615 195.768 93.2768 198.492 92.6797C198.612 93.6377 198.786 95.0277 198.963 96.7447Z" fill="#5F5D7E"/>
<path opacity="0.1" d="M188.592 57.9772L182.924 60.6273L178.552 94.4592C178.552 94.4592 181.139 93.2833 182.618 94.0283C184.097 94.7733 188.655 94.0912 188.655 94.0912C188.655 94.0912 191.987 93.8913 192.475 94.2753C192.963 94.6593 198.761 92.7343 198.761 92.7343C198.761 92.7343 199.808 90.3913 199.006 90.0233C198.204 89.6553 199.253 86.0103 199.253 86.0103L198.761 61.6022L197.782 58.4653L195.133 56.8652L192.423 59.0212L191.129 59.2073L188.592 57.9772Z" fill="black"/>
<path d="M188.592 57.601L182.926 60.251L178.553 94.0909C178.553 94.0909 181.14 92.915 182.619 93.66C184.098 94.405 188.656 93.7209 188.656 93.7209C188.656 93.7209 191.988 93.537 192.476 93.905C192.964 94.273 198.762 92.364 198.762 92.364C198.762 92.364 199.809 90.023 199.007 89.653C198.205 89.283 199.254 85.6459 199.254 85.6459L198.762 61.238L197.783 58.101L195.134 56.501L192.424 58.6569L191.13 58.8409L188.592 57.601Z" fill="#E7EFFD"/>
<path opacity="0.1" d="M188.508 59.1727C188.508 59.1727 190.142 61.1137 190.107 61.5157C190.072 61.9177 190.015 62.8707 190.015 62.8707L188.792 65.3707C188.792 65.3707 188.115 68.4837 188.115 69.1307C188.115 69.7777 187.037 75.3857 187.037 75.3857L185.744 84.0117L184.109 95.3197L185.773 98.1857L187.744 96.5217L190.36 76.3697L190.915 72.3937C190.915 72.3937 191.502 65.2447 191.502 64.5057C191.437 63.6063 191.324 62.711 191.163 61.8237C191.41 60.7569 192.192 59.894 193.229 59.5437C194.892 59.1127 193.105 59.4497 193.105 59.4497L192.15 58.6797L191.317 59.0187C191.317 59.0187 188.998 58.3097 188.508 59.1727Z" fill="black"/>
<path d="M188.321 58.9891C188.321 58.9891 189.953 60.9301 189.92 61.3301C189.887 61.7301 189.826 62.6871 189.826 62.6871L188.594 65.1871C188.594 65.1871 187.916 68.2981 187.916 68.9451C187.916 69.5921 186.838 75.2021 186.838 75.2021L185.539 83.8281L183.913 95.1342L185.577 98.0001L187.548 96.3361L190.164 76.1851L190.719 72.2091C190.719 72.2091 191.306 65.0602 191.306 64.3192C191.242 63.4204 191.129 62.5258 190.968 61.6392C191.209 60.57 191.991 59.7046 193.031 59.3571C194.702 58.9261 192.909 59.2651 192.909 59.2651L191.952 58.4951L191.121 58.8341C191.121 58.8341 188.811 58.1251 188.321 58.9891Z" fill="#ED1D55"/>
<path opacity="0.1" d="M187.243 55.752C187.243 55.752 186.996 55.9359 186.935 57.1689C186.739 58.5281 186.43 59.8685 186.011 61.176C186.011 61.176 189.214 58.9569 190.818 59.2039L187.243 55.752Z" fill="black"/>
<path d="M187.243 55.3818C187.243 55.3818 186.996 55.5678 186.935 56.7988C186.739 58.1579 186.43 59.4983 186.011 60.8058C186.011 60.8058 189.214 58.5868 190.818 58.8338L187.243 55.3818Z" fill="#E7EFFD"/>
<path opacity="0.1" d="M195.993 54.7661L190.949 59.2041C192.607 60.1611 194.212 61.2084 195.756 62.3411C196.31 62.9511 196.865 56.3011 196.865 56.3011L195.993 54.7661Z" fill="black"/>
<path d="M196.177 54.396L191.126 58.834C192.783 59.7911 194.387 60.8383 195.931 61.971C196.485 62.581 197.04 55.929 197.04 55.929L196.177 54.396Z" fill="#E7EFFD"/>
<path opacity="0.1" d="M187.419 55.7517C187.419 55.7517 186.864 55.4738 186.342 56.2748C185.957 56.799 185.435 57.2061 184.833 57.4507C184.833 57.4507 179.224 58.3447 179.01 59.0837L176.392 59.2367C176.392 59.2367 175.467 59.3488 175.38 61.3088C175.293 63.2688 174.792 63.4338 174.792 63.4338C174.265 64.3204 173.931 65.3087 173.813 66.3337C173.84 66.9456 173.517 67.5198 172.98 67.8138L176.838 77.8197C176.838 77.8197 176.961 81.9498 176.251 83.4598C175.54 84.9698 174.217 91.6598 174.217 91.6598C174.217 91.6598 174.771 91.5367 174.739 91.9067C174.707 92.2767 174.062 96.3138 174.062 96.3138C173.988 97.0501 173.823 97.7744 173.57 98.4698C173.33 99.6044 173.216 100.762 173.231 101.922L172.723 104.022C172.723 104.022 173.899 106.641 175.682 106.271C177.465 105.901 180.702 98.9057 180.702 98.9057L182.765 91.3567L184.364 83.8977L184.827 78.8437L185.566 67.6557L186.643 60.2557C186.643 60.2557 187.859 56.2757 187.419 55.7517Z" fill="black"/>
<path d="M187.242 55.3819C187.242 55.3819 186.687 55.1059 186.165 55.9069C185.78 56.4314 185.257 56.8386 184.654 57.0829C184.654 57.0829 179.048 57.9769 178.833 58.7159L176.215 58.8709C176.215 58.8709 175.29 58.9949 175.198 60.9349C175.106 62.8749 174.61 63.0619 174.61 63.0619C174.084 63.9489 173.75 64.9371 173.631 65.9619C173.659 66.5729 173.337 67.1465 172.8 67.4399L176.645 77.4499C176.645 77.4499 176.768 81.5799 176.057 83.0899C175.346 84.5999 174.025 91.2899 174.025 91.2899C174.025 91.2899 174.579 91.1659 174.547 91.5369C174.515 91.9079 173.87 95.9439 173.87 95.9439C173.796 96.6803 173.631 97.4046 173.378 98.0999C173.138 99.2345 173.024 100.392 173.039 101.552L172.549 103.657C172.549 103.657 173.725 106.276 175.506 105.907C177.287 105.538 180.528 98.5399 180.528 98.5399L182.591 90.9909L184.19 83.5419L184.651 78.4879L185.392 67.3019L186.469 59.9019C186.469 59.9019 187.674 55.9109 187.242 55.3819Z" fill="#65617D"/>
<path opacity="0.1" d="M167.465 79.2361L165.666 80.4691C164.095 80.5125 162.525 80.381 160.983 80.0771L159.984 79.636L159.784 79.5481L159.99 79.6131C160.782 79.897 161.644 79.9277 162.455 79.701C164.985 78.85 164.704 74.6731 164.61 73.7281C164.609 73.6682 164.603 73.6085 164.59 73.55C164.589 73.5461 164.589 73.5421 164.59 73.5381L164.606 73.5611C164.639 73.6188 164.678 73.6733 164.722 73.7241C164.757 73.7664 164.795 73.8065 164.836 73.8441L165.727 75.6301V75.704L167.465 79.2361Z" fill="black"/>
<path d="M173.658 67.1909L172.795 67.4379L172.671 69.202C172.026 69.1378 171.449 69.6057 171.378 70.251C171.258 70.8898 170.995 71.493 170.608 72.015C170.608 72.015 168.909 73.432 168.821 74.634L167.772 75.2809C167.772 75.2809 165.338 74.7259 164.784 73.7399C164.784 73.7399 165.893 81.6909 159.979 79.7499C159.979 79.7499 166.602 82.6499 166.91 83.0499C168.069 84.0528 169.708 84.2829 171.099 83.6379C172.152 83.1251 172.96 82.2169 173.348 81.111C174.027 80.1975 174.644 79.2401 175.196 78.2449C175.257 77.8739 176.645 77.4449 176.645 77.4449L179.293 71.0369L173.658 67.1909Z" fill="#65617D"/>
<path opacity="0.1" d="M195.284 58.4659L196.177 54.3979C196.333 54.9898 196.605 55.5448 196.977 56.0309C197.387 56.3389 198.301 57.048 198.301 57.048C198.869 57.3265 199.469 57.5341 200.087 57.666C201.221 57.8166 202.324 58.1474 203.353 58.6459C203.661 58.9789 204.894 58.738 204.894 58.738C204.894 58.738 205.91 59.077 206.804 59.293C207.698 59.509 208.128 60.9929 207.942 61.5729C207.791 62.1648 207.954 62.7928 208.373 63.2369C208.667 63.7143 208.856 64.2488 208.928 64.8049C209.382 64.9527 209.759 65.2742 209.977 65.699C210.174 66.3995 210.247 67.1291 210.192 67.8549L205.603 74.324C205.644 75.3423 205.603 76.3623 205.479 77.374C205.296 77.929 206.126 87.3599 206.126 87.3599L207.081 103.57C206.591 103.999 206.076 104.4 205.54 104.77C205.263 104.894 204.986 99.038 204.986 98.822C204.986 98.606 197.871 88.158 197.871 88.158C197.483 87.5685 197.163 86.938 196.914 86.278C196.914 85.939 196.02 82.8279 196.02 82.8279L194.67 76.8279L195.284 58.4659Z" fill="black"/>
<path d="M210.575 67.5107C210.575 67.7227 210.563 67.8638 210.563 67.8638L205.976 74.3328C206.018 75.3517 205.977 76.3724 205.854 77.3848C205.746 77.7068 205.981 81.0228 206.199 83.7458C206.354 85.7058 206.499 87.3688 206.499 87.3688L206.899 94.2458L207.448 103.581C206.958 104.009 206.444 104.41 205.909 104.781C205.633 104.905 205.355 99.0487 205.355 98.8307C205.355 98.6127 198.234 88.1648 198.234 88.1648C197.847 87.5745 197.527 86.9433 197.279 86.2828C197.279 85.9438 196.385 82.8307 196.385 82.8307L195.031 76.8228L195.647 58.4537L196.169 54.3857C196.497 54.9737 196.891 55.5217 197.345 56.0187C197.751 56.3247 198.667 57.0358 198.667 57.0358C199.235 57.3142 199.836 57.5215 200.455 57.6528C201.589 57.8034 202.691 58.1342 203.721 58.6328C204.031 58.9658 205.262 58.7248 205.262 58.7248C205.262 58.7248 206.277 59.0638 207.17 59.2798C208.062 59.4958 208.494 60.9798 208.31 61.5598C208.158 62.1516 208.321 62.7802 208.741 63.2238C209.035 63.7014 209.224 64.2358 209.296 64.7917C209.749 64.9401 210.126 65.2614 210.344 65.6858C210.527 66.276 210.605 66.8936 210.575 67.5107Z" fill="#65617D"/>
<path opacity="0.1" d="M177.285 150.022C176.805 150.222 176.323 150.4 175.841 150.587C174.33 150.146 172.919 149.626 172.919 149.626C174.381 149.68 175.838 149.813 177.285 150.026V150.022Z" fill="black"/>
<path opacity="0.1" d="M191.864 133.569C191.864 133.569 195.531 134.432 195.746 135.018L191.864 133.569Z" fill="black"/>
<path opacity="0.1" d="M177.724 136.219C177.724 136.219 175.813 136.774 177.663 137.883C179.513 138.992 177.724 136.219 177.724 136.219Z" fill="black"/>
<path opacity="0.1" d="M186.195 106.594C186.41 106.594 189.769 105.485 190.939 105.978C191.777 106.291 192.663 106.458 193.558 106.47L186.195 106.594Z" fill="black"/>
<path opacity="0.1" d="M186.638 110.123L186.605 110.429L183.733 117.945C183.733 117.945 183.27 120.225 182.868 121.519C182.616 122.398 182.416 123.292 182.268 124.195L184.815 108.422L186.638 110.123Z" fill="black"/>
<path d="M191.1 96.8373L189.906 96.8573H189.869L189.169 93.7503C189.512 93.7343 189.859 93.7173 190.206 93.6953L191.1 96.8373Z" fill="#3F3D56"/>
<path d="M205.633 93.0669L204.867 93.6999L202.314 95.8109C202.314 95.8109 195.383 99.5109 193.475 95.9949C191.791 92.8949 199.649 90.6949 201.542 90.2079C201.799 90.1429 201.942 90.1079 201.942 90.1079L205.633 93.0669Z" fill="#A5636D"/>
<path opacity="0.1" d="M176.031 62.7783C176.031 62.7783 177.386 63.3963 177.693 64.2583C178 65.1203 176.031 62.7783 176.031 62.7783Z" fill="black"/>
<path opacity="0.1" d="M171.84 72.0249C171.84 72.0249 169.868 74.4249 170.664 75.3579C171.46 76.2909 171.84 72.0249 171.84 72.0249Z" fill="black"/>
<path opacity="0.1" d="M207.082 64.1348C207.082 64.1348 205.233 64.3188 205.171 65.9228L207.082 64.1348Z" fill="black"/>
<path opacity="0.1" d="M189.953 89.406C190.153 89.222 194.389 82.937 195.375 83.49L189.953 89.406Z" fill="black"/>
<path opacity="0.1" d="M197.903 48.5399C197.904 49.7479 197.606 50.9374 197.035 52.0019H196.982C196.517 51.9019 196.276 51.3629 195.921 51.0219C195.474 50.5966 194.805 50.503 194.258 50.7889C193.707 51.118 193.391 51.7312 193.442 52.3709C193.207 51.3909 193.281 50.3339 193.05 49.3459C192.819 48.3579 192.131 47.3559 191.186 47.3389C190.779 47.3389 190.305 47.4899 190.011 47.1839C189.833 46.9999 189.797 46.7099 189.664 46.4839C188.988 45.3919 186.934 45.9449 186.096 46.5059C185.196 47.2248 184.242 47.8718 183.241 48.4409C183.27 44.3899 186.576 41.1296 190.626 41.1589C194.675 41.1882 197.934 44.4959 197.905 48.5469L197.903 48.5399Z" fill="black"/>
<path d="M189.663 46.2911C189.796 46.5141 189.832 46.8051 190.01 46.9911C190.304 47.2911 190.778 47.138 191.185 47.146C192.13 47.162 192.82 48.163 193.049 49.151C193.278 50.139 193.204 51.1901 193.441 52.1761C193.391 51.5368 193.708 50.9246 194.258 50.596C194.805 50.3098 195.473 50.4035 195.919 50.829C196.274 51.166 196.507 51.7071 196.982 51.8091C197.457 51.9111 197.896 51.4601 198.064 50.9701C198.182 50.464 198.27 49.9515 198.328 49.435C198.657 48.5203 199.049 47.63 199.504 46.771C199.917 45.659 199.906 44.4335 199.473 43.329C199.242 42.741 198.899 42.229 198.663 41.651C198.31 40.773 198.216 39.783 197.786 38.946C197.069 37.5473 195.44 36.8812 193.949 37.378C193.28 37.631 192.697 38.1191 192.017 38.3371C191.083 38.529 190.117 38.5088 189.191 38.2781C188.25 38.05 187.257 38.2224 186.447 38.7541C185.576 39.4681 185.336 40.8081 184.517 41.5931C184.172 41.9221 183.746 42.1321 183.383 42.4361C182.984 42.7284 182.749 43.1928 182.748 43.6871C182.803 44.3261 183.428 44.9061 183.197 45.4961C183.114 45.6678 182.997 45.8211 182.854 45.9471C182.168 46.6674 181.658 47.5363 181.363 48.4861C183.013 49.0021 184.796 47.1861 186.087 46.3301C186.935 45.7551 188.989 45.2001 189.663 46.2911Z" fill="#4C3E42"/>
<path opacity="0.1" d="M205.633 93.067L204.868 93.7C203.841 92.4533 202.684 91.3208 201.415 90.322L201.535 90.2059C201.792 90.1409 201.935 90.106 201.935 90.106L205.633 93.067Z" fill="black"/>
<path d="M206.374 91.9319C206.374 91.9319 206.098 92.618 205.813 93.212C205.528 93.806 205.226 94.3429 205.202 93.9059C205.171 93.0409 201.598 90.1439 201.598 90.1439L202.082 89.674L202.645 89.127L206.374 91.9319Z" fill="#E7EFFD"/>
<path opacity="0.1" d="M206.497 87.3711L206.897 94.248C205.94 92.76 203.312 88.9481 201.624 89.0671L205.722 84.3671C205.894 84.1787 206.051 83.9782 206.193 83.7671C206.35 85.7141 206.497 87.3711 206.497 87.3711Z" fill="black"/>
<path opacity="0.1" d="M206.374 91.9319C206.374 91.9319 206.098 92.618 205.813 93.212C204.74 91.738 203.265 89.999 202.09 89.674L202.653 89.127L206.374 91.9319Z" fill="black"/>
<path d="M209.455 66.9951L210.564 67.8582C210.564 67.8582 212.413 67.8891 212.596 69.4261C212.825 70.4347 213.524 71.2718 214.476 71.6761C214.476 71.6761 215.739 72.9391 215.739 73.5251C215.739 74.1111 216.694 75.1581 216.694 75.2501C216.694 75.3421 217.618 77.2222 217.493 77.5612C217.368 77.9002 218.473 79.3801 218.14 79.9351C217.862 80.4328 217.615 80.9475 217.401 81.4761C216.815 82.6648 216.079 83.7737 215.212 84.7761C213.748 86.343 212.37 87.9888 211.085 89.7061C211.085 89.7061 207.451 93.8971 207.451 95.1951C207.451 95.1951 203.908 89.2771 201.813 89.4321L205.911 84.7171C205.911 84.7171 206.619 83.9471 206.65 83.4841C206.681 83.0211 208.621 80.8941 209.549 80.8021C209.549 80.8021 209.702 79.5381 209.302 79.5081C208.902 79.4781 208.563 78.4911 208.563 78.4911C208.563 78.4911 205.851 75.2862 205.82 73.2512C205.789 71.2162 209.455 66.9951 209.455 66.9951Z" fill="#65617D"/>
<path opacity="0.1" d="M211.087 69.9351C211.087 69.9351 208.497 71.8441 209.052 72.4621C209.607 73.0801 211.087 69.9351 211.087 69.9351Z" fill="black"/>
<path opacity="0.1" d="M211.21 77.8167C211.21 77.8167 216.015 76.2757 216.501 77.8167H211.21Z" fill="black"/>
<path opacity="0.1" d="M177.309 69.5591C177.309 69.5591 177.309 76.5851 176.709 77.2791C176.109 77.9731 177.309 69.5591 177.309 69.5591Z" fill="black"/>
<path opacity="0.1" d="M205.079 71.8232L205.973 74.3342C205.973 74.3342 206.328 71.8702 205.079 71.8232Z" fill="black"/>
<g opacity="0.1">
<path d="M183.307 44.8861C183.532 44.3081 182.942 43.7411 182.864 43.1221C182.786 43.2968 182.751 43.488 182.764 43.6791C182.803 44.1481 183.156 44.5791 183.24 45.0161C183.266 44.9749 183.289 44.9314 183.307 44.8861Z" fill="black"/>
<path d="M193.522 51.5241C193.3 50.5441 193.365 49.5241 193.142 48.5521C192.919 47.5801 192.223 46.5601 191.278 46.5451C190.871 46.5451 190.397 46.6941 190.103 46.3901C189.925 46.2061 189.889 45.9161 189.756 45.6901C189.082 44.5981 187.028 45.1511 186.188 45.7121C184.928 46.5491 183.198 48.3021 181.581 47.9061C181.504 48.0921 181.432 48.2801 181.371 48.4741C183.021 48.9901 184.804 47.1741 186.095 46.3181C186.935 45.7591 188.986 45.2051 189.663 46.2981C189.796 46.5211 189.832 46.8121 190.01 46.9981C190.304 47.2981 190.778 47.1451 191.186 47.1531C192.13 47.1691 192.82 48.1701 193.049 49.1581C193.278 50.1461 193.204 51.1971 193.441 52.1831C193.423 51.9603 193.451 51.7362 193.522 51.5241Z" fill="black"/>
<path d="M198.153 50.368C197.984 50.858 197.545 51.307 197.071 51.207C196.597 51.107 196.365 50.568 196.011 50.227C195.562 49.803 194.894 49.7102 194.347 49.996C193.824 50.3079 193.512 50.8792 193.531 51.488C193.654 51.1116 193.912 50.794 194.255 50.596C194.802 50.3098 195.47 50.4035 195.917 50.829C196.271 51.166 196.504 51.707 196.979 51.809C197.454 51.911 197.893 51.46 198.061 50.97C198.148 50.6814 198.204 50.3845 198.23 50.084C198.209 50.18 198.184 50.2748 198.154 50.368H198.153Z" fill="black"/>
<path d="M199.603 46.1703C199.139 47.0244 198.746 47.9147 198.427 48.8323C198.384 49.0323 198.36 49.2243 198.337 49.4203C198.665 48.5087 199.058 47.6218 199.513 46.7663C199.667 46.3558 199.763 45.9255 199.797 45.4883C199.75 45.7204 199.685 45.9484 199.603 46.1703Z" fill="black"/>
</g>
<path d="M155.083 69.4082C155.635 69.4082 156.083 68.9605 156.083 68.4082C156.083 67.8559 155.635 67.4082 155.083 67.4082C154.531 67.4082 154.083 67.8559 154.083 68.4082C154.083 68.9605 154.531 69.4082 155.083 69.4082Z" fill="#E6E8EC"/>
<path d="M93.5013 111.422C94.7895 110.534 96.4237 110.316 97.8995 110.834C97.8995 110.834 97.2728 112.163 94.4899 112.146L93.5013 111.422Z" fill="#6C63FF"/>
<path d="M93.2325 111.513C92.9221 113.044 93.3587 114.631 94.4085 115.788C94.4085 115.788 95.3885 114.688 94.2775 112.136L93.2325 111.513Z" fill="#6C63FF"/>
<path d="M90.3756 109.152C90.3756 109.152 90.4556 106.962 95.4115 107.498C95.3714 108.483 94.7223 109.338 93.7852 109.641C92.6679 110.263 91.2733 110.063 90.3756 109.152Z" fill="#6C63FF"/>
<path d="M90.0718 109.143C90.0718 109.143 88.0146 109.892 90.0478 114.443C90.9731 114.103 91.587 113.22 91.5841 112.234C91.825 110.982 91.2082 109.721 90.0718 109.143Z" fill="#6C63FF"/>
<path d="M87.164 106.159C87.164 106.159 86.7442 102.577 91.796 102.752C91.796 102.752 92.2778 105.991 88.0866 106.988L87.164 106.159Z" fill="#6C63FF"/>
<path d="M83.6794 102.23C83.6794 102.23 84.2142 98.1299 89.2951 99.1519C89.2951 99.1519 89.448 102.681 84.5371 103.169L83.6794 102.23Z" fill="#6C63FF"/>
<path d="M87.024 106.137C87.024 106.137 83.4345 105.808 83.7344 110.854C83.7344 110.854 86.983 111.246 87.8767 107.039L87.024 106.137Z" fill="#6C63FF"/>
<path d="M83.5055 102.101C83.5055 102.101 79.3772 102.246 79.907 107.394C79.907 107.394 83.3946 107.88 84.3532 103.038L83.5055 102.101Z" fill="#6C63FF"/>
<path d="M81.0605 98.4672C81.0605 98.4672 77.2451 96.8522 75.021 101.48C75.021 101.48 78.5385 102.813 81.4183 99.1863L81.0605 98.4672Z" fill="#6C63FF"/>
<path d="M78.5386 94.163C78.5386 94.163 74.6293 92.44 72.5461 96.963C72.5461 96.963 76.5964 98.186 78.8815 94.858L78.5386 94.163Z" fill="#6C63FF"/>
<path d="M77.0332 90.3979C77.0332 90.3979 73.2058 87.0109 70.396 90.6919C70.396 90.6919 74.2794 93.4499 77.2331 91.1759L77.0332 90.3979Z" fill="#6C63FF"/>
<path d="M75.6108 85.5151C75.6108 85.5151 71.7564 82.0471 68.9776 85.9341C68.9776 85.9341 73.2608 88.7341 75.7748 86.2651L75.6108 85.5151Z" fill="#6C63FF"/>
<g opacity="0.686">
<path d="M71.7014 58.1731L71.4935 58.2081C70.1021 49.8671 68.3578 44.9721 66.5656 44.4271L66.6265 44.2271C68.5247 44.8031 70.275 49.6281 71.7014 58.1731Z" fill="#B40031"/>
<path d="M74.0405 78.1567L73.7286 78.1957C73.6286 77.4117 73.5527 76.6157 73.4857 75.8197C72.9209 68.8917 72.2142 62.5387 71.4225 57.7847L71.5955 57.5537C72.3791 62.3157 73.2358 68.8537 73.8016 75.7847C73.8645 76.5867 73.9465 77.3847 74.0405 78.1567Z" fill="#B40031"/>
</g>
<g opacity="0.687">
<path d="M81.0875 98.1292C81.0875 98.1292 82.0871 94.1102 87.125 95.1162C87.125 95.1162 86.0744 98.7272 81.4424 98.8412L81.0875 98.1292Z" fill="#B40031"/>
<path d="M78.6206 94.122C78.6206 94.122 79.6002 89.962 84.4542 91.015C84.4542 91.015 82.9968 94.987 78.9675 94.815L78.6206 94.122Z" fill="#B40031"/>
<path d="M76.9802 90.29C76.9802 90.29 77.6559 85.226 82.194 86.163C82.194 86.163 81.0655 90.793 77.3421 91.009L76.9802 90.29Z" fill="#B40031"/>
<path d="M75.4049 85.6424C75.4049 85.6424 76.2536 80.5274 80.8486 81.8294C80.8486 81.8294 79.2493 86.6934 75.7508 86.3384L75.4049 85.6424Z" fill="#B40031"/>
<path d="M74.3724 81.3049C74.3724 81.3049 75.8338 76.1669 79.3533 76.1689C79.3533 76.1689 77.8639 81.5929 74.7052 82.3109L74.3724 81.3049Z" fill="#B40031"/>
<path d="M73.6606 77.0529C73.6606 77.0529 75.228 70.8759 78.1048 71.2369C78.1048 71.2369 77.0372 75.9539 73.7936 77.9999L73.6606 77.0529Z" fill="#B40031"/>
<path d="M73.1528 71.966C73.1528 71.966 74.6462 66.81 77.464 66.501C77.464 66.501 76.5054 71.553 73.2658 73.286L73.1528 71.966Z" fill="#B40031"/>
<path d="M72.6301 67.2331C72.6301 67.2331 74.5403 62.0581 76.4025 61.8711C76.4025 61.8711 75.6798 66.9231 72.848 68.0621L72.6301 67.2331Z" fill="#B40031"/>
<path d="M72.2263 62.821C72.2263 62.821 73.3098 57.236 75.154 56.707C75.154 56.707 75.0741 61.243 72.4302 63.227L72.2263 62.821Z" fill="#B40031"/>
<path d="M71.3036 57.0641C71.3036 57.0641 72.4972 52.6001 73.9805 51.8711C73.9805 51.8711 73.8806 57.0821 71.6955 58.1281L71.3036 57.0641Z" fill="#B40031"/>
<path d="M70.5762 53.2861L70.0042 45.5171C70.0042 45.5171 73.0442 51.2801 70.8292 54.6441L70.5762 53.2861Z" fill="#B40031"/>
<path d="M68.101 45.6393C68.101 45.6393 65.8549 40.0393 65.3571 39.7393C65.3571 39.7393 69.4724 43.2683 69.2765 48.0253L68.101 45.6393Z" fill="#B40031"/>
<path d="M74.7482 81.1424C74.7482 81.1424 71.7125 76.7424 68.3839 77.8804C68.3839 77.8804 71.5345 82.5384 74.7562 82.1934L74.7482 81.1424Z" fill="#B40031"/>
<path d="M73.7436 77.0223C73.7436 77.0223 70.6449 71.4553 67.9531 72.5453C67.9531 72.5453 70.1991 76.8283 73.8506 77.9733L73.7436 77.0223Z" fill="#B40031"/>
<path d="M73.3398 71.6693C73.3398 71.6693 70.2041 67.3153 67.4492 67.9693C67.4492 67.9693 70.0481 72.4053 73.6766 72.9523L73.3398 71.6693Z" fill="#B40031"/>
<path d="M72.94 67.1208C72.94 67.1208 70.451 62.1968 68.5798 62.2208C68.5798 62.2208 69.8792 67.1568 72.816 67.9668L72.94 67.1208Z" fill="#B40031"/>
<path d="M72.3152 62.7081C72.3152 62.7081 69.5724 57.7291 67.6472 57.7931C67.6472 57.7931 69.1205 62.0841 72.2452 63.1581L72.3152 62.7081Z" fill="#B40031"/>
<path d="M71.7244 57.3584C71.7244 57.3584 69.6533 53.2294 68.054 52.8164C68.054 52.8164 69.2045 57.8994 71.5575 58.4814L71.7244 57.3584Z" fill="#B40031"/>
<path d="M70.3441 53.1472L65.825 46.8032C65.825 46.8032 67.1654 53.1782 71.0138 54.3602L70.3441 53.1472Z" fill="#B40031"/>
<path d="M67.1434 46.2C67.1434 46.2 62.0455 42.963 61.8526 42.418C61.8526 42.418 64.5685 47.118 69.2795 47.787L67.1434 46.2Z" fill="#B40031"/>
<path d="M66.7865 44.6741C66.7865 44.6741 60.88 39.4141 59.4266 39.4741C62.5941 39.7227 65.4163 41.57 66.9124 44.3741L66.7865 44.6741Z" fill="#B40031"/>
<path d="M99.5049 115.19C95.1996 113.237 91.2659 110.551 87.8787 107.251C84.3921 103.937 81.4522 100.092 79.1684 95.8573C76.2423 90.145 74.375 83.9496 73.6567 77.5713L73.9895 77.7123C75.1903 88.7986 80.1963 99.1255 88.1546 106.933C91.5062 110.2 95.3977 112.862 99.6568 114.8L99.5049 115.19Z" fill="#B40031"/>
</g>
<g opacity="0.7">
<path d="M103.406 108.796C104.898 108.334 106.521 108.61 107.776 109.539C107.776 109.539 106.783 110.623 104.132 109.776L103.406 108.796Z" fill="#ED1D55"/>
<path d="M103.123 108.8C102.371 110.17 102.317 111.817 102.978 113.234C102.978 113.234 104.238 112.475 103.939 109.705L103.123 108.8Z" fill="#ED1D55"/>
<path d="M101.096 105.699C101.096 105.699 101.825 103.631 106.387 105.619C106.056 106.548 105.182 107.174 104.196 107.187C102.945 107.447 101.676 106.838 101.096 105.699Z" fill="#ED1D55"/>
<path d="M100.81 105.614C100.81 105.614 98.6212 105.714 99.211 110.67C100.194 110.618 101.041 109.96 101.333 109.019C101.943 107.896 101.729 106.503 100.81 105.614Z" fill="#ED1D55"/>
<path d="M98.9191 101.889C98.9191 101.889 99.5858 98.3447 104.355 100.015C104.355 100.015 103.855 103.25 99.5568 102.956L98.9191 101.889Z" fill="#ED1D55"/>
<path d="M96.762 97.0973C96.762 97.0973 98.4922 93.3433 103.032 95.8313C103.032 95.8313 102.133 99.2363 97.2967 98.2483L96.762 97.0973Z" fill="#ED1D55"/>
<path d="M95.5054 92.4088C95.5054 92.4088 97.6605 88.8708 102.168 91.3288C102.168 91.3288 100.091 94.4658 95.6344 93.2028L95.5054 92.4088Z" fill="#ED1D55"/>
<path d="M94.3439 87.849C94.3439 87.849 96.511 84.167 100.841 86.618C100.841 86.618 98.2683 89.976 94.4689 88.61L94.3439 87.849Z" fill="#ED1D55"/>
<path d="M93.9182 83.6971C93.9182 83.6971 96.0733 79.0611 100.116 81.3091C100.116 81.3091 97.6606 85.3921 94.0411 84.4911L93.9182 83.6971Z" fill="#ED1D55"/>
<path d="M93.7952 78.7958C93.7952 78.7958 96.1272 74.1658 100.127 76.7768C100.127 76.7768 97.1538 80.9448 93.9191 79.5548L93.7952 78.7958Z" fill="#ED1D55"/>
<path d="M94.1011 74.3441C94.1011 74.3441 97.0249 69.8741 100.383 70.9231C100.383 70.9231 97.3477 75.6591 94.1131 75.4041L94.1011 74.3441Z" fill="#ED1D55"/>
<path d="M94.6848 70.0767C94.6848 70.0767 98.0164 64.6447 100.657 65.8477C100.657 65.8477 98.2333 70.0307 94.5339 71.0207L94.6848 70.0767Z" fill="#ED1D55"/>
<path d="M95.7154 65.0682C95.7154 65.0682 98.6741 60.5932 101.453 61.1342C101.453 61.1342 99.037 65.6722 95.4295 66.3642L95.7154 65.0682Z" fill="#ED1D55"/>
<path d="M96.621 60.3948C96.621 60.3948 99.9856 56.0208 101.819 56.3948C101.819 56.3948 99.6258 61.0018 96.585 61.2488L96.621 60.3948Z" fill="#ED1D55"/>
<path d="M97.5476 56.062C97.5476 56.062 100.246 51.053 102.163 51.096C102.163 51.096 100.736 55.409 97.6206 56.51L97.5476 56.062Z" fill="#ED1D55"/>
<path d="M98.3803 50.2909C98.3803 50.2909 100.845 46.3859 102.479 46.1289C102.479 46.1289 100.832 51.0749 98.4363 51.4219L98.3803 50.2909Z" fill="#ED1D55"/>
<path d="M98.8082 46.4668L100.572 38.8818C100.572 38.8818 101.762 45.2818 98.6512 47.8468L98.8082 46.4668Z" fill="#ED1D55"/>
<path d="M98.7195 38.431C98.7195 38.431 98.2415 32.415 97.8515 31.981C97.8515 31.981 100.74 36.581 99.1255 41.057L98.7195 38.431Z" fill="#ED1D55"/>
<path d="M98.7941 101.823C98.7941 101.823 95.4625 100.437 94.252 105.352C94.252 105.352 97.2328 106.703 99.3499 102.943L98.7941 101.823Z" fill="#ED1D55"/>
<path d="M96.635 96.92C96.635 96.92 92.6517 95.83 91.6281 100.911C91.6281 100.911 94.8128 102.411 97.1698 98.076L96.635 96.92Z" fill="#ED1D55"/>
<path d="M95.3805 92.7217C95.3805 92.7217 92.2199 90.0437 88.7183 93.8017C88.7183 93.8017 91.6791 96.1207 95.5085 93.5157L95.3805 92.7217Z" fill="#ED1D55"/>
<path d="M94.2511 87.8651C94.2511 87.8651 91.0334 85.0561 87.7008 88.7551C87.7008 88.7551 91.1993 91.1271 94.375 88.6281L94.2511 87.8651Z" fill="#ED1D55"/>
<path d="M93.9361 83.8201C93.9361 83.8201 91.2892 79.4461 87.5128 82.1201C87.5128 82.1201 90.3996 85.9111 93.8951 84.6201L93.9361 83.8201Z" fill="#ED1D55"/>
<path d="M94.0301 78.7341C94.0301 78.7341 91.3812 74.2781 87.5638 77.1661C87.5638 77.1661 90.8205 81.1161 93.9522 79.5051L94.0301 78.7341Z" fill="#ED1D55"/>
<path d="M94.5049 74.3032C94.5049 74.3032 92.9155 69.2032 89.398 69.2942C89.398 69.2942 91.0223 74.6812 94.196 75.3182L94.5049 74.3032Z" fill="#ED1D55"/>
<path d="M94.7728 70.0711C94.7728 70.0711 93.4653 63.8331 90.5745 64.0711C90.5745 64.0711 91.4442 68.8291 94.5958 71.0091L94.7728 70.0711Z" fill="#ED1D55"/>
<path d="M95.9792 64.8389C95.9792 64.8389 94.28 59.7389 91.4551 59.5459C91.4551 59.5459 92.6157 64.5569 95.9193 66.1579L95.9792 64.8389Z" fill="#ED1D55"/>
<path d="M96.9499 60.3793C96.9499 60.3793 96.0383 54.9373 94.244 54.4062C94.244 54.4062 94.0131 59.5063 96.582 61.1543L96.9499 60.3793Z" fill="#ED1D55"/>
<path d="M97.6746 55.9803C97.6746 55.9803 96.5321 50.4093 94.6758 49.9033C94.6758 49.9033 94.8048 54.4373 97.4747 56.3943L97.6746 55.9803Z" fill="#ED1D55"/>
<path d="M98.694 50.6976C98.694 50.6976 97.943 46.1396 96.538 45.2656C96.538 45.2656 96.124 50.4656 98.198 51.7186L98.694 50.6976Z" fill="#ED1D55"/>
<path d="M98.6272 46.2662L96.1992 38.8662C96.1992 38.8662 95.5825 45.3532 98.9051 47.6272L98.6272 46.2662Z" fill="#ED1D55"/>
<path d="M97.6376 38.685C97.6376 38.685 93.7392 34.078 93.7182 33.498C93.7182 33.498 94.9117 38.791 99.2049 40.834L97.6376 38.685Z" fill="#ED1D55"/>
<path d="M97.7515 37.115C97.7515 37.115 93.6772 30.334 92.2648 29.96C95.2144 31.14 97.3575 33.7452 97.9475 36.868L97.7515 37.115Z" fill="#ED1D55"/>
<path d="M98.4326 51.473L98.2246 51.444C99.3776 43.067 99.1616 37.872 97.6166 36.82L97.7366 36.647C99.3696 37.758 99.6106 42.883 98.4326 51.473Z" fill="#ED1D55"/>
<path d="M94.7198 71.2498L94.41 71.1928C94.5509 70.4188 94.7098 69.6247 94.8858 68.8517C96.4061 62.0707 97.6286 55.7937 98.2774 51.0127L98.5103 50.8438C97.8515 55.6248 96.711 62.1237 95.1906 68.9127C95.0197 69.6927 94.8588 70.4748 94.7198 71.2498Z" fill="#ED1D55"/>
<path d="M108.018 114.179C104.489 111.033 101.532 107.298 99.2809 103.14C96.9337 98.9386 95.2677 94.3914 94.3449 89.6679C93.2507 83.3428 93.3097 76.8719 94.5188 70.5679L94.7947 70.8009C92.644 81.743 94.3524 93.0926 99.6287 102.916C101.855 107.033 104.78 110.733 108.272 113.849L108.018 114.179Z" fill="#ED1D55"/>
</g>
<path d="M61.1888 96.1191C60.7282 96.3088 60.2496 96.4519 59.7604 96.5461C58.9053 96.7062 58.0375 96.7882 57.1675 96.7911C57.1925 97.0201 57.2125 97.2341 57.2325 97.4281C57.2795 97.9611 57.3075 98.328 57.3075 98.328L56.3888 98.2651L48.809 97.7471L44.3769 97.0901C44.5921 97.3773 44.8259 97.6502 45.0766 97.907C45.3348 98.1804 45.6335 98.4125 45.9622 98.5951C45.9622 98.5951 49.9605 101.835 50.6532 101.865C50.7532 101.865 50.7822 101.965 50.7672 102.118C52.4505 102.118 57.6843 102.363 56.2319 105.278C55.9917 105.798 55.5681 106.211 55.0424 106.437C53.3631 107.149 50.8292 105.868 49.5247 105.082C49.3978 105.331 49.2758 105.562 49.1679 105.76C48.9459 106.178 48.792 106.454 48.792 106.454L48.6611 106.36L41.9359 101.569L40.4625 100.318C40.0297 100.298 39.6011 100.224 39.187 100.096L38.9871 100.033C38.9785 100.05 38.9711 100.068 38.9651 100.086C38.9113 100.239 38.8712 100.396 38.8452 100.556V100.627C38.8176 100.81 38.7993 100.994 38.7902 101.178C38.7902 101.303 38.7802 101.437 38.7802 101.57C38.9107 103.919 39.2652 106.25 39.8388 108.531C39.8388 108.531 42.6116 115.606 41.628 117.239C41.5762 117.322 41.5082 117.394 41.4281 117.451C41.0629 117.765 40.8268 118.202 40.7654 118.68C40.5977 120.144 40.6911 121.627 41.0413 123.058C41.0413 123.058 40.9823 123.158 40.8823 123.309C40.6662 123.655 40.4225 123.983 40.1536 124.289C40.1127 124.336 40.0697 124.389 40.0247 124.43C39.9034 124.558 39.7723 124.676 39.6328 124.783C39.6578 124.859 39.6858 124.938 39.7128 125.022C39.7398 125.106 39.7758 125.238 39.8028 125.355C40.0211 126.319 39.9355 127.326 39.5579 128.239C39.3011 128.904 39.135 129.601 39.0641 130.311C38.9367 131.61 38.9703 132.92 39.164 134.211C39.1351 134.195 39.1091 134.18 39.0801 134.166C36.913 133.033 34.7765 131.849 32.6708 130.616C32.053 130.259 31.4403 129.895 30.8305 129.528C30.0808 129.076 29.3342 128.619 28.5905 128.156C27.6109 127.545 26.631 126.918 25.6507 126.276L25.1919 125.97L25.016 125.85C24.7671 125.683 24.5222 125.517 24.2753 125.35C23.2621 124.04 22.3365 122.665 21.5044 121.233C21.3655 120.984 21.2395 120.747 21.1356 120.533V120.519L21.0686 120.376L20.7927 120.276C20.2739 120.094 19.9441 119.966 19.9441 119.966C20.1837 119.091 20.2985 118.187 20.2849 117.28C20.3179 115.017 19.4069 112.843 17.771 111.28C15.8013 109.6 14.5715 107.212 14.3474 104.632V104.432C14.3465 104.342 14.3505 104.252 14.3594 104.163L14.5863 103.945C14.0106 103.829 13.4698 103.776 13.4698 103.776C13.4698 103.776 15.441 96.6401 18.7606 94.2591C20.4002 92.9385 21.7552 91.2991 22.7439 89.44C24.5099 86.401 26.4929 83.4934 28.6774 80.74L29.2772 79.985L29.4511 79.763L29.4881 79.7181L29.5351 79.6551C29.4538 79.5324 29.3715 79.4107 29.2882 79.2901L29.2332 79.2101C28.945 78.8559 28.7866 78.4138 28.7844 77.9571V77.8431C28.7926 77.7651 28.807 77.6878 28.8274 77.612C28.8342 77.6244 28.8423 77.6362 28.8514 77.6471C29.1312 76.8311 30.2108 76.4711 31.0065 76.0201C32.8817 74.9651 33.6813 72.658 34.0832 70.511C34.395 68.841 34.6529 66.969 35.9464 65.896C36.781 65.206 37.9056 64.9791 38.7502 64.2961C39.2389 63.8641 39.6429 63.3449 39.9417 62.7651C40.1416 62.4321 40.3066 62.087 40.4885 61.753C41.2754 60.2145 42.44 58.9012 43.8731 57.9361C45.3152 56.9801 47.1169 56.7414 48.758 57.289C49.3718 57.522 49.9335 57.877 50.5213 58.138C50.8842 58.2862 51.259 58.4029 51.6418 58.487C52.86 58.6587 54.0595 58.9443 55.2243 59.3401C57.0526 60.1521 58.2421 61.9471 59.3226 63.6531C60.0827 64.7439 60.7352 65.906 61.2708 67.123V66.9881C61.5122 67.5585 61.6451 68.1689 61.6626 68.7881C61.6725 69.0521 61.6442 69.3161 61.5787 69.5721C61.3933 70.1927 60.9491 70.703 60.3602 70.972L60.2682 71.0171C60.1447 71.0808 60.0179 71.1378 59.8884 71.188C59.8684 71.296 59.8474 71.406 59.8234 71.511C59.8134 71.556 59.8014 71.6031 59.7904 71.6481C59.7654 71.7581 59.7354 71.8661 59.7045 71.9731C59.2865 73.3758 58.4696 74.6266 57.3534 75.573C56.5808 76.2343 55.6878 76.7403 54.7235 77.063C54.6546 77.087 54.5826 77.1041 54.5136 77.1261C54.4554 77.2902 54.3721 77.4444 54.2667 77.583C54.1903 77.6809 54.1004 77.7674 53.9998 77.8401C53.936 77.8828 53.8692 77.9208 53.7999 77.954C53.7832 77.9643 53.7655 77.9727 53.747 77.979C52.9442 78.2389 52.0651 78.0871 51.3959 77.573C51.3609 77.549 51.327 77.5221 51.296 77.4971C51.2928 77.6148 51.2805 77.7322 51.259 77.8481C51.239 77.9701 51.226 78.0481 51.204 78.1481C51.182 78.2481 51.175 78.2991 51.161 78.3721C51.147 78.4451 51.137 78.494 51.126 78.55L51.102 78.6501C50.7139 80.5424 49.9733 82.3447 48.919 83.9631C48.7648 84.1951 48.5979 84.4184 48.4192 84.6321L47.9334 85.373V85.4731C47.9769 87.1173 47.5391 88.7384 46.6739 90.1371C46.4089 90.5905 46.1179 91.0282 45.8023 91.448L45.9122 91.513C47.0118 92.138 49.1729 93.25 50.5403 93.156C50.5403 93.156 55.7131 93.8241 56.3129 93.4891C56.3948 93.4421 56.4758 93.507 56.5498 93.646C57.8502 92.796 59.3037 92.2074 60.829 91.9131C61.3207 91.7857 61.8437 91.8892 62.2499 92.1943C62.6561 92.4995 62.9013 92.9731 62.9161 93.4811C63.0469 94.6609 62.3223 95.7677 61.1888 96.1191Z" fill="url(#paint1_linear_721_1193)"/>
<path d="M32.8707 123.077C33.5414 124.223 33.6455 125.614 33.1526 126.847C32.7419 128.06 32.5788 129.344 32.6728 130.621C32.055 130.264 31.4423 129.9 30.8325 129.533C30.0828 129.081 29.3362 128.624 28.5925 128.161C27.6129 127.55 26.633 126.923 25.6527 126.281L25.1939 125.975L25.018 125.855C25.0025 125.827 24.9833 125.801 24.961 125.777C23.9666 124.461 23.0648 123.078 22.2621 121.637C22.0972 121.331 21.9542 121.049 21.8413 120.79V120.776C21.6722 120.492 21.5924 120.163 21.6124 119.833C21.7565 119.328 22.0996 118.904 22.563 118.657C23.6915 118.069 25.5028 118.612 27.293 119.476C28.8341 120.255 30.3111 121.156 31.7102 122.168L31.8691 122.284L31.8851 122.296C32.4729 122.714 32.8137 122.99 32.8137 122.99C32.8343 123.018 32.8533 123.047 32.8707 123.077Z" fill="#FBBEBE"/>
<path opacity="0.05" d="M32.5728 122.816C33.2448 123.963 33.3489 125.356 32.8547 126.59C32.4439 127.804 32.2808 129.088 32.3749 130.366C31.7585 130.007 31.1451 129.644 30.5346 129.276C29.7836 128.824 29.0369 128.367 28.2946 127.904C27.315 127.29 26.3354 126.663 25.3648 126.022L24.906 125.716L24.7301 125.596C24.7141 125.568 24.695 125.542 24.6731 125.518C23.6777 124.203 22.7759 122.82 21.9742 121.378C21.8093 121.072 21.6664 120.79 21.5534 120.531V120.519C21.3842 120.234 21.3045 119.905 21.3245 119.574C21.4692 119.07 21.8122 118.645 22.2751 118.398C23.4036 117.81 25.2149 118.353 27.0051 119.217C28.5462 119.997 30.0232 120.897 31.4223 121.909L31.5812 122.025L31.5972 122.037C32.185 122.454 32.5258 122.731 32.5258 122.731C32.5258 122.731 32.5388 122.759 32.5728 122.816Z" fill="black"/>
<path d="M39.7878 127.568C39.7309 127.904 39.6385 128.232 39.5119 128.548C39.295 129.117 39.1457 129.709 39.0671 130.312C38.9129 131.593 38.9183 132.888 39.0831 134.168C36.916 133.035 34.7796 131.851 32.6738 130.618C32.0561 130.261 31.4433 129.897 30.8336 129.53C30.7971 128.772 30.6084 128.028 30.2788 127.344C29.183 125.901 28.189 124.383 27.304 122.802C27.1711 122.567 27.0551 122.339 26.9472 122.124V122.114C26.9062 122.028 26.8672 121.945 26.8292 121.863C26.6018 121.496 26.4855 121.07 26.4944 120.638C26.632 120.174 26.9152 119.766 27.302 119.474C29.0403 118.204 32.6538 119.923 35.4286 121.63L35.4976 121.671C36.0224 121.998 36.5202 122.322 36.967 122.624L37.2279 122.8C38.3764 123.584 39.1381 124.194 39.1381 124.194C39.3275 124.486 39.4796 124.801 39.5909 125.131C39.6564 125.317 39.7108 125.507 39.7538 125.699C39.8891 126.314 39.9007 126.949 39.7878 127.568Z" fill="#FBBEBE"/>
<path opacity="0.1" d="M22.2691 121.636C23.7715 122.22 25.3405 122.615 26.9402 122.812C27.0587 122.816 27.1774 122.81 27.295 122.794C29.1556 122.758 31.0165 122.849 32.8647 123.067C33.7783 123.147 34.6579 123.232 35.3846 123.306L37.2109 123.506V122.8C36.7031 122.451 36.1113 122.063 35.4826 121.671C32.6977 119.95 29.0393 118.191 27.286 119.471C24.819 118.279 22.3151 117.707 21.6034 119.828C21.667 120.478 21.8962 121.1 22.2691 121.636Z" fill="black"/>
<path d="M15.425 105.206C15.6302 107.735 16.8016 110.088 18.6956 111.775C22.3131 115.304 20.7708 120.375 20.7708 120.375C20.7708 120.375 25.082 122.069 26.9412 122.114C27.0598 122.118 27.1784 122.112 27.296 122.096C30.0027 122.104 32.7065 122.275 35.3927 122.608L37.2189 122.808V107.808L17.2433 102.954L15.435 104.754C15.4219 104.904 15.4187 105.055 15.425 105.206Z" fill="#5C5C8E"/>
<g opacity="0.1">
<path d="M36.89 122.62L37.2168 122.653V122.814L35.3906 122.614C33.5624 122.43 30.7685 122.167 28.9243 122.091C31.5871 122.124 34.2462 122.3 36.89 122.62Z" fill="black"/>
<path d="M15.432 104.766L17.2402 102.966L18.4477 103.258L16.9404 104.769C16.9307 104.919 16.9307 105.07 16.9404 105.22C17.1459 107.749 18.3172 110.101 20.211 111.789C23.8285 115.318 22.2861 120.389 22.2861 120.389C24.1041 121.112 25.9809 121.678 27.8958 122.079C27.6994 122.078 27.5031 122.089 27.308 122.112C27.1904 122.127 27.0717 122.133 26.9532 122.13C25.0939 122.083 20.7828 120.389 20.7828 120.389C20.7828 120.389 22.3251 115.318 18.7076 111.789C16.8078 110.107 15.631 107.755 15.423 105.226C15.416 105.072 15.419 104.919 15.432 104.766Z" fill="black"/>
</g>
<path d="M55.3492 94.6081C55.3492 94.6081 61.3907 90.4171 61.8315 94.1891C62.2723 97.9611 55.3492 97.435 55.3492 97.435V94.6081Z" fill="#FBBEBE"/>
<path d="M44.9316 91.833C44.9316 91.833 48.1983 93.989 50.0065 93.862C50.0065 93.862 54.9445 94.525 55.5182 94.193C56.092 93.861 56.4448 98.98 56.4448 98.98L48.3302 98.406L43.1254 97.612C43.1254 97.612 40.5265 96.024 40.5265 94.656C40.5265 93.288 44.9316 91.833 44.9316 91.833Z" fill="#F7CDDD"/>
<path d="M44.9316 91.833C44.9316 91.833 48.1983 93.989 50.0065 93.862C50.0065 93.862 54.9445 94.525 55.5182 94.193C56.092 93.861 56.4448 98.98 56.4448 98.98L48.3302 98.406L43.1254 97.612C43.1254 97.612 40.5265 96.024 40.5265 94.656C40.5265 93.288 44.9316 91.833 44.9316 91.833Z" fill="#ED1D55"/>
<path d="M49.7207 102.74C49.7207 102.74 57.0666 102.44 55.4183 105.859C53.77 109.278 48.2073 105.126 48.2073 105.126L49.7207 102.74Z" fill="#FBBEBE"/>
<path d="M42.3337 95.4492C42.3337 95.4492 48.2872 90.9932 47.4496 85.5672C46.6119 80.1412 42.3337 89.7152 42.3337 89.7152V95.4492Z" fill="#5C5C8E"/>
<path d="M43.9831 70.8489C43.9848 73.914 45.8424 76.6726 48.6811 77.8259C48.995 77.9575 49.3185 78.0651 49.6487 78.1479C49.9993 78.2398 50.3561 78.3067 50.7162 78.3479C50.9751 78.3729 51.236 78.3869 51.4999 78.3869C52.3419 78.3853 53.1775 78.2402 53.9709 77.9579C57.5914 76.6987 59.6872 72.918 58.8376 69.1787C57.9879 65.4393 54.4643 62.9365 50.6554 63.3669C46.8465 63.7972 43.9697 67.0232 43.975 70.8579L43.9831 70.8489Z" fill="#FBBEBE"/>
<path opacity="0.1" d="M15.425 105.206C16.0987 105.33 16.9324 105.557 16.9324 105.906C16.9324 106.494 26.3384 109.672 26.3384 109.672C26.3384 109.672 25.9856 110.493 26.9262 111.907C27.8668 113.321 35.5146 121.436 35.5146 121.436L35.4896 121.675L35.3897 122.61L34.9229 127.082C36.1702 126.602 37.4745 126.286 38.8032 126.141C39.164 126.134 39.5048 125.974 39.7418 125.702C39.6295 125.169 39.4216 124.661 39.1281 124.202C39.1281 124.202 38.3654 123.602 37.2159 122.808V107.808L17.2402 102.954L15.432 104.754C15.42 104.905 15.4177 105.055 15.425 105.206Z" fill="black"/>
<path d="M14.5784 104.377C14.5784 104.377 16.9294 104.61 16.9294 105.2C16.9294 105.79 26.3355 108.966 26.3355 108.966C26.3355 108.966 25.9826 109.787 26.9232 111.201C27.8638 112.615 35.5116 120.73 35.5116 120.73L34.9239 126.376C36.1712 125.896 37.4755 125.579 38.8042 125.435C39.2251 125.488 39.6899 125.098 40.0737 124.651C40.3924 124.274 40.6764 123.869 40.9224 123.441C40.9224 123.441 39.8618 118.967 41.2752 117.909C42.6886 116.851 39.7469 109.087 39.7469 109.087C39.7469 109.087 38.4164 103.567 38.8082 101.199C38.8333 101.041 38.8714 100.886 38.9222 100.734C38.9246 100.715 38.9307 100.697 38.9402 100.681C39.7788 98.419 48.8011 79.4409 48.8011 79.4409C48.7952 78.9028 48.7571 78.3656 48.6871 77.832C48.6691 77.683 48.6461 77.5319 48.6161 77.3729C48.5707 77.0908 48.51 76.8115 48.4342 76.536C48.3832 76.356 48.3283 76.183 48.2633 76.018C47.9854 75.301 47.5576 74.75 46.9188 74.736C46.2683 74.1514 45.4404 73.802 44.5678 73.744C42.7475 73.6001 40.9217 73.9424 39.277 74.736C33.7514 77.088 32.4579 77.2059 32.4579 77.2059L29.6791 80.846L29.1073 81.595C27.0163 84.3227 25.1232 87.1967 23.4427 90.195C22.5054 92.0235 21.2111 93.6455 19.6363 94.965C16.4616 97.32 14.5784 104.377 14.5784 104.377Z" fill="#ED1D55"/>
<path opacity="0.1" d="M35.1897 90.7739C35.1897 90.7739 27.34 92.7149 24.2943 97.6119L35.1897 90.7739Z" fill="#3D3691"/>
<path opacity="0.1" d="M32.7632 99.376C32.7632 99.376 31.2792 109.346 31.6912 110.097C32.1032 110.848 32.7632 99.376 32.7632 99.376Z" fill="#3D3691"/>
<path opacity="0.1" d="M33.2945 104.495C33.8663 105.244 36.1853 111.025 36.1853 111.025L35.5156 120.731L34.9278 126.377C36.1755 125.897 37.4802 125.581 38.8092 125.436C39.2291 125.489 39.6949 125.101 40.0787 124.652C39.4669 121.345 38.1625 114.427 37.9236 114.293C37.6117 114.117 36.0244 108.557 35.9404 107.012C35.8565 105.467 33.6414 101.986 33.6414 101.986C33.6414 101.986 32.7158 103.745 33.2945 104.495Z" fill="#3D3691"/>
<path opacity="0.1" d="M35.5146 94.965C35.6575 95.406 35.8854 97.965 35.8854 97.965C35.9715 99.5987 37.1926 100.947 38.8092 101.194C38.8342 101.036 38.8723 100.881 38.9232 100.729C39.6289 98.729 48.801 79.436 48.801 79.436C48.7914 78.4567 48.6683 77.4819 48.4342 76.531C46.435 75.943 43.2743 76.849 43.2743 76.849C42.3607 76.729 39.376 82.659 39.376 82.659C39.376 82.659 37.3888 87.201 37.1719 87.819C37.0833 88.4777 37.0539 89.143 37.0839 89.807C36.996 90.16 36.0674 90.4659 35.9354 90.9539C35.8035 91.4419 35.8904 92.407 35.8025 92.583C35.572 93.3549 35.4747 94.1604 35.5146 94.965Z" fill="#3D3691"/>
<path d="M36.2192 94.6123C36.3642 95.0533 36.5891 97.6123 36.5891 97.6123C36.6404 99.0303 37.5841 100.26 38.9401 100.676C39.394 100.838 39.8692 100.933 40.3505 100.958L41.7689 102.189L48.3162 107.021C48.3162 107.021 50.7582 102.512 50.0954 102.483C49.4327 102.454 45.6143 99.2483 45.6143 99.2483C44.4388 98.6253 43.2743 96.5393 42.7315 95.4683C42.7637 95.3393 42.7874 95.2083 42.8025 95.0763C43.0394 93.0763 47.9773 85.4313 47.9773 85.4313C49.3688 83.5403 50.2793 81.339 50.6302 79.0173C50.6522 78.9233 50.6652 78.8173 50.6832 78.7253C50.7042 78.5956 50.7172 78.4646 50.7222 78.3333C50.8101 76.7333 49.6466 76.1493 48.2632 76.0103C47.5445 75.9545 46.8219 75.977 46.1081 76.0773C45.3939 76.1667 44.6869 76.3057 43.992 76.4933C43.4042 76.4173 41.9418 78.8773 40.9862 80.6203C40.4704 81.5653 40.1006 82.3043 40.1006 82.3043C40.1006 82.3043 38.1014 86.8483 37.8805 87.4663C37.789 88.1247 37.7595 88.7903 37.7926 89.4543C37.7046 89.8093 36.776 90.1133 36.6461 90.6013C36.5161 91.0893 36.5991 92.0543 36.5111 92.2303C36.2813 93.0023 36.1826 93.8075 36.2192 94.6123Z" fill="#ED1D55"/>
<path opacity="0.1" d="M28.6224 84.4421C29.9809 85.6069 31.9002 85.8554 33.5104 85.0751C35.0814 84.2832 36.5857 83.3652 38.0085 82.3301C38.9881 81.7421 40.0147 81.2461 40.9753 80.6301C41.1162 80.5381 41.2532 80.4461 41.3871 80.3521C42.4966 79.5681 43.4542 78.5621 44.6008 77.8431C45.3691 77.3346 46.263 77.0484 47.1837 77.0161C47.6084 77.0119 48.029 77.1003 48.4162 77.2751C48.4851 77.3038 48.5518 77.3372 48.6161 77.3751C48.9928 77.5932 49.3416 77.8565 49.6546 78.1591C49.9775 78.4511 50.2894 78.7591 50.6342 79.0331C50.6562 78.9391 50.6692 78.8331 50.6872 78.7411C50.7082 78.6114 50.7213 78.4805 50.7262 78.3491C50.9851 78.3741 51.245 78.3881 51.5099 78.3881C52.3538 78.3837 53.1908 78.2353 53.9848 77.9492C53.9877 77.9153 53.9938 77.8818 54.0028 77.8491C54.1444 76.3485 54.8538 74.9587 55.986 73.9641C56.8651 73.5206 57.7876 73.1692 58.7389 72.9152C59.6505 69.7397 58.3859 66.3406 55.6208 64.5341C52.8557 62.7276 49.2364 62.9359 46.6966 65.0477C44.1568 67.1595 43.2902 70.6812 44.5598 73.7311C42.7395 73.5872 40.9137 73.9296 39.269 74.7231C33.7433 77.0751 32.4498 77.1931 32.4498 77.1931L29.687 80.8391C30.0316 81.2553 30.2624 81.7539 30.3567 82.2861C30.4117 83.2851 29.4551 83.9701 28.6224 84.4421Z" fill="black"/>
<path d="M55.987 73.2679C54.8577 74.2638 54.1488 75.6518 54.0038 77.1509C53.9557 77.619 53.8 78.0698 53.549 78.4679C52.9163 79.2889 51.6428 79.0559 50.8152 78.4679C50.0772 77.7602 49.274 77.124 48.4162 76.5678C47.1288 76.1178 45.7024 76.331 44.6028 77.1378C43.4562 77.8568 42.4966 78.8629 41.3871 79.6449C40.3156 80.4019 39.12 80.9449 38.0025 81.6209C36.5817 82.6586 35.0772 83.5764 33.5044 84.3648C31.8954 85.1443 29.9778 84.8966 28.6194 83.7339C29.4521 83.2709 30.4087 82.5868 30.3437 81.5968C30.2787 80.6068 29.1252 79.8638 29.2032 78.8518C29.2812 77.8398 30.4747 77.4369 31.3313 76.9389C33.1246 75.8959 33.8782 73.6059 34.2711 71.4889C34.5709 69.8359 34.8138 67.9889 36.0503 66.9269C36.85 66.2429 37.9256 66.0189 38.7272 65.3429C39.4299 64.6139 39.993 63.7621 40.3885 62.8299C41.1294 61.3182 42.2404 60.0186 43.6182 59.0519C44.9841 58.1082 46.7176 57.8717 48.2862 58.4149C48.874 58.6439 49.3987 59.0029 49.9755 59.2519C51.4059 59.8709 53.0462 59.7889 54.4646 60.4399C56.2109 61.2399 57.3454 63.0198 58.384 64.7058C59.2716 66.1468 61.0079 68.6968 60.5221 70.5598C60.0303 72.4618 57.2825 72.3599 55.987 73.2679Z" fill="#7C5C5C"/>
<g opacity="0.1">
<path d="M29.2084 78.731C29.2148 78.6535 29.2285 78.5768 29.2494 78.502C29.6255 78.954 29.8823 79.4931 29.9964 80.07C30.0054 80.2042 29.9942 80.339 29.9634 80.47C29.5345 79.9845 29.2703 79.3758 29.2084 78.731Z" fill="black"/>
<path d="M33.1565 82.8371C34.7277 82.0454 36.232 81.1274 37.6547 80.0921C38.7712 79.4121 39.9667 78.8731 41.0392 78.1161C42.1488 77.3321 43.1084 76.3261 44.2549 75.6091C45.355 74.8032 46.7808 74.5901 48.0683 75.0391C48.9273 75.5936 49.7307 76.2299 50.4673 76.9391C51.2999 77.5391 52.5664 77.7701 53.2012 76.9491C53.453 76.5521 53.6087 76.1018 53.656 75.6341C53.7979 74.1335 54.5073 72.7439 55.6391 71.7491C56.9386 70.8431 59.6814 70.9491 60.1792 69.0341C60.2622 68.695 60.2842 68.3439 60.2442 67.9971C60.5852 68.7652 60.6863 69.6185 60.5341 70.4451C60.0343 72.3561 57.2894 72.2541 55.992 73.1601C54.863 74.1571 54.1542 75.5455 54.0088 77.0451C53.9617 77.5126 53.8067 77.9627 53.556 78.3601C52.9213 79.1811 51.6478 78.9481 50.8132 78.3501C50.0762 77.6413 49.2728 77.0051 48.4142 76.4501C47.1267 76.0011 45.7008 76.2142 44.6007 77.0201C43.4542 77.7371 42.4946 78.7451 41.3851 79.5271C40.3135 80.2861 39.118 80.8271 38.0005 81.5031C36.5802 82.5415 35.0755 83.4594 33.5024 84.2471C31.893 85.026 29.9753 84.7775 28.6174 83.6141C28.9379 83.4416 29.2423 83.2408 29.5271 83.0141C30.7191 83.3915 32.0069 83.3287 33.1565 82.8371Z" fill="black"/>
</g>
<path d="M160.772 63.592L152.739 55.509C151.943 54.6954 150.855 54.2335 149.718 54.2257C148.58 54.2181 147.487 54.6653 146.68 55.468L96.2302 105.512L74.8991 84.005C73.2497 82.3316 70.5567 82.3123 68.8836 83.962L60.763 91.999C59.0935 93.6676 59.0752 96.3689 60.722 98.06L93.1165 130.724C94.7838 132.395 97.4841 132.414 99.1749 130.767L160.728 69.651C161.541 68.8557 162.003 67.7685 162.012 66.6308C162.02 65.4932 161.574 64.3993 160.773 63.592H160.772Z" fill="#3ACC6C"/>
<g opacity="0.5">
<path d="M148.666 128.403C148.666 128.403 142.674 128.042 143.376 132.243C143.302 132.68 143.517 133.115 143.908 133.321C143.908 133.321 143.908 133.009 144.522 133.115C144.738 133.152 144.957 133.162 145.175 133.146C145.47 133.128 145.751 133.013 145.974 132.819C145.974 132.819 147.658 132.119 148.314 129.367C148.314 129.367 148.798 128.767 148.779 128.612L147.768 129.045C147.962 129.464 147.989 129.942 147.842 130.38C147.842 130.38 147.809 129.07 147.615 129.102C147.576 129.102 147.09 129.355 147.09 129.355C147.413 130.044 147.465 130.83 147.235 131.555C147.235 131.555 147.406 129.987 146.904 129.455L146.192 129.871C146.578 130.606 146.658 131.462 146.415 132.255C146.494 131.475 146.365 130.688 146.041 129.973L145.397 130.473C145.748 131.145 145.838 131.923 145.652 132.657C145.652 132.657 145.601 130.744 145.26 130.599C145.015 130.805 144.797 131.04 144.609 131.299C144.609 131.299 145.056 132.238 144.78 132.734C144.78 132.734 144.609 131.458 144.47 131.454C144.177 131.886 143.967 132.367 143.849 132.875C143.877 132.342 144.044 131.824 144.333 131.375C144.009 131.437 143.71 131.593 143.473 131.822C143.473 131.822 143.558 131.234 144.472 131.171C144.642 130.924 144.839 130.696 145.06 130.493C144.568 130.451 144.072 130.509 143.602 130.662C144.048 130.273 144.668 130.156 145.225 130.354L145.862 129.834C145.298 129.747 144.724 129.753 144.162 129.85C144.729 129.509 145.425 129.459 146.035 129.715L146.729 129.301C146.195 129.184 145.649 129.137 145.103 129.16C145.695 128.938 146.349 128.948 146.933 129.189L147.433 128.966C147.433 128.966 146.686 128.819 146.467 128.797C146.248 128.775 146.238 128.713 146.238 128.713C146.71 128.635 147.195 128.69 147.638 128.87C147.994 128.746 148.338 128.589 148.666 128.403Z" fill="#ED1D55"/>
</g>
<g opacity="0.5">
<path d="M137.915 99.0641C137.915 99.0641 134.872 104.241 138.935 105.519C139.29 105.782 139.773 105.788 140.135 105.535C140.135 105.535 139.863 105.384 140.229 104.894C140.359 104.718 140.468 104.528 140.554 104.327C140.668 104.056 140.692 103.754 140.623 103.468C140.623 103.468 140.766 101.651 138.61 99.8161C138.61 99.8161 138.295 99.1101 138.15 99.0571L138.075 100.157C138.536 100.175 138.973 100.369 139.297 100.698C139.297 100.698 138.122 100.133 138.055 100.32C138.043 100.359 138.041 100.908 138.041 100.908C138.8 100.929 139.523 101.24 140.063 101.775C140.063 101.775 138.746 100.912 138.039 101.116L138.086 101.939C138.915 101.928 139.715 102.245 140.312 102.821C139.653 102.399 138.894 102.157 138.113 102.121L138.268 102.921C139.025 102.91 139.759 103.182 140.327 103.684C140.327 103.684 138.6 102.863 138.317 103.096C138.394 103.407 138.504 103.709 138.645 103.996C138.645 103.996 139.686 104.023 140.002 104.496C140.002 104.496 138.789 104.069 138.72 104.19C138.972 104.646 139.304 105.053 139.7 105.39C139.236 105.123 138.851 104.738 138.581 104.275C138.485 104.595 138.485 104.936 138.581 105.255C138.581 105.255 138.09 104.906 138.458 104.079C138.313 103.815 138.199 103.536 138.119 103.246C137.859 103.665 137.685 104.131 137.607 104.618C137.463 104.044 137.64 103.437 138.07 103.03L137.898 102.23C137.564 102.694 137.308 103.209 137.139 103.755C137.092 103.094 137.364 102.451 137.87 102.024L137.815 101.218C137.468 101.64 137.178 102.105 136.952 102.602C137.022 101.974 137.327 101.396 137.807 100.985L137.834 100.442C137.834 100.442 137.364 101.042 137.246 101.226C137.128 101.41 137.068 101.393 137.068 101.393C137.212 100.937 137.48 100.53 137.842 100.217C137.9 99.8357 137.924 99.4499 137.915 99.0641Z" fill="#ED1D55"/>
</g>
<g opacity="0.5">
<path d="M118.88 57.7579C118.88 57.7579 115.839 62.9369 119.9 64.2129C120.255 64.477 120.739 64.4834 121.1 64.2289C121.1 64.2289 120.828 64.0779 121.2 63.5879C121.329 63.4122 121.438 63.2219 121.523 63.0209C121.638 62.7497 121.662 62.4482 121.592 62.1619C121.592 62.1619 121.737 60.3449 119.579 58.5099C119.579 58.5099 119.264 57.8099 119.119 57.7529L119.044 58.8529C119.505 58.8706 119.943 59.0642 120.266 59.3939C120.266 59.3939 119.091 58.8289 119.026 59.0159C119.012 59.0549 119.012 59.6039 119.012 59.6039C119.771 59.6252 120.493 59.9349 121.032 60.4699C121.032 60.4699 119.715 59.6069 119.008 59.8109L119.057 60.6339C119.885 60.623 120.685 60.94 121.281 61.5159C120.621 61.0945 119.863 60.8532 119.082 60.8159L119.237 61.6159C119.995 61.6053 120.73 61.8781 121.298 62.3809C121.298 62.3809 119.569 61.5579 119.286 61.7929C119.363 62.1041 119.474 62.4059 119.616 62.6929C119.616 62.6929 120.655 62.7199 120.971 63.1929C120.971 63.1929 119.758 62.7659 119.691 62.8869C119.942 63.3436 120.274 63.7503 120.671 64.0869C120.207 63.8201 119.821 63.4364 119.55 62.9739C119.457 63.2898 119.457 63.6261 119.55 63.9419C119.55 63.9419 119.059 63.5929 119.427 62.7559C119.282 62.4923 119.168 62.2127 119.088 61.9229C118.828 62.3418 118.654 62.8082 118.576 63.2949C118.433 62.7205 118.61 62.1133 119.041 61.7069L118.867 60.9069C118.534 61.3708 118.278 61.8859 118.11 62.4319C118.062 61.7714 118.333 61.1277 118.839 60.7009L118.784 59.8949C118.437 60.3166 118.147 60.7819 117.921 61.2789C117.991 60.6516 118.296 60.0743 118.776 59.6639L118.803 59.1189C118.803 59.1189 118.333 59.7189 118.215 59.9029C118.097 60.0869 118.037 60.0699 118.037 60.0699C118.184 59.6128 118.456 59.2057 118.821 58.8939C118.875 58.5178 118.895 58.1376 118.88 57.7579Z" fill="#ED1D55"/>
</g>
<g opacity="0.5">
<path d="M55.2454 0.625C55.2454 0.625 43.9191 8.858 51.416 15.381C51.9297 16.2789 52.962 16.7449 53.9749 16.536C53.9749 16.536 53.5321 15.96 54.7746 15.254C55.2155 15.0003 55.6246 14.6948 55.993 14.344C56.4916 13.8744 56.8239 13.2552 56.9396 12.58C56.9396 12.58 58.9388 8.828 56.04 2.896C56.04 2.896 56.022 1.096 55.7581 0.845L54.5826 3.123C55.5541 3.59221 56.3096 4.41497 56.6948 5.423C56.6948 5.423 54.6956 3.112 54.3907 3.463C54.3297 3.532 53.819 4.698 53.819 4.698C53.819 4.698 56.7757 6.106 57.3365 8.434C57.3365 8.434 55.3223 5.36 53.613 5.134L52.9483 6.939C52.9483 6.939 56.147 8.274 56.8847 10.901C56.8847 10.901 54.6666 7.764 52.8284 7.343L52.4125 9.207C52.4125 9.207 55.5042 10.569 56.111 12.759C56.111 12.759 53.1712 9.391 52.3506 9.64C52.2169 10.375 52.1729 11.1234 52.2196 11.869C52.2196 11.869 54.4187 12.898 54.6536 14.202C54.6536 14.202 52.4545 12.159 52.1986 12.355C52.3118 13.566 52.6472 14.7458 53.1882 15.835C52.4445 14.8307 51.9761 13.6493 51.8298 12.408C51.3384 13.0005 51.03 13.7232 50.9422 14.488C50.9422 14.488 50.2135 13.282 51.7788 11.836C51.7163 11.1362 51.7348 10.4316 51.8338 9.736C50.8849 10.3903 50.0767 11.2281 49.4568 12.2C49.4568 12.2 49.4938 10.467 51.9257 9.238L52.3016 7.358C51.1581 8.03759 50.1322 8.89808 49.2639 9.906C49.2639 9.906 49.5757 8.142 52.4345 6.883L53.0693 5.109C51.9358 5.68984 50.8818 6.41448 49.9336 7.265C49.9336 7.265 50.5743 5.697 53.2652 4.605L53.828 3.468C53.828 3.468 52.2606 4.311 51.8388 4.593C51.417 4.875 51.3 4.793 51.3 4.793C52.0337 3.94901 52.9875 3.32579 54.0549 2.993C54.5215 2.24078 54.9199 1.44829 55.2454 0.625Z" fill="#ED1D55"/>
</g>
<g opacity="0.5">
<path d="M33.5864 30.1361C33.5864 30.1361 28.3885 18.1251 20.9237 23.6361C20.0005 23.9208 19.3669 24.7696 19.3563 25.7361C19.3563 25.7361 19.9721 25.4501 20.3559 26.7301C20.5002 27.185 20.6975 27.6213 20.9437 28.0301C21.2719 28.5824 21.7713 29.0125 22.3661 29.2551C22.3661 29.2551 25.3758 31.8471 31.3803 30.4101C32.009 30.5704 32.6598 30.6255 33.3065 30.5731L31.4703 29.0301C30.8459 29.8207 29.9429 30.3424 28.9463 30.4881C28.9463 30.4881 31.4603 29.1351 31.2074 28.7881C31.1564 28.7171 30.1998 28.0161 30.1998 28.0161C30.1998 28.0161 28.3126 30.4231 26.0845 30.4611C26.0845 30.4611 29.2962 29.2491 29.8449 27.7461L28.3366 26.7661C28.3366 26.7661 26.4374 29.4181 23.8964 29.5581C23.8964 29.5581 27.208 28.1761 27.9667 26.5841L26.3544 25.8331C26.3544 25.8331 24.4812 28.3811 22.3631 28.4781C22.3631 28.4781 26.0295 26.4941 25.9726 25.6841C25.3304 25.412 24.6573 25.2199 23.9684 25.1121C23.9684 25.1121 22.583 26.9061 21.3465 26.8551C21.3465 26.8551 23.6565 25.2691 23.5296 24.9931C22.4014 24.8499 21.2564 24.9177 20.153 25.1931C21.2196 24.7206 22.3913 24.5355 23.5516 24.6561C23.1134 24.0853 22.5173 23.6558 21.8373 23.4211C21.8373 23.4211 23.0858 23.0031 24.0833 24.7211C24.7327 24.8069 25.3699 24.9673 25.9826 25.1991C25.5801 24.1996 24.9804 23.2915 24.2193 22.5291C24.2193 22.5291 25.7866 22.9211 26.4184 25.3851L28.0547 26.1121C27.6691 24.9293 27.0927 23.8177 26.3484 22.8211C26.3484 22.8211 27.8908 23.4641 28.4545 26.3301L29.9419 27.2691C29.6444 26.1163 29.1986 25.007 28.6155 23.9691C28.6155 23.9691 29.9149 24.8751 30.3597 27.5541L31.2803 28.2991C31.2803 28.2991 30.8295 26.6991 30.6596 26.2561C30.4897 25.8131 30.5966 25.7271 30.5966 25.7271C31.2147 26.5682 31.587 27.5646 31.6722 28.6051C32.2624 29.1726 32.9031 29.6851 33.5864 30.1361Z" fill="#ED1D55"/>
</g>
<g opacity="0.5">
<path d="M134.832 36.389C134.832 36.389 133.608 30.508 129.734 32.289C129.293 32.3322 128.929 32.6554 128.835 33.089C128.835 33.089 129.134 33.016 129.195 33.628C129.217 33.8451 129.264 34.0588 129.334 34.265C129.432 34.5431 129.617 34.7822 129.861 34.947C129.861 34.947 130.975 36.39 133.802 36.3C133.802 36.3 134.509 36.61 134.654 36.551L133.97 35.688C133.617 35.985 133.164 36.1357 132.703 36.109C132.703 36.109 133.957 35.735 133.878 35.554C133.86 35.517 133.497 35.113 133.497 35.113C132.92 35.6076 132.176 35.864 131.418 35.83C131.418 35.83 132.972 35.583 133.36 34.958L132.772 34.38C132.165 34.9454 131.359 35.2477 130.53 35.221C131.303 35.0916 132.029 34.7609 132.634 34.262L131.979 33.772C131.423 34.2862 130.696 34.5771 129.939 34.589C129.939 34.589 131.771 34.036 131.82 33.668C131.557 33.4861 131.272 33.3373 130.972 33.225C130.972 33.225 130.188 33.903 129.633 33.766C129.633 33.766 130.809 33.266 130.788 33.131C130.294 32.9617 129.773 32.8854 129.251 32.906C129.775 32.7928 130.318 32.8179 130.829 32.979C130.685 32.6816 130.456 32.4333 130.172 32.265C130.172 32.265 130.772 32.192 131.062 33.049C131.346 33.1475 131.618 33.2791 131.871 33.441C131.782 32.9523 131.597 32.486 131.327 32.069C131.818 32.3983 132.094 32.9669 132.049 33.557L132.717 34.035C132.653 33.4672 132.496 32.9136 132.254 32.396C132.731 32.8512 132.961 33.5066 132.875 34.16L133.463 34.721C133.436 34.1754 133.339 33.6355 133.173 33.115C133.541 33.6248 133.702 34.2552 133.624 34.879L133.968 35.3C133.968 35.3 133.915 34.541 133.88 34.32C133.845 34.099 133.9 34.075 133.9 34.075C134.102 34.5124 134.177 34.9972 134.118 35.475C134.329 35.8001 134.568 36.106 134.832 36.389Z" fill="#ED1D55"/>
</g>
<g opacity="0.5">
<path d="M113.743 145.409C113.743 145.409 112.52 139.528 108.645 141.309C108.204 141.353 107.841 141.676 107.745 142.109C107.745 142.109 108.045 142.036 108.106 142.648C108.127 142.865 108.175 143.079 108.247 143.285C108.344 143.563 108.528 143.802 108.772 143.967C108.772 143.967 109.885 145.41 112.714 145.32C112.714 145.32 113.422 145.63 113.565 145.571L112.883 144.708C112.529 145.005 112.075 145.156 111.614 145.129C111.614 145.129 112.868 144.755 112.789 144.574C112.773 144.537 112.407 144.133 112.407 144.133C111.831 144.628 111.087 144.884 110.328 144.85C110.328 144.85 111.885 144.603 112.27 143.978L111.683 143.39C111.081 143.958 110.276 144.261 109.449 144.229C110.222 144.1 110.948 143.769 111.553 143.27L110.898 142.78C110.342 143.294 109.617 143.585 108.86 143.597C108.86 143.597 110.692 143.046 110.741 142.676C110.477 142.495 110.192 142.346 109.892 142.233C109.892 142.233 109.109 142.911 108.552 142.774C108.552 142.774 109.728 142.274 109.707 142.139C109.213 141.97 108.692 141.893 108.17 141.914C108.694 141.801 109.238 141.826 109.75 141.987C109.605 141.69 109.376 141.442 109.093 141.273C109.093 141.273 109.693 141.2 109.98 142.057C110.265 142.155 110.538 142.287 110.792 142.449C110.703 141.96 110.517 141.494 110.247 141.077C110.739 141.406 111.014 141.975 110.968 142.565L111.638 143.043C111.573 142.475 111.416 141.922 111.173 141.404C111.651 141.859 111.882 142.514 111.796 143.168L112.383 143.729C112.357 143.184 112.259 142.644 112.092 142.124C112.461 142.633 112.623 143.264 112.544 143.888L112.889 144.309C112.889 144.309 112.834 143.55 112.799 143.329C112.764 143.108 112.819 143.086 112.819 143.086C113.02 143.521 113.095 144.004 113.037 144.48C113.247 144.808 113.483 145.119 113.743 145.409Z" fill="#ED1D55"/>
</g>
<defs>
<linearGradient id="paint0_linear_721_1193" x1="186.866" y1="151.651" x2="186.866" y2="36.5205" gradientUnits="userSpaceOnUse">
<stop stop-color="#808080" stop-opacity="0.251"/>
<stop offset="0.54" stop-color="#808080" stop-opacity="0.122"/>
<stop offset="1" stop-color="#808080" stop-opacity="0.102"/>
</linearGradient>
<linearGradient id="paint1_linear_721_1193" x1="38.2006" y1="134.211" x2="38.2006" y2="57" gradientUnits="userSpaceOnUse">
<stop stop-color="#808080" stop-opacity="0.251"/>
<stop offset="0.54" stop-color="#808080" stop-opacity="0.122"/>
<stop offset="1" stop-color="#808080" stop-opacity="0.102"/>
</linearGradient>
</defs>
</svg>
