<svg width="218" height="162" viewBox="0 0 218 162" fill="none" xmlns="http://www.w3.org/2000/svg">
<path d="M106.002 161C149.615 161 184.97 125.63 184.97 82C184.97 38.3695 149.615 3 106.002 3C62.3891 3 27.0339 38.3695 27.0339 82C27.0339 125.63 62.3891 161 106.002 161Z" stroke="#0B555F" stroke-width="2"/>
<path d="M54.023 4C68.9286 4 81.012 16.0883 81.012 31C81.012 45.9117 68.9286 58 54.023 58C39.1173 58 27.0339 45.9117 27.0339 31C27.0339 16.0883 39.1173 4 54.023 4Z" fill="white"/>
<path d="M39.5175 39.944V34.712L55.3575 13.4H63.5175L48.0135 34.712L44.2215 33.608H70.6695V39.944H39.5175ZM57.6135 47V39.944L57.8535 33.608V27.32H65.1975V47H57.6135Z" fill="#0B555F"/>
<path opacity="0.1" d="M184.402 128.918C183.782 129.536 183.149 130.136 182.503 130.718C182.394 130.818 182.281 130.918 182.171 131.018C179.878 133.036 177.449 134.894 174.903 136.58L174.43 136.892C174.316 136.97 174.203 137.043 174.084 137.115C171.443 138.842 168.704 140.432 165.933 141.937L165.904 141.955L165.695 142.067C163.459 143.281 161.19 144.443 158.887 145.552L158.832 145.576C157.794 146.071 156.756 146.554 155.718 147.023C155.294 147.223 154.868 147.401 154.442 147.588C153.643 147.935 152.843 148.276 152.028 148.603L151.928 148.646L151.755 148.715L151.539 148.805C149.427 149.66 147.286 150.449 145.118 151.173L145.08 151.185C143.567 151.684 142.045 152.146 140.514 152.571L140.305 152.63C138.056 153.246 135.77 153.775 133.47 154.198L132.94 154.298C131.258 154.597 129.564 154.842 127.859 155.031C118.274 156.08 108.575 155.231 99.0487 153.765C79.8135 150.809 60.8322 145.265 43.5213 136.581C40.1986 134.914 36.9409 133.13 33.7482 131.229C33.7222 131.213 33.7003 131.198 33.6743 131.184C31.763 130.046 29.8775 128.86 28.0176 127.626C27.4728 127.269 26.931 126.905 26.3922 126.538C25.7298 126.086 25.0704 125.629 24.414 125.166C23.5477 124.555 22.6814 123.928 21.8151 123.286L21.4103 122.98L21.2543 122.86C21.0344 122.693 20.8185 122.527 20.6006 122.36C12.4679 116.087 5.21483 108.485 1.78923 98.971C-2.17016 87.993 0.3638 74.071 10.1698 67.586C13.6416 65.4795 17.4443 63.975 21.4173 63.136L21.8221 63.036C22.4918 62.869 23.1615 62.7091 23.8273 62.5481C26.1613 61.9871 28.5084 61.4311 30.8324 60.8091C32.0439 60.4861 33.2424 60.1461 34.431 59.7801L34.9188 59.627C37.8117 58.7462 40.6254 57.6235 43.3303 56.271H43.3473C43.6399 56.1237 43.9284 55.9714 44.213 55.8141C44.3969 55.7141 44.5798 55.6141 44.7638 55.5141C47.7056 53.8561 66.5849 49.5511 76.8227 39.7571C87.0606 29.9631 79.1918 22.586 85.7191 16.339C91.4613 10.8718 99.5735 8.6725 107.289 10.4911C107.782 10.6161 108.276 10.748 108.766 10.883C114.076 12.3423 119.279 14.1652 124.339 16.339C137.556 21.971 150.029 29.791 161.685 38.42L162.031 38.675C162.518 39.0344 163.002 39.3951 163.483 39.7571C164.415 40.4564 165.338 41.16 166.251 41.868L166.869 42.344C167.174 42.5794 167.477 42.8154 167.778 43.052L168.705 43.779C168.75 43.8091 168.791 43.8425 168.83 43.8791L169.619 44.498C170.076 44.859 170.53 45.221 170.984 45.586L171.96 46.37C172.16 46.535 172.367 46.697 172.569 46.864L173.607 47.7231L173.839 47.9231C173.887 47.9621 173.939 48.001 173.983 48.045L174.012 48.0671C176.826 50.4061 179.572 52.831 182.145 55.401L182.477 55.734L182.512 55.769C182.792 56.051 183.073 56.3371 183.347 56.6261C186.719 60.0406 189.683 63.8349 192.18 67.933C203.482 86.934 200.124 113.26 184.402 128.918Z" fill="#1CE5AF"/>
<path d="M217.209 74.1772C217.334 73.8362 216.397 71.9422 216.397 71.8482C216.397 71.7542 215.417 70.7012 215.417 70.1092C215.417 69.5172 214.138 68.2472 214.138 68.2472C213.174 67.8433 212.464 66.9998 212.23 65.9812C212.042 64.4302 210.238 64.3972 210.169 64.3952C210.169 64.3952 210.169 64.2542 210.181 64.0382C210.212 63.4243 210.134 62.8097 209.95 62.2232C209.727 61.7957 209.345 61.4726 208.887 61.3232C208.81 60.7625 208.618 60.2238 208.322 59.7412C207.897 59.2948 207.732 58.6601 207.887 58.0632C207.972 57.5664 207.886 57.0556 207.643 56.6142C207.477 56.2107 207.143 55.9002 206.729 55.7652H206.696C205.796 55.5472 204.797 55.2142 204.797 55.2142C204.797 55.2142 204.697 55.2342 204.544 55.2552L204.419 55.2142C204.202 55.2544 203.984 55.2818 203.764 55.2962C203.572 55.3028 203.384 55.2411 203.233 55.1222C202.19 54.6143 201.071 54.2786 199.92 54.1282C199.292 53.9959 198.683 53.7874 198.105 53.5072L196.763 52.4822C196.309 51.9891 195.914 51.4444 195.587 50.8592L195.571 50.8372C195.474 50.6151 195.391 50.3866 195.325 50.1532C195.311 50.1102 195.301 50.0672 195.288 50.0202C195.56 49.7348 195.81 49.4282 196.034 49.1032V49.0932C196.095 49.0092 196.152 48.9172 196.208 48.8282C196.291 48.6949 196.369 48.5595 196.443 48.4222C196.474 48.3612 196.504 48.2992 196.535 48.2402C196.603 48.2379 196.67 48.2268 196.735 48.2072L196.819 48.1762C196.896 48.1407 196.969 48.0953 197.035 48.0412L197.098 47.9842C197.274 47.8181 197.408 47.6124 197.49 47.3842C197.512 47.3172 197.531 47.2492 197.547 47.1842C197.55 47.1599 197.556 47.136 197.565 47.1132C197.571 47.0912 197.586 47.0192 197.594 46.9702L197.606 46.8922C197.609 46.8453 197.617 46.7987 197.629 46.7532C197.633 46.7267 197.633 46.6997 197.629 46.6732C197.629 46.6162 197.645 46.5552 197.651 46.4972C197.678 46.2752 197.702 46.0582 197.751 45.8422C197.752 45.8389 197.752 45.8355 197.751 45.8322C197.853 45.4167 198.009 45.0161 198.213 44.6402C198.413 44.2622 198.625 43.8892 198.801 43.4992C198.852 43.3872 198.901 43.2742 198.944 43.1602C198.987 43.0462 199.03 42.9092 199.069 42.7822C199.074 42.7426 199.083 42.7037 199.096 42.6662C199.122 42.574 199.143 42.4805 199.159 42.3862C199.17 42.3454 199.178 42.304 199.183 42.2622C199.206 42.1332 199.222 42.0032 199.234 41.8702C199.297 41.1278 199.188 40.3808 198.913 39.6882C198.68 39.1002 198.325 38.5802 198.092 37.9982C197.734 37.1142 197.64 36.1142 197.201 35.2712C196.466 33.8575 194.815 33.1857 193.302 33.6852C192.625 33.9362 192.035 34.4282 191.343 34.6492C190.395 34.8433 189.415 34.8225 188.476 34.5882C187.522 34.358 186.515 34.5316 185.693 35.0682C184.81 35.7872 184.567 37.1402 183.734 37.9282C183.532 38.111 183.313 38.275 183.082 38.4182C182.913 38.5342 182.743 38.6472 182.582 38.7792C182.323 38.9844 182.123 39.2551 182.004 39.5632C181.996 39.5851 181.989 39.6075 181.983 39.6302C181.974 39.6563 181.966 39.6831 181.961 39.7102C181.958 39.7411 181.953 39.7718 181.947 39.8022C181.945 39.8238 181.945 39.8456 181.947 39.8672C181.944 39.9141 181.944 39.9612 181.947 40.0082V40.0322C181.951 40.0851 181.959 40.1377 181.972 40.1892V40.2322C181.981 40.2762 181.994 40.3194 182.011 40.3612C182.012 40.3698 182.012 40.3786 182.011 40.3872C182.027 40.4352 182.046 40.4822 182.068 40.5282C182.073 40.5532 182.082 40.5772 182.095 40.5992C182.106 40.6177 182.115 40.6375 182.122 40.6582C182.243 40.8871 182.341 41.128 182.412 41.3772C182.45 41.5358 182.44 41.7023 182.383 41.8552C182.353 41.9314 182.31 42.0023 182.258 42.0652C182.19 42.1507 182.117 42.2318 182.039 42.3082C181.417 42.9557 180.936 43.7252 180.627 44.5682C180.592 44.6682 180.558 44.7682 180.527 44.8602L180.568 44.8722L180.609 44.8822C180.685 44.9052 180.763 44.9216 180.841 44.9312C180.893 44.9401 180.946 44.9461 180.998 44.9492C181.213 44.9605 181.427 44.9434 181.637 44.8982C181.671 44.892 181.704 44.884 181.737 44.8742C181.748 44.8724 181.758 44.869 181.768 44.8642H181.788C181.964 44.8187 182.136 44.7592 182.302 44.6862C182.341 44.6682 182.382 44.6532 182.422 44.6332V45.3622C182.57 47.8715 183.985 50.1327 186.176 51.3622C186.288 51.4272 186.397 51.4872 186.511 51.5442C186.521 51.6112 186.531 51.6792 186.538 51.7442C186.545 51.8092 186.554 51.8562 186.56 51.9132L186.474 51.8332C186.401 51.8014 186.321 51.7853 186.241 51.7862C186.111 51.7865 185.983 51.821 185.869 51.8862C185.669 52.0013 185.502 52.165 185.382 52.3622C184.992 52.8911 184.461 53.2989 183.849 53.5382C183.849 53.5382 178.167 54.4382 177.944 55.1832L175.287 55.3402C175.287 55.3402 174.348 55.4642 174.256 57.4202V57.4652C174.242 57.6982 174.225 57.9062 174.203 58.0922V58.1192C174.038 59.4192 173.666 59.5622 173.666 59.5622C173.132 60.4544 172.792 61.4489 172.667 62.4812C172.668 62.4892 172.668 62.4972 172.667 62.5052C172.679 62.6391 172.67 62.7741 172.641 62.9052C172.517 63.3514 172.223 63.731 171.822 63.9622L171.699 65.7262C171.046 65.6601 170.462 66.1311 170.387 66.7832C170.267 67.4243 169.998 68.0284 169.603 68.5472C169.603 68.5472 167.885 69.9762 167.791 71.1862L166.727 71.8392C166.727 71.8392 164.26 71.2802 163.695 70.2862C163.695 70.2862 163.628 70.2192 163.523 70.1232L163.507 70.0992C163.507 70.1032 163.507 70.1072 163.507 70.1112C163.188 69.7802 162.843 69.4753 162.475 69.1992C162.547 69.3555 162.565 69.5316 162.526 69.6992L162.342 69.4992L161.85 68.9502C161.85 68.9502 161.15 68.2912 160.157 67.5052C159.931 67.3252 159.692 67.1409 159.441 66.9522C158.3 65.9943 156.962 65.2994 155.522 64.9172C155.498 64.8702 155.404 64.5172 155.183 64.5172C155.09 64.5252 155.003 64.5681 154.94 64.6372C154.272 65.2515 153.89 66.1165 153.886 67.0241C153.882 67.9318 154.256 68.8 154.919 69.4202L155.176 69.6592L155.976 70.4042L158.66 72.9132C158.693 72.9372 158.725 72.9622 158.76 72.9842L158.919 73.1842L159.043 73.3432L159.257 73.6152L159.565 74.0072C159.549 74.0482 159.532 74.0872 159.518 74.1272C159.402 74.4092 159.302 74.6842 159.218 74.9352V74.9622C159.198 75.0252 159.179 75.0842 159.161 75.1422C159.157 75.1633 159.151 75.1838 159.141 75.2032C159.121 75.2622 159.106 75.3212 159.088 75.3742C159.077 75.407 159.068 75.4403 159.061 75.4742C159.056 75.4949 159.049 75.5153 159.041 75.5352C158.953 75.8472 158.898 76.0862 158.869 76.2192L158.661 76.1542L158.861 76.2422C158.862 76.2532 158.862 76.2642 158.861 76.2752L158.849 76.3382C158.91 76.3672 158.974 76.3952 159.049 76.4222L159.094 76.4422L159.862 76.7812C160.017 76.8502 160.185 76.9222 160.362 77.0042C160.539 77.0862 160.682 77.1472 160.856 77.2222C162.577 77.9294 164.253 78.7426 165.874 79.6572C167.052 80.6735 168.716 80.9037 170.126 80.2452C171.186 79.7381 172.005 78.834 172.405 77.7282C173.093 76.8086 173.72 75.8444 174.282 74.8422C174.329 74.5562 175.168 74.2322 175.556 74.0972L175.593 74.0852L175.75 74.0342V74.5082C175.775 75.8998 175.679 77.2911 175.464 78.6662C175.463 78.6702 175.463 78.6743 175.464 78.6782C175.402 79.0358 175.297 79.3846 175.152 79.7172C174.433 81.2382 173.091 87.9782 173.091 87.9782H173.122C173.199 87.9641 173.278 87.96 173.356 87.9662C173.329 88.0912 173.311 88.1902 173.298 88.2562C173.284 88.3222 173.277 88.3562 173.277 88.3562H173.301C173.376 88.342 173.452 88.3372 173.528 88.3422C173.554 88.3435 173.579 88.3468 173.604 88.3522C173.601 88.3995 173.594 88.4466 173.584 88.4932V88.5422C173.584 88.5502 173.572 88.6032 173.568 88.6362C173.405 89.7572 172.936 92.6762 172.936 92.6762C172.857 93.4177 172.689 94.147 172.436 94.8482C172.271 95.355 172.182 95.8834 172.173 96.4162C172.173 96.5162 172.159 96.6162 172.151 96.7162C172.1 97.5472 172.092 98.3252 172.092 98.3252L172.078 98.3762L171.617 100.466C171.625 100.486 171.633 100.505 171.642 100.523C171.675 100.586 171.728 100.694 171.805 100.823L171.829 100.874C172.106 101.439 172.473 101.955 172.915 102.403C173.017 102.505 173.127 102.598 173.244 102.683C173.241 102.707 173.236 102.73 173.23 102.752C173.23 102.772 173.218 102.826 173.212 102.862C173.171 103.132 173.097 103.395 172.99 103.646C172.867 103.916 172.791 104.206 172.765 104.501C172.741 104.712 172.734 104.924 172.745 105.136L172.719 105.252C172.65 105.572 172.454 106.509 172.349 107.271C172.323 107.445 172.3 107.614 172.286 107.771C172.273 107.917 172.273 108.063 172.286 108.208C172.298 108.453 172.285 108.699 172.247 108.941C172.243 109.014 172.234 109.086 172.221 109.157C172.115 109.847 171.941 110.57 171.941 110.57L171.378 115.97V116.29C171.38 116.338 171.376 116.385 171.366 116.431C171.366 116.558 171.346 116.709 171.333 116.886C171.333 116.953 171.329 117.02 171.321 117.086C171.323 117.148 171.319 117.211 171.309 117.272V117.372C171.31 117.424 171.307 117.476 171.299 117.527C171.294 117.577 171.294 117.627 171.299 117.676V117.815C171.281 118.103 171.262 118.415 171.248 118.73V119.03C171.25 119.13 171.246 119.231 171.234 119.33V121.33C171.239 121.539 171.254 121.747 171.281 121.953C171.302 122.106 171.318 122.267 171.326 122.431V122.658C171.328 122.696 171.328 122.734 171.326 122.772V123.65C171.277 124.324 171.185 124.871 171.171 124.958V125.142C171.171 125.191 171.183 125.254 171.189 125.322V125.422C171.188 125.461 171.192 125.499 171.201 125.536C171.213 125.575 171.201 125.573 171.201 125.595C171.204 125.669 171.211 125.742 171.221 125.815C171.229 125.891 171.239 125.974 171.244 126.056L171.256 126.211C171.256 126.286 171.272 126.364 171.278 126.44V126.518C171.278 126.571 171.29 126.618 171.294 126.677L171.312 126.918C171.312 126.971 171.324 127.026 171.328 127.079C171.33 127.106 171.33 127.134 171.328 127.161L171.353 127.479C171.352 127.532 171.355 127.584 171.363 127.636C171.366 127.718 171.373 127.8 171.383 127.881C171.391 127.959 171.383 128.061 171.397 128.144C171.407 128.223 171.411 128.303 171.409 128.383C171.432 128.604 171.432 128.827 171.409 129.048C171.358 129.272 171.193 129.897 171.099 130.575C171.099 130.636 171.081 130.697 171.075 130.759C171.072 130.796 171.072 130.833 171.075 130.869L171.063 131.016C171.063 131.134 171.049 131.253 171.049 131.369C171.041 131.633 171.07 131.898 171.137 132.153C171.183 132.323 171.216 132.496 171.237 132.671C171.236 132.7 171.239 132.729 171.247 132.757C171.247 132.82 171.261 132.884 171.267 132.957C171.273 133.03 171.277 133.09 171.281 133.157C171.281 133.294 171.293 133.435 171.299 133.578V133.862C171.313 134.689 171.273 135.499 171.262 135.707V135.758C171.262 135.758 171.462 139.238 171.668 140.358C171.695 140.505 171.715 140.658 171.729 140.807C171.728 140.864 171.731 140.922 171.739 140.978C171.766 141.624 171.722 142.271 171.606 142.907C171.548 143.709 171.443 144.507 171.294 145.297C171.104 145.567 171.005 145.892 171.014 146.222V146.238C171 147.126 171.376 147.974 172.043 148.559L172.137 148.651L172.251 148.608C173.168 148.281 174.077 147.94 174.985 147.593C175.467 147.407 175.948 147.221 176.429 147.028C177.615 146.562 178.791 146.079 179.957 145.581C179.901 145.552 179.861 145.501 179.845 145.44C179.766 144.708 179.814 143.968 179.988 143.252C180.043 143.025 180.551 138.188 180.551 138.188C180.445 137.467 180.466 136.732 180.614 136.018C180.872 135.367 180.3 132.848 180.3 132.848C180.186 132.612 180.251 132.329 180.457 132.166C180.809 131.794 180.676 128.466 180.676 128.466C180.676 128.466 180.645 126.788 180.645 126.353C180.737 125.469 180.98 124.607 181.363 123.805C181.565 123.098 181.608 122.355 181.49 121.629L181.51 121.504C181.515 121.446 181.524 121.387 181.537 121.33L181.566 121.163C181.714 120.252 181.917 119.35 182.174 118.463C182.582 117.163 183.05 114.863 183.05 114.863L185.783 107.529L185.873 107.302L185.906 107.212C186.685 108.695 187.142 110.324 187.249 111.995C187.407 113.158 187.492 114.33 187.502 115.504C187.524 116.926 187.617 118.346 187.782 119.758C187.782 119.758 188.181 124.79 188.181 125.006C188.332 126.583 188.604 128.146 188.997 129.681C189.311 130.269 188.683 132.073 188.497 132.259C188.424 133.843 188.445 135.43 188.56 137.011C188.56 137.011 188.088 140.611 187.996 141.357C187.978 141.492 187.951 141.696 187.922 141.945C191.056 140.439 194.163 138.845 197.153 137.122C197.282 137.049 197.41 136.977 197.545 136.899L197.567 132.443C197.683 131.472 197.673 130.49 197.536 129.522C197.285 128.681 197.036 127.072 197.381 126.636C197.726 126.2 197.412 124.184 197.412 124.184C197.412 124.184 197.412 119.928 197.88 118.873C198.349 117.818 198.194 111.141 198.194 111.141L198.318 106.762C198.318 106.762 199.318 105.817 199.102 100.922V100.737C199.934 100.624 200.779 100.639 201.606 100.782C202.535 101.508 203.691 101.882 204.869 101.837C205.083 101.796 205.288 101.711 205.468 101.588C206.013 101.214 206.536 100.81 207.036 100.377L206.536 92.0002L206.483 91.0692C206.577 91.2122 206.659 91.3402 206.73 91.4612C206.93 91.7612 207.03 91.9412 207.03 91.9412C207.03 90.6412 210.719 86.4152 210.719 86.4152C212.025 84.6847 213.422 83.0259 214.907 81.4462C215.784 80.4366 216.53 79.3201 217.127 78.1232C217.344 77.5901 217.594 77.0714 217.877 76.5702C218.214 76.0102 217.084 74.5182 217.209 74.1772ZM206.206 80.1372C206.138 80.4459 205.995 80.7331 205.79 80.9742C205.774 80.7742 205.759 80.5962 205.743 80.4002V80.3492C205.522 78.236 205.406 76.113 205.396 73.9882C205.496 73.4609 205.539 72.9246 205.525 72.3882C205.539 71.6372 205.525 70.9222 205.525 70.9222L205.56 70.8732C206.192 72.4174 207.066 73.8509 208.149 75.1192C208.149 75.1192 208.494 76.1132 208.9 76.1442C209.306 76.1752 209.149 77.4442 209.149 77.4442C208.96 77.4757 208.779 77.5436 208.616 77.6442C208.423 77.7555 208.239 77.8805 208.063 78.0182C207.287 78.5698 206.651 79.2955 206.206 80.1372Z" fill="url(#paint0_linear_700_869)"/>
<path d="M159.035 76.7371C159.035 76.7371 160.176 70.7581 163.84 70.7271L166.521 76.243L164.722 77.4681C164.722 77.4681 160.846 77.5921 159.035 76.7371Z" fill="#65617D"/>
<path opacity="0.1" d="M166.513 76.2361L164.714 77.4691C163.143 77.5125 161.573 77.3811 160.031 77.0771C159.687 76.9973 159.353 76.8838 159.031 76.7381C159.033 76.704 159.04 76.6703 159.051 76.6381C159.051 76.6304 159.051 76.6227 159.051 76.6151C159.22 75.8634 159.452 75.1275 159.745 74.4151C159.857 74.1461 159.986 73.8701 160.123 73.5941C160.611 72.5216 161.424 71.6302 162.447 71.0461C162.828 70.8589 163.243 70.7501 163.667 70.7261H163.83L163.891 70.8481L164.797 72.7121L166.513 76.2361Z" fill="black"/>
<path d="M196.948 101.079C196.948 101.079 200.798 100.71 201.137 100.987C201.476 101.264 203.663 102.687 204.959 101.787C206.254 100.887 205.389 97.7802 205.389 97.6572C205.389 97.5342 205.265 93.1272 205.265 93.1272L202.955 90.0142L200.057 84.5602L194.143 83.9722L194.296 92.6332L194.266 97.0712L196.948 101.079Z" fill="#65617D"/>
<path opacity="0.1" d="M196.948 101.079C196.948 101.079 200.798 100.71 201.137 100.987C201.476 101.264 203.663 102.687 204.959 101.787C206.254 100.887 205.389 97.7802 205.389 97.6572C205.389 97.5342 205.265 93.1272 205.265 93.1272L202.955 90.0142L200.057 84.5602L194.143 83.9722L194.296 92.6332L194.266 97.0712L196.948 101.079Z" fill="black"/>
<path d="M163.062 70.5662C163.062 70.5662 162.762 74.3263 160.407 74.3853C159.87 74.0567 159.351 73.7009 158.851 73.3193C156.794 71.7803 153.532 68.8192 154.432 66.0662C155.726 62.1222 162.01 69.3993 162.01 69.3993L162.494 69.9403L163.062 70.5662Z" fill="#A5636D"/>
<path opacity="0.1" d="M163.062 70.5661C163.062 70.5661 162.762 74.3261 160.407 74.3851C159.87 74.0559 159.351 73.6995 158.851 73.3171L158.651 73.0601C159.049 73.2684 159.487 73.3869 159.935 73.4071C160.66 73.444 161.331 73.021 161.61 72.3502C161.856 71.8662 162.073 71.368 162.259 70.8582C162.37 70.5591 162.449 70.2489 162.494 69.9331L163.062 70.5661Z" fill="black"/>
<path d="M162.044 77.3761L161.517 76.6981L159.754 74.4141L158.838 73.2471C159.235 73.4545 159.673 73.5722 160.12 73.592C160.846 73.6298 161.517 73.2066 161.795 72.5351C162.042 72.0515 162.258 71.5533 162.444 71.0431C162.736 70.2121 162.73 69.7841 162.626 69.6431C162.987 69.9201 163.327 70.2229 163.644 70.5491L163.658 70.5611L163.827 70.722L163.892 70.847L164.784 72.6331V72.7071C164.866 73.2711 165.166 76.8661 162.044 77.3761Z" fill="#E7EFFD"/>
<path d="M179.928 145.546C179.872 145.498 179.81 145.457 179.744 145.424H179.728C179.359 145.269 179.697 143.358 179.759 143.111C179.821 142.864 180.314 138.096 180.314 138.096C180.214 137.379 180.236 136.65 180.377 135.94C180.431 134.885 180.327 133.827 180.067 132.803C179.961 132.568 180.024 132.291 180.222 132.125C180.561 131.754 180.438 128.457 180.438 128.457C180.438 128.457 180.409 126.795 180.409 126.357C180.497 125.48 180.737 124.625 181.116 123.83C181.317 123.129 181.359 122.393 181.24 121.674L181.258 121.549C181.268 121.504 181.276 121.449 181.286 121.377L181.315 121.212C181.319 121.17 181.327 121.128 181.337 121.087C181.355 120.987 181.374 120.887 181.396 120.765C181.408 120.694 181.421 120.62 181.437 120.545C181.482 120.31 181.537 120.051 181.592 119.786C181.61 119.704 181.629 119.619 181.649 119.537C181.669 119.455 181.696 119.337 181.722 119.237C181.738 119.176 181.751 119.117 181.769 119.057C181.814 118.877 181.863 118.702 181.916 118.536C182.308 117.236 182.781 114.96 182.781 114.96L185.643 107.436L185.676 107.346L185.766 107.52C186.489 108.942 186.908 110.498 186.999 112.09C187.156 113.244 187.238 114.407 187.246 115.572C187.266 116.984 187.359 118.393 187.524 119.795C187.524 119.795 187.916 124.786 187.916 125.002C188.063 126.572 188.33 128.127 188.715 129.656C188.834 130.537 188.66 131.432 188.221 132.205C188.148 133.777 188.169 135.352 188.284 136.922C188.284 136.922 187.822 140.496 187.728 141.235C187.708 141.411 187.669 141.707 187.628 142.07L187.865 141.958L187.898 141.94C191.033 140.434 194.139 138.84 197.129 137.117L197.154 132.391C197.268 131.427 197.259 130.452 197.125 129.491C196.88 128.66 196.631 127.056 196.968 126.623C197.305 126.19 197.001 124.19 197.001 124.19C197.001 124.19 197.001 119.967 197.462 118.921C197.922 117.875 197.772 111.246 197.772 111.246L197.894 106.902C197.894 106.902 198.899 105.943 198.661 100.941C198.636 100.408 198.596 99.829 198.541 99.198C198.37 97.31 198.198 95.598 198.041 94.121C198.027 93.994 198.014 93.868 198 93.747C197.984 93.582 197.965 93.42 197.949 93.261C197.913 92.926 197.877 92.604 197.842 92.298C197.83 92.208 197.82 92.12 197.811 92.031C197.76 91.5917 197.712 91.1866 197.668 90.816C197.652 90.671 197.633 90.528 197.617 90.393C197.591 90.193 197.568 90.001 197.546 89.819C197.543 89.7757 197.537 89.7326 197.528 89.69C197.524 89.6145 197.515 89.5393 197.501 89.465C197.401 88.665 197.338 88.228 197.338 88.228H197.311L194.212 88.255L187.45 88.32H187.25L183.722 88.353H183.506L181.813 88.371H181.525L177.998 88.404H177.784L176.335 94.375L173.378 101.156C173.378 101.156 173.334 101.899 173.23 102.624V102.667C173.232 102.691 173.228 102.716 173.218 102.738C173.208 102.774 173.202 102.811 173.2 102.848C173.159 103.177 173.075 103.5 172.951 103.807C172.851 104.021 172.784 104.249 172.751 104.483C172.712 104.731 172.697 104.983 172.706 105.234V105.275C172.706 105.275 172.471 106.343 172.333 107.253C172.308 107.427 172.284 107.596 172.27 107.753C172.243 107.943 172.234 108.135 172.243 108.327C172.254 108.523 172.246 108.72 172.221 108.915C172.217 108.988 172.209 109.06 172.196 109.131C172.096 109.852 171.906 110.66 171.906 110.66L171.349 116.024C171.35 116.03 171.35 116.036 171.349 116.042V116.266C171.351 116.313 171.347 116.361 171.337 116.407C171.337 116.534 171.317 116.685 171.304 116.862C171.304 116.929 171.3 116.996 171.292 117.062C171.294 117.124 171.29 117.186 171.28 117.248V117.348C171.281 117.4 171.278 117.452 171.27 117.503C171.265 117.553 171.265 117.602 171.27 117.652V117.791C171.254 118.079 171.235 118.391 171.221 118.707V119.007C171.223 119.107 171.219 119.207 171.207 119.307V121.318C171.21 121.537 171.225 121.756 171.254 121.973C171.274 122.118 171.289 122.267 171.299 122.42V123.639C171.25 124.313 171.158 124.86 171.144 124.947V125.131C171.144 125.18 171.156 125.243 171.162 125.311V125.411C171.161 125.449 171.165 125.488 171.174 125.525C171.186 125.564 171.174 125.562 171.174 125.584C171.174 125.655 171.186 125.727 171.194 125.804C171.202 125.881 171.21 125.963 171.217 126.045L171.229 126.2C171.229 126.274 171.245 126.353 171.251 126.429V126.507C171.251 126.56 171.263 126.607 171.267 126.666L171.285 126.907C171.285 126.96 171.297 127.015 171.301 127.068V127.15L171.327 127.468C171.326 127.521 171.329 127.573 171.337 127.625C171.337 127.707 171.349 127.792 171.357 127.87C171.365 127.948 171.357 128.05 171.371 128.133C171.381 128.212 171.385 128.292 171.383 128.372C171.403 128.586 171.403 128.801 171.383 129.015C171.254 129.526 171.152 130.043 171.077 130.564C171.077 130.625 171.059 130.686 171.053 130.748C171.05 130.785 171.05 130.821 171.053 130.858L171.041 131.005C171.041 131.123 171.027 131.242 171.027 131.358C171.023 131.607 171.052 131.856 171.115 132.097C171.169 132.311 171.205 132.528 171.223 132.748C171.239 132.873 171.249 133.007 171.256 133.14C171.263 133.273 171.268 133.418 171.274 133.562V133.846C171.286 134.777 171.235 135.667 171.235 135.667C171.235 135.675 171.235 135.683 171.235 135.691V135.707C171.255 136.099 171.435 139.191 171.627 140.23C171.661 140.414 171.684 140.6 171.696 140.787C171.695 140.844 171.698 140.901 171.706 140.958C171.72 141.561 171.674 142.164 171.567 142.758C171.486 143.562 171.359 144.362 171.187 145.152C170.977 145.468 170.879 145.846 170.911 146.224V146.24C170.944 147.067 171.311 147.845 171.928 148.396L172.148 148.616C173.065 148.289 173.974 147.947 174.882 147.6C175.364 147.414 175.845 147.228 176.326 147.035C177.512 146.568 178.688 146.086 179.854 145.588L179.928 145.546Z" fill="#3F3D56"/>
<path d="M196.086 52.936L191.523 57.8079C191.523 57.8079 185.671 55.456 186.287 54.671C186.516 53.9009 186.538 53.0841 186.35 52.303C186.134 50.596 185.672 48.629 185.672 48.629C185.672 48.629 195.899 46.9649 195.036 48.6919C194.759 49.3423 194.736 50.0724 194.971 50.7389C195.223 51.5261 195.6 52.2678 196.086 52.936Z" fill="#A5636D"/>
<path opacity="0.1" d="M195.038 48.6844C194.724 49.3134 194.573 49.3744 194.77 50.0564C193.433 51.4914 191.732 53.0614 189.618 53.0614C188.485 53.0633 187.367 52.8014 186.353 52.2964C186.137 50.5894 185.676 48.6223 185.676 48.6223C185.676 48.6223 195.901 46.9574 195.038 48.6844Z" fill="black"/>
<path d="M196.95 45.541C196.981 48.1822 195.59 50.636 193.309 51.9655C191.027 53.2951 188.208 53.2951 185.926 51.9655C183.645 50.636 182.254 48.1822 182.285 45.541C182.285 45.5057 182.285 45.4703 182.285 45.435C182.304 42.8145 183.719 40.4031 185.997 39.1092C188.275 37.8153 191.07 37.8356 193.329 39.1622C195.588 40.4889 196.968 42.9205 196.949 45.541H196.95Z" fill="#A5636D"/>
<path opacity="0.1" d="M198.01 93.9302C197.031 93.9302 193.805 93.9653 190.192 94.0223H190.147L188.953 94.0422H188.916C184.631 94.1112 180.408 93.2743 178.712 93.4323C175.107 93.7713 180.006 90.0992 180.006 90.0992C182.692 90.7511 185.454 91.0307 188.216 90.9302L189.253 90.8752C192.041 90.8015 194.816 90.4633 197.54 89.8652C197.66 90.8232 197.834 92.2092 198.01 93.9302Z" fill="black"/>
<path d="M198.01 93.7452C197.031 93.7452 193.805 93.7782 190.192 93.8372H190.147L188.953 93.8572H188.916C184.631 93.9262 180.408 93.0892 178.712 93.2472C175.107 93.5842 180.006 89.9142 180.006 89.9142C182.692 90.566 185.455 90.8449 188.216 90.7432L189.253 90.6902C192.041 90.6155 194.815 90.2773 197.54 89.6802C197.66 90.6382 197.834 92.0282 198.01 93.7452Z" fill="#5F5D7E"/>
<path opacity="0.1" d="M187.64 54.9772L181.971 57.6273L177.599 91.4592C177.599 91.4592 180.186 90.2833 181.665 91.0283C183.145 91.7733 187.703 91.0912 187.703 91.0912C187.703 91.0912 191.034 90.8913 191.522 91.2753C192.01 91.6593 197.809 89.7343 197.809 89.7343C197.809 89.7343 198.855 87.3913 198.053 87.0233C197.252 86.6553 198.3 83.0103 198.3 83.0103L197.809 58.6022L196.829 55.4653L194.18 53.8652L191.47 56.0212L190.177 56.2073L187.64 54.9772Z" fill="black"/>
<path d="M187.64 54.601L181.973 57.251L177.6 91.0909C177.6 91.0909 180.187 89.915 181.666 90.66C183.146 91.405 187.704 90.7209 187.704 90.7209C187.704 90.7209 191.035 90.537 191.523 90.905C192.011 91.273 197.81 89.364 197.81 89.364C197.81 89.364 198.856 87.023 198.054 86.653C197.253 86.283 198.301 82.6459 198.301 82.6459L197.81 58.238L196.83 55.101L194.181 53.501L191.471 55.6569L190.178 55.8409L187.64 54.601Z" fill="#E7EFFD"/>
<path opacity="0.1" d="M187.555 56.1732C187.555 56.1732 189.189 58.1142 189.154 58.5162C189.119 58.9182 189.062 59.8712 189.062 59.8712L187.84 62.3712C187.84 62.3712 187.162 65.4842 187.162 66.1312C187.162 66.7782 186.084 72.3862 186.084 72.3862L184.791 81.0122L183.157 92.3202L184.82 95.1862L186.791 93.5222L189.407 73.3702L189.962 69.3942C189.962 69.3942 190.55 62.2452 190.55 61.5062C190.485 60.6067 190.371 59.7115 190.211 58.8242C190.457 57.7574 191.239 56.8945 192.276 56.5442C193.939 56.1132 192.152 56.4502 192.152 56.4502L191.197 55.6802L190.365 56.0192C190.365 56.0192 188.046 55.3102 187.555 56.1732Z" fill="black"/>
<path d="M187.368 55.9891C187.368 55.9891 189 57.9301 188.967 58.3301C188.934 58.7301 188.873 59.6871 188.873 59.6871L187.641 62.1871C187.641 62.1871 186.963 65.2981 186.963 65.9451C186.963 66.5921 185.885 72.2021 185.885 72.2021L184.586 80.8281L182.961 92.1342L184.624 95.0001L186.595 93.3361L189.211 73.1851L189.766 69.2091C189.766 69.2091 190.354 62.0602 190.354 61.3192C190.289 60.4204 190.176 59.5258 190.015 58.6392C190.256 57.57 191.039 56.7046 192.078 56.3571C193.749 55.9261 191.956 56.2651 191.956 56.2651L190.999 55.4951L190.169 55.8341C190.169 55.8341 187.859 55.1251 187.368 55.9891Z" fill="#009B84"/>
<path opacity="0.1" d="M186.29 52.752C186.29 52.752 186.043 52.9359 185.982 54.1689C185.787 55.5281 185.477 56.8685 185.058 58.176C185.058 58.176 188.261 55.9569 189.865 56.2039L186.29 52.752Z" fill="black"/>
<path d="M186.29 52.3818C186.29 52.3818 186.043 52.5678 185.982 53.7988C185.786 55.1579 185.477 56.4983 185.058 57.8058C185.058 57.8058 188.261 55.5868 189.865 55.8338L186.29 52.3818Z" fill="#E7EFFD"/>
<path opacity="0.1" d="M195.04 51.7661L189.996 56.2041C191.654 57.1611 193.259 58.2084 194.803 59.3411C195.358 59.9511 195.912 53.3011 195.912 53.3011L195.04 51.7661Z" fill="black"/>
<path d="M195.225 51.396L190.173 55.834C191.83 56.7911 193.435 57.8383 194.978 58.971C195.532 59.581 196.087 52.929 196.087 52.929L195.225 51.396Z" fill="#E7EFFD"/>
<path opacity="0.1" d="M186.466 52.7517C186.466 52.7517 185.911 52.4738 185.389 53.2748C185.004 53.799 184.482 54.2061 183.88 54.4507C183.88 54.4507 178.272 55.3447 178.057 56.0837L175.439 56.2367C175.439 56.2367 174.514 56.3488 174.427 58.3088C174.34 60.2688 173.839 60.4338 173.839 60.4338C173.312 61.3204 172.978 62.3087 172.86 63.3337C172.887 63.9456 172.564 64.5198 172.027 64.8138L175.885 74.8197C175.885 74.8197 176.008 78.9498 175.298 80.4598C174.587 81.9698 173.264 88.6598 173.264 88.6598C173.264 88.6598 173.818 88.5367 173.786 88.9067C173.754 89.2767 173.109 93.3138 173.109 93.3138C173.035 94.0501 172.87 94.7744 172.617 95.4698C172.377 96.6044 172.263 97.7621 172.278 98.9217L171.77 101.022C171.77 101.022 172.946 103.641 174.729 103.271C176.512 102.901 179.749 95.9057 179.749 95.9057L181.812 88.3567L183.411 80.8977L183.874 75.8437L184.613 64.6557L185.691 57.2557C185.691 57.2557 186.906 53.2757 186.466 52.7517Z" fill="black"/>
<path d="M186.289 52.3819C186.289 52.3819 185.734 52.1059 185.212 52.9069C184.827 53.4314 184.304 53.8386 183.701 54.0829C183.701 54.0829 178.095 54.9769 177.88 55.7159L175.262 55.8709C175.262 55.8709 174.337 55.9949 174.245 57.9349C174.153 59.8749 173.657 60.0619 173.657 60.0619C173.131 60.9489 172.797 61.9371 172.678 62.9619C172.706 63.5729 172.384 64.1465 171.847 64.4399L175.692 74.4499C175.692 74.4499 175.814 78.5799 175.104 80.0899C174.393 81.5999 173.072 88.2899 173.072 88.2899C173.072 88.2899 173.626 88.1659 173.594 88.5369C173.562 88.9079 172.917 92.9439 172.917 92.9439C172.843 93.6803 172.678 94.4046 172.425 95.0999C172.185 96.2345 172.071 97.3922 172.086 98.5519L171.596 100.657C171.596 100.657 172.772 103.276 174.553 102.907C176.334 102.538 179.575 95.5399 179.575 95.5399L181.638 87.9909L183.237 80.5419L183.698 75.4879L184.439 64.3019L185.517 56.9019C185.517 56.9019 186.721 52.9109 186.289 52.3819Z" fill="#65617D"/>
<path opacity="0.1" d="M166.512 76.2361L164.713 77.4691C163.142 77.5125 161.572 77.381 160.03 77.0771L159.03 76.636L158.83 76.5481L159.036 76.6131C159.829 76.897 160.69 76.9277 161.501 76.701C164.031 75.85 163.75 71.6731 163.656 70.7281C163.656 70.6682 163.649 70.6085 163.636 70.55C163.636 70.5461 163.636 70.5421 163.636 70.5381L163.652 70.5611C163.686 70.6188 163.725 70.6733 163.768 70.7241C163.804 70.7664 163.842 70.8065 163.882 70.8441L164.774 72.6301V72.704L166.512 76.2361Z" fill="black"/>
<path d="M172.705 64.1909L171.842 64.4379L171.718 66.202C171.072 66.1378 170.496 66.6057 170.425 67.251C170.305 67.8898 170.042 68.493 169.655 69.015C169.655 69.015 167.956 70.432 167.868 71.634L166.819 72.2809C166.819 72.2809 164.385 71.7259 163.83 70.7399C163.83 70.7399 164.94 78.6909 159.025 76.7499C159.025 76.7499 165.649 79.6499 165.957 80.0499C167.116 81.0528 168.755 81.2829 170.146 80.6379C171.199 80.1251 172.007 79.2169 172.395 78.111C173.074 77.1975 173.691 76.2401 174.243 75.2449C174.304 74.8739 175.692 74.4449 175.692 74.4449L178.34 68.0369L172.705 64.1909Z" fill="#65617D"/>
<path opacity="0.1" d="M194.331 55.4659L195.225 51.3979C195.381 51.9898 195.652 52.5448 196.024 53.0309C196.434 53.3389 197.349 54.048 197.349 54.048C197.916 54.3265 198.516 54.5341 199.134 54.666C200.268 54.8166 201.371 55.1474 202.401 55.6459C202.709 55.9789 203.941 55.738 203.941 55.738C203.941 55.738 204.958 56.077 205.851 56.293C206.745 56.509 207.176 57.9929 206.99 58.5729C206.839 59.1648 207.001 59.7928 207.421 60.2369C207.715 60.7143 207.904 61.2488 207.975 61.8049C208.429 61.9527 208.806 62.2742 209.024 62.699C209.222 63.3995 209.295 64.1291 209.24 64.8549L204.651 71.324C204.692 72.3423 204.65 73.3623 204.527 74.374C204.343 74.929 205.174 84.3599 205.174 84.3599L206.128 100.57C205.638 100.999 205.124 101.4 204.588 101.77C204.31 101.894 204.033 96.038 204.033 95.822C204.033 95.606 196.918 85.158 196.918 85.158C196.531 84.5685 196.21 83.938 195.961 83.278C195.961 82.939 195.068 79.8279 195.068 79.8279L193.717 73.8279L194.331 55.4659Z" fill="black"/>
<path d="M209.623 64.5107C209.623 64.7227 209.611 64.8638 209.611 64.8638L205.024 71.3328C205.066 72.3517 205.025 73.3724 204.902 74.3848C204.794 74.7068 205.029 78.0228 205.247 80.7458C205.402 82.7058 205.546 84.3688 205.546 84.3688L205.946 91.2458L206.495 100.581C206.005 101.009 205.492 101.41 204.957 101.781C204.681 101.905 204.402 96.0487 204.402 95.8307C204.402 95.6127 197.281 85.1648 197.281 85.1648C196.894 84.5745 196.574 83.9433 196.326 83.2828C196.326 82.9438 195.433 79.8307 195.433 79.8307L194.078 73.8228L194.694 55.4537L195.217 51.3857C195.544 51.9737 195.939 52.5217 196.392 53.0187C196.798 53.3247 197.715 54.0358 197.715 54.0358C198.283 54.3142 198.883 54.5215 199.502 54.6528C200.636 54.8034 201.739 55.1342 202.769 55.6328C203.078 55.9658 204.309 55.7248 204.309 55.7248C204.309 55.7248 205.325 56.0638 206.217 56.2798C207.11 56.4958 207.542 57.9798 207.358 58.5598C207.206 59.1516 207.368 59.7802 207.789 60.2238C208.082 60.7014 208.271 61.2358 208.343 61.7917C208.797 61.9401 209.174 62.2614 209.392 62.6858C209.575 63.276 209.653 63.8936 209.623 64.5107Z" fill="#65617D"/>
<path opacity="0.1" d="M176.332 147.022C175.852 147.222 175.37 147.4 174.888 147.587C173.377 147.146 171.966 146.626 171.966 146.626C173.428 146.68 174.885 146.813 176.332 147.026V147.022Z" fill="black"/>
<path opacity="0.1" d="M190.911 130.569C190.911 130.569 194.578 131.432 194.793 132.018L190.911 130.569Z" fill="black"/>
<path opacity="0.1" d="M176.771 133.219C176.771 133.219 174.86 133.774 176.71 134.883C178.56 135.992 176.771 133.219 176.771 133.219Z" fill="black"/>
<path opacity="0.1" d="M185.242 103.594C185.458 103.594 188.816 102.485 189.986 102.978C190.824 103.291 191.711 103.458 192.606 103.47L185.242 103.594Z" fill="black"/>
<path opacity="0.1" d="M185.685 107.123L185.652 107.429L182.78 114.945C182.78 114.945 182.317 117.225 181.915 118.519C181.663 119.398 181.463 120.292 181.315 121.195L183.862 105.422L185.685 107.123Z" fill="black"/>
<path d="M190.147 93.8373L188.953 93.8573H188.917L188.216 90.7503C188.559 90.7343 188.907 90.7173 189.254 90.6953L190.147 93.8373Z" fill="#3F3D56"/>
<path d="M204.681 90.0674L203.914 90.7004L201.361 92.8114C201.361 92.8114 194.43 96.5114 192.522 92.9954C190.838 89.8954 198.696 87.6954 200.589 87.2084C200.846 87.1434 200.989 87.1084 200.989 87.1084L204.681 90.0674Z" fill="#A5636D"/>
<path opacity="0.1" d="M175.078 59.7783C175.078 59.7783 176.433 60.3963 176.74 61.2583C177.047 62.1203 175.078 59.7783 175.078 59.7783Z" fill="black"/>
<path opacity="0.1" d="M170.887 69.0254C170.887 69.0254 168.915 71.4254 169.711 72.3584C170.507 73.2914 170.887 69.0254 170.887 69.0254Z" fill="black"/>
<path opacity="0.1" d="M206.129 61.1348C206.129 61.1348 204.28 61.3188 204.218 62.9228L206.129 61.1348Z" fill="black"/>
<path opacity="0.1" d="M189 86.406C189.2 86.222 193.436 79.937 194.422 80.49L189 86.406Z" fill="black"/>
<path opacity="0.1" d="M196.95 45.5404C196.951 46.7484 196.653 47.9378 196.082 49.0024H196.029C195.564 48.9024 195.324 48.3634 194.969 48.0224C194.521 47.5971 193.853 47.5034 193.305 47.7894C192.755 48.1185 192.438 48.7316 192.489 49.3714C192.254 48.3914 192.328 47.3344 192.097 46.3464C191.866 45.3584 191.178 44.3564 190.234 44.3394C189.826 44.3394 189.352 44.4904 189.058 44.1844C188.88 44.0004 188.844 43.7104 188.711 43.4844C188.036 42.3924 185.981 42.9454 185.143 43.5064C184.243 44.2253 183.289 44.8723 182.288 45.4414C182.317 41.3903 185.623 38.1301 189.673 38.1594C193.722 38.1886 196.981 41.4964 196.952 45.5474L196.95 45.5404Z" fill="black"/>
<path d="M188.71 43.2911C188.843 43.5141 188.879 43.8051 189.057 43.9911C189.351 44.2911 189.825 44.138 190.233 44.146C191.177 44.162 191.867 45.163 192.096 46.151C192.325 47.139 192.251 48.1901 192.488 49.1761C192.438 48.5368 192.755 47.9246 193.305 47.596C193.852 47.3098 194.52 47.4035 194.967 47.829C195.322 48.166 195.554 48.7071 196.029 48.8091C196.504 48.9111 196.943 48.4601 197.111 47.9701C197.229 47.464 197.318 46.9515 197.376 46.435C197.704 45.5203 198.097 44.63 198.551 43.771C198.965 42.659 198.954 41.4335 198.52 40.329C198.289 39.741 197.946 39.229 197.711 38.651C197.358 37.773 197.264 36.783 196.833 35.946C196.117 34.5473 194.487 33.8812 192.997 34.378C192.327 34.631 191.744 35.1191 191.064 35.3371C190.13 35.529 189.164 35.5088 188.238 35.2781C187.297 35.05 186.304 35.2224 185.495 35.7541C184.623 36.4681 184.383 37.8081 183.564 38.5931C183.219 38.9221 182.793 39.1321 182.43 39.4361C182.031 39.7284 181.796 40.1928 181.795 40.6871C181.85 41.3261 182.475 41.9061 182.244 42.4961C182.161 42.6678 182.044 42.8211 181.901 42.9471C181.215 43.6674 180.705 44.5363 180.41 45.4861C182.06 46.0021 183.843 44.1861 185.134 43.3301C185.982 42.7551 188.037 42.2001 188.71 43.2911Z" fill="#4C3E42"/>
<path opacity="0.1" d="M204.681 90.067L203.915 90.7C202.889 89.4533 201.731 88.3208 200.462 87.322L200.582 87.2059C200.839 87.1409 200.982 87.106 200.982 87.106L204.681 90.067Z" fill="black"/>
<path d="M205.421 88.9319C205.421 88.9319 205.146 89.618 204.861 90.212C204.576 90.806 204.273 91.3429 204.249 90.9059C204.218 90.0409 200.645 87.1439 200.645 87.1439L201.129 86.674L201.692 86.127L205.421 88.9319Z" fill="#E7EFFD"/>
<path opacity="0.1" d="M205.544 84.3711L205.944 91.248C204.988 89.76 202.36 85.9481 200.671 86.0671L204.77 81.3671C204.941 81.1787 205.098 80.9782 205.241 80.7671C205.397 82.7141 205.544 84.3711 205.544 84.3711Z" fill="black"/>
<path opacity="0.1" d="M205.421 88.9319C205.421 88.9319 205.146 89.618 204.861 90.212C203.787 88.738 202.313 86.999 201.137 86.674L201.7 86.127L205.421 88.9319Z" fill="black"/>
<path d="M208.502 63.9951L209.612 64.8582C209.612 64.8582 211.46 64.8891 211.644 66.4261C211.873 67.4347 212.572 68.2718 213.523 68.6761C213.523 68.6761 214.787 69.9391 214.787 70.5251C214.787 71.1111 215.741 72.1581 215.741 72.2501C215.741 72.3421 216.666 74.2222 216.541 74.5612C216.416 74.9002 217.521 76.3801 217.188 76.9351C216.909 77.4328 216.663 77.9475 216.449 78.4761C215.863 79.6648 215.127 80.7737 214.26 81.7761C212.795 83.343 211.417 84.9888 210.133 86.7061C210.133 86.7061 206.498 90.8971 206.498 92.1951C206.498 92.1951 202.955 86.2771 200.86 86.4321L204.959 81.7171C204.959 81.7171 205.666 80.9471 205.697 80.4841C205.728 80.0211 207.669 77.8941 208.596 77.8021C208.596 77.8021 208.749 76.5381 208.349 76.5081C207.949 76.4781 207.611 75.4911 207.611 75.4911C207.611 75.4911 204.899 72.2862 204.868 70.2512C204.837 68.2162 208.502 63.9951 208.502 63.9951Z" fill="#65617D"/>
<path opacity="0.1" d="M210.134 66.9351C210.134 66.9351 207.544 68.8441 208.099 69.4621C208.654 70.0801 210.134 66.9351 210.134 66.9351Z" fill="black"/>
<path opacity="0.1" d="M210.258 74.8172C210.258 74.8172 215.063 73.2762 215.548 74.8172H210.258Z" fill="black"/>
<path opacity="0.1" d="M176.356 66.5591C176.356 66.5591 176.356 73.5851 175.756 74.2791C175.156 74.9731 176.356 66.5591 176.356 66.5591Z" fill="black"/>
<path opacity="0.1" d="M204.126 68.8232L205.02 71.3342C205.02 71.3342 205.375 68.8702 204.126 68.8232Z" fill="black"/>
<g opacity="0.1">
<path d="M182.354 41.8861C182.579 41.3081 181.989 40.7411 181.911 40.1221C181.833 40.2968 181.799 40.488 181.811 40.6791C181.85 41.1481 182.203 41.5791 182.287 42.0161C182.313 41.9749 182.336 41.9314 182.354 41.8861Z" fill="black"/>
<path d="M192.569 48.5241C192.347 47.5441 192.412 46.5241 192.189 45.5521C191.966 44.5801 191.27 43.5601 190.326 43.5451C189.918 43.5451 189.444 43.6941 189.15 43.3901C188.972 43.2061 188.936 42.9161 188.803 42.6901C188.13 41.5981 186.075 42.1511 185.235 42.7121C183.975 43.5491 182.245 45.3021 180.628 44.9061C180.551 45.0921 180.479 45.2801 180.418 45.4741C182.068 45.9901 183.851 44.1741 185.142 43.3181C185.982 42.7591 188.034 42.2051 188.71 43.2981C188.843 43.5211 188.879 43.8121 189.057 43.9981C189.351 44.2981 189.825 44.1451 190.233 44.1531C191.177 44.1691 191.867 45.1701 192.096 46.1581C192.325 47.1461 192.251 48.1971 192.488 49.1831C192.47 48.9603 192.498 48.7362 192.569 48.5241Z" fill="black"/>
<path d="M197.2 47.368C197.031 47.858 196.592 48.307 196.118 48.207C195.644 48.107 195.413 47.568 195.058 47.227C194.609 46.803 193.941 46.7102 193.394 46.996C192.871 47.3079 192.559 47.8792 192.578 48.488C192.701 48.1116 192.959 47.794 193.302 47.596C193.849 47.3098 194.517 47.4035 194.964 47.829C195.319 48.166 195.551 48.707 196.026 48.809C196.501 48.911 196.94 48.46 197.108 47.97C197.195 47.6814 197.252 47.3845 197.277 47.084C197.257 47.18 197.231 47.2748 197.201 47.368H197.2Z" fill="black"/>
<path d="M198.65 43.1703C198.187 44.0244 197.793 44.9147 197.474 45.8323C197.431 46.0323 197.407 46.2243 197.384 46.4203C197.712 45.5087 198.105 44.6218 198.56 43.7663C198.714 43.3558 198.81 42.9255 198.844 42.4883C198.797 42.7204 198.732 42.9484 198.65 43.1703Z" fill="black"/>
</g>
<path d="M154.13 66.4082C154.682 66.4082 155.13 65.9605 155.13 65.4082C155.13 64.8559 154.682 64.4082 154.13 64.4082C153.577 64.4082 153.13 64.8559 153.13 65.4082C153.13 65.9605 153.577 66.4082 154.13 66.4082Z" fill="#E6E8EC"/>
<path d="M101.544 111.422C102.832 110.535 104.466 110.316 105.942 110.834C105.942 110.834 105.315 112.163 102.532 112.146L101.544 111.422Z" fill="#0B555F"/>
<path d="M101.275 111.513C100.964 113.044 101.401 114.631 102.451 115.788C102.451 115.788 103.431 114.688 102.32 112.136L101.275 111.513Z" fill="#0B555F"/>
<path d="M98.418 109.152C98.418 109.152 98.4979 106.962 103.454 107.498C103.414 108.483 102.765 109.338 101.828 109.641C100.71 110.263 99.3157 110.063 98.418 109.152Z" fill="#0B555F"/>
<path d="M98.1141 109.143C98.1141 109.143 96.057 109.892 98.0901 114.443C99.0155 114.103 99.6294 113.22 99.6265 112.234C99.8674 110.982 99.2506 109.721 98.1141 109.143Z" fill="#0B555F"/>
<path d="M95.2063 106.159C95.2063 106.159 94.7865 102.577 99.8384 102.752C99.8384 102.752 100.32 105.991 96.1289 106.988L95.2063 106.159Z" fill="#0B555F"/>
<path d="M91.7217 102.23C91.7217 102.23 92.2565 98.1299 97.3374 99.1519C97.3374 99.1519 97.4903 102.681 92.5793 103.169L91.7217 102.23Z" fill="#0B555F"/>
<path d="M89.1298 98.1292C89.1298 98.1292 90.1294 94.1102 95.1673 95.1162C95.1673 95.1162 94.1167 98.7272 89.4846 98.8412L89.1298 98.1292Z" fill="#0B555F"/>
<path d="M86.6628 94.122C86.6628 94.122 87.6424 89.962 92.4964 91.015C92.4964 91.015 91.039 94.987 87.0096 94.815L86.6628 94.122Z" fill="#0B555F"/>
<path d="M85.0224 90.29C85.0224 90.29 85.6981 85.226 90.2363 86.163C90.2363 86.163 89.1077 90.793 85.3843 91.009L85.0224 90.29Z" fill="#0B555F"/>
<path d="M83.447 85.6424C83.447 85.6424 84.2957 80.5274 88.8908 81.8294C88.8908 81.8294 87.2915 86.6934 83.7929 86.3384L83.447 85.6424Z" fill="#0B555F"/>
<path d="M82.4145 81.3049C82.4145 81.3049 83.8759 76.1669 87.3955 76.1689C87.3955 76.1689 85.9061 81.5929 82.7474 82.3109L82.4145 81.3049Z" fill="#0B555F"/>
<path d="M81.7028 77.0529C81.7028 77.0529 83.2701 70.8759 86.147 71.2369C86.147 71.2369 85.0794 75.9539 81.8357 77.9999L81.7028 77.0529Z" fill="#0B555F"/>
<path d="M81.1949 71.966C81.1949 71.966 82.6883 66.81 85.5062 66.501C85.5062 66.501 84.5476 71.553 81.3079 73.286L81.1949 71.966Z" fill="#0B555F"/>
<path d="M80.6722 67.2331C80.6722 67.2331 82.5824 62.0581 84.4446 61.8711C84.4446 61.8711 83.7219 66.9231 80.8901 68.0621L80.6722 67.2331Z" fill="#0B555F"/>
<path d="M80.2684 62.821C80.2684 62.821 81.3519 57.236 83.1962 56.707C83.1962 56.707 83.1162 61.243 80.4723 63.227L80.2684 62.821Z" fill="#0B555F"/>
<path d="M79.3458 57.0641C79.3458 57.0641 80.5393 52.6001 82.0227 51.8711C82.0227 51.8711 81.9227 57.0821 79.7376 58.1281L79.3458 57.0641Z" fill="#0B555F"/>
<path d="M78.6182 53.2861L78.0462 45.5171C78.0462 45.5171 81.0862 51.2801 78.8712 54.6441L78.6182 53.2861Z" fill="#0B555F"/>
<path d="M76.143 45.6393C76.143 45.6393 73.8969 40.0393 73.3991 39.7393C73.3991 39.7393 77.5144 43.2683 77.3185 48.0253L76.143 45.6393Z" fill="#0B555F"/>
<path d="M95.0663 106.137C95.0663 106.137 91.4768 105.808 91.7766 110.854C91.7766 110.854 95.0253 111.246 95.919 107.039L95.0663 106.137Z" fill="#0B555F"/>
<path d="M91.5478 102.101C91.5478 102.101 87.4195 102.246 87.9492 107.394C87.9492 107.394 91.4368 107.88 92.3954 103.038L91.5478 102.101Z" fill="#0B555F"/>
<path d="M89.1028 98.4672C89.1028 98.4672 85.2873 96.8522 83.0632 101.48C83.0632 101.48 86.5808 102.813 89.4606 99.1862L89.1028 98.4672Z" fill="#0B555F"/>
<path d="M86.5808 94.163C86.5808 94.163 82.6713 92.44 80.5882 96.963C80.5882 96.963 84.6385 98.186 86.9236 94.858L86.5808 94.163Z" fill="#0B555F"/>
<path d="M85.0754 90.3984C85.0754 90.3984 81.248 87.0114 78.4381 90.6924C78.4381 90.6924 82.3215 93.4504 85.2753 91.1764L85.0754 90.3984Z" fill="#0B555F"/>
<path d="M83.653 85.5151C83.653 85.5151 79.7985 82.0471 77.0197 85.9341C77.0197 85.9341 81.3029 88.7341 83.8169 86.2651L83.653 85.5151Z" fill="#0B555F"/>
<path d="M82.7903 81.1424C82.7903 81.1424 79.7546 76.7424 76.4259 77.8804C76.4259 77.8804 79.5766 82.5384 82.7983 82.1934L82.7903 81.1424Z" fill="#0B555F"/>
<path d="M81.7858 77.0223C81.7858 77.0223 78.687 71.4553 75.9951 72.5453C75.9951 72.5453 78.2412 76.8283 81.8927 77.9733L81.7858 77.0223Z" fill="#0B555F"/>
<path d="M81.3819 71.6693C81.3819 71.6693 78.2462 67.3153 75.4913 67.9693C75.4913 67.9693 78.0902 72.4053 81.7187 72.9523L81.3819 71.6693Z" fill="#0B555F"/>
<path d="M80.9821 67.1208C80.9821 67.1208 78.4931 62.1968 76.6218 62.2208C76.6218 62.2208 77.9213 67.1568 80.8581 67.9668L80.9821 67.1208Z" fill="#0B555F"/>
<path d="M80.3573 62.7081C80.3573 62.7081 77.6144 57.7291 75.6892 57.7931C75.6892 57.7931 77.1626 62.0841 80.2873 63.1581L80.3573 62.7081Z" fill="#0B555F"/>
<path d="M79.7665 57.3584C79.7665 57.3584 77.6954 53.2294 76.096 52.8164C76.096 52.8164 77.2465 57.8994 79.5996 58.4814L79.7665 57.3584Z" fill="#0B555F"/>
<path d="M78.3861 53.1472L73.8669 46.8032C73.8669 46.8032 75.2074 53.1782 79.0558 54.3602L78.3861 53.1472Z" fill="#0B555F"/>
<path d="M75.1854 46.2C75.1854 46.2 70.0875 42.963 69.8946 42.418C69.8946 42.418 72.6105 47.118 77.3216 47.787L75.1854 46.2Z" fill="#0B555F"/>
<path d="M74.8286 44.6741C74.8286 44.6741 68.922 39.4141 67.4686 39.4741C70.6361 39.7227 73.4583 41.57 74.9545 44.3741L74.8286 44.6741Z" fill="#0B555F"/>
<path d="M79.7436 58.173L79.5357 58.208C78.1442 49.8671 76.3999 44.9721 74.6077 44.4271L74.6686 44.2271C76.5669 44.8031 78.3172 49.628 79.7436 58.173Z" fill="#0B555F"/>
<path d="M82.0826 78.1572L81.7707 78.1962C81.6708 77.4122 81.5948 76.6162 81.5278 75.8202C80.9631 68.8922 80.2563 62.5392 79.4647 57.7852L79.6376 57.5542C80.4213 62.3162 81.2779 68.8542 81.8437 75.7852C81.9067 76.5872 81.9886 77.3852 82.0826 78.1572Z" fill="#0B555F"/>
<path d="M107.547 115.19C103.242 113.237 99.3082 110.551 95.921 107.251C92.4343 103.937 89.4944 100.092 87.2106 95.8573C84.2845 90.145 82.4171 83.9496 81.6988 77.5713L82.0317 77.7123C83.2324 88.7986 88.2385 99.1255 96.1969 106.933C99.5485 110.2 103.44 112.862 107.699 114.8L107.547 115.19Z" fill="#0B555F"/>
<g opacity="0.7">
<path d="M102.452 105.796C103.944 105.334 105.567 105.61 106.823 106.539C106.823 106.539 105.829 107.623 103.178 106.776L102.452 105.796Z" fill="#0B555F"/>
<path d="M102.169 105.8C101.417 107.17 101.363 108.817 102.024 110.234C102.024 110.234 103.284 109.475 102.985 106.705L102.169 105.8Z" fill="#0B555F"/>
<path d="M100.142 102.699C100.142 102.699 100.871 100.631 105.433 102.619C105.102 103.548 104.228 104.174 103.242 104.187C101.992 104.447 100.722 103.838 100.142 102.699Z" fill="#0B555F"/>
<path d="M99.8563 102.614C99.8563 102.614 97.6672 102.714 98.257 107.67C99.24 107.618 100.087 106.96 100.379 106.019C100.989 104.896 100.775 103.503 99.8563 102.614Z" fill="#0B555F"/>
<path d="M97.9651 98.8887C97.9651 98.8887 98.6319 95.3447 103.401 97.0147C103.401 97.0147 102.901 100.25 98.6029 99.9557L97.9651 98.8887Z" fill="#0B555F"/>
<path d="M95.808 94.0973C95.808 94.0973 97.5383 90.3433 102.078 92.8313C102.078 92.8313 101.179 96.2363 96.3428 95.2483L95.808 94.0973Z" fill="#0B555F"/>
<path d="M94.5515 89.4088C94.5515 89.4088 96.7066 85.8708 101.214 88.3288C101.214 88.3288 99.1366 91.4658 94.6804 90.2028L94.5515 89.4088Z" fill="#0B555F"/>
<path d="M93.39 84.849C93.39 84.849 95.5571 81.167 99.8873 83.618C99.8873 83.618 97.3144 86.976 93.5149 85.61L93.39 84.849Z" fill="#0B555F"/>
<path d="M92.9642 80.6971C92.9642 80.6971 95.1193 76.0611 99.1617 78.3091C99.1617 78.3091 96.7067 82.3921 93.0871 81.4911L92.9642 80.6971Z" fill="#0B555F"/>
<path d="M92.8412 75.7958C92.8412 75.7958 95.1732 71.1658 99.1726 73.7768C99.1726 73.7768 96.1998 77.9448 92.9651 76.5548L92.8412 75.7958Z" fill="#0B555F"/>
<path d="M93.1471 71.3441C93.1471 71.3441 96.0709 66.8741 99.4295 67.9231C99.4295 67.9231 96.3938 72.6591 93.1591 72.4041L93.1471 71.3441Z" fill="#0B555F"/>
<path d="M93.7308 67.0767C93.7308 67.0767 97.0625 61.6447 99.7034 62.8477C99.7034 62.8477 97.2794 67.0307 93.5799 68.0207L93.7308 67.0767Z" fill="#0B555F"/>
<path d="M94.7614 62.0682C94.7614 62.0682 97.7202 57.5932 100.499 58.1342C100.499 58.1342 98.0831 62.6722 94.4755 63.3642L94.7614 62.0682Z" fill="#0B555F"/>
<path d="M95.667 57.3948C95.667 57.3948 99.0317 53.0208 100.865 53.3948C100.865 53.3948 98.6718 58.0018 95.631 58.2488L95.667 57.3948Z" fill="#0B555F"/>
<path d="M96.5937 53.062C96.5937 53.062 99.2926 48.053 101.209 48.096C101.209 48.096 99.7824 52.409 96.6667 53.51L96.5937 53.062Z" fill="#0B555F"/>
<path d="M97.4263 47.2909C97.4263 47.2909 99.8913 43.3859 101.525 43.1289C101.525 43.1289 99.8783 48.0749 97.4823 48.4219L97.4263 47.2909Z" fill="#0B555F"/>
<path d="M97.8542 43.4668L99.6182 35.8818C99.6182 35.8818 100.808 42.2818 97.6972 44.8468L97.8542 43.4668Z" fill="#0B555F"/>
<path d="M97.7656 35.431C97.7656 35.431 97.2876 29.415 96.8976 28.981C96.8976 28.981 99.7856 33.581 98.1716 38.057L97.7656 35.431Z" fill="#0B555F"/>
<path d="M97.8402 98.8228C97.8402 98.8228 94.5085 97.4368 93.298 102.352C93.298 102.352 96.2788 103.703 98.396 99.9428L97.8402 98.8228Z" fill="#0B555F"/>
<path d="M95.681 93.92C95.681 93.92 91.6977 92.83 90.6741 97.911C90.6741 97.911 93.8588 99.411 96.2158 95.076L95.681 93.92Z" fill="#0B555F"/>
<path d="M94.4266 89.7217C94.4266 89.7217 91.2659 87.0437 87.7643 90.8017C87.7643 90.8017 90.7251 93.1207 94.5545 90.5157L94.4266 89.7217Z" fill="#0B555F"/>
<path d="M93.2971 84.8651C93.2971 84.8651 90.0794 82.0561 86.7468 85.7551C86.7468 85.7551 90.2453 88.1271 93.4211 85.6281L93.2971 84.8651Z" fill="#0B555F"/>
<path d="M92.9822 80.8201C92.9822 80.8201 90.3352 76.4461 86.5588 79.1201C86.5588 79.1201 89.4456 82.9111 92.9412 81.6201L92.9822 80.8201Z" fill="#0B555F"/>
<path d="M93.0762 75.7341C93.0762 75.7341 90.4273 71.2781 86.6098 74.1661C86.6098 74.1661 89.8665 78.1161 92.9982 76.5051L93.0762 75.7341Z" fill="#0B555F"/>
<path d="M93.5509 71.3032C93.5509 71.3032 91.9615 66.2032 88.444 66.2942C88.444 66.2942 90.0683 71.6812 93.242 72.3182L93.5509 71.3032Z" fill="#0B555F"/>
<path d="M93.8188 67.0711C93.8188 67.0711 92.5113 60.8331 89.6205 61.0711C89.6205 61.0711 90.4901 65.8291 93.6418 68.0091L93.8188 67.0711Z" fill="#0B555F"/>
<path d="M95.0253 61.8389C95.0253 61.8389 93.326 56.7389 90.5011 56.5459C90.5011 56.5459 91.6616 61.5569 94.9653 63.1579L95.0253 61.8389Z" fill="#0B555F"/>
<path d="M95.9959 57.3793C95.9959 57.3793 95.0843 51.9373 93.29 51.4062C93.29 51.4062 93.0591 56.5063 95.6281 58.1543L95.9959 57.3793Z" fill="#0B555F"/>
<path d="M96.7206 52.9803C96.7206 52.9803 95.5781 47.4093 93.7219 46.9033C93.7219 46.9033 93.8508 51.4373 96.5207 53.3943L96.7206 52.9803Z" fill="#0B555F"/>
<path d="M97.7401 47.6976C97.7401 47.6976 96.9891 43.1396 95.5841 42.2656C95.5841 42.2656 95.1701 47.4656 97.2441 48.7186L97.7401 47.6976Z" fill="#0B555F"/>
<path d="M97.6732 43.2662L95.2452 35.8662C95.2452 35.8662 94.6285 42.3532 97.9511 44.6272L97.6732 43.2662Z" fill="#0B555F"/>
<path d="M96.6836 35.685C96.6836 35.685 92.7852 31.078 92.7642 30.498C92.7642 30.498 93.9577 35.791 98.251 37.834L96.6836 35.685Z" fill="#0B555F"/>
<path d="M96.7976 34.115C96.7976 34.115 92.7233 27.334 91.3109 26.96C94.2605 28.14 96.4036 30.7452 96.9935 33.868L96.7976 34.115Z" fill="#0B555F"/>
<path d="M97.4786 48.473L97.2706 48.444C98.4236 40.067 98.2076 34.872 96.6626 33.82L96.7826 33.647C98.4156 34.758 98.6566 39.883 97.4786 48.473Z" fill="#0B555F"/>
<path d="M93.7659 68.2498L93.456 68.1928C93.5969 67.4188 93.7559 66.6247 93.9318 65.8517C95.4522 59.0707 96.6747 52.7937 97.3234 48.0127L97.5563 47.8438C96.8976 52.6248 95.7571 59.1237 94.2367 65.9127C94.0657 66.6927 93.9048 67.4748 93.7659 68.2498Z" fill="#0B555F"/>
<path d="M107.064 111.179C103.535 108.033 100.579 104.298 98.3269 100.14C95.9797 95.9386 94.3137 91.3914 93.391 86.6679C92.2968 80.3428 92.3557 73.8719 93.5649 67.5679L93.8408 67.8009C91.69 78.743 93.3984 90.0926 98.6748 99.9159C100.902 104.033 103.826 107.733 107.318 110.849L107.064 111.179Z" fill="#0B555F"/>
</g>
<path d="M60.2345 93.1191C59.7738 93.3088 59.2953 93.4519 58.8061 93.5461C57.951 93.7062 57.0831 93.7882 56.2131 93.7911C56.2381 94.0201 56.2581 94.2341 56.2781 94.4281C56.3251 94.9611 56.3531 95.328 56.3531 95.328L55.4344 95.2651L47.8545 94.7471L43.4223 94.0901C43.6376 94.3773 43.8713 94.6502 44.122 94.907C44.3802 95.1804 44.6789 95.4125 45.0077 95.5951C45.0077 95.5951 49.0061 98.835 49.6988 98.865C49.7987 98.865 49.8277 98.965 49.8127 99.118C51.4961 99.118 56.7299 99.3631 55.2775 102.278C55.0374 102.798 54.6137 103.211 54.088 103.437C52.4087 104.149 49.8747 102.868 48.5702 102.082C48.4433 102.331 48.3213 102.562 48.2134 102.76C47.9915 103.178 47.8375 103.454 47.8375 103.454L47.7066 103.36L40.9813 98.5691L39.5079 97.318C39.0751 97.2981 38.6465 97.2235 38.2324 97.0961L38.0325 97.0331C38.0239 97.0501 38.0165 97.0678 38.0105 97.086C37.9568 97.2389 37.9166 97.3962 37.8906 97.5561V97.6271C37.863 97.8097 37.8447 97.9936 37.8356 98.1781C37.8356 98.3031 37.8256 98.437 37.8256 98.57C37.9561 100.919 38.3106 103.25 38.8842 105.531C38.8842 105.531 41.657 112.606 40.6734 114.239C40.6216 114.322 40.5536 114.394 40.4735 114.451C40.1083 114.765 39.8722 115.202 39.8108 115.68C39.6431 117.144 39.7365 118.627 40.0867 120.058C40.0867 120.058 40.0277 120.158 39.9277 120.309C39.7116 120.655 39.4679 120.983 39.1991 121.289C39.1581 121.336 39.1151 121.389 39.0701 121.43C38.9488 121.558 38.8178 121.676 38.6783 121.783C38.7032 121.859 38.7312 121.938 38.7582 122.022C38.7852 122.106 38.8212 122.238 38.8482 122.355C39.0665 123.319 38.981 124.326 38.6033 125.239C38.3465 125.904 38.1804 126.601 38.1095 127.311C37.9822 128.61 38.0157 129.92 38.2095 131.211C38.1805 131.195 38.1545 131.18 38.1255 131.166C35.9584 130.033 33.8219 128.849 31.7161 127.616C31.0983 127.259 30.4856 126.895 29.8758 126.528C29.1261 126.076 28.3794 125.619 27.6357 125.156C26.6561 124.545 25.6762 123.918 24.6959 123.276L24.2371 122.97L24.0612 122.85C23.8123 122.683 23.5674 122.517 23.3205 122.35C22.3074 121.04 21.3817 119.665 20.5496 118.233C20.4107 117.984 20.2847 117.747 20.1808 117.533V117.519L20.1138 117.376L19.8379 117.276C19.3191 117.094 18.9893 116.966 18.9893 116.966C19.2289 116.091 19.3437 115.187 19.3301 114.28C19.3631 112.017 18.4521 109.843 16.8162 108.28C14.8464 106.6 13.6166 104.212 13.3925 101.632V101.432C13.3916 101.342 13.3956 101.252 13.4045 101.163L13.6314 100.945C13.0557 100.829 12.5149 100.776 12.5149 100.776C12.5149 100.776 14.4861 93.6401 17.8057 91.2591C19.4454 89.9385 20.8004 88.2991 21.7891 86.44C23.5551 83.401 25.5381 80.4934 27.7227 77.74L28.3225 76.985L28.4964 76.763L28.5334 76.7181L28.5804 76.6551C28.4991 76.5324 28.4168 76.4107 28.3335 76.2901L28.2785 76.2101C27.9903 75.8559 27.8319 75.4138 27.8297 74.9571V74.8431C27.8379 74.7651 27.8523 74.6878 27.8726 74.612C27.8795 74.6244 27.8876 74.6362 27.8966 74.6471C28.1765 73.8311 29.2561 73.4711 30.0518 73.0201C31.927 71.9651 32.7267 69.658 33.1285 67.511C33.4404 65.841 33.6983 63.969 34.9918 62.896C35.8264 62.206 36.951 61.9791 37.7956 61.2961C38.2843 60.8641 38.6883 60.3449 38.9871 59.7651C39.1871 59.4321 39.352 59.087 39.5339 58.753C40.3208 57.2145 41.4855 55.9012 42.9185 54.9361C44.3607 53.9801 46.1624 53.7414 47.8036 54.289C48.4173 54.522 48.9791 54.877 49.5668 55.138C49.9297 55.2862 50.3046 55.4029 50.6874 55.487C51.9056 55.6587 53.105 55.9443 54.2699 56.3401C56.0982 57.1521 57.2877 58.9471 58.3683 60.6531C59.1284 61.7439 59.7808 62.906 60.3165 64.123V63.9881C60.5579 64.5585 60.6908 65.1689 60.7083 65.7881C60.7182 66.0521 60.6899 66.3161 60.6243 66.5721C60.439 67.1927 59.9948 67.703 59.4058 67.972L59.3139 68.0171C59.1904 68.0808 59.0636 68.1378 58.934 68.188C58.914 68.296 58.893 68.406 58.8691 68.511C58.8591 68.556 58.8471 68.6031 58.8361 68.6481C58.8111 68.7581 58.7811 68.8661 58.7501 68.9731C58.3321 70.3758 57.5153 71.6266 56.3991 72.573C55.6264 73.2343 54.7334 73.7403 53.7691 74.063C53.7001 74.087 53.6282 74.1041 53.5592 74.1261C53.501 74.2902 53.4177 74.4444 53.3123 74.583C53.2359 74.6809 53.146 74.7674 53.0454 74.8401C52.9816 74.8828 52.9148 74.9208 52.8455 74.954C52.8288 74.9643 52.8111 74.9727 52.7925 74.979C51.9898 75.2389 51.1107 75.0871 50.4415 74.573C50.4065 74.549 50.3725 74.5221 50.3415 74.4971C50.3384 74.6148 50.326 74.7322 50.3045 74.8481C50.2845 74.9701 50.2715 75.0481 50.2496 75.1481C50.2276 75.2481 50.2206 75.2991 50.2066 75.3721C50.1926 75.4451 50.1826 75.494 50.1716 75.55L50.1476 75.6501C49.7594 77.5424 49.0188 79.3447 47.9645 80.9631C47.8103 81.1951 47.6435 81.4184 47.4647 81.6321L46.9789 82.373V82.4731C47.0224 84.1173 46.5846 85.7384 45.7194 87.1371C45.4544 87.5905 45.1634 88.0282 44.8478 88.448L44.9577 88.513C46.0573 89.138 48.2184 90.25 49.5858 90.156C49.5858 90.156 54.7587 90.8241 55.3585 90.4891C55.4405 90.4421 55.5214 90.507 55.5954 90.646C56.8959 89.796 58.3493 89.2074 59.8746 88.9131C60.3664 88.7857 60.8894 88.8892 61.2956 89.1943C61.7018 89.4995 61.947 89.9731 61.9618 90.4811C62.0926 91.6609 61.3679 92.7677 60.2345 93.1191Z" fill="url(#paint1_linear_700_869)"/>
<path d="M31.916 120.077C32.5867 121.223 32.6908 122.614 32.1979 123.847C31.7872 125.06 31.6241 126.344 31.7181 127.621C31.1003 127.264 30.4876 126.9 29.8778 126.533C29.1281 126.081 28.3814 125.624 27.6377 125.161C26.6581 124.55 25.6782 123.923 24.6979 123.281L24.2391 122.975L24.0632 122.855C24.0477 122.827 24.0285 122.801 24.0062 122.777C23.0118 121.461 22.11 120.078 21.3073 118.637C21.1424 118.331 20.9994 118.049 20.8865 117.79V117.776C20.7173 117.492 20.6376 117.163 20.6576 116.833C20.8016 116.328 21.1448 115.904 21.6082 115.657C22.7367 115.069 24.548 115.612 26.3382 116.476C27.8794 117.255 29.3564 118.156 30.7555 119.168L30.9144 119.284L30.9304 119.296C31.5181 119.714 31.859 119.99 31.859 119.99C31.8796 120.018 31.8986 120.047 31.916 120.077Z" fill="#FBBEBE"/>
<path opacity="0.05" d="M31.6181 119.816C32.2901 120.963 32.3942 122.356 31.9 123.59C31.4892 124.804 31.3261 126.088 31.4202 127.366C30.8038 127.007 30.1903 126.644 29.5799 126.276C28.8289 125.824 28.0822 125.367 27.3398 124.904C26.3602 124.29 25.3806 123.663 24.41 123.022L23.9512 122.716L23.7753 122.596C23.7593 122.568 23.7402 122.542 23.7183 122.518C22.7229 121.203 21.8211 119.82 21.0194 118.378C20.8545 118.072 20.7115 117.79 20.5986 117.531V117.519C20.4294 117.234 20.3497 116.905 20.3697 116.574C20.5143 116.07 20.8573 115.645 21.3203 115.398C22.4488 114.81 24.2601 115.353 26.0503 116.217C27.5915 116.997 29.0685 117.897 30.4676 118.909L30.6265 119.025L30.6425 119.037C31.2303 119.454 31.5711 119.731 31.5711 119.731C31.5711 119.731 31.5841 119.759 31.6181 119.816Z" fill="black"/>
<path d="M38.8332 124.568C38.7763 124.904 38.6838 125.232 38.5573 125.548C38.3404 126.117 38.191 126.709 38.1125 127.312C37.9583 128.593 37.9637 129.888 38.1285 131.168C35.9614 130.035 33.8249 128.851 31.7191 127.618C31.1013 127.261 30.4886 126.897 29.8788 126.53C29.8424 125.772 29.6537 125.028 29.3241 124.344C28.2283 122.901 27.2343 121.383 26.3493 119.802C26.2163 119.567 26.1004 119.339 25.9924 119.124V119.114C25.9514 119.028 25.9125 118.945 25.8745 118.863C25.647 118.496 25.5307 118.07 25.5396 117.638C25.6773 117.174 25.9604 116.766 26.3473 116.474C28.0856 115.204 31.6991 116.923 34.474 118.63L34.5429 118.671C35.0677 118.998 35.5655 119.322 36.0123 119.624L36.2732 119.8C37.4218 120.584 38.1835 121.194 38.1835 121.194C38.3729 121.486 38.525 121.801 38.6363 122.131C38.7018 122.317 38.7562 122.507 38.7992 122.699C38.9345 123.314 38.946 123.949 38.8332 124.568Z" fill="#FBBEBE"/>
<path opacity="0.1" d="M21.3143 118.636C22.8167 119.22 24.3857 119.615 25.9854 119.812C26.104 119.816 26.2226 119.81 26.3402 119.794C28.2009 119.758 30.0618 119.849 31.91 120.067C32.8236 120.147 33.7032 120.232 34.4299 120.306L36.2562 120.506V119.8C35.7484 119.451 35.1567 119.063 34.5279 118.671C31.743 116.95 28.0845 115.191 26.3312 116.471C23.8643 115.279 21.3603 114.707 20.6486 116.828C20.7122 117.478 20.9414 118.1 21.3143 118.636Z" fill="black"/>
<path d="M14.4701 102.206C14.6753 104.735 15.8467 107.088 17.7408 108.775C21.3583 112.304 19.8159 117.375 19.8159 117.375C19.8159 117.375 24.1272 119.069 25.9864 119.114C26.105 119.118 26.2237 119.112 26.3413 119.096C29.048 119.104 31.7518 119.275 34.438 119.608L36.2643 119.808V104.808L16.2884 99.9541L14.4801 101.754C14.467 101.904 14.4638 102.055 14.4701 102.206Z" fill="#5C5C8E"/>
<g opacity="0.1">
<path d="M35.9354 119.62L36.2622 119.653V119.814L34.436 119.614C32.6077 119.43 29.8139 119.167 27.9696 119.091C30.6324 119.124 33.2916 119.3 35.9354 119.62Z" fill="black"/>
<path d="M14.4771 101.766L16.2854 99.9658L17.4929 100.258L15.9855 101.769C15.9759 101.919 15.9759 102.07 15.9855 102.22C16.191 104.749 17.3623 107.101 19.2562 108.789C22.8737 112.318 21.3313 117.389 21.3313 117.389C23.1493 118.112 25.0261 118.678 26.941 119.079C26.7446 119.078 26.5483 119.089 26.3533 119.112C26.2357 119.127 26.117 119.133 25.9984 119.13C24.1392 119.083 19.8279 117.389 19.8279 117.389C19.8279 117.389 21.3703 112.318 17.7528 108.789C15.8529 107.107 14.6761 104.755 14.4681 102.226C14.4611 102.072 14.4641 101.919 14.4771 101.766Z" fill="black"/>
</g>
<path d="M54.3948 91.6081C54.3948 91.6081 60.4364 87.4171 60.8772 91.1891C61.318 94.9611 54.3948 94.435 54.3948 94.435V91.6081Z" fill="#FBBEBE"/>
<path d="M43.9771 88.833C43.9771 88.833 47.2438 90.989 49.052 90.862C49.052 90.862 53.99 91.525 54.5638 91.193C55.1376 90.861 55.4904 95.98 55.4904 95.98L47.3757 95.406L42.1708 94.612C42.1708 94.612 39.5719 93.024 39.5719 91.656C39.5719 90.288 43.9771 88.833 43.9771 88.833Z" fill="#F7CDDD"/>
<path d="M43.9771 88.833C43.9771 88.833 47.2438 90.989 49.052 90.862C49.052 90.862 53.99 91.525 54.5638 91.193C55.1376 90.861 55.4904 95.98 55.4904 95.98L47.3757 95.406L42.1708 94.612C42.1708 94.612 39.5719 93.024 39.5719 91.656C39.5719 90.288 43.9771 88.833 43.9771 88.833Z" fill="#009B84"/>
<path d="M48.7661 99.7401C48.7661 99.7401 56.1122 99.4401 54.4638 102.859C52.8155 106.278 47.2527 102.126 47.2527 102.126L48.7661 99.7401Z" fill="#FBBEBE"/>
<path d="M41.3792 92.4492C41.3792 92.4492 47.3327 87.9932 46.4951 82.5672C45.6574 77.1412 41.3792 86.7152 41.3792 86.7152V92.4492Z" fill="#5C5C8E"/>
<path d="M43.0285 67.8494C43.0303 70.9145 44.8878 73.6731 47.7266 74.8264C48.0406 74.9579 48.364 75.0656 48.6942 75.1484C49.0449 75.2403 49.4016 75.3072 49.7618 75.3484C50.0207 75.3734 50.2816 75.3874 50.5455 75.3874C51.3875 75.3858 52.2231 75.2407 53.0165 74.9584C56.6371 73.6992 58.7329 69.9185 57.8832 66.1792C57.0335 62.4398 53.5099 59.937 49.701 60.3674C45.892 60.7977 43.0151 64.0237 43.0205 67.8584L43.0285 67.8494Z" fill="#FBBEBE"/>
<path opacity="0.1" d="M14.4701 102.206C15.1438 102.33 15.9775 102.557 15.9775 102.906C15.9775 103.494 25.3837 106.672 25.3837 106.672C25.3837 106.672 25.0308 107.493 25.9714 108.907C26.9121 110.321 34.5599 118.436 34.5599 118.436L34.535 118.675L34.435 119.61L33.9682 124.082C35.2155 123.602 36.5199 123.286 37.8486 123.141C38.2093 123.134 38.5502 122.974 38.7872 122.702C38.6749 122.169 38.467 121.661 38.1735 121.202C38.1735 121.202 37.4108 120.602 36.2612 119.808V104.808L16.2854 99.9541L14.4771 101.754C14.4651 101.905 14.4628 102.055 14.4701 102.206Z" fill="black"/>
<path d="M13.6234 101.377C13.6234 101.377 15.9745 101.61 15.9745 102.2C15.9745 102.79 25.3806 105.966 25.3806 105.966C25.3806 105.966 25.0278 106.787 25.9684 108.201C26.909 109.615 34.5569 117.73 34.5569 117.73L33.9691 123.376C35.2165 122.896 36.5208 122.579 37.8496 122.435C38.2704 122.488 38.7352 122.098 39.1191 121.651C39.4377 121.274 39.7218 120.869 39.9677 120.441C39.9677 120.441 38.9071 115.967 40.3206 114.909C41.734 113.851 38.7922 106.087 38.7922 106.087C38.7922 106.087 37.4617 100.567 37.8536 98.199C37.8786 98.0411 37.9167 97.8855 37.9675 97.734C37.9699 97.7153 37.976 97.6973 37.9855 97.681C38.8242 95.419 47.8465 76.4409 47.8465 76.4409C47.8406 75.9028 47.8025 75.3656 47.7326 74.832C47.7146 74.683 47.6916 74.5319 47.6616 74.3729C47.6161 74.0908 47.5554 73.8115 47.4797 73.536C47.4287 73.356 47.3737 73.183 47.3087 73.018C47.0308 72.301 46.603 71.75 45.9643 71.736C45.3137 71.1514 44.4858 70.802 43.6132 70.744C41.7929 70.6001 39.9671 70.9424 38.3224 71.736C32.7966 74.088 31.5031 74.2059 31.5031 74.2059L28.7243 77.846L28.1525 78.595C26.0615 81.3227 24.1684 84.1967 22.4878 87.195C21.5505 89.0235 20.2562 90.6455 18.6814 91.965C15.5067 94.32 13.6234 101.377 13.6234 101.377Z" fill="#009B84"/>
<path opacity="0.1" d="M34.2351 87.7739C34.2351 87.7739 26.3852 89.7149 23.3395 94.6119L34.2351 87.7739Z" fill="black"/>
<path opacity="0.1" d="M31.8085 96.376C31.8085 96.376 30.3245 106.346 30.7365 107.097C31.1485 107.848 31.8085 96.376 31.8085 96.376Z" fill="black"/>
<path opacity="0.1" d="M32.3398 101.495C32.9116 102.244 35.2307 108.025 35.2307 108.025L34.5609 117.731L33.9732 123.377C35.2208 122.897 36.5255 122.581 37.8546 122.436C38.2744 122.489 38.7402 122.101 39.1241 121.652C38.5123 118.345 37.2078 111.427 36.9689 111.293C36.6571 111.117 35.0697 105.557 34.9857 104.012C34.9018 102.467 32.6867 98.9863 32.6867 98.9863C32.6867 98.9863 31.7611 100.745 32.3398 101.495Z" fill="black"/>
<path opacity="0.1" d="M34.5599 91.965C34.7029 92.406 34.9308 94.965 34.9308 94.965C35.0168 96.5987 36.238 97.9473 37.8546 98.194C37.8796 98.0361 37.9177 97.8805 37.9686 97.729C38.6743 95.729 47.8465 76.436 47.8465 76.436C47.8369 75.4567 47.7138 74.4819 47.4797 73.531C45.4805 72.943 42.3198 73.849 42.3198 73.849C41.4061 73.729 38.4214 79.659 38.4214 79.659C38.4214 79.659 36.4342 84.201 36.2173 84.819C36.1287 85.4777 36.0993 86.143 36.1293 86.807C36.0413 87.16 35.1127 87.4659 34.9808 87.9539C34.8488 88.4419 34.9358 89.407 34.8478 89.583C34.6174 90.3549 34.52 91.1604 34.5599 91.965Z" fill="black"/>
<path d="M35.2646 91.6123C35.4095 92.0533 35.6344 94.6123 35.6344 94.6123C35.6858 96.0303 36.6294 97.2602 37.9855 97.6763C38.4394 97.8384 38.9145 97.9334 39.3959 97.9583L40.8143 99.1893L47.3617 104.021C47.3617 104.021 49.8037 99.5123 49.1409 99.4833C48.4782 99.4543 44.6598 96.2483 44.6598 96.2483C43.4842 95.6253 42.3197 93.5393 41.7769 92.4683C41.8091 92.3393 41.8328 92.2083 41.8479 92.0763C42.0848 90.0763 47.0228 82.4313 47.0228 82.4313C48.4143 80.5403 49.3248 78.339 49.6757 76.0173C49.6977 75.9233 49.7107 75.8173 49.7287 75.7253C49.7497 75.5956 49.7627 75.4646 49.7677 75.3333C49.8556 73.7333 48.6921 73.1493 47.3087 73.0103C46.59 72.9545 45.8674 72.977 45.1536 73.0773C44.4394 73.1667 43.7323 73.3057 43.0374 73.4933C42.4497 73.4173 40.9872 75.8773 40.0316 77.6203C39.5158 78.5653 39.146 79.3043 39.146 79.3043C39.146 79.3043 37.1468 83.8483 36.9259 84.4663C36.8343 85.1247 36.8049 85.7903 36.8379 86.4543C36.75 86.8093 35.8214 87.1133 35.6914 87.6013C35.5615 88.0893 35.6444 89.0543 35.5565 89.2303C35.3266 90.0023 35.228 90.8075 35.2646 91.6123Z" fill="#009B84"/>
<path opacity="0.1" d="M27.6677 81.4421C29.0262 82.6069 30.9456 82.8554 32.5557 82.0751C34.1268 81.2832 35.6311 80.3652 37.0539 79.3301C38.0335 78.7421 39.0601 78.2461 40.0207 77.6301C40.1616 77.5381 40.2986 77.4461 40.4325 77.3521C41.5421 76.5681 42.4997 75.5621 43.6462 74.8431C44.4146 74.3346 45.3085 74.0484 46.2292 74.0161C46.6539 74.0119 47.0745 74.1003 47.4617 74.2751C47.5306 74.3038 47.5974 74.3372 47.6616 74.3751C48.0384 74.5932 48.3871 74.8565 48.7002 75.1591C49.023 75.4511 49.3349 75.7591 49.6798 76.0331C49.7018 75.9391 49.7148 75.8331 49.7328 75.7411C49.7538 75.6114 49.7668 75.4805 49.7717 75.3491C50.0306 75.3741 50.2905 75.3881 50.5554 75.3881C51.3994 75.3837 52.2364 75.2353 53.0304 74.9492C53.0333 74.9153 53.0393 74.8818 53.0484 74.8491C53.19 73.3485 53.8994 71.9587 55.0316 70.9641C55.9107 70.5206 56.8332 70.1692 57.7845 69.9152C58.6961 66.7397 57.4315 63.3406 54.6664 61.5341C51.9013 59.7276 48.2819 59.9359 45.7421 62.0477C43.2023 64.1595 42.3356 67.6812 43.6052 70.7311C41.7849 70.5872 39.9591 70.9296 38.3144 71.7231C32.7886 74.0751 31.4952 74.1931 31.4952 74.1931L28.7323 77.8391C29.0769 78.2553 29.3077 78.7539 29.402 79.2861C29.457 80.2851 28.5004 80.9701 27.6677 81.4421Z" fill="black"/>
<path d="M55.0326 70.2679C53.9033 71.2638 53.1944 72.6518 53.0494 74.1509C53.0013 74.619 52.8456 75.0698 52.5946 75.4679C51.9619 76.2889 50.6884 76.0559 49.8607 75.4679C49.1228 74.7602 48.3195 74.124 47.4617 73.5678C46.1743 73.1178 44.7479 73.331 43.6482 74.1378C42.5017 74.8568 41.5421 75.8629 40.4325 76.6449C39.361 77.4019 38.1655 77.9449 37.0479 78.6209C35.6271 79.6586 34.1225 80.5764 32.5497 81.3648C30.9407 82.1443 29.0231 81.8966 27.6647 80.7339C28.4974 80.2709 29.454 79.5868 29.389 78.5968C29.3241 77.6068 28.1705 76.8638 28.2485 75.8518C28.3265 74.8398 29.52 74.4369 30.3766 73.9389C32.1699 72.8959 32.9236 70.6059 33.3164 68.4889C33.6163 66.8359 33.8592 64.9889 35.0957 63.9269C35.8954 63.2429 36.971 63.0189 37.7726 62.3429C38.4753 61.6139 39.0384 60.7621 39.434 59.8299C40.1749 58.3182 41.2858 57.0186 42.6636 56.0519C44.0296 55.1082 45.7631 54.8717 47.3317 55.4149C47.9195 55.6439 48.4443 56.0029 49.021 56.2519C50.4515 56.8709 52.0918 56.7889 53.5102 57.4399C55.2565 58.2399 56.3911 60.0198 57.4296 61.7058C58.3173 63.1468 60.0536 65.6968 59.5678 67.5598C59.076 69.4618 56.3281 69.3599 55.0326 70.2679Z" fill="#7C5C5C"/>
<g opacity="0.1">
<path d="M28.2535 75.731C28.2598 75.6535 28.2735 75.5768 28.2945 75.502C28.6705 75.954 28.9273 76.4931 29.0415 77.07C29.0504 77.2042 29.0393 77.339 29.0085 77.47C28.5796 76.9845 28.3153 76.3758 28.2535 75.731Z" fill="black"/>
<path d="M32.2019 79.8371C33.7731 79.0454 35.2774 78.1274 36.7 77.0921C37.8166 76.4121 39.0121 75.8731 40.0847 75.1161C41.1942 74.3321 42.1538 73.3261 43.3004 72.6091C44.4005 71.8032 45.8263 71.5901 47.1138 72.0391C47.9728 72.5936 48.7763 73.2299 49.5128 73.9391C50.3455 74.5391 51.612 74.7701 52.2467 73.9491C52.4986 73.5521 52.6543 73.1018 52.7015 72.6341C52.8435 71.1335 53.5529 69.7439 54.6847 68.7491C55.9842 67.8431 58.7271 67.9491 59.2249 66.0341C59.3079 65.695 59.3299 65.3439 59.2899 64.9971C59.6309 65.7652 59.7319 66.6185 59.5797 67.4451C59.08 69.3561 56.3351 69.2541 55.0376 70.1601C53.9086 71.1571 53.1998 72.5455 53.0544 74.0451C53.0073 74.5126 52.8523 74.9627 52.6016 75.3601C51.9668 76.1811 50.6934 75.9481 49.8587 75.3501C49.1217 74.6413 48.3183 74.0051 47.4597 73.4501C46.1722 73.0011 44.7463 73.2142 43.6462 74.0201C42.4997 74.7371 41.5401 75.7451 40.4305 76.5271C39.359 77.2861 38.1635 77.8271 37.0459 78.5031C35.6255 79.5415 34.1209 80.4594 32.5477 81.2471C30.9383 82.026 29.0206 81.7775 27.6627 80.6141C27.9832 80.4416 28.2876 80.2408 28.5724 80.0141C29.7644 80.3915 31.0522 80.3287 32.2019 79.8371Z" fill="black"/>
</g>
<path d="M159.819 60.592L151.785 52.509C150.99 51.6954 149.902 51.2335 148.764 51.2257C147.627 51.2181 146.533 51.6653 145.727 52.468L95.2762 102.512L73.9449 81.005C72.2955 79.3316 69.6024 79.3123 67.9293 80.962L59.8086 88.999C58.1391 90.6676 58.1208 93.3689 59.7676 95.06L92.1625 127.724C93.8298 129.395 96.5301 129.414 98.221 127.767L159.775 66.651C160.588 65.8557 161.05 64.7685 161.059 63.6308C161.067 62.4932 160.621 61.3993 159.82 60.592H159.819Z" fill="#3ACC6C"/>
<g opacity="0.5">
<path d="M147.713 125.403C147.713 125.403 141.72 125.042 142.422 129.243C142.348 129.68 142.563 130.115 142.955 130.321C142.955 130.321 142.955 130.009 143.569 130.115C143.784 130.152 144.003 130.162 144.221 130.146C144.517 130.128 144.798 130.013 145.021 129.819C145.021 129.819 146.704 129.119 147.361 126.367C147.361 126.367 147.845 125.767 147.826 125.612L146.814 126.045C147.009 126.464 147.035 126.942 146.888 127.38C146.888 127.38 146.855 126.07 146.661 126.102C146.622 126.102 146.137 126.355 146.137 126.355C146.46 127.044 146.512 127.83 146.282 128.555C146.282 128.555 146.452 126.987 145.951 126.455L145.239 126.871C145.624 127.606 145.704 128.462 145.462 129.255C145.54 128.475 145.411 127.688 145.088 126.973L144.443 127.473C144.794 128.145 144.885 128.923 144.698 129.657C144.698 129.657 144.647 127.744 144.306 127.599C144.062 127.805 143.843 128.04 143.656 128.299C143.656 128.299 144.102 129.238 143.827 129.734C143.827 129.734 143.656 128.458 143.517 128.454C143.224 128.886 143.013 129.367 142.896 129.875C142.924 129.342 143.09 128.824 143.38 128.375C143.055 128.437 142.756 128.593 142.519 128.822C142.519 128.822 142.605 128.234 143.519 128.171C143.688 127.924 143.885 127.696 144.106 127.493C143.614 127.451 143.119 127.509 142.649 127.662C143.094 127.273 143.715 127.156 144.271 127.354L144.908 126.834C144.345 126.747 143.771 126.753 143.209 126.85C143.776 126.509 144.472 126.459 145.082 126.715L145.776 126.301C145.242 126.184 144.695 126.137 144.149 126.16C144.741 125.938 145.395 125.948 145.98 126.189L146.479 125.966C146.479 125.966 145.733 125.819 145.514 125.797C145.295 125.775 145.285 125.713 145.285 125.713C145.757 125.635 146.241 125.69 146.684 125.87C147.04 125.746 147.385 125.589 147.713 125.403Z" fill="#0B555F"/>
</g>
<g opacity="0.5">
<path d="M136.961 96.0641C136.961 96.0641 133.919 101.241 137.982 102.519C138.337 102.782 138.82 102.788 139.181 102.535C139.181 102.535 138.909 102.384 139.275 101.894C139.405 101.718 139.514 101.528 139.6 101.327C139.715 101.056 139.739 100.754 139.669 100.468C139.669 100.468 139.812 98.6511 137.657 96.8161C137.657 96.8161 137.341 96.1101 137.196 96.0571L137.121 97.1571C137.583 97.1752 138.02 97.3687 138.344 97.6981C138.344 97.6981 137.168 97.1331 137.101 97.3201C137.089 97.3591 137.087 97.9081 137.087 97.9081C137.847 97.9295 138.57 98.2395 139.109 98.7751C139.109 98.7751 137.793 97.9121 137.085 98.1161L137.132 98.9391C137.961 98.928 138.762 99.245 139.358 99.8211C138.699 99.3989 137.941 99.1575 137.159 99.1211L137.314 99.9211C138.072 99.9103 138.806 100.182 139.373 100.684C139.373 100.684 137.647 99.8631 137.363 100.096C137.44 100.407 137.551 100.709 137.692 100.996C137.692 100.996 138.733 101.023 139.048 101.496C139.048 101.496 137.836 101.069 137.767 101.19C138.018 101.646 138.35 102.053 138.747 102.39C138.283 102.123 137.897 101.738 137.628 101.275C137.531 101.595 137.531 101.936 137.628 102.255C137.628 102.255 137.136 101.906 137.504 101.079C137.359 100.815 137.246 100.536 137.165 100.246C136.905 100.665 136.731 101.131 136.653 101.618C136.51 101.044 136.687 100.437 137.116 100.03L136.944 99.2301C136.611 99.6943 136.355 100.209 136.186 100.755C136.139 100.094 136.41 99.4511 136.916 99.0241L136.861 98.2181C136.515 98.6398 136.225 99.1051 135.999 99.6021C136.068 98.9743 136.374 98.3963 136.853 97.9851L136.88 97.4421C136.88 97.4421 136.411 98.0421 136.293 98.2261C136.175 98.4101 136.115 98.3931 136.115 98.3931C136.258 97.9369 136.526 97.5297 136.888 97.2171C136.947 96.8357 136.971 96.4499 136.961 96.0641Z" fill="#0B555F"/>
</g>
<g opacity="0.5">
<path d="M117.926 54.7579C117.926 54.7579 114.885 59.9369 118.947 61.2129C119.301 61.477 119.785 61.4834 120.146 61.2289C120.146 61.2289 119.874 61.0779 120.246 60.5879C120.376 60.4122 120.484 60.2219 120.569 60.0209C120.685 59.7497 120.709 59.4482 120.638 59.1619C120.638 59.1619 120.783 57.3449 118.626 55.5099C118.626 55.5099 118.31 54.8099 118.165 54.7529L118.09 55.8529C118.552 55.8706 118.989 56.0642 119.312 56.3939C119.312 56.3939 118.137 55.8289 118.072 56.0159C118.058 56.0549 118.058 56.6039 118.058 56.6039C118.817 56.6252 119.539 56.9349 120.078 57.4699C120.078 57.4699 118.762 56.6069 118.054 56.8109L118.103 57.6339C118.932 57.623 119.731 57.94 120.327 58.5159C119.668 58.0945 118.91 57.8532 118.128 57.8159L118.283 58.6159C119.041 58.6053 119.776 58.8781 120.344 59.3809C120.344 59.3809 118.616 58.5579 118.332 58.7929C118.409 59.1041 118.52 59.4059 118.663 59.6929C118.663 59.6929 119.701 59.7199 120.017 60.1929C120.017 60.1929 118.805 59.7659 118.738 59.8869C118.988 60.3436 119.32 60.7503 119.717 61.0869C119.253 60.8201 118.867 60.4364 118.597 59.9739C118.503 60.2898 118.503 60.6261 118.597 60.9419C118.597 60.9419 118.105 60.5929 118.473 59.7559C118.328 59.4923 118.214 59.2127 118.134 58.9229C117.874 59.3418 117.7 59.8082 117.622 60.2949C117.479 59.7205 117.657 59.1133 118.087 58.7069L117.913 57.9069C117.58 58.3708 117.324 58.8859 117.156 59.4319C117.108 58.7714 117.379 58.1277 117.885 57.7009L117.83 56.8949C117.483 57.3166 117.193 57.7819 116.967 58.2789C117.037 57.6516 117.343 57.0743 117.822 56.6639L117.849 56.1189C117.849 56.1189 117.379 56.7189 117.261 56.9029C117.143 57.0869 117.083 57.0699 117.083 57.0699C117.231 56.6128 117.502 56.2057 117.867 55.8939C117.921 55.5178 117.941 55.1376 117.926 54.7579Z" fill="#0B555F"/>
</g>
<g opacity="0.5">
<path d="M133.879 33.389C133.879 33.389 132.654 27.508 128.781 29.289C128.339 29.3322 127.976 29.6554 127.881 30.089C127.881 30.089 128.181 30.016 128.242 30.628C128.263 30.8451 128.31 31.0588 128.381 31.265C128.479 31.5431 128.663 31.7822 128.908 31.947C128.908 31.947 130.021 33.39 132.848 33.3C132.848 33.3 133.556 33.61 133.701 33.551L133.017 32.688C132.664 32.985 132.21 33.1357 131.749 33.109C131.749 33.109 133.004 32.735 132.925 32.554C132.907 32.517 132.543 32.113 132.543 32.113C131.966 32.6076 131.223 32.864 130.464 32.83C130.464 32.83 132.018 32.583 132.406 31.958L131.818 31.38C131.211 31.9454 130.405 32.2477 129.576 32.221C130.35 32.0916 131.075 31.7609 131.68 31.262L131.026 30.772C130.469 31.2862 129.743 31.5771 128.986 31.589C128.986 31.589 130.818 31.036 130.867 30.668C130.603 30.4861 130.318 30.3373 130.018 30.225C130.018 30.225 129.234 30.903 128.68 30.766C128.68 30.766 129.855 30.266 129.834 30.131C129.34 29.9617 128.819 29.8854 128.298 29.906C128.821 29.7928 129.365 29.8179 129.875 29.979C129.731 29.6816 129.503 29.4333 129.218 29.265C129.218 29.265 129.818 29.192 130.108 30.049C130.392 30.1475 130.664 30.2791 130.918 30.441C130.828 29.9523 130.643 29.486 130.373 29.069C130.865 29.3983 131.141 29.9669 131.096 30.557L131.763 31.035C131.699 30.4672 131.543 29.9136 131.301 29.396C131.777 29.8512 132.008 30.5066 131.921 31.16L132.509 31.721C132.483 31.1754 132.385 30.6355 132.219 30.115C132.587 30.6248 132.748 31.2552 132.67 31.879L133.015 32.3C133.015 32.3 132.962 31.541 132.927 31.32C132.892 31.099 132.947 31.075 132.947 31.075C133.148 31.5124 133.224 31.9972 133.165 32.475C133.375 32.8001 133.614 33.106 133.879 33.389Z" fill="#0B555F"/>
</g>
<g opacity="0.5">
<path d="M112.789 142.409C112.789 142.409 111.567 136.528 107.691 138.309C107.25 138.353 106.887 138.676 106.792 139.109C106.792 139.109 107.091 139.036 107.152 139.648C107.174 139.865 107.221 140.079 107.293 140.285C107.391 140.563 107.575 140.802 107.818 140.967C107.818 140.967 108.932 142.41 111.761 142.32C111.761 142.32 112.468 142.63 112.611 142.571L111.929 141.708C111.575 142.005 111.121 142.156 110.66 142.129C110.66 142.129 111.914 141.755 111.836 141.574C111.82 141.537 111.454 141.133 111.454 141.133C110.877 141.628 110.133 141.884 109.375 141.85C109.375 141.85 110.931 141.603 111.317 140.978L110.729 140.39C110.127 140.958 109.322 141.261 108.495 141.229C109.268 141.1 109.994 140.769 110.599 140.27L109.944 139.78C109.389 140.294 108.663 140.585 107.906 140.597C107.906 140.597 109.738 140.046 109.787 139.676C109.523 139.495 109.238 139.346 108.939 139.233C108.939 139.233 108.155 139.911 107.598 139.774C107.598 139.774 108.774 139.274 108.753 139.139C108.259 138.97 107.738 138.893 107.216 138.914C107.74 138.801 108.285 138.826 108.796 138.987C108.651 138.69 108.423 138.442 108.139 138.273C108.139 138.273 108.739 138.2 109.027 139.057C109.312 139.155 109.584 139.287 109.838 139.449C109.749 138.96 109.564 138.494 109.294 138.077C109.785 138.406 110.061 138.975 110.014 139.565L110.684 140.043C110.619 139.475 110.462 138.922 110.219 138.404C110.697 138.859 110.928 139.514 110.842 140.168L111.43 140.729C111.403 140.184 111.305 139.644 111.138 139.124C111.507 139.633 111.669 140.264 111.591 140.888L111.935 141.309C111.935 141.309 111.88 140.55 111.846 140.329C111.811 140.108 111.866 140.086 111.866 140.086C112.066 140.521 112.142 141.004 112.083 141.48C112.294 141.808 112.53 142.119 112.789 142.409Z" fill="#0B555F"/>
</g>
<defs>
<linearGradient id="paint0_linear_700_869" x1="185.913" y1="148.651" x2="185.913" y2="33.521" gradientUnits="userSpaceOnUse">
<stop stop-color="#808080" stop-opacity="0.251"/>
<stop offset="0.54" stop-color="#808080" stop-opacity="0.122"/>
<stop offset="1" stop-color="#808080" stop-opacity="0.102"/>
</linearGradient>
<linearGradient id="paint1_linear_700_869" x1="37.2459" y1="131.211" x2="37.2459" y2="54" gradientUnits="userSpaceOnUse">
<stop stop-color="#808080" stop-opacity="0.251"/>
<stop offset="0.54" stop-color="#808080" stop-opacity="0.122"/>
<stop offset="1" stop-color="#808080" stop-opacity="0.102"/>
</linearGradient>
</defs>
</svg>











