<svg width="443" height="356" viewBox="0 0 443 356" fill="none" xmlns="http://www.w3.org/2000/svg">
<g opacity="0.5">
<path d="M155.642 27.8469H152.383V46.3139H155.642V27.8469Z" fill="#47E6B1"/>
<path d="M163.246 38.7099V35.4509H144.779V38.7099H163.246Z" fill="#47E6B1"/>
</g>
<path opacity="0.5" d="M334.905 85.823C338.505 85.823 341.423 82.9047 341.423 79.3049C341.423 75.7051 338.505 72.7871 334.905 72.7871C331.305 72.7871 328.387 75.7051 328.387 79.3049C328.387 82.9047 331.305 85.823 334.905 85.823Z" fill="#F55F44"/>
<path opacity="0.5" d="M441.3 8.38897C439.441 7.57912 438.485 5.50446 439.076 3.565C439.122 3.42127 439.152 3.27271 439.163 3.12213C439.222 2.23732 438.691 1.41931 437.859 1.11261C437.027 0.805906 436.092 1.0836 435.563 1.79498C435.474 1.91688 435.4 2.04885 435.342 2.18805C434.532 4.0469 432.457 5.00351 430.518 4.41217C430.374 4.36581 430.226 4.33645 430.075 4.32501C429.19 4.26608 428.372 4.79692 428.065 5.62896C427.759 6.46101 428.037 7.39567 428.748 7.92511C428.87 8.014 429.002 8.08812 429.141 8.14605C431 8.9559 431.956 11.0306 431.365 12.97C431.319 13.1138 431.289 13.2626 431.278 13.4131C431.219 14.298 431.75 15.116 432.582 15.4227C433.414 15.7294 434.349 15.4514 434.878 14.74C434.967 14.6182 435.042 14.4863 435.1 14.347C435.91 12.4881 437.985 11.5318 439.924 12.1231C440.068 12.1694 440.216 12.1985 440.367 12.21C441.252 12.2689 442.07 11.7383 442.376 10.9063C442.683 10.0743 442.405 9.13961 441.694 8.61017C441.572 8.52126 441.44 8.44688 441.3 8.38897Z" fill="#4D8AF0"/>
<g opacity="0.5">
<path d="M11.6418 286.847H8.38281V305.314H11.6418V286.847Z" fill="#47E6B1"/>
<path d="M19.2456 297.71V294.451H0.778606V297.71H19.2456Z" fill="#47E6B1"/>
</g>
<path opacity="0.5" d="M415.905 286.823C419.505 286.823 422.423 283.905 422.423 280.305C422.423 276.705 419.505 273.787 415.905 273.787C412.305 273.787 409.387 276.705 409.387 280.305C409.387 283.905 412.305 286.823 415.905 286.823Z" fill="#F55F44"/>
<path opacity="0.5" d="M153.3 348.389C151.441 347.579 150.485 345.504 151.076 343.565C151.122 343.421 151.152 343.273 151.163 343.122C151.222 342.237 150.691 341.419 149.859 341.113C149.027 340.806 148.092 341.084 147.563 341.795C147.474 341.917 147.4 342.049 147.342 342.188C146.532 344.047 144.457 345.004 142.518 344.412C142.374 344.366 142.226 344.336 142.075 344.325C141.19 344.266 140.372 344.797 140.065 345.629C139.759 346.461 140.037 347.396 140.748 347.925C140.87 348.014 141.002 348.088 141.141 348.146C143 348.956 143.956 351.031 143.365 352.97C143.319 353.114 143.289 353.263 143.278 353.413C143.219 354.298 143.75 355.116 144.582 355.423C145.414 355.729 146.349 355.451 146.878 354.74C146.967 354.618 147.042 354.486 147.1 354.347C147.91 352.488 149.985 351.532 151.924 352.123C152.068 352.169 152.216 352.199 152.367 352.21C153.252 352.269 154.07 351.738 154.376 350.906C154.683 350.074 154.405 349.14 153.694 348.61C153.572 348.521 153.44 348.447 153.3 348.389Z" fill="#4D8AF0"/>
</svg>
