<svg width="299" height="86" viewBox="0 0 299 86" fill="none" xmlns="http://www.w3.org/2000/svg">
<g opacity="0.5">
<path d="M11.6418 27.8469H8.38281V46.3139H11.6418V27.8469Z" fill="#47E6B1"/>
<path d="M19.2456 38.7099V35.4509H0.778606V38.7099H19.2456Z" fill="#47E6B1"/>
</g>
<path opacity="0.5" d="M190.905 85.823C194.505 85.823 197.423 82.9047 197.423 79.3049C197.423 75.7051 194.505 72.7871 190.905 72.7871C187.305 72.7871 184.387 75.7051 184.387 79.3049C184.387 82.9047 187.305 85.823 190.905 85.823Z" fill="#F55F44"/>
<path opacity="0.5" d="M297.3 8.38897C295.441 7.57912 294.485 5.50446 295.076 3.565C295.122 3.42127 295.152 3.27271 295.163 3.12213C295.222 2.23732 294.691 1.41931 293.859 1.11261C293.027 0.805906 292.092 1.0836 291.563 1.79498C291.474 1.91688 291.4 2.04885 291.342 2.18805C290.532 4.0469 288.457 5.00351 286.518 4.41217C286.374 4.36581 286.226 4.33645 286.075 4.32501C285.19 4.26608 284.372 4.79692 284.065 5.62896C283.759 6.46101 284.037 7.39567 284.748 7.92511C284.87 8.014 285.002 8.08812 285.141 8.14605C287 8.9559 287.956 11.0306 287.365 12.97C287.319 13.1138 287.289 13.2626 287.278 13.4131C287.219 14.298 287.75 15.116 288.582 15.4227C289.414 15.7294 290.349 15.4514 290.878 14.74C290.967 14.6182 291.042 14.4863 291.1 14.347C291.91 12.4881 293.985 11.5318 295.924 12.1231C296.068 12.1694 296.216 12.1985 296.367 12.21C297.252 12.2689 298.07 11.7383 298.376 10.9063C298.683 10.0743 298.405 9.13961 297.694 8.61017C297.572 8.52126 297.44 8.44688 297.3 8.38897Z" fill="#4D8AF0"/>
</svg>
