<svg width="141" height="102" viewBox="0 0 141 102" fill="none" xmlns="http://www.w3.org/2000/svg">
<path opacity="0.5" d="M14.3 94.39C12.4411 93.5801 11.4846 91.5054 12.076 89.566C12.1223 89.4222 12.1515 89.2737 12.163 89.1231C12.2219 88.2383 11.6912 87.4203 10.8591 87.1136C10.0271 86.8069 9.0924 87.0846 8.56296 87.796C8.47416 87.9179 8.39998 88.0498 8.34196 88.189C7.5321 90.0479 5.45744 91.0045 3.51798 90.4131C3.37426 90.3668 3.22557 90.3374 3.07499 90.326C2.19017 90.2671 1.37217 90.7979 1.06547 91.6299C0.758764 92.462 1.03658 93.3966 1.74796 93.9261C1.8698 94.015 2.00172 94.0891 2.14097 94.147C3.99982 94.9569 4.95631 97.0315 4.36497 98.971C4.31867 99.1147 4.2895 99.2635 4.27799 99.4141C4.21906 100.299 4.74978 101.117 5.58182 101.424C6.41387 101.73 7.34853 101.452 7.87797 100.741C7.96718 100.619 8.04168 100.487 8.09995 100.348C8.9098 98.4891 10.9845 97.5327 12.924 98.1241C13.0677 98.1704 13.2164 98.1995 13.367 98.211C14.2518 98.2699 15.0697 97.7393 15.3764 96.9073C15.6831 96.0752 15.4053 95.1406 14.6939 94.6111C14.5718 94.5222 14.4395 94.4479 14.3 94.39Z" fill="#4D8AF0"/>
<path opacity="0.5" d="M136.905 7.823C138.848 7.823 140.423 6.24787 140.423 4.30493C140.423 2.36199 138.848 0.787109 136.905 0.787109C134.962 0.787109 133.387 2.36199 133.387 4.30493C133.387 6.24787 134.962 7.823 136.905 7.823Z" fill="#F55F44"/>
</svg>
