<svg width="286" height="69" viewBox="0 0 286 69" fill="none" xmlns="http://www.w3.org/2000/svg">
<path opacity="0.5" d="M278.905 59.823C282.505 59.823 285.423 56.9047 285.423 53.3049C285.423 49.7051 282.505 46.7871 278.905 46.7871C275.305 46.7871 272.387 49.7051 272.387 53.3049C272.387 56.9047 275.305 59.823 278.905 59.823Z" fill="#F55F44"/>
<path opacity="0.5" d="M126.3 8.38995C124.441 7.5801 123.485 5.50544 124.076 3.56598C124.122 3.42225 124.151 3.27368 124.163 3.1231C124.222 2.23829 123.691 1.42028 122.859 1.11358C122.027 0.806883 121.092 1.08458 120.563 1.79596C120.474 1.91786 120.4 2.04982 120.342 2.18902C119.532 4.04787 117.457 5.00448 115.518 4.41314C115.374 4.36678 115.225 4.33743 115.075 4.32599C114.19 4.26706 113.372 4.7979 113.065 5.62994C112.759 6.46199 113.037 7.39664 113.748 7.92608C113.87 8.01497 114.002 8.0891 114.141 8.14703C116 8.95688 116.956 11.0315 116.365 12.971C116.319 13.1147 116.289 13.2635 116.278 13.4141C116.219 14.2989 116.75 15.1169 117.582 15.4236C118.414 15.7303 119.349 15.4524 119.878 14.741C119.967 14.6192 120.042 14.4872 120.1 14.348C120.91 12.4891 122.984 11.5327 124.924 12.1241C125.068 12.1704 125.216 12.1995 125.367 12.211C126.252 12.2699 127.07 11.7393 127.376 10.9073C127.683 10.0752 127.405 9.14058 126.694 8.61114C126.572 8.52223 126.44 8.44786 126.3 8.38995Z" fill="#4D8AF0"/>
<path d="M3.84399 68.7539C5.59915 68.7539 7.02197 67.3311 7.02197 65.5759C7.02197 63.8208 5.59915 62.3979 3.84399 62.3979C2.08883 62.3979 0.666016 63.8208 0.666016 65.5759C0.666016 67.3311 2.08883 68.7539 3.84399 68.7539Z" fill="#DBDBDB"/>
</svg>
