<svg width="17" height="14" viewBox="0 0 17 14" xmlns="http://www.w3.org/2000/svg">
<path d="M9.71625 13.196L12.2243 4.076L13.0603 7.496C11.9709 7.496 11.0843 7.17933 10.4003 6.546C9.71625 5.91267 9.37425 5.03867 9.37425 3.924C9.37425 2.83467 9.72892 1.948 10.4383 1.264C11.1223 0.605335 11.9836 0.276001 13.0223 0.276001C14.0863 0.276001 14.9729 0.605335 15.6823 1.264C16.3663 1.948 16.7083 2.83467 16.7083 3.924C16.7083 4.25334 16.6829 4.57 16.6323 4.874C16.5816 5.20333 16.4803 5.58333 16.3283 6.014C16.1763 6.44467 15.9609 7.01467 15.6823 7.724L13.4783 13.196H9.71625ZM0.74825 13.196L3.25625 4.076L4.09225 7.496C3.00292 7.496 2.11625 7.17933 1.43225 6.546C0.74825 5.91267 0.40625 5.03867 0.40625 3.924C0.40625 2.83467 0.760917 1.948 1.47025 1.264C2.15425 0.605335 3.01558 0.276001 4.05425 0.276001C5.11825 0.276001 6.00492 0.605335 6.71425 1.264C7.39825 1.948 7.74025 2.83467 7.74025 3.924C7.74025 4.25334 7.71492 4.57 7.66425 4.874C7.61358 5.20333 7.51225 5.58333 7.36025 6.014C7.20825 6.44467 6.99292 7.01467 6.71425 7.724L4.51025 13.196H0.74825Z" />
</svg>
