<svg width="17" height="14" viewBox="0 0 17 14" xmlns="http://www.w3.org/2000/svg">
<path d="M7.28399 0.803986L4.77599 9.92399L3.93999 6.50399C5.02933 6.50399 5.91599 6.82065 6.59999 7.45399C7.28399 8.08732 7.62599 8.96132 7.62599 10.076C7.62599 11.1653 7.27133 12.052 6.56199 12.736C5.87799 13.3947 5.01666 13.724 3.97799 13.724C2.91399 13.724 2.02733 13.3947 1.31799 12.736C0.633992 12.052 0.291992 11.1653 0.291992 10.076C0.291992 9.74665 0.317326 9.42999 0.367992 9.12599C0.418659 8.79665 0.519992 8.41665 0.671992 7.98599C0.823992 7.55532 1.03933 6.98532 1.31799 6.27599L3.52199 0.803986H7.28399ZM16.252 0.803986L13.744 9.92399L12.908 6.50399C13.9973 6.50399 14.884 6.82065 15.568 7.45399C16.252 8.08732 16.594 8.96132 16.594 10.076C16.594 11.1653 16.2393 12.052 15.53 12.736C14.846 13.3947 13.9847 13.724 12.946 13.724C11.882 13.724 10.9953 13.3947 10.286 12.736C9.60199 12.052 9.25999 11.1653 9.25999 10.076C9.25999 9.74665 9.28533 9.42999 9.33599 9.12599C9.38666 8.79665 9.48799 8.41665 9.63999 7.98599C9.79199 7.55532 10.0073 6.98532 10.286 6.27599L12.49 0.803986H16.252Z" />
</svg>
