<svg width="24" height="24" viewBox="0 0 24 24" fill="none" xmlns="http://www.w3.org/2000/svg">
<path d="M20.594 13.1762C20.6457 12.7863 20.6727 12.3934 20.675 12.0001C20.6727 11.6068 20.6457 11.214 20.594 10.8241L23.126 8.84413C23.355 8.65761 23.4159 8.33295 23.27 8.07612L20.87 3.92414C20.7239 3.6684 20.4137 3.5565 20.138 3.66011L17.15 4.86012C16.5297 4.3791 15.8476 3.9836 15.122 3.68415L14.663 0.500132C14.6204 0.209466 14.3688 -0.0044749 14.075 7.1101e-05H9.27503C8.98129 -0.0044749 8.72966 0.209466 8.68701 0.500132L8.23102 3.68012C7.50752 3.98548 6.82599 4.38201 6.20301 4.86012L3.21503 3.66011C2.93939 3.54954 2.62459 3.66309 2.48297 3.92414L0.0830103 8.07612C-0.0687447 8.33194 -0.00713077 8.66066 0.226992 8.84413L2.75897 10.8241C2.7067 11.214 2.67866 11.6068 2.67499 12.0001C2.67866 12.3935 2.7067 12.7863 2.75897 13.1762L0.226992 15.1561C-0.00205576 15.3427 -0.0629107 15.6673 0.0830103 15.9241L2.48297 20.0761C2.6291 20.3319 2.93931 20.4438 3.21503 20.3402L6.20301 19.1401C6.82332 19.6212 7.50543 20.0167 8.23102 20.3161L8.68701 23.4961C8.72966 23.7868 8.98129 24.0008 9.27503 23.9962H14.075C14.3688 24.0008 14.6204 23.7868 14.663 23.4961L15.119 20.3161C15.8423 20.012 16.5238 19.6168 17.147 19.1401L20.135 20.3402C20.4107 20.4507 20.7254 20.3372 20.867 20.0761L23.267 15.9241C23.413 15.6673 23.352 15.3427 23.123 15.1561L20.594 13.1762ZM11.675 16.2001C9.35539 16.2001 7.47498 14.3197 7.47498 12.0001C7.47498 9.68054 9.35539 7.80012 11.675 7.80012C13.9946 7.80012 15.875 9.68054 15.875 12.0001C15.875 13.114 15.4325 14.1823 14.6448 14.97C13.8572 15.7576 12.7889 16.2001 11.675 16.2001Z" fill="white"/>
</svg>
