<svg width="40" height="40" viewBox="0 0 40 40" fill="none" xmlns="http://www.w3.org/2000/svg">
<mask id="mask0_105_932" style="mask-type:alpha" maskUnits="userSpaceOnUse" x="0" y="0" width="40" height="40">
<path d="M20 40C31.0457 40 40 31.0457 40 20C40 8.9543 31.0457 0 20 0C8.9543 0 0 8.9543 0 20C0 31.0457 8.9543 40 20 40Z" fill="white"/>
</mask>
<g mask="url(#mask0_105_932)">
<path d="M24.482 14.285V16.406L29.861 21.785L24.482 27.164V29.285L31.982 21.785L24.482 14.285Z" fill="#3D3691"/>
<path d="M15.482 29.285V27.164L10.103 21.785L15.482 16.406V14.285L7.982 21.785L15.482 29.285Z" fill="#3D3691"/>
<path d="M15.5742 33.3315L22.9517 9.79249L24.3827 10.241L17.0052 33.78L15.5742 33.3315Z" fill="#3D3691"/>
<path d="M17.732 14.285C18.1744 13.2801 18.9771 12.4774 19.982 12.035C18.9771 11.5926 18.1744 10.7898 17.732 9.78497C17.2896 10.7898 16.4869 11.5926 15.482 12.035C16.4869 12.4774 17.2896 13.2801 17.732 14.285Z" fill="#3D3691"/>
<path d="M21.65 8.57899C21.8862 8.04325 22.3143 7.61523 22.85 7.37899C22.3143 7.14275 21.8862 6.71472 21.65 6.17899C21.4138 6.71472 20.9857 7.14275 20.45 7.37899C20.9857 7.61523 21.4138 8.04325 21.65 8.57899Z" fill="#3D3691"/>
<path d="M28.982 14.285C29.2769 13.6151 29.8121 13.0799 30.482 12.785C29.8121 12.49 29.2769 11.9549 28.982 11.285C28.6871 11.9549 28.1519 12.49 27.482 12.785C28.1519 13.0799 28.6871 13.6151 28.982 14.285Z" fill="#3D3691"/>
<path d="M20.001 39.232C30.622 39.232 39.232 30.622 39.232 20.001C39.232 9.38 30.622 0.769989 20.001 0.769989C9.38001 0.769989 0.77 9.38 0.77 20.001C0.77 30.622 9.38001 39.232 20.001 39.232Z" stroke="#3D3691" stroke-width="1.538"/>
</g>
</svg>
